<svg width="101" height="101" viewBox="0 0 101 101" fill="none"
    xmlns="http://www.w3.org/2000/svg">
    <g filter="url(#filter0_b_162_585)">
        <path d="M1 24C1 10.7452 11.7452 0 25 0H77C90.2548 0 101 10.7452 101 24V76C101 89.2548 90.2548 100 77 100H25C11.7452 100 1 89.2548 1 76V24Z" fill="url(#paint0_linear_162_585)" fill-opacity="0.8"/>
        <path d="M1 0H101H1ZM101 76C101 89.8071 89.8071 101 76 101H25C11.1929 101 0 89.8071 0 76H2C2 88.7026 12.2975 99 25 99H77C90.2548 99 101 88.7026 101 76ZM25 101C11.1929 101 0 89.8071 0 76V25C0 11.1929 11.1929 0 25 0C12.2975 0 2 10.7452 2 24V76C2 88.7026 12.2975 99 25 99V101ZM101 0V100V0Z" fill="url(#paint1_linear_162_585)"/>
    </g>
    <path d="M36.0682 77.5097C35.7465 77.2493 33.9234 75.4721 32.0084 73.5724L28.5153 70.11V71.8412C28.5153 73.4805 28.5 73.5877 28.1323 73.9401C27.7799 74.3078 27.6727 74.3231 25.8496 74.3231C23.812 74.3231 23.2298 74.1852 23.0919 73.649C23.046 73.4805 23 70.4164 23 66.8774C23 60.734 23.0153 60.3969 23.2911 60.0599L23.5822 59.6922H30.3538H37.1253L37.4164 60.0599C37.6616 60.3663 37.7075 60.6727 37.7075 62.3273C37.7075 63.9972 37.6156 64.6253 37.2939 64.9777C37.2479 65.0237 36.39 65.085 35.3635 65.1309L33.4944 65.2075L37.4471 69.2061C39.6072 71.3969 41.3844 73.2967 41.3844 73.4039C41.3844 73.6643 37.0794 78 36.8189 78C36.727 78 36.39 77.7855 36.0682 77.5097ZM37.9833 74.5836C38.5808 73.9708 39.0864 73.4345 39.0864 73.3886C39.0864 73.3579 37.1253 71.351 34.7201 68.9457C32.3148 66.5404 30.3538 64.4568 30.3538 64.3189C30.3538 64.1657 30.5223 63.8747 30.7368 63.6755C31.1045 63.3078 31.1657 63.2925 33.4944 63.2925H35.8691V62.3733V61.454H30.3538H24.8384V66.9694V72.4847H25.7423H26.6616L26.7075 70.0181C26.7535 67.6435 26.7688 67.5515 27.1212 67.2604C27.3203 67.1072 27.5501 66.9694 27.6421 66.9694C27.734 66.9694 29.7869 68.9304 32.1922 71.3357C34.6128 73.7409 36.6504 75.702 36.727 75.702C36.8036 75.702 37.3705 75.1964 37.9833 74.5836Z" fill="white"/>
    <path d="M59.3855 77.9081C56.2602 77.4791 54.8813 77.0961 52.8744 76.085C46.685 72.9596 42.9621 66.663 43.2685 59.8607C43.3145 58.8343 43.3911 57.8997 43.437 57.7772C43.529 57.5627 43.3451 57.5627 41.9663 57.6852C38.1209 58.0223 34.0916 57.0111 30.9357 54.9276C29.5721 54.0084 27.366 51.9248 26.3855 50.6072C20.0123 41.9666 23.061 29.6184 32.7281 24.8384C39.4691 21.5292 47.2212 22.7702 52.6139 28.0251C55.2643 30.6295 57.0109 33.9387 57.6237 37.5543C57.8382 38.8106 57.8841 41.507 57.7156 42.61L57.6084 43.3148L59.9524 43.2535C65.3451 43.1156 69.3897 44.6936 73.0206 48.3552C78.4747 53.8705 79.6543 61.7145 76.0694 68.6546C73.7253 73.2047 69.2825 76.5292 64.1195 77.6017C62.9858 77.8468 60.1975 78.0153 59.3855 77.9081ZM63.8284 75.8705C66.9997 75.2117 69.451 73.8788 71.795 71.4889C74.1696 69.0989 75.5331 66.4791 76.1 63.2618C76.4217 61.4234 76.3145 58.3593 75.8855 56.6894C74.4148 51.1588 70.171 46.915 64.5944 45.4136C63.2616 45.0613 62.756 45.0153 60.6877 45C58.0833 45 57.3019 45.1838 57.0262 45.8579C56.9343 46.0571 56.6585 46.7159 56.398 47.3287C56.1376 47.9568 55.9538 48.493 55.9844 48.539C56.0304 48.5696 56.5359 48.4624 57.1181 48.2786C58.5276 47.8189 61.6682 47.6964 63.2309 48.0181C67.2908 48.8914 70.5847 51.4958 72.3312 55.234C74.093 58.9875 73.9092 63.2465 71.8256 66.9694C70.9524 68.532 68.685 70.7994 67.1223 71.6727C64.1042 73.3579 60.7337 73.8022 57.3939 72.9443C50.4691 71.1671 46.302 63.6602 48.4468 56.7813C48.6 56.2911 48.7072 55.8621 48.6766 55.8315C48.6306 55.7855 46.4245 56.6281 45.8423 56.9192C45.4593 57.1184 45.3827 57.2869 45.2295 58.1295C45.1376 58.6657 45.061 59.8301 45.061 60.7033C45.0763 67.9805 50.2852 74.3538 57.4705 75.8705C59.2476 76.2382 62.0359 76.2382 63.8284 75.8705ZM64.1348 71.0446C67.5206 69.8955 70.0178 67.3983 71.2128 63.9819C71.5958 62.8635 71.6265 62.5571 71.6418 60.5348C71.6418 58.4819 71.6111 58.2214 71.2128 57.0877C70.2476 54.376 68.21 51.9861 65.7435 50.7298C62.9092 49.2897 59.4928 49.1365 56.5513 50.3162C53.5638 51.5265 51.2198 54.0084 50.178 57.0877C49.5805 58.8343 49.4886 61.3315 49.9482 63.1393C50.9746 67.1992 53.8855 70.1713 57.9301 71.2591C59.646 71.7187 62.4496 71.6267 64.1348 71.0446ZM44.678 55.4178C50.178 53.7786 54.1306 49.7493 55.6627 44.1727C55.9384 43.1922 55.9997 42.5641 55.9997 40.3886C55.9997 37.2479 55.7546 36.0836 54.483 33.4944C50.7908 25.9415 41.951 22.7089 34.1529 26.0641C29.373 28.117 25.834 32.6825 24.9914 37.9067C24.7156 39.5613 24.8688 42.656 25.2825 44.2953C25.6808 45.8273 26.8451 48.3092 27.7337 49.5042C30.093 52.6602 33.2797 54.7744 37.0178 55.6476C38.0136 55.8774 38.7031 55.9234 40.7713 55.8774C42.9774 55.8315 43.483 55.7702 44.678 55.4178Z" fill="white"/>
    <path d="M58.4968 68.7006C58.1751 68.624 57.93 68.0571 57.93 67.4136C57.93 66.9694 57.93 66.9694 57.0107 66.9694C56.5205 66.9694 55.9383 66.8928 55.7238 66.7855C54.6821 66.3259 55.3408 65.1309 56.6431 65.1309H57.0107V60.5348V55.9387H56.3979C55.9843 55.9387 55.6779 55.8315 55.4787 55.6323C55.0957 55.2493 55.0957 55.0042 55.4481 54.5599C55.6779 54.2841 55.923 54.2075 56.8269 54.1309L57.93 54.0543V53.5794C57.93 52.89 58.313 52.415 58.8492 52.415C59.3854 52.415 59.7684 52.9053 59.7684 53.5947C59.7684 54.0543 59.8144 54.1003 60.228 54.1003C60.6417 54.1003 60.6876 54.0543 60.6876 53.5947C60.6876 52.9053 61.0706 52.415 61.6068 52.415C62.1431 52.415 62.5261 52.89 62.5261 53.5947C62.5261 54.0543 62.572 54.1003 63.338 54.3148C64.4258 54.6365 65.1305 55.1267 65.5442 55.8621C66.3715 57.3175 66.3561 58.5125 65.5135 59.7841L64.9773 60.5655L65.3756 61.071C65.9272 61.8064 66.2336 62.9095 66.1263 63.7827C65.9272 65.2228 64.5483 66.6476 63.1389 66.8928C62.618 66.9847 62.5414 67.046 62.4495 67.5515C62.1584 69.1908 61.0093 69.2214 60.7489 67.6128C60.657 67.0306 60.611 66.9694 60.228 66.9694C59.845 66.9694 59.799 67.0306 59.7224 67.6741C59.6918 68.0571 59.5846 68.4248 59.5233 68.5014C59.3241 68.6852 58.8185 68.7772 58.4968 68.7006ZM63.767 64.7019C64.6709 63.89 64.5024 62.2354 63.4453 61.6838C63.1082 61.5153 62.4801 61.454 60.9174 61.454H58.8492V63.2925V65.1309H61.0706C63.2768 65.1309 63.2921 65.1309 63.767 64.7019ZM63.8436 59.0947C64.2726 58.6657 64.3645 58.4513 64.3645 57.9457C64.3645 57.5933 64.2573 57.1031 64.1347 56.8579C63.7364 56.0766 63.2308 55.9387 60.9174 55.9387H58.8492V57.7772V59.6156H61.086H63.3227L63.8436 59.0947Z" fill="url(#paint2_linear_162_585)"/>
    <path d="M38.2439 52.9666C30.2773 51.4039 25.6505 43.3454 28.4388 35.9151C29.6492 32.6978 32.3915 29.8788 35.5781 28.546C38.9026 27.1671 42.9778 27.305 46.2104 28.929C48.8302 30.2465 51.2661 32.897 52.3232 35.578C53.0433 37.4165 53.2271 38.4276 53.2271 40.4652C53.2118 42.0738 53.1505 42.5947 52.8135 43.7284C51.45 48.2939 48.1255 51.5571 43.606 52.7827C42.3344 53.1351 39.5767 53.227 38.2439 52.9666ZM43.2843 51.0362C48.0642 49.8259 51.496 45.383 51.496 40.4346C51.496 38.5961 51.1589 37.156 50.301 35.4095C49.7035 34.1992 49.3817 33.7396 48.2787 32.6518C46.8232 31.1964 45.7815 30.5223 44.1269 29.9401C40.8943 28.8217 37.2634 29.266 34.3831 31.1351C32.8664 32.1309 31.411 33.7702 30.599 35.4401C29.7564 37.1407 29.4347 38.4889 29.4347 40.4805C29.4347 44.6783 31.7634 48.3705 35.7007 50.3468C37.7076 51.358 40.9096 51.649 43.2843 51.0362Z" fill="white"/>
    <path d="M39.9289 49.2897C39.6838 49.1212 39.6225 48.8301 39.5766 47.9109L39.5153 46.7465L38.8718 46.5933C37.6768 46.2716 37.2938 46.1184 36.6044 45.6894C35.7924 45.1685 35.3635 44.617 35.103 43.7284C34.9345 43.1769 34.9345 43.0237 35.1643 42.6866C35.3328 42.4262 35.5473 42.3036 35.8537 42.3036C36.3593 42.3036 36.5278 42.4721 36.7729 43.2535C36.9874 43.9123 37.447 44.2799 38.5348 44.6936C40.6949 45.5056 44.142 44.5251 44.142 43.1156C44.142 42.1198 42.7325 41.4304 40.3426 41.2312C36.6044 40.9248 34.4902 39.1936 35.103 36.9415C35.4247 35.7159 36.8342 34.6741 38.7952 34.1685L39.5459 33.9694V32.9582C39.5459 31.7019 39.8217 31.227 40.5111 31.3036C41.1392 31.3649 41.3844 31.8398 41.3844 33.0501V33.9694L42.1351 34.1685C43.3607 34.4749 44.6629 35.1797 45.1685 35.7772C46.0877 36.9109 46.149 38.1978 45.2757 38.4123C44.7242 38.5501 44.4178 38.3357 44.1727 37.6309C43.8969 36.8189 43.7284 36.6504 42.7632 36.1908C42.0585 35.8691 41.6908 35.8078 40.4651 35.8078C39.2548 35.7925 38.8718 35.8538 38.2437 36.1448C36.7117 36.8496 36.3746 37.6462 37.2479 38.4735C37.8913 39.071 38.9331 39.3774 40.8022 39.546C42.4874 39.6838 43.2841 39.9136 44.2493 40.5111C45.5208 41.3231 46.1183 42.4875 45.8426 43.6825C45.5515 44.9694 44.5557 45.7967 42.5181 46.4554L41.415 46.7925L41.3537 47.9415C41.2924 49.1059 41.0779 49.5042 40.4651 49.5042C40.3273 49.5042 40.0821 49.4123 39.9289 49.2897Z" fill="white"/>
    <path d="M63.7523 40.9248C63.4766 40.649 63.4459 40.4192 63.4459 38.5808C63.4459 35.7925 63.3846 35.8691 65.7593 35.8691C66.7551 35.8691 67.5824 35.8231 67.5824 35.7618C67.5824 35.7006 65.8206 33.8774 63.6757 31.7326C61.2858 29.3426 59.769 27.7033 59.769 27.5195C59.769 27.0599 63.9055 23 64.3651 23C64.6409 23 65.698 23.9652 68.6702 26.922L72.6075 30.8593L72.6688 28.9903C72.7147 27.3357 72.7454 27.0905 73.0058 26.8914C73.2356 26.7382 73.8484 26.6769 75.503 26.6769C77.6326 26.6769 77.6938 26.6922 77.9236 27.0446C78.1381 27.351 78.1534 28.2549 78.1228 34.1072C78.0768 40.5265 78.0615 40.8022 77.7858 41.0167C77.5406 41.2006 76.3303 41.2312 70.769 41.2312C64.2579 41.2312 64.0434 41.2159 63.7523 40.9248ZM76.315 33.8774V28.3621H75.4111H74.4919L74.4459 30.89C74.3693 35.0571 74.3846 35.0571 68.808 29.4958C66.4794 27.1825 64.5183 25.2981 64.4417 25.2981C64.3498 25.2981 63.7677 25.8189 63.1395 26.4471L61.9905 27.5961L66.4027 32.0084C68.8234 34.429 70.7997 36.5279 70.7997 36.6811C70.7997 36.8189 70.6618 37.0794 70.4933 37.2479C70.2175 37.5237 69.9877 37.5543 67.7356 37.5543H65.2844V38.4735V39.3928H70.7997H76.315V33.8774Z" fill="white"/>
    <defs>
        <filter id="filter0_b_162_585" x="-49.3555" y="-49.3555" width="199.711" height="199.711" filterUnits="userSpaceOnUse" color-interpolation-filters="sRGB">
            <feFlood flood-opacity="0" result="BackgroundImageFix"/>
            <feGaussianBlur in="BackgroundImageFix" stdDeviation="24.6777"/>
            <feComposite in2="SourceAlpha" operator="in" result="effect1_backgroundBlur_162_585"/>
            <feBlend mode="normal" in="SourceGraphic" in2="effect1_backgroundBlur_162_585" result="shape"/>
        </filter>
        <linearGradient id="paint0_linear_162_585" x1="51" y1="0" x2="33.3948" y2="101.465" gradientUnits="userSpaceOnUse">
            <stop stop-color="#22232D"/>
            <stop offset="1" stop-color="#1A1B23" stop-opacity="0"/>
        </linearGradient>
        <linearGradient id="paint1_linear_162_585" x1="69.0427" y1="-1.45466e-06" x2="40.8867" y2="11.3172" gradientUnits="userSpaceOnUse">
            <stop stop-color="white"/>
            <stop offset="0.0001" stop-color="white"/>
            <stop offset="1" stop-color="white" stop-opacity="0"/>
        </linearGradient>
        <linearGradient id="paint2_linear_162_585" x1="59.8462" y1="53.0514" x2="50.0909" y2="60.0024" gradientUnits="userSpaceOnUse">
            <stop stop-color="#F7931A"/>
            <stop offset="1" stop-color="#8E2C2C"/>
        </linearGradient>
    </defs>
</svg>
