<svg width="1728" height="12716" viewBox="0 0 1728 12716" fill="none" xmlns="http://www.w3.org/2000/svg">
<g opacity="0.43" filter="url(#filter0_f_6411_11)">
<path d="M1662.68 159.869C1662.68 765.33 1586.96 330.949 1455.62 330.949C1324.29 330.949 1044.79 616.614 1044.79 437.443C1044.79 258.272 1381.81 -67 1513.14 -67C1644.47 -67 1662.68 -19.3016 1662.68 159.869Z" fill="white"/>
</g>
<g opacity="0.43" filter="url(#filter1_f_6411_11)">
<path d="M24.9999 1500.87C24.9999 2106.33 100.727 1671.95 232.059 1671.95C363.391 1671.95 642.898 1957.61 642.898 1778.44C642.898 1599.27 305.873 1274 174.541 1274C43.2091 1274 24.9999 1321.7 24.9999 1500.87Z" fill="white"/>
</g>
<g opacity="0.3" filter="url(#filter2_f_6411_11)">
<ellipse cx="1038.15" cy="7641.05" rx="176.885" ry="241.316" fill="white"/>
</g>
<g opacity="0.43" filter="url(#filter3_f_6411_11)">
<path d="M909.396 4533.45C909.396 4735.66 934.688 4590.59 978.55 4590.59C1022.41 4590.59 1115.76 4685.99 1115.76 4626.15C1115.76 4566.32 1003.2 4457.68 959.34 4457.68C915.478 4457.68 909.396 4473.61 909.396 4533.45Z" fill="white"/>
</g>
<g opacity="0.43" filter="url(#filter4_f_6411_11)">
<path d="M268.19 3889.15C268.19 4250.24 313.353 3991.18 391.678 3991.18C470.003 3991.18 636.699 4161.54 636.699 4054.69C636.699 3947.83 435.7 3753.84 357.375 3753.84C279.05 3753.84 268.19 3782.29 268.19 3889.15Z" fill="white"/>
</g>
<g opacity="0.43" filter="url(#filter5_f_6411_11)">
<path d="M1480.59 3500.91C1480.59 3630.9 1496.85 3537.64 1525.04 3537.64C1553.24 3537.64 1613.25 3598.97 1613.25 3560.5C1613.25 3522.03 1540.89 3452.2 1512.69 3452.2C1484.5 3452.2 1480.59 3462.44 1480.59 3500.91Z" fill="white"/>
</g>
<g opacity="0.43" filter="url(#filter6_f_6411_11)">
<path d="M22.9999 8678.71C22.9999 9284.17 98.7266 8849.79 230.059 8849.79C361.391 8849.79 640.898 9135.45 640.898 8956.28C640.898 8777.11 303.873 8451.84 172.541 8451.84C41.209 8451.84 22.9999 8499.54 22.9999 8678.71Z" fill="white"/>
</g>
<g opacity="0.3" filter="url(#filter7_f_6411_11)">
<path d="M2025 10385.2C2025 10990.7 1949.27 10556.3 1817.94 10556.3C1686.61 10556.3 1407.1 10842 1407.1 10662.8C1407.1 10483.6 1744.13 10158.4 1875.46 10158.4C2006.79 10158.4 2025 10206.1 2025 10385.2Z" fill="white"/>
</g>
<g opacity="0.43" filter="url(#filter8_f_6411_11)">
<path d="M22.9999 11879C22.9999 12484.5 98.7266 12050.1 230.059 12050.1C361.391 12050.1 640.898 12335.8 640.898 12156.6C640.898 11977.4 303.873 11652.2 172.541 11652.2C41.209 11652.2 22.9999 11699.9 22.9999 11879Z" fill="white"/>
</g>
<g opacity="0.3" filter="url(#filter9_f_6411_11)">
<ellipse cx="1352.86" cy="2762.43" rx="231.424" ry="315.722" fill="white"/>
</g>
<g opacity="0.1" filter="url(#filter10_f_6411_11)">
<ellipse cx="1215.6" cy="2305.01" rx="283.588" ry="386.888" fill="white"/>
</g>
<g opacity="0.43" filter="url(#filter11_f_6411_11)">
<path d="M-0.000793457 5957.63C-0.000793457 6559.79 86.9373 6127.78 237.713 6127.78C388.49 6127.78 709.379 6411.88 709.379 6233.69C709.379 6055.5 322.456 5732 171.68 5732C20.9042 5732 -0.000793457 5779.44 -0.000793457 5957.63Z" fill="white"/>
</g>
<g opacity="0.3" filter="url(#filter12_f_6411_11)">
<path d="M2028.5 6242.63C2028.5 6844.79 1941.57 6412.78 1790.79 6412.78C1640.01 6412.78 1319.12 6696.88 1319.12 6518.69C1319.12 6340.5 1706.05 6017 1856.82 6017C2007.6 6017 2028.5 6064.44 2028.5 6242.63Z" fill="white"/>
</g>
<defs>
<filter id="filter0_f_6411_11" x="544.785" y="-567" width="1617.9" height="1563.5" filterUnits="userSpaceOnUse" color-interpolation-filters="sRGB">
<feFlood flood-opacity="0" result="BackgroundImageFix"/>
<feBlend mode="normal" in="SourceGraphic" in2="BackgroundImageFix" result="shape"/>
<feGaussianBlur stdDeviation="250" result="effect1_foregroundBlur_6411_11"/>
</filter>
<filter id="filter1_f_6411_11" x="-475" y="774" width="1617.9" height="1563.5" filterUnits="userSpaceOnUse" color-interpolation-filters="sRGB">
<feFlood flood-opacity="0" result="BackgroundImageFix"/>
<feBlend mode="normal" in="SourceGraphic" in2="BackgroundImageFix" result="shape"/>
<feGaussianBlur stdDeviation="250" result="effect1_foregroundBlur_6411_11"/>
</filter>
<filter id="filter2_f_6411_11" x="321.27" y="6859.73" width="1433.77" height="1562.63" filterUnits="userSpaceOnUse" color-interpolation-filters="sRGB">
<feFlood flood-opacity="0" result="BackgroundImageFix"/>
<feBlend mode="normal" in="SourceGraphic" in2="BackgroundImageFix" result="shape"/>
<feGaussianBlur stdDeviation="270" result="effect1_foregroundBlur_6411_11"/>
</filter>
<filter id="filter3_f_6411_11" x="409.395" y="3957.68" width="1206.37" height="1188.2" filterUnits="userSpaceOnUse" color-interpolation-filters="sRGB">
<feFlood flood-opacity="0" result="BackgroundImageFix"/>
<feBlend mode="normal" in="SourceGraphic" in2="BackgroundImageFix" result="shape"/>
<feGaussianBlur stdDeviation="250" result="effect1_foregroundBlur_6411_11"/>
</filter>
<filter id="filter4_f_6411_11" x="-231.809" y="3253.84" width="1368.51" height="1336.07" filterUnits="userSpaceOnUse" color-interpolation-filters="sRGB">
<feFlood flood-opacity="0" result="BackgroundImageFix"/>
<feBlend mode="normal" in="SourceGraphic" in2="BackgroundImageFix" result="shape"/>
<feGaussianBlur stdDeviation="250" result="effect1_foregroundBlur_6411_11"/>
</filter>
<filter id="filter5_f_6411_11" x="980.586" y="2952.2" width="1132.66" height="1120.98" filterUnits="userSpaceOnUse" color-interpolation-filters="sRGB">
<feFlood flood-opacity="0" result="BackgroundImageFix"/>
<feBlend mode="normal" in="SourceGraphic" in2="BackgroundImageFix" result="shape"/>
<feGaussianBlur stdDeviation="250" result="effect1_foregroundBlur_6411_11"/>
</filter>
<filter id="filter6_f_6411_11" x="-477" y="7951.84" width="1617.9" height="1563.5" filterUnits="userSpaceOnUse" color-interpolation-filters="sRGB">
<feFlood flood-opacity="0" result="BackgroundImageFix"/>
<feBlend mode="normal" in="SourceGraphic" in2="BackgroundImageFix" result="shape"/>
<feGaussianBlur stdDeviation="250" result="effect1_foregroundBlur_6411_11"/>
</filter>
<filter id="filter7_f_6411_11" x="907.102" y="9658.37" width="1617.9" height="1563.5" filterUnits="userSpaceOnUse" color-interpolation-filters="sRGB">
<feFlood flood-opacity="0" result="BackgroundImageFix"/>
<feBlend mode="normal" in="SourceGraphic" in2="BackgroundImageFix" result="shape"/>
<feGaussianBlur stdDeviation="250" result="effect1_foregroundBlur_6411_11"/>
</filter>
<filter id="filter8_f_6411_11" x="-477" y="11152.2" width="1617.9" height="1563.5" filterUnits="userSpaceOnUse" color-interpolation-filters="sRGB">
<feFlood flood-opacity="0" result="BackgroundImageFix"/>
<feBlend mode="normal" in="SourceGraphic" in2="BackgroundImageFix" result="shape"/>
<feGaussianBlur stdDeviation="250" result="effect1_foregroundBlur_6411_11"/>
</filter>
<filter id="filter9_f_6411_11" x="581.438" y="1906.71" width="1542.85" height="1711.44" filterUnits="userSpaceOnUse" color-interpolation-filters="sRGB">
<feFlood flood-opacity="0" result="BackgroundImageFix"/>
<feBlend mode="normal" in="SourceGraphic" in2="BackgroundImageFix" result="shape"/>
<feGaussianBlur stdDeviation="270" result="effect1_foregroundBlur_6411_11"/>
</filter>
<filter id="filter10_f_6411_11" x="392.016" y="1378.13" width="1647.18" height="1853.78" filterUnits="userSpaceOnUse" color-interpolation-filters="sRGB">
<feFlood flood-opacity="0" result="BackgroundImageFix"/>
<feBlend mode="normal" in="SourceGraphic" in2="BackgroundImageFix" result="shape"/>
<feGaussianBlur stdDeviation="270" result="effect1_foregroundBlur_6411_11"/>
</filter>
<filter id="filter11_f_6411_11" x="-500" y="5232" width="1709.38" height="1560.42" filterUnits="userSpaceOnUse" color-interpolation-filters="sRGB">
<feFlood flood-opacity="0" result="BackgroundImageFix"/>
<feBlend mode="normal" in="SourceGraphic" in2="BackgroundImageFix" result="shape"/>
<feGaussianBlur stdDeviation="250" result="effect1_foregroundBlur_6411_11"/>
</filter>
<filter id="filter12_f_6411_11" x="819.125" y="5517" width="1709.38" height="1560.42" filterUnits="userSpaceOnUse" color-interpolation-filters="sRGB">
<feFlood flood-opacity="0" result="BackgroundImageFix"/>
<feBlend mode="normal" in="SourceGraphic" in2="BackgroundImageFix" result="shape"/>
<feGaussianBlur stdDeviation="250" result="effect1_foregroundBlur_6411_11"/>
</filter>
</defs>
</svg>
