<svg width="75" height="16" viewBox="0 0 75 16" fill="none"
    xmlns="http://www.w3.org/2000/svg">
    <g clip-path="url(#clip0_178_969)">
        <path d="M4.5297 6.95609L7.44751 4.03839L10.3669 6.95763L12.0647 5.25984L7.44751 0.642578L2.83191 5.2583L4.5297 6.95609Z" fill="white"/>
        <path d="M3.33072 8.15479L1.63297 6.45703L-0.0648762 8.15487L1.63288 9.85263L3.33072 8.15479Z" fill="white"/>
        <path d="M4.52969 9.35396L7.4475 12.2717L10.3667 9.35254L12.0655 11.0494L12.0646 11.0503L7.4475 15.6675L2.83178 11.0519L2.82941 11.0495L4.52969 9.35396Z" fill="white"/>
        <path d="M13.2622 9.85312L14.96 8.15527L13.2623 6.45752L11.5644 8.15536L13.2622 9.85312Z" fill="white"/>
        <path d="M9.16962 8.15398H9.17033L7.4475 6.43115L6.17431 7.70434H6.17419L6.02799 7.85066L5.72622 8.15244L5.72385 8.15481L5.72622 8.1573L7.4475 9.87858L9.17033 8.15576L9.17116 8.15481L9.16962 8.15398Z" fill="white"/>
        <path d="M17.6068 4.2832H21.2994C22.2159 4.2832 22.9089 4.5184 23.3786 4.9888C23.7421 5.35312 23.9238 5.80465 23.9238 6.34328V6.36607C23.9238 6.59367 23.8956 6.79482 23.839 6.96926C23.7825 7.14394 23.7071 7.30117 23.6127 7.44156C23.5186 7.58206 23.4092 7.70536 23.2849 7.81145C23.1604 7.91777 23.0266 8.00891 22.8834 8.08462C23.3441 8.2593 23.7067 8.49628 23.9711 8.79604C24.2354 9.09591 24.3677 9.51137 24.3677 10.0424V10.0651C24.3677 10.4294 24.2977 10.748 24.1575 11.0213C24.0174 11.2944 23.8166 11.5221 23.5552 11.7042C23.2938 11.8864 22.9794 12.0229 22.612 12.114C22.2446 12.205 21.8375 12.2505 21.3907 12.2505H17.6068V4.2832ZM20.9302 7.50422C21.3173 7.50422 21.6247 7.438 21.8522 7.30509C22.0798 7.1723 22.1936 6.95787 22.1936 6.66203V6.63924C22.1936 6.37378 22.0948 6.17086 21.8976 6.03036C21.7003 5.88997 21.4157 5.81972 21.044 5.81972H19.314V7.50422H20.9302ZM21.397 10.7141C21.7839 10.7141 22.0873 10.6441 22.3075 10.5036C22.5275 10.3632 22.6376 10.1449 22.6376 9.84898V9.82632C22.6376 9.56074 22.5351 9.35022 22.3303 9.19453C22.1253 9.03919 21.7953 8.96134 21.34 8.96134H19.314V10.7142L21.397 10.7141Z" fill="white"/>
        <path d="M26.5668 4.2832H28.3198V12.2507H26.5668V4.2832Z" fill="white"/>
        <path d="M30.9748 4.2832H32.5908L36.3242 9.18895V4.2832H38.0543V12.2507H36.5634L32.7047 7.18571V12.2507H30.9748V4.2832Z" fill="white"/>
        <path d="M43.3611 4.22656H44.9773L48.3921 12.2509H46.5595L45.831 10.464H42.4619L41.7335 12.2509H39.9462L43.3611 4.22656ZM45.205 8.91586L44.1464 6.33221L43.0881 8.91586H45.205Z" fill="white"/>
        <path d="M50.2842 4.2832H51.9006L55.6338 9.18895V4.2832H57.3639V12.2507H55.8729L52.0143 7.18571V12.2507H50.2842V4.2832Z" fill="white"/>
        <path d="M63.6723 12.387C63.0877 12.387 62.5454 12.2807 62.0445 12.0684C61.5436 11.8561 61.1112 11.5657 60.747 11.1976C60.3827 10.8296 60.098 10.3952 59.8934 9.89442C59.6885 9.39352 59.5861 8.85856 59.5861 8.28943V8.26677C59.5861 7.69763 59.6885 7.16469 59.8934 6.66759C60.0981 6.17061 60.3827 5.73427 60.747 5.35868C61.1111 4.9831 61.5475 4.68702 62.0558 4.4708C62.564 4.25459 63.1259 4.14648 63.7405 4.14648C64.1121 4.14648 64.4516 4.17698 64.7589 4.2375C65.0663 4.29838 65.345 4.38168 65.5957 4.48789C65.8462 4.59422 66.0773 4.72321 66.2901 4.87487C66.5022 5.02677 66.6996 5.19361 66.8818 5.37577L65.7665 6.6619C65.455 6.38124 65.1384 6.161 64.816 6.00174C64.4934 5.84249 64.1312 5.76275 63.729 5.76275C63.3951 5.76275 63.0858 5.8273 62.8015 5.95629C62.5169 6.08529 62.2721 6.26353 62.0672 6.49113C61.8625 6.71874 61.7031 6.98254 61.5891 7.28217C61.4755 7.58205 61.4187 7.90257 61.4187 8.24398V8.26665C61.4187 8.60806 61.4755 8.93071 61.5891 9.23403C61.7031 9.5377 61.8602 9.80316 62.0616 10.0308C62.2625 10.2584 62.5054 10.4387 62.7899 10.5715C63.0747 10.7044 63.3876 10.7707 63.729 10.7707C64.1845 10.7707 64.5692 10.6872 64.8841 10.5203C65.1991 10.3535 65.5122 10.1258 65.8233 9.83734L66.9387 10.9642C66.7338 11.1843 66.521 11.3817 66.3014 11.556C66.0812 11.7307 65.8404 11.8805 65.5785 12.0058C65.3168 12.1308 65.0301 12.2259 64.7193 12.2902C64.4079 12.3546 64.059 12.387 63.6723 12.387Z" fill="white"/>
        <path d="M69.0017 4.2832H75V5.84262H70.7319V7.45888H74.488V9.01819H70.7319V10.6914H75.0572V12.2507H69.0017V4.2832Z" fill="white"/>
    </g>
    <defs>
        <clipPath id="clip0_178_969">
            <rect width="75" height="15.0247" fill="white" transform="translate(0 0.642578)"/>
        </clipPath>
    </defs>
</svg>
