<svg width="75" height="31" viewBox="0 0 75 31" fill="none"
    xmlns="http://www.w3.org/2000/svg">
    <path d="M53.4554 22.6406V3.36719H57.3295V22.6406H53.4554Z" fill="#F7A600"/>
    <path d="M8.30523 28.3657H0V9.09229H7.97126C11.8453 9.09229 14.1027 11.2037 14.1027 14.5063C14.1027 16.6442 12.6529 18.0257 11.6495 18.4857C12.8472 19.0268 14.3804 20.2447 14.3804 22.8175C14.3804 26.4166 11.8453 28.3657 8.30523 28.3657ZM7.66462 12.4495H3.87405V16.8889H7.66462C9.30871 16.8889 10.2286 15.9955 10.2286 14.6685C10.2286 13.343 9.30871 12.4495 7.66462 12.4495ZM7.91509 20.2727H3.87405V25.0099H7.91509C9.67146 25.0099 10.5064 23.9278 10.5064 22.6274C10.5064 21.3284 9.66991 20.2727 7.91509 20.2727Z" fill="white"/>
    <path d="M26.1967 20.4614V28.3657H22.35V20.4614L16.3856 9.09229H20.5936L24.3007 16.8609L27.9517 9.09229H32.1597L26.1967 20.4614Z" fill="white"/>
    <path d="M43.1428 28.3657H34.8376V9.09229H42.8089C46.6829 9.09229 48.9403 11.2037 48.9403 14.5063C48.9403 16.6442 47.4905 18.0257 46.4871 18.4857C47.6848 19.0268 49.2181 20.2447 49.2181 22.8175C49.2181 26.4166 46.6829 28.3657 43.1428 28.3657ZM42.5022 12.4495H38.7116V16.8889H42.5022C44.1463 16.8889 45.0662 15.9955 45.0662 14.6685C45.0662 13.343 44.1463 12.4495 42.5022 12.4495ZM42.7527 20.2727H38.7116V25.0099H42.7527C44.5091 25.0099 45.344 23.9278 45.344 22.6274C45.344 21.3284 44.5091 20.2727 42.7527 20.2727Z" fill="white"/>
    <path d="M69.8155 12.4495V28.3672H65.9415V12.4495H60.7573V9.09229H74.9997V12.4495H69.8155Z" fill="white"/>
</svg>
