<svg width="667" height="369" viewBox="0 0 667 369" fill="none" xmlns="http://www.w3.org/2000/svg">
<g filter="url(#filter0_b_6508_324)">
<rect x="1" y="1" width="665" height="367" rx="32" fill="url(#paint0_linear_6508_324)"/>
<rect x="1" y="1" width="665" height="367" rx="32" stroke="url(#paint1_linear_6508_324)" stroke-width="2"/>
</g>
<path d="M609.627 318.202C608.931 318.202 608.311 318.03 607.767 317.686C607.223 317.342 606.795 316.846 606.483 316.198C606.179 315.542 606.027 314.762 606.027 313.858C606.027 312.954 606.179 312.178 606.483 311.53C606.795 310.874 607.223 310.374 607.767 310.03C608.311 309.686 608.931 309.514 609.627 309.514C610.323 309.514 610.943 309.686 611.487 310.03C612.031 310.374 612.455 310.874 612.759 311.53C613.071 312.178 613.227 312.954 613.227 313.858C613.227 314.762 613.071 315.542 612.759 316.198C612.455 316.846 612.031 317.342 611.487 317.686C610.943 318.03 610.323 318.202 609.627 318.202ZM609.627 316.558C610.139 316.558 610.539 316.338 610.827 315.898C611.123 315.458 611.271 314.778 611.271 313.858C611.271 312.938 611.123 312.258 610.827 311.818C610.539 311.378 610.139 311.158 609.627 311.158C609.123 311.158 608.723 311.378 608.427 311.818C608.139 312.258 607.995 312.938 607.995 313.858C607.995 314.778 608.139 315.458 608.427 315.898C608.723 316.338 609.123 316.558 609.627 316.558ZM622.835 311.506C623.643 311.506 624.283 311.746 624.755 312.226C625.235 312.698 625.475 313.41 625.475 314.362V318.058H623.603V314.65C623.603 314.138 623.495 313.758 623.279 313.51C623.071 313.254 622.771 313.126 622.379 313.126C621.939 313.126 621.591 313.27 621.335 313.558C621.079 313.838 620.951 314.258 620.951 314.818V318.058H619.079V314.65C619.079 313.634 618.671 313.126 617.855 313.126C617.423 313.126 617.079 313.27 616.823 313.558C616.567 313.838 616.439 314.258 616.439 314.818V318.058H614.567V311.602H616.355V312.346C616.595 312.074 616.887 311.866 617.231 311.722C617.583 311.578 617.967 311.506 618.383 311.506C618.839 311.506 619.251 311.598 619.619 311.782C619.987 311.958 620.283 312.218 620.507 312.562C620.771 312.226 621.103 311.966 621.503 311.782C621.911 311.598 622.355 311.506 622.835 311.506Z" fill="black"/>
<path d="M47.3649 318.202C46.6689 318.202 46.0489 318.03 45.5049 317.686C44.9609 317.342 44.5329 316.846 44.2209 316.198C43.9169 315.542 43.7649 314.762 43.7649 313.858C43.7649 312.954 43.9169 312.178 44.2209 311.53C44.5329 310.874 44.9609 310.374 45.5049 310.03C46.0489 309.686 46.6689 309.514 47.3649 309.514C48.0609 309.514 48.6809 309.686 49.2249 310.03C49.7689 310.374 50.1929 310.874 50.4969 311.53C50.8089 312.178 50.9649 312.954 50.9649 313.858C50.9649 314.762 50.8089 315.542 50.4969 316.198C50.1929 316.846 49.7689 317.342 49.2249 317.686C48.6809 318.03 48.0609 318.202 47.3649 318.202ZM47.3649 316.558C47.8769 316.558 48.2769 316.338 48.5649 315.898C48.8609 315.458 49.0089 314.778 49.0089 313.858C49.0089 312.938 48.8609 312.258 48.5649 311.818C48.2769 311.378 47.8769 311.158 47.3649 311.158C46.8609 311.158 46.4609 311.378 46.1649 311.818C45.8769 312.258 45.7329 312.938 45.7329 313.858C45.7329 314.778 45.8769 315.458 46.1649 315.898C46.4609 316.338 46.8609 316.558 47.3649 316.558ZM58.4759 315.526L57.5759 316.414V318.058H55.7039V309.154H57.5759V314.194L60.3119 311.602H62.5439L59.8559 314.338L62.7839 318.058H60.5159L58.4759 315.526Z" fill="#B5B8C3"/>
<path d="M34.1616 277.94V286.34H32.2176V279.5H30.5376V277.94H34.1616ZM39.2208 286.484C38.5248 286.484 37.9048 286.312 37.3608 285.968C36.8168 285.624 36.3888 285.128 36.0768 284.48C35.7728 283.824 35.6208 283.044 35.6208 282.14C35.6208 281.236 35.7728 280.46 36.0768 279.812C36.3888 279.156 36.8168 278.656 37.3608 278.312C37.9048 277.968 38.5248 277.796 39.2208 277.796C39.9168 277.796 40.5368 277.968 41.0808 278.312C41.6248 278.656 42.0488 279.156 42.3528 279.812C42.6648 280.46 42.8208 281.236 42.8208 282.14C42.8208 283.044 42.6648 283.824 42.3528 284.48C42.0488 285.128 41.6248 285.624 41.0808 285.968C40.5368 286.312 39.9168 286.484 39.2208 286.484ZM39.2208 284.84C39.7328 284.84 40.1328 284.62 40.4208 284.18C40.7168 283.74 40.8648 283.06 40.8648 282.14C40.8648 281.22 40.7168 280.54 40.4208 280.1C40.1328 279.66 39.7328 279.44 39.2208 279.44C38.7168 279.44 38.3168 279.66 38.0208 280.1C37.7328 280.54 37.5888 281.22 37.5888 282.14C37.5888 283.06 37.7328 283.74 38.0208 284.18C38.3168 284.62 38.7168 284.84 39.2208 284.84ZM47.3653 286.484C46.6693 286.484 46.0493 286.312 45.5053 285.968C44.9613 285.624 44.5333 285.128 44.2213 284.48C43.9173 283.824 43.7653 283.044 43.7653 282.14C43.7653 281.236 43.9173 280.46 44.2213 279.812C44.5333 279.156 44.9613 278.656 45.5053 278.312C46.0493 277.968 46.6693 277.796 47.3653 277.796C48.0613 277.796 48.6813 277.968 49.2253 278.312C49.7693 278.656 50.1933 279.156 50.4973 279.812C50.8093 280.46 50.9653 281.236 50.9653 282.14C50.9653 283.044 50.8093 283.824 50.4973 284.48C50.1933 285.128 49.7693 285.624 49.2253 285.968C48.6813 286.312 48.0613 286.484 47.3653 286.484ZM47.3653 284.84C47.8773 284.84 48.2773 284.62 48.5653 284.18C48.8613 283.74 49.0093 283.06 49.0093 282.14C49.0093 281.22 48.8613 280.54 48.5653 280.1C48.2773 279.66 47.8773 279.44 47.3653 279.44C46.8613 279.44 46.4613 279.66 46.1653 280.1C45.8773 280.54 45.7333 281.22 45.7333 282.14C45.7333 283.06 45.8773 283.74 46.1653 284.18C46.4613 284.62 46.8613 284.84 47.3653 284.84ZM58.4763 283.808L57.5763 284.696V286.34H55.7043V277.436H57.5763V282.476L60.3123 279.884H62.5443L59.8563 282.62L62.7843 286.34H60.5163L58.4763 283.808Z" fill="#B5B8C3"/>
<path d="M35.1712 249.107V257.507H33.2272V250.667H31.5472V249.107H35.1712ZM39.5104 252.263C40.6944 252.263 41.5664 252.499 42.1264 252.971C42.6944 253.443 42.9784 254.075 42.9784 254.867C42.9784 255.379 42.8504 255.847 42.5944 256.271C42.3384 256.687 41.9464 257.023 41.4184 257.279C40.8984 257.527 40.2544 257.651 39.4864 257.651C38.8944 257.651 38.3104 257.575 37.7344 257.423C37.1664 257.263 36.6824 257.039 36.2824 256.751L37.0504 255.263C37.3704 255.503 37.7384 255.691 38.1544 255.827C38.5704 255.955 38.9984 256.019 39.4384 256.019C39.9264 256.019 40.3104 255.923 40.5904 255.731C40.8704 255.539 41.0104 255.271 41.0104 254.927C41.0104 254.567 40.8624 254.295 40.5664 254.111C40.2784 253.927 39.7744 253.835 39.0544 253.835H36.9064L37.3384 249.107H42.4624V250.667H38.9584L38.8264 252.263H39.5104ZM47.3671 257.651C46.6711 257.651 46.0511 257.479 45.5071 257.135C44.9631 256.791 44.5351 256.295 44.2231 255.647C43.9191 254.991 43.7671 254.211 43.7671 253.307C43.7671 252.403 43.9191 251.627 44.2231 250.979C44.5351 250.323 44.9631 249.823 45.5071 249.479C46.0511 249.135 46.6711 248.963 47.3671 248.963C48.0631 248.963 48.6831 249.135 49.2271 249.479C49.7711 249.823 50.1951 250.323 50.4991 250.979C50.8111 251.627 50.9671 252.403 50.9671 253.307C50.9671 254.211 50.8111 254.991 50.4991 255.647C50.1951 256.295 49.7711 256.791 49.2271 257.135C48.6831 257.479 48.0631 257.651 47.3671 257.651ZM47.3671 256.007C47.8791 256.007 48.2791 255.787 48.5671 255.347C48.8631 254.907 49.0111 254.227 49.0111 253.307C49.0111 252.387 48.8631 251.707 48.5671 251.267C48.2791 250.827 47.8791 250.607 47.3671 250.607C46.8631 250.607 46.4631 250.827 46.1671 251.267C45.8791 251.707 45.7351 252.387 45.7351 253.307C45.7351 254.227 45.8791 254.907 46.1671 255.347C46.4631 255.787 46.8631 256.007 47.3671 256.007ZM58.4781 254.975L57.5781 255.863V257.507H55.7061V248.603H57.5781V253.643L60.3141 251.051H62.5461L59.8581 253.787L62.7861 257.507H60.5181L58.4781 254.975Z" fill="#B5B8C3"/>
<path d="M34.8408 226.368V227.952H28.4928V226.692L31.7328 223.632C32.0768 223.304 32.3088 223.024 32.4288 222.792C32.5488 222.552 32.6088 222.316 32.6088 222.084C32.6088 221.748 32.4928 221.492 32.2608 221.316C32.0368 221.132 31.7048 221.04 31.2648 221.04C30.8968 221.04 30.5648 221.112 30.2688 221.256C29.9728 221.392 29.7248 221.6 29.5248 221.88L28.1088 220.968C28.4368 220.48 28.8888 220.1 29.4648 219.828C30.0408 219.548 30.7008 219.408 31.4448 219.408C32.0688 219.408 32.6128 219.512 33.0768 219.72C33.5488 219.92 33.9128 220.208 34.1688 220.584C34.4328 220.952 34.5648 221.388 34.5648 221.892C34.5648 222.348 34.4688 222.776 34.2768 223.176C34.0848 223.576 33.7128 224.032 33.1608 224.544L31.2288 226.368H34.8408ZM39.2195 228.096C38.5235 228.096 37.9035 227.924 37.3595 227.58C36.8155 227.236 36.3875 226.74 36.0755 226.092C35.7715 225.436 35.6195 224.656 35.6195 223.752C35.6195 222.848 35.7715 222.072 36.0755 221.424C36.3875 220.768 36.8155 220.268 37.3595 219.924C37.9035 219.58 38.5235 219.408 39.2195 219.408C39.9155 219.408 40.5355 219.58 41.0795 219.924C41.6235 220.268 42.0475 220.768 42.3515 221.424C42.6635 222.072 42.8195 222.848 42.8195 223.752C42.8195 224.656 42.6635 225.436 42.3515 226.092C42.0475 226.74 41.6235 227.236 41.0795 227.58C40.5355 227.924 39.9155 228.096 39.2195 228.096ZM39.2195 226.452C39.7315 226.452 40.1315 226.232 40.4195 225.792C40.7155 225.352 40.8635 224.672 40.8635 223.752C40.8635 222.832 40.7155 222.152 40.4195 221.712C40.1315 221.272 39.7315 221.052 39.2195 221.052C38.7155 221.052 38.3155 221.272 38.0195 221.712C37.7315 222.152 37.5875 222.832 37.5875 223.752C37.5875 224.672 37.7315 225.352 38.0195 225.792C38.3155 226.232 38.7155 226.452 39.2195 226.452ZM47.3641 228.096C46.6681 228.096 46.0481 227.924 45.5041 227.58C44.9601 227.236 44.5321 226.74 44.2201 226.092C43.9161 225.436 43.7641 224.656 43.7641 223.752C43.7641 222.848 43.9161 222.072 44.2201 221.424C44.5321 220.768 44.9601 220.268 45.5041 219.924C46.0481 219.58 46.6681 219.408 47.3641 219.408C48.0601 219.408 48.6801 219.58 49.2241 219.924C49.7681 220.268 50.1921 220.768 50.4961 221.424C50.8081 222.072 50.9641 222.848 50.9641 223.752C50.9641 224.656 50.8081 225.436 50.4961 226.092C50.1921 226.74 49.7681 227.236 49.2241 227.58C48.6801 227.924 48.0601 228.096 47.3641 228.096ZM47.3641 226.452C47.8761 226.452 48.2761 226.232 48.5641 225.792C48.8601 225.352 49.0081 224.672 49.0081 223.752C49.0081 222.832 48.8601 222.152 48.5641 221.712C48.2761 221.272 47.8761 221.052 47.3641 221.052C46.8601 221.052 46.4601 221.272 46.1641 221.712C45.8761 222.152 45.7321 222.832 45.7321 223.752C45.7321 224.672 45.8761 225.352 46.1641 225.792C46.4601 226.232 46.8601 226.452 47.3641 226.452ZM58.475 225.42L57.575 226.308V227.952H55.703V219.048H57.575V224.088L60.311 221.496H62.543L59.855 224.232L62.783 227.952H60.515L58.475 225.42Z" fill="#B5B8C3"/>
<path d="M35.8268 194.651V196.235H29.4788V194.975L32.7188 191.915C33.0628 191.587 33.2948 191.307 33.4148 191.075C33.5348 190.835 33.5948 190.599 33.5948 190.367C33.5948 190.031 33.4788 189.775 33.2468 189.599C33.0228 189.415 32.6908 189.323 32.2508 189.323C31.8828 189.323 31.5508 189.395 31.2548 189.539C30.9588 189.675 30.7108 189.883 30.5108 190.163L29.0948 189.251C29.4228 188.763 29.8748 188.383 30.4508 188.111C31.0268 187.831 31.6868 187.691 32.4308 187.691C33.0548 187.691 33.5988 187.795 34.0628 188.003C34.5348 188.203 34.8988 188.491 35.1548 188.867C35.4188 189.235 35.5508 189.671 35.5508 190.175C35.5508 190.631 35.4548 191.059 35.2628 191.459C35.0708 191.859 34.6988 192.315 34.1468 192.827L32.2148 194.651H35.8268ZM39.5089 190.991C40.6929 190.991 41.5649 191.227 42.1249 191.699C42.6929 192.171 42.9769 192.803 42.9769 193.595C42.9769 194.107 42.8489 194.575 42.5929 194.999C42.3369 195.415 41.9449 195.751 41.4169 196.007C40.8969 196.255 40.2529 196.379 39.4849 196.379C38.8929 196.379 38.3089 196.303 37.7329 196.151C37.1649 195.991 36.6809 195.767 36.2809 195.479L37.0489 193.991C37.3689 194.231 37.7369 194.419 38.1529 194.555C38.5689 194.683 38.9969 194.747 39.4369 194.747C39.9249 194.747 40.3089 194.651 40.5889 194.459C40.8689 194.267 41.0089 193.999 41.0089 193.655C41.0089 193.295 40.8609 193.023 40.5649 192.839C40.2769 192.655 39.7729 192.563 39.0529 192.563H36.9049L37.3369 187.835H42.4609V189.395H38.9569L38.8249 190.991H39.5089ZM47.3656 196.379C46.6696 196.379 46.0496 196.207 45.5056 195.863C44.9616 195.519 44.5336 195.023 44.2216 194.375C43.9176 193.719 43.7656 192.939 43.7656 192.035C43.7656 191.131 43.9176 190.355 44.2216 189.707C44.5336 189.051 44.9616 188.551 45.5056 188.207C46.0496 187.863 46.6696 187.691 47.3656 187.691C48.0616 187.691 48.6816 187.863 49.2256 188.207C49.7696 188.551 50.1936 189.051 50.4976 189.707C50.8096 190.355 50.9656 191.131 50.9656 192.035C50.9656 192.939 50.8096 193.719 50.4976 194.375C50.1936 195.023 49.7696 195.519 49.2256 195.863C48.6816 196.207 48.0616 196.379 47.3656 196.379ZM47.3656 194.735C47.8776 194.735 48.2776 194.515 48.5656 194.075C48.8616 193.635 49.0096 192.955 49.0096 192.035C49.0096 191.115 48.8616 190.435 48.5656 189.995C48.2776 189.555 47.8776 189.335 47.3656 189.335C46.8616 189.335 46.4616 189.555 46.1656 189.995C45.8776 190.435 45.7336 191.115 45.7336 192.035C45.7336 192.955 45.8776 193.635 46.1656 194.075C46.4616 194.515 46.8616 194.735 47.3656 194.735ZM58.4766 193.703L57.5766 194.591V196.235H55.7046V187.331H57.5766V192.371L60.3126 189.779H62.5446L59.8566 192.515L62.7846 196.235H60.5166L58.4766 193.703Z" fill="#B5B8C3"/>
<path d="M32.442 162.421C33.178 162.541 33.742 162.817 34.134 163.249C34.526 163.673 34.722 164.201 34.722 164.833C34.722 165.321 34.594 165.773 34.338 166.189C34.082 166.597 33.69 166.925 33.162 167.173C32.642 167.421 32.002 167.545 31.242 167.545C30.65 167.545 30.066 167.469 29.49 167.317C28.922 167.157 28.438 166.933 28.038 166.645L28.794 165.157C29.114 165.397 29.482 165.585 29.898 165.721C30.322 165.849 30.754 165.913 31.194 165.913C31.682 165.913 32.066 165.821 32.346 165.637C32.626 165.445 32.766 165.177 32.766 164.833C32.766 164.145 32.242 163.801 31.194 163.801H30.306V162.517L32.034 160.561H28.458V159.001H34.338V160.261L32.442 162.421ZM39.2195 167.545C38.5235 167.545 37.9035 167.373 37.3595 167.029C36.8155 166.685 36.3875 166.189 36.0755 165.541C35.7715 164.885 35.6195 164.105 35.6195 163.201C35.6195 162.297 35.7715 161.521 36.0755 160.873C36.3875 160.217 36.8155 159.717 37.3595 159.373C37.9035 159.029 38.5235 158.857 39.2195 158.857C39.9155 158.857 40.5355 159.029 41.0795 159.373C41.6235 159.717 42.0475 160.217 42.3515 160.873C42.6635 161.521 42.8195 162.297 42.8195 163.201C42.8195 164.105 42.6635 164.885 42.3515 165.541C42.0475 166.189 41.6235 166.685 41.0795 167.029C40.5355 167.373 39.9155 167.545 39.2195 167.545ZM39.2195 165.901C39.7315 165.901 40.1315 165.681 40.4195 165.241C40.7155 164.801 40.8635 164.121 40.8635 163.201C40.8635 162.281 40.7155 161.601 40.4195 161.161C40.1315 160.721 39.7315 160.501 39.2195 160.501C38.7155 160.501 38.3155 160.721 38.0195 161.161C37.7315 161.601 37.5875 162.281 37.5875 163.201C37.5875 164.121 37.7315 164.801 38.0195 165.241C38.3155 165.681 38.7155 165.901 39.2195 165.901ZM47.3641 167.545C46.6681 167.545 46.0481 167.373 45.5041 167.029C44.9601 166.685 44.5321 166.189 44.2201 165.541C43.9161 164.885 43.7641 164.105 43.7641 163.201C43.7641 162.297 43.9161 161.521 44.2201 160.873C44.5321 160.217 44.9601 159.717 45.5041 159.373C46.0481 159.029 46.6681 158.857 47.3641 158.857C48.0601 158.857 48.6801 159.029 49.2241 159.373C49.7681 159.717 50.1921 160.217 50.4961 160.873C50.8081 161.521 50.9641 162.297 50.9641 163.201C50.9641 164.105 50.8081 164.885 50.4961 165.541C50.1921 166.189 49.7681 166.685 49.2241 167.029C48.6801 167.373 48.0601 167.545 47.3641 167.545ZM47.3641 165.901C47.8761 165.901 48.2761 165.681 48.5641 165.241C48.8601 164.801 49.0081 164.121 49.0081 163.201C49.0081 162.281 48.8601 161.601 48.5641 161.161C48.2761 160.721 47.8761 160.501 47.3641 160.501C46.8601 160.501 46.4601 160.721 46.1641 161.161C45.8761 161.601 45.7321 162.281 45.7321 163.201C45.7321 164.121 45.8761 164.801 46.1641 165.241C46.4601 165.681 46.8601 165.901 47.3641 165.901ZM58.475 164.869L57.575 165.757V167.401H55.703V158.497H57.575V163.537L60.311 160.945H62.543L59.855 163.681L62.783 167.401H60.515L58.475 164.869Z" fill="#B5B8C3"/>
<path d="M33.5685 132.867C34.3045 132.987 34.8685 133.263 35.2605 133.695C35.6525 134.119 35.8485 134.647 35.8485 135.279C35.8485 135.767 35.7205 136.219 35.4645 136.635C35.2085 137.043 34.8165 137.371 34.2885 137.619C33.7685 137.867 33.1285 137.991 32.3685 137.991C31.7765 137.991 31.1925 137.915 30.6165 137.763C30.0485 137.603 29.5645 137.379 29.1645 137.091L29.9205 135.603C30.2405 135.843 30.6085 136.031 31.0245 136.167C31.4485 136.295 31.8805 136.359 32.3205 136.359C32.8085 136.359 33.1925 136.267 33.4725 136.083C33.7525 135.891 33.8925 135.623 33.8925 135.279C33.8925 134.591 33.3685 134.247 32.3205 134.247H31.4325V132.963L33.1605 131.007H29.5845V129.447H35.4645V130.707L33.5685 132.867ZM39.5089 132.603C40.6929 132.603 41.5649 132.839 42.1249 133.311C42.6929 133.783 42.9769 134.415 42.9769 135.207C42.9769 135.719 42.8489 136.187 42.5929 136.611C42.3369 137.027 41.9449 137.363 41.4169 137.619C40.8969 137.867 40.2529 137.991 39.4849 137.991C38.8929 137.991 38.3089 137.915 37.7329 137.763C37.1649 137.603 36.6809 137.379 36.2809 137.091L37.0489 135.603C37.3689 135.843 37.7369 136.031 38.1529 136.167C38.5689 136.295 38.9969 136.359 39.4369 136.359C39.9249 136.359 40.3089 136.263 40.5889 136.071C40.8689 135.879 41.0089 135.611 41.0089 135.267C41.0089 134.907 40.8609 134.635 40.5649 134.451C40.2769 134.267 39.7729 134.175 39.0529 134.175H36.9049L37.3369 129.447H42.4609V131.007H38.9569L38.8249 132.603H39.5089ZM47.3656 137.991C46.6696 137.991 46.0496 137.819 45.5056 137.475C44.9616 137.131 44.5336 136.635 44.2216 135.987C43.9176 135.331 43.7656 134.551 43.7656 133.647C43.7656 132.743 43.9176 131.967 44.2216 131.319C44.5336 130.663 44.9616 130.163 45.5056 129.819C46.0496 129.475 46.6696 129.303 47.3656 129.303C48.0616 129.303 48.6816 129.475 49.2256 129.819C49.7696 130.163 50.1936 130.663 50.4976 131.319C50.8096 131.967 50.9656 132.743 50.9656 133.647C50.9656 134.551 50.8096 135.331 50.4976 135.987C50.1936 136.635 49.7696 137.131 49.2256 137.475C48.6816 137.819 48.0616 137.991 47.3656 137.991ZM47.3656 136.347C47.8776 136.347 48.2776 136.127 48.5656 135.687C48.8616 135.247 49.0096 134.567 49.0096 133.647C49.0096 132.727 48.8616 132.047 48.5656 131.607C48.2776 131.167 47.8776 130.947 47.3656 130.947C46.8616 130.947 46.4616 131.167 46.1656 131.607C45.8776 132.047 45.7336 132.727 45.7336 133.647C45.7336 134.567 45.8776 135.247 46.1656 135.687C46.4616 136.127 46.8616 136.347 47.3656 136.347ZM58.4766 135.315L57.5766 136.203V137.847H55.7046V128.943H57.5766V133.983L60.3126 131.391H62.5446L59.8566 134.127L62.7846 137.847H60.5166L58.4766 135.315Z" fill="#B5B8C3"/>
<path d="M35.0402 102.924H33.6722V104.688H31.7762V102.924H27.2522V101.616L31.2122 96.2885H33.2522L29.5802 101.34H31.8362V99.7685H33.6722V101.34H35.0402V102.924ZM39.2216 104.832C38.5256 104.832 37.9056 104.66 37.3616 104.316C36.8176 103.972 36.3896 103.476 36.0776 102.828C35.7736 102.172 35.6216 101.392 35.6216 100.488C35.6216 99.5845 35.7736 98.8085 36.0776 98.1605C36.3896 97.5045 36.8176 97.0045 37.3616 96.6605C37.9056 96.3165 38.5256 96.1445 39.2216 96.1445C39.9176 96.1445 40.5376 96.3165 41.0816 96.6605C41.6256 97.0045 42.0496 97.5045 42.3536 98.1605C42.6656 98.8085 42.8216 99.5845 42.8216 100.488C42.8216 101.392 42.6656 102.172 42.3536 102.828C42.0496 103.476 41.6256 103.972 41.0816 104.316C40.5376 104.66 39.9176 104.832 39.2216 104.832ZM39.2216 103.188C39.7336 103.188 40.1336 102.968 40.4216 102.528C40.7176 102.088 40.8656 101.408 40.8656 100.488C40.8656 99.5685 40.7176 98.8885 40.4216 98.4485C40.1336 98.0085 39.7336 97.7885 39.2216 97.7885C38.7176 97.7885 38.3176 98.0085 38.0216 98.4485C37.7336 98.8885 37.5896 99.5685 37.5896 100.488C37.5896 101.408 37.7336 102.088 38.0216 102.528C38.3176 102.968 38.7176 103.188 39.2216 103.188ZM47.3662 104.832C46.6702 104.832 46.0502 104.66 45.5062 104.316C44.9622 103.972 44.5342 103.476 44.2222 102.828C43.9182 102.172 43.7662 101.392 43.7662 100.488C43.7662 99.5845 43.9182 98.8085 44.2222 98.1605C44.5342 97.5045 44.9622 97.0045 45.5062 96.6605C46.0502 96.3165 46.6702 96.1445 47.3662 96.1445C48.0622 96.1445 48.6822 96.3165 49.2262 96.6605C49.7702 97.0045 50.1942 97.5045 50.4982 98.1605C50.8102 98.8085 50.9662 99.5845 50.9662 100.488C50.9662 101.392 50.8102 102.172 50.4982 102.828C50.1942 103.476 49.7702 103.972 49.2262 104.316C48.6822 104.66 48.0622 104.832 47.3662 104.832ZM47.3662 103.188C47.8782 103.188 48.2782 102.968 48.5662 102.528C48.8622 102.088 49.0102 101.408 49.0102 100.488C49.0102 99.5685 48.8622 98.8885 48.5662 98.4485C48.2782 98.0085 47.8782 97.7885 47.3662 97.7885C46.8622 97.7885 46.4622 98.0085 46.1662 98.4485C45.8782 98.8885 45.7342 99.5685 45.7342 100.488C45.7342 101.408 45.8782 102.088 46.1662 102.528C46.4622 102.968 46.8622 103.188 47.3662 103.188ZM58.4771 102.156L57.5771 103.044V104.688H55.7051V95.7845H57.5771V100.824L60.3131 98.2325H62.5451L59.8571 100.968L62.7851 104.688H60.5171L58.4771 102.156Z" fill="#B5B8C3"/>
<path d="M47.3933 72.6486H46.0253V74.4126H44.1293V72.6486H39.6053V71.3406L43.5653 66.0126H45.6053L41.9333 71.0646H44.1893V69.4926H46.0253V71.0646H47.3933V72.6486ZM50.8313 69.1686C52.0153 69.1686 52.8873 69.4046 53.4473 69.8766C54.0153 70.3486 54.2993 70.9806 54.2993 71.7726C54.2993 72.2846 54.1713 72.7526 53.9153 73.1766C53.6593 73.5926 53.2673 73.9286 52.7393 74.1846C52.2193 74.4326 51.5753 74.5566 50.8073 74.5566C50.2153 74.5566 49.6313 74.4806 49.0553 74.3286C48.4873 74.1686 48.0033 73.9446 47.6033 73.6566L48.3713 72.1686C48.6913 72.4086 49.0593 72.5966 49.4753 72.7326C49.8913 72.8606 50.3193 72.9246 50.7593 72.9246C51.2473 72.9246 51.6313 72.8286 51.9113 72.6366C52.1913 72.4446 52.3313 72.1766 52.3313 71.8326C52.3313 71.4726 52.1833 71.2006 51.8873 71.0166C51.5993 70.8326 51.0953 70.7406 50.3753 70.7406H48.2273L48.6593 66.0126H53.7833V67.5726H50.2793L50.1473 69.1686H50.8313ZM58.688 74.5566C57.992 74.5566 57.372 74.3846 56.828 74.0406C56.284 73.6966 55.856 73.2006 55.544 72.5526C55.24 71.8966 55.088 71.1166 55.088 70.2126C55.088 69.3086 55.24 68.5326 55.544 67.8846C55.856 67.2286 56.284 66.7286 56.828 66.3846C57.372 66.0406 57.992 65.8686 58.688 65.8686C59.384 65.8686 60.004 66.0406 60.548 66.3846C61.092 66.7286 61.516 67.2286 61.82 67.8846C62.132 68.5326 62.288 69.3086 62.288 70.2126C62.288 71.1166 62.132 71.8966 61.82 72.5526C61.516 73.2006 61.092 73.6966 60.548 74.0406C60.004 74.3846 59.384 74.5566 58.688 74.5566ZM58.688 72.9126C59.2 72.9126 59.6 72.6926 59.888 72.2526C60.184 71.8126 60.332 71.1326 60.332 70.2126C60.332 69.2926 60.184 68.6126 59.888 68.1726C59.6 67.7326 59.2 67.5126 58.688 67.5126C58.184 67.5126 57.784 67.7326 57.488 68.1726C57.2 68.6126 57.056 69.2926 57.056 70.2126C57.056 71.1326 57.2 71.8126 57.488 72.2526C57.784 72.6926 58.184 72.9126 58.688 72.9126ZM58.4787 88.8806L57.5787 89.7686V91.4126H55.7067V82.5086H57.5787V87.5486L60.3147 84.9566H62.5467L59.8587 87.6926L62.7867 91.4126H60.5187L58.4787 88.8806Z" fill="#B5B8C3"/>
<path d="M31.3628 38.1725C32.5468 38.1725 33.4188 38.4085 33.9788 38.8805C34.5468 39.3525 34.8308 39.9845 34.8308 40.7765C34.8308 41.2885 34.7028 41.7565 34.4468 42.1805C34.1908 42.5965 33.7988 42.9325 33.2708 43.1885C32.7508 43.4365 32.1068 43.5605 31.3388 43.5605C30.7468 43.5605 30.1628 43.4845 29.5868 43.3325C29.0188 43.1725 28.5348 42.9485 28.1348 42.6605L28.9028 41.1725C29.2228 41.4125 29.5908 41.6005 30.0068 41.7365C30.4228 41.8645 30.8508 41.9285 31.2908 41.9285C31.7788 41.9285 32.1628 41.8325 32.4428 41.6405C32.7228 41.4485 32.8628 41.1805 32.8628 40.8365C32.8628 40.4765 32.7148 40.2045 32.4188 40.0205C32.1308 39.8365 31.6268 39.7445 30.9068 39.7445H28.7588L29.1908 35.0165H34.3148V36.5765H30.8108L30.6788 38.1725H31.3628ZM39.2195 43.5605C38.5235 43.5605 37.9035 43.3885 37.3595 43.0445C36.8155 42.7005 36.3875 42.2045 36.0755 41.5565C35.7715 40.9005 35.6195 40.1205 35.6195 39.2165C35.6195 38.3125 35.7715 37.5365 36.0755 36.8885C36.3875 36.2325 36.8155 35.7325 37.3595 35.3885C37.9035 35.0445 38.5235 34.8725 39.2195 34.8725C39.9155 34.8725 40.5355 35.0445 41.0795 35.3885C41.6235 35.7325 42.0475 36.2325 42.3515 36.8885C42.6635 37.5365 42.8195 38.3125 42.8195 39.2165C42.8195 40.1205 42.6635 40.9005 42.3515 41.5565C42.0475 42.2045 41.6235 42.7005 41.0795 43.0445C40.5355 43.3885 39.9155 43.5605 39.2195 43.5605ZM39.2195 41.9165C39.7315 41.9165 40.1315 41.6965 40.4195 41.2565C40.7155 40.8165 40.8635 40.1365 40.8635 39.2165C40.8635 38.2965 40.7155 37.6165 40.4195 37.1765C40.1315 36.7365 39.7315 36.5165 39.2195 36.5165C38.7155 36.5165 38.3155 36.7365 38.0195 37.1765C37.7315 37.6165 37.5875 38.2965 37.5875 39.2165C37.5875 40.1365 37.7315 40.8165 38.0195 41.2565C38.3155 41.6965 38.7155 41.9165 39.2195 41.9165ZM47.3641 43.5605C46.6681 43.5605 46.0481 43.3885 45.5041 43.0445C44.9601 42.7005 44.5321 42.2045 44.2201 41.5565C43.9161 40.9005 43.7641 40.1205 43.7641 39.2165C43.7641 38.3125 43.9161 37.5365 44.2201 36.8885C44.5321 36.2325 44.9601 35.7325 45.5041 35.3885C46.0481 35.0445 46.6681 34.8725 47.3641 34.8725C48.0601 34.8725 48.6801 35.0445 49.2241 35.3885C49.7681 35.7325 50.1921 36.2325 50.4961 36.8885C50.8081 37.5365 50.9641 38.3125 50.9641 39.2165C50.9641 40.1205 50.8081 40.9005 50.4961 41.5565C50.1921 42.2045 49.7681 42.7005 49.2241 43.0445C48.6801 43.3885 48.0601 43.5605 47.3641 43.5605ZM47.3641 41.9165C47.8761 41.9165 48.2761 41.6965 48.5641 41.2565C48.8601 40.8165 49.0081 40.1365 49.0081 39.2165C49.0081 38.2965 48.8601 37.6165 48.5641 37.1765C48.2761 36.7365 47.8761 36.5165 47.3641 36.5165C46.8601 36.5165 46.4601 36.7365 46.1641 37.1765C45.8761 37.6165 45.7321 38.2965 45.7321 39.2165C45.7321 40.1365 45.8761 40.8165 46.1641 41.2565C46.4601 41.6965 46.8601 41.9165 47.3641 41.9165ZM58.475 40.8845L57.575 41.7725V43.4165H55.703V34.5125H57.575V39.5525L60.311 36.9605H62.543L59.855 39.6965L62.783 43.4165H60.515L58.475 40.8845Z" fill="#B5B8C3"/>
<path d="M609.627 287.927C608.931 287.927 608.311 287.755 607.767 287.411C607.223 287.067 606.795 286.571 606.483 285.923C606.179 285.267 606.027 284.487 606.027 283.583C606.027 282.679 606.179 281.903 606.483 281.255C606.795 280.599 607.223 280.099 607.767 279.755C608.311 279.411 608.931 279.239 609.627 279.239C610.323 279.239 610.943 279.411 611.487 279.755C612.031 280.099 612.455 280.599 612.759 281.255C613.071 281.903 613.227 282.679 613.227 283.583C613.227 284.487 613.071 285.267 612.759 285.923C612.455 286.571 612.031 287.067 611.487 287.411C610.943 287.755 610.323 287.927 609.627 287.927ZM609.627 286.283C610.139 286.283 610.539 286.063 610.827 285.623C611.123 285.183 611.271 284.503 611.271 283.583C611.271 282.663 611.123 281.983 610.827 281.543C610.539 281.103 610.139 280.883 609.627 280.883C609.123 280.883 608.723 281.103 608.427 281.543C608.139 281.983 607.995 282.663 607.995 283.583C607.995 284.503 608.139 285.183 608.427 285.623C608.723 286.063 609.123 286.283 609.627 286.283ZM617.051 282.539C618.235 282.539 619.107 282.775 619.667 283.247C620.235 283.719 620.519 284.351 620.519 285.143C620.519 285.655 620.391 286.123 620.135 286.547C619.879 286.963 619.487 287.299 618.959 287.555C618.439 287.803 617.795 287.927 617.027 287.927C616.435 287.927 615.851 287.851 615.275 287.699C614.707 287.539 614.223 287.315 613.823 287.027L614.591 285.539C614.911 285.779 615.279 285.967 615.695 286.103C616.111 286.231 616.539 286.295 616.979 286.295C617.467 286.295 617.851 286.199 618.131 286.007C618.411 285.815 618.551 285.547 618.551 285.203C618.551 284.843 618.403 284.571 618.107 284.387C617.819 284.203 617.315 284.111 616.595 284.111H614.447L614.879 279.383H620.003V280.943H616.499L616.367 282.539H617.051ZM629.972 281.231C630.78 281.231 631.42 281.471 631.892 281.951C632.372 282.423 632.612 283.135 632.612 284.087V287.783H630.74V284.375C630.74 283.863 630.632 283.483 630.416 283.235C630.208 282.979 629.908 282.851 629.516 282.851C629.076 282.851 628.728 282.995 628.472 283.283C628.216 283.563 628.088 283.983 628.088 284.543V287.783H626.216V284.375C626.216 283.359 625.808 282.851 624.992 282.851C624.56 282.851 624.216 282.995 623.96 283.283C623.704 283.563 623.576 283.983 623.576 284.543V287.783H621.704V281.327H623.492V282.071C623.732 281.799 624.024 281.591 624.368 281.447C624.72 281.303 625.104 281.231 625.52 281.231C625.976 281.231 626.388 281.323 626.756 281.507C627.124 281.683 627.42 281.943 627.644 282.287C627.908 281.951 628.24 281.691 628.64 281.507C629.048 281.323 629.492 281.231 629.972 281.231Z" fill="black"/>
<path d="M609.267 249.828V258.228H607.323V251.388H605.643V249.828H609.267ZM613.606 252.984C614.79 252.984 615.662 253.22 616.222 253.692C616.79 254.164 617.074 254.796 617.074 255.588C617.074 256.1 616.946 256.568 616.69 256.992C616.434 257.408 616.042 257.744 615.514 258C614.994 258.248 614.35 258.372 613.582 258.372C612.99 258.372 612.406 258.296 611.83 258.144C611.262 257.984 610.778 257.76 610.378 257.472L611.146 255.984C611.466 256.224 611.834 256.412 612.25 256.548C612.666 256.676 613.094 256.74 613.534 256.74C614.022 256.74 614.406 256.644 614.686 256.452C614.966 256.26 615.106 255.992 615.106 255.648C615.106 255.288 614.958 255.016 614.662 254.832C614.374 254.648 613.87 254.556 613.15 254.556H611.002L611.434 249.828H616.558V251.388H613.054L612.922 252.984H613.606ZM626.527 251.676C627.335 251.676 627.975 251.916 628.447 252.396C628.927 252.868 629.167 253.58 629.167 254.532V258.228H627.295V254.82C627.295 254.308 627.187 253.928 626.971 253.68C626.763 253.424 626.463 253.296 626.071 253.296C625.631 253.296 625.283 253.44 625.027 253.728C624.771 254.008 624.643 254.428 624.643 254.988V258.228H622.771V254.82C622.771 253.804 622.363 253.296 621.547 253.296C621.115 253.296 620.771 253.44 620.515 253.728C620.259 254.008 620.131 254.428 620.131 254.988V258.228H618.259V251.772H620.047V252.516C620.287 252.244 620.579 252.036 620.923 251.892C621.275 251.748 621.659 251.676 622.075 251.676C622.531 251.676 622.943 251.768 623.311 251.952C623.679 252.128 623.975 252.388 624.199 252.732C624.463 252.396 624.795 252.136 625.195 251.952C625.603 251.768 626.047 251.676 626.527 251.676Z" fill="black"/>
<path d="M609.267 219.552V227.952H607.323V221.112H605.643V219.552H609.267ZM615.046 221.4C615.846 221.4 616.49 221.64 616.978 222.12C617.474 222.6 617.722 223.312 617.722 224.256V227.952H615.85V224.544C615.85 224.032 615.738 223.652 615.514 223.404C615.29 223.148 614.966 223.02 614.542 223.02C614.07 223.02 613.694 223.168 613.414 223.464C613.134 223.752 612.994 224.184 612.994 224.76V227.952H611.122V219.048H612.994V222.168C613.242 221.92 613.542 221.732 613.894 221.604C614.246 221.468 614.63 221.4 615.046 221.4Z" fill="black"/>
<path d="M612.303 196.093V197.677H605.955V196.417L609.195 193.357C609.539 193.029 609.771 192.749 609.891 192.517C610.011 192.277 610.071 192.041 610.071 191.809C610.071 191.473 609.955 191.217 609.723 191.041C609.499 190.857 609.167 190.765 608.727 190.765C608.359 190.765 608.027 190.837 607.731 190.981C607.435 191.117 607.187 191.325 606.987 191.605L605.571 190.693C605.899 190.205 606.351 189.825 606.927 189.553C607.503 189.273 608.163 189.133 608.907 189.133C609.531 189.133 610.075 189.237 610.539 189.445C611.011 189.645 611.375 189.933 611.631 190.309C611.895 190.677 612.027 191.113 612.027 191.617C612.027 192.073 611.931 192.501 611.739 192.901C611.547 193.301 611.175 193.757 610.623 194.269L608.691 196.093H612.303ZM617.425 191.125C618.225 191.125 618.869 191.365 619.357 191.845C619.853 192.325 620.101 193.037 620.101 193.981V197.677H618.229V194.269C618.229 193.757 618.117 193.377 617.893 193.129C617.669 192.873 617.345 192.745 616.921 192.745C616.449 192.745 616.073 192.893 615.793 193.189C615.513 193.477 615.373 193.909 615.373 194.485V197.677H613.501V188.773H615.373V191.893C615.621 191.645 615.921 191.457 616.273 191.329C616.625 191.193 617.009 191.125 617.425 191.125Z" fill="black"/>
<path d="M613.719 166.358H612.351V168.122H610.455V166.358H605.931V165.05L609.891 159.722H611.931L608.259 164.774H610.515V163.202H612.351V164.774H613.719V166.358ZM618.62 161.57C619.42 161.57 620.064 161.81 620.552 162.29C621.048 162.77 621.296 163.482 621.296 164.426V168.122H619.424V164.714C619.424 164.202 619.312 163.822 619.088 163.574C618.864 163.318 618.54 163.19 618.116 163.19C617.644 163.19 617.268 163.338 616.988 163.634C616.708 163.922 616.568 164.354 616.568 164.93V168.122H614.696V159.218H616.568V162.338C616.816 162.09 617.116 161.902 617.468 161.774C617.82 161.638 618.204 161.57 618.62 161.57Z" fill="black"/>
<path d="M610.071 132.579C610.607 132.579 611.095 132.687 611.535 132.903C611.975 133.119 612.323 133.427 612.579 133.827C612.835 134.219 612.963 134.675 612.963 135.195C612.963 135.755 612.823 136.247 612.543 136.671C612.263 137.095 611.879 137.423 611.391 137.655C610.911 137.879 610.375 137.991 609.783 137.991C608.607 137.991 607.687 137.631 607.023 136.911C606.359 136.191 606.027 135.163 606.027 133.827C606.027 132.875 606.207 132.059 606.567 131.379C606.927 130.699 607.427 130.183 608.067 129.831C608.715 129.479 609.463 129.303 610.311 129.303C610.759 129.303 611.187 129.355 611.595 129.459C612.011 129.555 612.363 129.695 612.651 129.879L611.931 131.307C611.515 131.027 610.991 130.887 610.359 130.887C609.647 130.887 609.083 131.095 608.667 131.511C608.251 131.927 608.027 132.531 607.995 133.323C608.491 132.827 609.183 132.579 610.071 132.579ZM609.675 136.539C610.091 136.539 610.427 136.427 610.683 136.203C610.947 135.979 611.079 135.675 611.079 135.291C611.079 134.907 610.947 134.603 610.683 134.379C610.427 134.147 610.083 134.031 609.651 134.031C609.227 134.031 608.879 134.151 608.607 134.391C608.335 134.623 608.199 134.923 608.199 135.291C608.199 135.659 608.331 135.959 608.595 136.191C608.859 136.423 609.219 136.539 609.675 136.539ZM617.987 131.295C618.787 131.295 619.431 131.535 619.919 132.015C620.415 132.495 620.663 133.207 620.663 134.151V137.847H618.791V134.439C618.791 133.927 618.679 133.547 618.455 133.299C618.231 133.043 617.907 132.915 617.483 132.915C617.011 132.915 616.635 133.063 616.355 133.359C616.075 133.647 615.935 134.079 615.935 134.655V137.847H614.063V128.943H615.935V132.063C616.183 131.815 616.483 131.627 616.835 131.499C617.187 131.363 617.571 131.295 617.987 131.295Z" fill="#B5B8C3"/>
<rect x="599" y="95.9995" width="67" height="23" rx="4" fill="#F7931A"/>
<path d="M612.708 102.6V111H610.764V104.16H609.084V102.6H612.708ZM620.443 109.416V111H614.095V109.74L617.335 106.68C617.679 106.352 617.911 106.072 618.031 105.84C618.151 105.6 618.211 105.364 618.211 105.132C618.211 104.796 618.095 104.54 617.863 104.364C617.639 104.18 617.307 104.088 616.867 104.088C616.499 104.088 616.167 104.16 615.871 104.304C615.575 104.44 615.327 104.648 615.127 104.928L613.711 104.016C614.039 103.528 614.491 103.148 615.067 102.876C615.643 102.596 616.303 102.456 617.047 102.456C617.671 102.456 618.215 102.56 618.679 102.768C619.151 102.968 619.515 103.256 619.771 103.632C620.035 104 620.167 104.436 620.167 104.94C620.167 105.396 620.071 105.824 619.879 106.224C619.687 106.624 619.315 107.08 618.763 107.592L616.831 109.416H620.443ZM625.565 104.448C626.365 104.448 627.009 104.688 627.497 105.168C627.993 105.648 628.241 106.36 628.241 107.304V111H626.369V107.592C626.369 107.08 626.257 106.7 626.033 106.452C625.809 106.196 625.485 106.068 625.061 106.068C624.589 106.068 624.213 106.216 623.933 106.512C623.653 106.8 623.513 107.232 623.513 107.808V111H621.641V102.096H623.513V105.216C623.761 104.968 624.061 104.78 624.413 104.652C624.765 104.516 625.149 104.448 625.565 104.448Z" fill="white"/>
<path d="M612.303 72.1074V73.6914H605.955V72.4314L609.195 69.3714C609.539 69.0434 609.771 68.7634 609.891 68.5314C610.011 68.2914 610.071 68.0554 610.071 67.8234C610.071 67.4874 609.955 67.2314 609.723 67.0554C609.499 66.8714 609.167 66.7794 608.727 66.7794C608.359 66.7794 608.027 66.8514 607.731 66.9954C607.435 67.1314 607.187 67.3394 606.987 67.6194L605.571 66.7074C605.899 66.2194 606.351 65.8394 606.927 65.5674C607.503 65.2874 608.163 65.1474 608.907 65.1474C609.531 65.1474 610.075 65.2514 610.539 65.4594C611.011 65.6594 611.375 65.9474 611.631 66.3234C611.895 66.6914 612.027 67.1274 612.027 67.6314C612.027 68.0874 611.931 68.5154 611.739 68.9154C611.547 69.3154 611.175 69.7714 610.623 70.2834L608.691 72.1074H612.303ZM620.68 71.9274H619.312V73.6914H617.416V71.9274H612.892V70.6194L616.852 65.2914H618.892L615.22 70.3434H617.476V68.7714H619.312V70.3434H620.68V71.9274ZM625.581 67.1394C626.381 67.1394 627.025 67.3794 627.513 67.8594C628.009 68.3394 628.257 69.0514 628.257 69.9954V73.6914H626.385V70.2834C626.385 69.7714 626.273 69.3914 626.049 69.1434C625.825 68.8874 625.501 68.7594 625.077 68.7594C624.605 68.7594 624.229 68.9074 623.949 69.2034C623.669 69.4914 623.529 69.9234 623.529 70.4994V73.6914H621.657V64.7874H623.529V67.9074C623.777 67.6594 624.077 67.4714 624.429 67.3434C624.781 67.2074 625.165 67.1394 625.581 67.1394Z" fill="#B5B8C3"/>
<path d="M608.907 38.1725C610.091 38.1725 610.963 38.4085 611.523 38.8805C612.091 39.3525 612.375 39.9845 612.375 40.7765C612.375 41.2885 612.247 41.7565 611.991 42.1805C611.735 42.5965 611.343 42.9325 610.815 43.1885C610.295 43.4365 609.651 43.5605 608.883 43.5605C608.291 43.5605 607.707 43.4845 607.131 43.3325C606.563 43.1725 606.079 42.9485 605.679 42.6605L606.447 41.1725C606.767 41.4125 607.135 41.6005 607.551 41.7365C607.967 41.8645 608.395 41.9285 608.835 41.9285C609.323 41.9285 609.707 41.8325 609.987 41.6405C610.267 41.4485 610.407 41.1805 610.407 40.8365C610.407 40.4765 610.259 40.2045 609.963 40.0205C609.675 39.8365 609.171 39.7445 608.451 39.7445H606.303L606.735 35.0165H611.859V36.5765H608.355L608.223 38.1725H608.907ZM616.763 43.5605C616.067 43.5605 615.447 43.3885 614.903 43.0445C614.359 42.7005 613.931 42.2045 613.619 41.5565C613.315 40.9005 613.163 40.1205 613.163 39.2165C613.163 38.3125 613.315 37.5365 613.619 36.8885C613.931 36.2325 614.359 35.7325 614.903 35.3885C615.447 35.0445 616.067 34.8725 616.763 34.8725C617.459 34.8725 618.079 35.0445 618.623 35.3885C619.167 35.7325 619.591 36.2325 619.895 36.8885C620.207 37.5365 620.363 38.3125 620.363 39.2165C620.363 40.1205 620.207 40.9005 619.895 41.5565C619.591 42.2045 619.167 42.7005 618.623 43.0445C618.079 43.3885 617.459 43.5605 616.763 43.5605ZM616.763 41.9165C617.275 41.9165 617.675 41.6965 617.963 41.2565C618.259 40.8165 618.407 40.1365 618.407 39.2165C618.407 38.2965 618.259 37.6165 617.963 37.1765C617.675 36.7365 617.275 36.5165 616.763 36.5165C616.259 36.5165 615.859 36.7365 615.563 37.1765C615.275 37.6165 615.131 38.2965 615.131 39.2165C615.131 40.1365 615.275 40.8165 615.563 41.2565C615.859 41.6965 616.259 41.9165 616.763 41.9165ZM629.972 36.8645C630.78 36.8645 631.42 37.1045 631.892 37.5845C632.372 38.0565 632.612 38.7685 632.612 39.7205V43.4165H630.74V40.0085C630.74 39.4965 630.632 39.1165 630.416 38.8685C630.208 38.6125 629.908 38.4845 629.516 38.4845C629.076 38.4845 628.728 38.6285 628.472 38.9165C628.216 39.1965 628.088 39.6165 628.088 40.1765V43.4165H626.216V40.0085C626.216 38.9925 625.808 38.4845 624.992 38.4845C624.56 38.4845 624.216 38.6285 623.96 38.9165C623.704 39.1965 623.576 39.6165 623.576 40.1765V43.4165H621.704V36.9605H623.492V37.7045C623.732 37.4325 624.024 37.2245 624.368 37.0805C624.72 36.9365 625.104 36.8645 625.52 36.8645C625.976 36.8645 626.388 36.9565 626.756 37.1405C627.124 37.3165 627.42 37.5765 627.644 37.9205C627.908 37.5845 628.24 37.3245 628.64 37.1405C629.048 36.9565 629.492 36.8645 629.972 36.8645Z" fill="#B5B8C3"/>
<g opacity="0.5">
<line x1="69.832" y1="280.392" x2="579.733" y2="280.392" stroke="#3B3D4A"/>
<line x1="69.832" y1="311.478" x2="579.733" y2="311.478" stroke="#3B3D4A"/>
<line x1="69.832" y1="251.014" x2="579.733" y2="251.014" stroke="#3B3D4A"/>
<line x1="69.832" y1="220.954" x2="579.733" y2="220.954" stroke="#3B3D4A"/>
<line x1="69.832" y1="190.209" x2="579.733" y2="190.21" stroke="#3B3D4A"/>
<line x1="70.582" y1="98.4116" x2="586.065" y2="98.4117" stroke="#3B3D4A" stroke-width="1.5" stroke-linecap="round" stroke-dasharray="4 4"/>
<line x1="69.832" y1="161.515" x2="579.733" y2="161.515" stroke="#3B3D4A"/>
<line x1="69.832" y1="131.454" x2="579.733" y2="131.454" stroke="#3B3D4A"/>
<line x1="69.832" y1="67.917" x2="579.733" y2="67.917" stroke="#3B3D4A"/>
<line x1="69.832" y1="37.1733" x2="579.733" y2="37.1734" stroke="#3B3D4A"/>
<line x1="579.234" y1="324.616" x2="579.234" y2="37.3317" stroke="#32333E"/>
</g>
<path d="M91.8498 212.086L75.7383 218.929V324.8H548.611L563.522 81.2576L545.717 91.1847L517.999 146.873L501.619 118.695L486.045 111.449L469.933 118.695L454.359 81.2576L438.247 76.8296L406.83 140.835L391.524 123.123L375.681 223.76L360.107 247.51L343.727 265.625L328.152 220.137L311.772 218.929L297.272 232.616L281.16 235.434L265.586 244.29L249.474 246.303L233.631 274.481L217.788 235.434L201.408 236.641L170.796 252.743L154.685 197.192L138.842 236.641L122.73 230.603L107.156 199.204L91.8498 212.086Z" fill="url(#paint2_linear_6508_324)" fill-opacity="0.2"/>
<path d="M75.7383 218.828L91.8498 211.99L107.156 199.117L122.73 230.494L138.842 236.528L154.685 197.106L170.796 252.618L201.408 236.528L217.788 235.321L233.631 274.341L249.474 246.182L265.586 244.171L281.16 235.321L297.272 232.505L311.772 218.828L328.152 220.035L343.727 265.491L360.107 247.389L375.681 223.656L391.524 123.09L406.83 140.789L438.247 76.8296L454.359 81.2545L469.933 118.665L486.045 111.424L501.619 118.665L517.999 146.823L545.828 90.9773L565.217 81.2545" stroke="white" stroke-width="1.5"/>
<path d="M69.6307 333.924V335.508H63.2827V334.248L66.5227 331.188C66.8667 330.86 67.0987 330.58 67.2187 330.348C67.3387 330.108 67.3987 329.872 67.3987 329.64C67.3987 329.304 67.2827 329.048 67.0507 328.872C66.8267 328.688 66.4947 328.596 66.0547 328.596C65.6867 328.596 65.3547 328.668 65.0587 328.812C64.7627 328.948 64.5147 329.156 64.3147 329.436L62.8987 328.524C63.2267 328.036 63.6787 327.656 64.2547 327.384C64.8307 327.104 65.4907 326.964 66.2347 326.964C66.8587 326.964 67.4027 327.068 67.8667 327.276C68.3387 327.476 68.7027 327.764 68.9587 328.14C69.2227 328.508 69.3547 328.944 69.3547 329.448C69.3547 329.904 69.2587 330.332 69.0667 330.732C68.8747 331.132 68.5027 331.588 67.9507 332.1L66.0187 333.924H69.6307ZM73.6728 327.108V335.508H71.7288V328.668H70.0488V327.108H73.6728ZM79.0585 327.108H82.8745C83.7865 327.108 84.5905 327.284 85.2865 327.636C85.9905 327.98 86.5345 328.468 86.9185 329.1C87.3105 329.732 87.5065 330.468 87.5065 331.308C87.5065 332.148 87.3105 332.884 86.9185 333.516C86.5345 334.148 85.9905 334.64 85.2865 334.992C84.5905 335.336 83.7865 335.508 82.8745 335.508H79.0585V327.108ZM82.7785 333.912C83.6185 333.912 84.2865 333.68 84.7825 333.216C85.2865 332.744 85.5385 332.108 85.5385 331.308C85.5385 330.508 85.2865 329.876 84.7825 329.412C84.2865 328.94 83.6185 328.704 82.7785 328.704H81.0025V333.912H82.7785ZM95.1646 332.304C95.1646 332.328 95.1526 332.496 95.1286 332.808H90.2446C90.3326 333.208 90.5406 333.524 90.8686 333.756C91.1966 333.988 91.6046 334.104 92.0926 334.104C92.4286 334.104 92.7246 334.056 92.9806 333.96C93.2446 333.856 93.4886 333.696 93.7126 333.48L94.7086 334.56C94.1006 335.256 93.2126 335.604 92.0446 335.604C91.3166 335.604 90.6726 335.464 90.1126 335.184C89.5526 334.896 89.1206 334.5 88.8166 333.996C88.5126 333.492 88.3606 332.92 88.3606 332.28C88.3606 331.648 88.5086 331.08 88.8046 330.576C89.1086 330.064 89.5206 329.668 90.0406 329.388C90.5686 329.1 91.1566 328.956 91.8046 328.956C92.4366 328.956 93.0086 329.092 93.5206 329.364C94.0326 329.636 94.4326 330.028 94.7206 330.54C95.0166 331.044 95.1646 331.632 95.1646 332.304ZM91.8166 330.372C91.3926 330.372 91.0366 330.492 90.7486 330.732C90.4606 330.972 90.2846 331.3 90.2206 331.716H93.4006C93.3366 331.308 93.1606 330.984 92.8726 330.744C92.5846 330.496 92.2326 330.372 91.8166 330.372ZM99.5309 335.604C98.8429 335.604 98.2229 335.464 97.6709 335.184C97.1269 334.896 96.6989 334.5 96.3869 333.996C96.0829 333.492 95.9309 332.92 95.9309 332.28C95.9309 331.64 96.0829 331.068 96.3869 330.564C96.6989 330.06 97.1269 329.668 97.6709 329.388C98.2229 329.1 98.8429 328.956 99.5309 328.956C100.211 328.956 100.803 329.1 101.307 329.388C101.819 329.668 102.191 330.072 102.423 330.6L100.971 331.38C100.635 330.788 100.151 330.492 99.5189 330.492C99.0309 330.492 98.6269 330.652 98.3069 330.972C97.9869 331.292 97.8269 331.728 97.8269 332.28C97.8269 332.832 97.9869 333.268 98.3069 333.588C98.6269 333.908 99.0309 334.068 99.5189 334.068C100.159 334.068 100.643 333.772 100.971 333.18L102.423 333.972C102.191 334.484 101.819 334.884 101.307 335.172C100.803 335.46 100.211 335.604 99.5309 335.604Z" fill="#B5B8C3"/>
<path d="M146.25 333.924V335.508H139.902V334.248L143.142 331.188C143.486 330.86 143.718 330.58 143.838 330.348C143.958 330.108 144.018 329.872 144.018 329.64C144.018 329.304 143.902 329.048 143.67 328.872C143.446 328.688 143.114 328.596 142.674 328.596C142.306 328.596 141.974 328.668 141.678 328.812C141.382 328.948 141.134 329.156 140.934 329.436L139.518 328.524C139.846 328.036 140.298 327.656 140.874 327.384C141.45 327.104 142.11 326.964 142.854 326.964C143.478 326.964 144.022 327.068 144.486 327.276C144.958 327.476 145.322 327.764 145.578 328.14C145.842 328.508 145.974 328.944 145.974 329.448C145.974 329.904 145.878 330.332 145.686 330.732C145.494 331.132 145.122 331.588 144.57 332.1L142.638 333.924H146.25ZM153.328 333.924V335.508H146.98V334.248L150.22 331.188C150.564 330.86 150.796 330.58 150.916 330.348C151.036 330.108 151.096 329.872 151.096 329.64C151.096 329.304 150.98 329.048 150.748 328.872C150.524 328.688 150.192 328.596 149.752 328.596C149.384 328.596 149.052 328.668 148.756 328.812C148.46 328.948 148.212 329.156 148.012 329.436L146.596 328.524C146.924 328.036 147.376 327.656 147.952 327.384C148.528 327.104 149.188 326.964 149.932 326.964C150.556 326.964 151.1 327.068 151.564 327.276C152.036 327.476 152.4 327.764 152.656 328.14C152.92 328.508 153.052 328.944 153.052 329.448C153.052 329.904 152.956 330.332 152.764 330.732C152.572 331.132 152.2 331.588 151.648 332.1L149.716 333.924H153.328ZM158.057 327.108H161.873C162.785 327.108 163.589 327.284 164.285 327.636C164.989 327.98 165.533 328.468 165.917 329.1C166.309 329.732 166.505 330.468 166.505 331.308C166.505 332.148 166.309 332.884 165.917 333.516C165.533 334.148 164.989 334.64 164.285 334.992C163.589 335.336 162.785 335.508 161.873 335.508H158.057V327.108ZM161.777 333.912C162.617 333.912 163.285 333.68 163.781 333.216C164.285 332.744 164.537 332.108 164.537 331.308C164.537 330.508 164.285 329.876 163.781 329.412C163.285 328.94 162.617 328.704 161.777 328.704H160.001V333.912H161.777ZM174.163 332.304C174.163 332.328 174.151 332.496 174.127 332.808H169.243C169.331 333.208 169.539 333.524 169.867 333.756C170.195 333.988 170.603 334.104 171.091 334.104C171.427 334.104 171.723 334.056 171.979 333.96C172.243 333.856 172.487 333.696 172.711 333.48L173.707 334.56C173.099 335.256 172.211 335.604 171.043 335.604C170.315 335.604 169.671 335.464 169.111 335.184C168.551 334.896 168.119 334.5 167.815 333.996C167.511 333.492 167.359 332.92 167.359 332.28C167.359 331.648 167.507 331.08 167.803 330.576C168.107 330.064 168.519 329.668 169.039 329.388C169.567 329.1 170.155 328.956 170.803 328.956C171.435 328.956 172.007 329.092 172.519 329.364C173.031 329.636 173.431 330.028 173.719 330.54C174.015 331.044 174.163 331.632 174.163 332.304ZM170.815 330.372C170.391 330.372 170.035 330.492 169.747 330.732C169.459 330.972 169.283 331.3 169.219 331.716H172.399C172.335 331.308 172.159 330.984 171.871 330.744C171.583 330.496 171.231 330.372 170.815 330.372ZM178.529 335.604C177.841 335.604 177.221 335.464 176.669 335.184C176.125 334.896 175.697 334.5 175.385 333.996C175.081 333.492 174.929 332.92 174.929 332.28C174.929 331.64 175.081 331.068 175.385 330.564C175.697 330.06 176.125 329.668 176.669 329.388C177.221 329.1 177.841 328.956 178.529 328.956C179.209 328.956 179.801 329.1 180.305 329.388C180.817 329.668 181.189 330.072 181.421 330.6L179.969 331.38C179.633 330.788 179.149 330.492 178.517 330.492C178.029 330.492 177.625 330.652 177.305 330.972C176.985 331.292 176.825 331.728 176.825 332.28C176.825 332.832 176.985 333.268 177.305 333.588C177.625 333.908 178.029 334.068 178.517 334.068C179.157 334.068 179.641 333.772 179.969 333.18L181.421 333.972C181.189 334.484 180.817 334.884 180.305 335.172C179.801 335.46 179.209 335.604 178.529 335.604Z" fill="#B5B8C3"/>
<path d="M225.543 333.924V335.508H219.195V334.248L222.435 331.188C222.779 330.86 223.011 330.58 223.131 330.348C223.251 330.108 223.311 329.872 223.311 329.64C223.311 329.304 223.195 329.048 222.963 328.872C222.739 328.688 222.407 328.596 221.967 328.596C221.599 328.596 221.267 328.668 220.971 328.812C220.675 328.948 220.427 329.156 220.227 329.436L218.811 328.524C219.139 328.036 219.591 327.656 220.167 327.384C220.743 327.104 221.403 326.964 222.147 326.964C222.771 326.964 223.315 327.068 223.779 327.276C224.251 327.476 224.615 327.764 224.871 328.14C225.135 328.508 225.267 328.944 225.267 329.448C225.267 329.904 225.171 330.332 224.979 330.732C224.787 331.132 224.415 331.588 223.863 332.1L221.931 333.924H225.543ZM230.269 330.528C231.005 330.648 231.569 330.924 231.961 331.356C232.353 331.78 232.549 332.308 232.549 332.94C232.549 333.428 232.421 333.88 232.165 334.296C231.909 334.704 231.517 335.032 230.989 335.28C230.469 335.528 229.829 335.652 229.069 335.652C228.477 335.652 227.893 335.576 227.317 335.424C226.749 335.264 226.265 335.04 225.865 334.752L226.621 333.264C226.941 333.504 227.309 333.692 227.725 333.828C228.149 333.956 228.581 334.02 229.021 334.02C229.509 334.02 229.893 333.928 230.173 333.744C230.453 333.552 230.593 333.284 230.593 332.94C230.593 332.252 230.069 331.908 229.021 331.908H228.133V330.624L229.861 328.668H226.285V327.108H232.165V328.368L230.269 330.528ZM237.373 327.108H241.189C242.101 327.108 242.905 327.284 243.601 327.636C244.305 327.98 244.849 328.468 245.233 329.1C245.625 329.732 245.821 330.468 245.821 331.308C245.821 332.148 245.625 332.884 245.233 333.516C244.849 334.148 244.305 334.64 243.601 334.992C242.905 335.336 242.101 335.508 241.189 335.508H237.373V327.108ZM241.093 333.912C241.933 333.912 242.601 333.68 243.097 333.216C243.601 332.744 243.853 332.108 243.853 331.308C243.853 330.508 243.601 329.876 243.097 329.412C242.601 328.94 241.933 328.704 241.093 328.704H239.317V333.912H241.093ZM253.479 332.304C253.479 332.328 253.467 332.496 253.443 332.808H248.559C248.647 333.208 248.855 333.524 249.183 333.756C249.511 333.988 249.919 334.104 250.407 334.104C250.743 334.104 251.039 334.056 251.295 333.96C251.559 333.856 251.803 333.696 252.027 333.48L253.023 334.56C252.415 335.256 251.527 335.604 250.359 335.604C249.631 335.604 248.987 335.464 248.427 335.184C247.867 334.896 247.435 334.5 247.131 333.996C246.827 333.492 246.675 332.92 246.675 332.28C246.675 331.648 246.823 331.08 247.119 330.576C247.423 330.064 247.835 329.668 248.355 329.388C248.883 329.1 249.471 328.956 250.119 328.956C250.751 328.956 251.323 329.092 251.835 329.364C252.347 329.636 252.747 330.028 253.035 330.54C253.331 331.044 253.479 331.632 253.479 332.304ZM250.131 330.372C249.707 330.372 249.351 330.492 249.063 330.732C248.775 330.972 248.599 331.3 248.535 331.716H251.715C251.651 331.308 251.475 330.984 251.187 330.744C250.899 330.496 250.547 330.372 250.131 330.372ZM257.845 335.604C257.157 335.604 256.537 335.464 255.985 335.184C255.441 334.896 255.013 334.5 254.701 333.996C254.397 333.492 254.245 332.92 254.245 332.28C254.245 331.64 254.397 331.068 254.701 330.564C255.013 330.06 255.441 329.668 255.985 329.388C256.537 329.1 257.157 328.956 257.845 328.956C258.525 328.956 259.117 329.1 259.621 329.388C260.133 329.668 260.505 330.072 260.737 330.6L259.285 331.38C258.949 330.788 258.465 330.492 257.833 330.492C257.345 330.492 256.941 330.652 256.621 330.972C256.301 331.292 256.141 331.728 256.141 332.28C256.141 332.832 256.301 333.268 256.621 333.588C256.941 333.908 257.345 334.068 257.833 334.068C258.473 334.068 258.957 333.772 259.285 333.18L260.737 333.972C260.505 334.484 260.133 334.884 259.621 335.172C259.117 335.46 258.525 335.604 257.845 335.604Z" fill="#B5B8C3"/>
<path d="M304.824 333.924V335.508H298.476V334.248L301.716 331.188C302.06 330.86 302.292 330.58 302.412 330.348C302.532 330.108 302.592 329.872 302.592 329.64C302.592 329.304 302.476 329.048 302.244 328.872C302.02 328.688 301.688 328.596 301.248 328.596C300.88 328.596 300.548 328.668 300.252 328.812C299.956 328.948 299.708 329.156 299.508 329.436L298.092 328.524C298.42 328.036 298.872 327.656 299.448 327.384C300.024 327.104 300.684 326.964 301.428 326.964C302.052 326.964 302.596 327.068 303.06 327.276C303.532 327.476 303.896 327.764 304.152 328.14C304.416 328.508 304.548 328.944 304.548 329.448C304.548 329.904 304.452 330.332 304.26 330.732C304.068 331.132 303.696 331.588 303.144 332.1L301.212 333.924H304.824ZM313.201 333.744H311.833V335.508H309.937V333.744H305.413V332.436L309.373 327.108H311.413L307.741 332.16H309.997V330.588H311.833V332.16H313.201V333.744ZM317.709 327.108H321.525C322.437 327.108 323.241 327.284 323.937 327.636C324.641 327.98 325.185 328.468 325.569 329.1C325.961 329.732 326.157 330.468 326.157 331.308C326.157 332.148 325.961 332.884 325.569 333.516C325.185 334.148 324.641 334.64 323.937 334.992C323.241 335.336 322.437 335.508 321.525 335.508H317.709V327.108ZM321.429 333.912C322.269 333.912 322.937 333.68 323.433 333.216C323.937 332.744 324.189 332.108 324.189 331.308C324.189 330.508 323.937 329.876 323.433 329.412C322.937 328.94 322.269 328.704 321.429 328.704H319.653V333.912H321.429ZM333.815 332.304C333.815 332.328 333.803 332.496 333.779 332.808H328.895C328.983 333.208 329.191 333.524 329.519 333.756C329.847 333.988 330.255 334.104 330.743 334.104C331.079 334.104 331.375 334.056 331.631 333.96C331.895 333.856 332.139 333.696 332.363 333.48L333.359 334.56C332.751 335.256 331.863 335.604 330.695 335.604C329.967 335.604 329.323 335.464 328.763 335.184C328.203 334.896 327.771 334.5 327.467 333.996C327.163 333.492 327.011 332.92 327.011 332.28C327.011 331.648 327.159 331.08 327.455 330.576C327.759 330.064 328.171 329.668 328.691 329.388C329.219 329.1 329.807 328.956 330.455 328.956C331.087 328.956 331.659 329.092 332.171 329.364C332.683 329.636 333.083 330.028 333.371 330.54C333.667 331.044 333.815 331.632 333.815 332.304ZM330.467 330.372C330.043 330.372 329.687 330.492 329.399 330.732C329.111 330.972 328.935 331.3 328.871 331.716H332.051C331.987 331.308 331.811 330.984 331.523 330.744C331.235 330.496 330.883 330.372 330.467 330.372ZM338.181 335.604C337.493 335.604 336.873 335.464 336.321 335.184C335.777 334.896 335.349 334.5 335.037 333.996C334.733 333.492 334.581 332.92 334.581 332.28C334.581 331.64 334.733 331.068 335.037 330.564C335.349 330.06 335.777 329.668 336.321 329.388C336.873 329.1 337.493 328.956 338.181 328.956C338.861 328.956 339.453 329.1 339.957 329.388C340.469 329.668 340.841 330.072 341.073 330.6L339.621 331.38C339.285 330.788 338.801 330.492 338.169 330.492C337.681 330.492 337.277 330.652 336.957 330.972C336.637 331.292 336.477 331.728 336.477 332.28C336.477 332.832 336.637 333.268 336.957 333.588C337.277 333.908 337.681 334.068 338.169 334.068C338.809 334.068 339.293 333.772 339.621 333.18L341.073 333.972C340.841 334.484 340.469 334.884 339.957 335.172C339.453 335.46 338.861 335.604 338.181 335.604Z" fill="#B5B8C3"/>
<path d="M385.142 333.924V335.508H378.794V334.248L382.034 331.188C382.378 330.86 382.61 330.58 382.73 330.348C382.85 330.108 382.91 329.872 382.91 329.64C382.91 329.304 382.794 329.048 382.562 328.872C382.338 328.688 382.006 328.596 381.566 328.596C381.198 328.596 380.866 328.668 380.57 328.812C380.274 328.948 380.026 329.156 379.826 329.436L378.41 328.524C378.738 328.036 379.19 327.656 379.766 327.384C380.342 327.104 381.002 326.964 381.746 326.964C382.37 326.964 382.914 327.068 383.378 327.276C383.85 327.476 384.214 327.764 384.47 328.14C384.734 328.508 384.866 328.944 384.866 329.448C384.866 329.904 384.77 330.332 384.578 330.732C384.386 331.132 384.014 331.588 383.462 332.1L381.53 333.924H385.142ZM388.825 330.264C390.009 330.264 390.881 330.5 391.441 330.972C392.009 331.444 392.293 332.076 392.293 332.868C392.293 333.38 392.165 333.848 391.909 334.272C391.653 334.688 391.261 335.024 390.733 335.28C390.213 335.528 389.569 335.652 388.801 335.652C388.209 335.652 387.625 335.576 387.049 335.424C386.481 335.264 385.997 335.04 385.597 334.752L386.365 333.264C386.685 333.504 387.053 333.692 387.469 333.828C387.885 333.956 388.313 334.02 388.753 334.02C389.241 334.02 389.625 333.924 389.905 333.732C390.185 333.54 390.325 333.272 390.325 332.928C390.325 332.568 390.177 332.296 389.881 332.112C389.593 331.928 389.089 331.836 388.369 331.836H386.221L386.653 327.108H391.777V328.668H388.273L388.141 330.264H388.825ZM397.008 327.108H400.824C401.736 327.108 402.54 327.284 403.236 327.636C403.94 327.98 404.484 328.468 404.868 329.1C405.26 329.732 405.456 330.468 405.456 331.308C405.456 332.148 405.26 332.884 404.868 333.516C404.484 334.148 403.94 334.64 403.236 334.992C402.54 335.336 401.736 335.508 400.824 335.508H397.008V327.108ZM400.728 333.912C401.568 333.912 402.236 333.68 402.732 333.216C403.236 332.744 403.488 332.108 403.488 331.308C403.488 330.508 403.236 329.876 402.732 329.412C402.236 328.94 401.568 328.704 400.728 328.704H398.952V333.912H400.728ZM413.114 332.304C413.114 332.328 413.102 332.496 413.078 332.808H408.194C408.282 333.208 408.49 333.524 408.818 333.756C409.146 333.988 409.554 334.104 410.042 334.104C410.378 334.104 410.674 334.056 410.93 333.96C411.194 333.856 411.438 333.696 411.662 333.48L412.658 334.56C412.05 335.256 411.162 335.604 409.994 335.604C409.266 335.604 408.622 335.464 408.062 335.184C407.502 334.896 407.07 334.5 406.766 333.996C406.462 333.492 406.31 332.92 406.31 332.28C406.31 331.648 406.458 331.08 406.754 330.576C407.058 330.064 407.47 329.668 407.99 329.388C408.518 329.1 409.106 328.956 409.754 328.956C410.386 328.956 410.958 329.092 411.47 329.364C411.982 329.636 412.382 330.028 412.67 330.54C412.966 331.044 413.114 331.632 413.114 332.304ZM409.766 330.372C409.342 330.372 408.986 330.492 408.698 330.732C408.41 330.972 408.234 331.3 408.17 331.716H411.35C411.286 331.308 411.11 330.984 410.822 330.744C410.534 330.496 410.182 330.372 409.766 330.372ZM417.48 335.604C416.792 335.604 416.172 335.464 415.62 335.184C415.076 334.896 414.648 334.5 414.336 333.996C414.032 333.492 413.88 332.92 413.88 332.28C413.88 331.64 414.032 331.068 414.336 330.564C414.648 330.06 415.076 329.668 415.62 329.388C416.172 329.1 416.792 328.956 417.48 328.956C418.16 328.956 418.752 329.1 419.256 329.388C419.768 329.668 420.14 330.072 420.372 330.6L418.92 331.38C418.584 330.788 418.1 330.492 417.468 330.492C416.98 330.492 416.576 330.652 416.256 330.972C415.936 331.292 415.776 331.728 415.776 332.28C415.776 332.832 415.936 333.268 416.256 333.588C416.576 333.908 416.98 334.068 417.468 334.068C418.108 334.068 418.592 333.772 418.92 333.18L420.372 333.972C420.14 334.484 419.768 334.884 419.256 335.172C418.752 335.46 418.16 335.604 417.48 335.604Z" fill="#B5B8C3"/>
<path d="M464.207 333.924V335.508H457.859V334.248L461.099 331.188C461.443 330.86 461.675 330.58 461.795 330.348C461.915 330.108 461.975 329.872 461.975 329.64C461.975 329.304 461.859 329.048 461.627 328.872C461.403 328.688 461.071 328.596 460.631 328.596C460.263 328.596 459.931 328.668 459.635 328.812C459.339 328.948 459.091 329.156 458.891 329.436L457.475 328.524C457.803 328.036 458.255 327.656 458.831 327.384C459.407 327.104 460.067 326.964 460.811 326.964C461.435 326.964 461.979 327.068 462.443 327.276C462.915 327.476 463.279 327.764 463.535 328.14C463.799 328.508 463.931 328.944 463.931 329.448C463.931 329.904 463.835 330.332 463.643 330.732C463.451 331.132 463.079 331.588 462.527 332.1L460.595 333.924H464.207ZM469.03 330.24C469.566 330.24 470.054 330.348 470.494 330.564C470.934 330.78 471.282 331.088 471.538 331.488C471.794 331.88 471.922 332.336 471.922 332.856C471.922 333.416 471.782 333.908 471.502 334.332C471.222 334.756 470.838 335.084 470.35 335.316C469.87 335.54 469.334 335.652 468.742 335.652C467.566 335.652 466.646 335.292 465.982 334.572C465.318 333.852 464.986 332.824 464.986 331.488C464.986 330.536 465.166 329.72 465.526 329.04C465.886 328.36 466.386 327.844 467.026 327.492C467.674 327.14 468.422 326.964 469.27 326.964C469.718 326.964 470.146 327.016 470.554 327.12C470.97 327.216 471.322 327.356 471.61 327.54L470.89 328.968C470.474 328.688 469.95 328.548 469.318 328.548C468.606 328.548 468.042 328.756 467.626 329.172C467.21 329.588 466.986 330.192 466.954 330.984C467.45 330.488 468.142 330.24 469.03 330.24ZM468.634 334.2C469.05 334.2 469.386 334.088 469.642 333.864C469.906 333.64 470.038 333.336 470.038 332.952C470.038 332.568 469.906 332.264 469.642 332.04C469.386 331.808 469.042 331.692 468.61 331.692C468.186 331.692 467.838 331.812 467.566 332.052C467.294 332.284 467.158 332.584 467.158 332.952C467.158 333.32 467.29 333.62 467.554 333.852C467.818 334.084 468.178 334.2 468.634 334.2ZM476.553 327.108H480.369C481.281 327.108 482.085 327.284 482.781 327.636C483.485 327.98 484.029 328.468 484.413 329.1C484.805 329.732 485.001 330.468 485.001 331.308C485.001 332.148 484.805 332.884 484.413 333.516C484.029 334.148 483.485 334.64 482.781 334.992C482.085 335.336 481.281 335.508 480.369 335.508H476.553V327.108ZM480.273 333.912C481.113 333.912 481.781 333.68 482.277 333.216C482.781 332.744 483.033 332.108 483.033 331.308C483.033 330.508 482.781 329.876 482.277 329.412C481.781 328.94 481.113 328.704 480.273 328.704H478.497V333.912H480.273ZM492.659 332.304C492.659 332.328 492.647 332.496 492.623 332.808H487.739C487.827 333.208 488.035 333.524 488.363 333.756C488.691 333.988 489.099 334.104 489.587 334.104C489.923 334.104 490.219 334.056 490.475 333.96C490.739 333.856 490.983 333.696 491.207 333.48L492.203 334.56C491.595 335.256 490.707 335.604 489.539 335.604C488.811 335.604 488.167 335.464 487.607 335.184C487.047 334.896 486.615 334.5 486.311 333.996C486.007 333.492 485.855 332.92 485.855 332.28C485.855 331.648 486.003 331.08 486.299 330.576C486.603 330.064 487.015 329.668 487.535 329.388C488.063 329.1 488.651 328.956 489.299 328.956C489.931 328.956 490.503 329.092 491.015 329.364C491.527 329.636 491.927 330.028 492.215 330.54C492.511 331.044 492.659 331.632 492.659 332.304ZM489.311 330.372C488.887 330.372 488.531 330.492 488.243 330.732C487.955 330.972 487.779 331.3 487.715 331.716H490.895C490.831 331.308 490.655 330.984 490.367 330.744C490.079 330.496 489.727 330.372 489.311 330.372ZM497.025 335.604C496.337 335.604 495.717 335.464 495.165 335.184C494.621 334.896 494.193 334.5 493.881 333.996C493.577 333.492 493.425 332.92 493.425 332.28C493.425 331.64 493.577 331.068 493.881 330.564C494.193 330.06 494.621 329.668 495.165 329.388C495.717 329.1 496.337 328.956 497.025 328.956C497.705 328.956 498.297 329.1 498.801 329.388C499.313 329.668 499.685 330.072 499.917 330.6L498.465 331.38C498.129 330.788 497.645 330.492 497.013 330.492C496.525 330.492 496.121 330.652 495.801 330.972C495.481 331.292 495.321 331.728 495.321 332.28C495.321 332.832 495.481 333.268 495.801 333.588C496.121 333.908 496.525 334.068 497.013 334.068C497.653 334.068 498.137 333.772 498.465 333.18L499.917 333.972C499.685 334.484 499.313 334.884 498.801 335.172C498.297 335.46 497.705 335.604 497.025 335.604Z" fill="#B5B8C3"/>
<path d="M543.615 333.924V335.508H537.267V334.248L540.507 331.188C540.851 330.86 541.083 330.58 541.203 330.348C541.323 330.108 541.383 329.872 541.383 329.64C541.383 329.304 541.267 329.048 541.035 328.872C540.811 328.688 540.479 328.596 540.039 328.596C539.671 328.596 539.339 328.668 539.043 328.812C538.747 328.948 538.499 329.156 538.299 329.436L536.883 328.524C537.211 328.036 537.663 327.656 538.239 327.384C538.815 327.104 539.475 326.964 540.219 326.964C540.843 326.964 541.387 327.068 541.851 327.276C542.323 327.476 542.687 327.764 542.943 328.14C543.207 328.508 543.339 328.944 543.339 329.448C543.339 329.904 543.243 330.332 543.051 330.732C542.859 331.132 542.487 331.588 541.935 332.1L540.003 333.924H543.615ZM550.97 327.108V328.368L547.85 335.508H545.738L548.75 328.692H545.966V330.06H544.238V327.108H550.97ZM555.762 327.108H559.578C560.49 327.108 561.294 327.284 561.99 327.636C562.694 327.98 563.238 328.468 563.622 329.1C564.014 329.732 564.21 330.468 564.21 331.308C564.21 332.148 564.014 332.884 563.622 333.516C563.238 334.148 562.694 334.64 561.99 334.992C561.294 335.336 560.49 335.508 559.578 335.508H555.762V327.108ZM559.482 333.912C560.322 333.912 560.99 333.68 561.486 333.216C561.99 332.744 562.242 332.108 562.242 331.308C562.242 330.508 561.99 329.876 561.486 329.412C560.99 328.94 560.322 328.704 559.482 328.704H557.706V333.912H559.482ZM571.868 332.304C571.868 332.328 571.856 332.496 571.832 332.808H566.948C567.036 333.208 567.244 333.524 567.572 333.756C567.9 333.988 568.308 334.104 568.796 334.104C569.132 334.104 569.428 334.056 569.684 333.96C569.948 333.856 570.192 333.696 570.416 333.48L571.412 334.56C570.804 335.256 569.916 335.604 568.748 335.604C568.02 335.604 567.376 335.464 566.816 335.184C566.256 334.896 565.824 334.5 565.52 333.996C565.216 333.492 565.064 332.92 565.064 332.28C565.064 331.648 565.212 331.08 565.508 330.576C565.812 330.064 566.224 329.668 566.744 329.388C567.272 329.1 567.86 328.956 568.508 328.956C569.14 328.956 569.712 329.092 570.224 329.364C570.736 329.636 571.136 330.028 571.424 330.54C571.72 331.044 571.868 331.632 571.868 332.304ZM568.52 330.372C568.096 330.372 567.74 330.492 567.452 330.732C567.164 330.972 566.988 331.3 566.924 331.716H570.104C570.04 331.308 569.864 330.984 569.576 330.744C569.288 330.496 568.936 330.372 568.52 330.372ZM576.234 335.604C575.546 335.604 574.926 335.464 574.374 335.184C573.83 334.896 573.402 334.5 573.09 333.996C572.786 333.492 572.634 332.92 572.634 332.28C572.634 331.64 572.786 331.068 573.09 330.564C573.402 330.06 573.83 329.668 574.374 329.388C574.926 329.1 575.546 328.956 576.234 328.956C576.914 328.956 577.506 329.1 578.01 329.388C578.522 329.668 578.894 330.072 579.126 330.6L577.674 331.38C577.338 330.788 576.854 330.492 576.222 330.492C575.734 330.492 575.33 330.652 575.01 330.972C574.69 331.292 574.53 331.728 574.53 332.28C574.53 332.832 574.69 333.268 575.01 333.588C575.33 333.908 575.734 334.068 576.222 334.068C576.862 334.068 577.346 333.772 577.674 333.18L579.126 333.972C578.894 334.484 578.522 334.884 578.01 335.172C577.506 335.46 576.914 335.604 576.234 335.604Z" fill="#B5B8C3"/>
<defs>
<filter id="filter0_b_6508_324" x="-8" y="-8" width="683" height="385" filterUnits="userSpaceOnUse" color-interpolation-filters="sRGB">
<feFlood flood-opacity="0" result="BackgroundImageFix"/>
<feGaussianBlur in="BackgroundImageFix" stdDeviation="4"/>
<feComposite in2="SourceAlpha" operator="in" result="effect1_backgroundBlur_6508_324"/>
<feBlend mode="normal" in="SourceGraphic" in2="effect1_backgroundBlur_6508_324" result="shape"/>
</filter>
<linearGradient id="paint0_linear_6508_324" x1="333.5" y1="1" x2="308.588" y2="339.033" gradientUnits="userSpaceOnUse">
<stop stop-color="#1A1B23"/>
<stop offset="1" stop-color="#1A1B23" stop-opacity="0"/>
</linearGradient>
<linearGradient id="paint1_linear_6508_324" x1="0.999999" y1="172.191" x2="676.447" y2="200.241" gradientUnits="userSpaceOnUse">
<stop stop-color="#313540"/>
<stop offset="1" stop-color="#1B1C24"/>
</linearGradient>
<linearGradient id="paint2_linear_6508_324" x1="312.175" y1="201.172" x2="306.796" y2="312.898" gradientUnits="userSpaceOnUse">
<stop/>
<stop offset="1" stop-color="#282933" stop-opacity="0"/>
</linearGradient>
</defs>
</svg>
