<svg width="25" height="25" viewBox="0 0 25 25" fill="none" xmlns="http://www.w3.org/2000/svg">
    <g clip-path="url(#clip0_6842_244)">
        <path d="M22.1484 0.456055L9.09844 14.8186L5.31094 11.9311H3.21094L9.09844 21.4936L24.2484 0.456055H22.1484Z"
            fill="#F7931A" />
        <path
            d="M20.4625 21.4935C20.4625 21.7185 20.275 21.906 20.05 21.906H3.2125C2.9875 21.906 2.8 21.7185 2.8 21.4935V4.65596C2.8 4.43096 2.9875 4.24346 3.2125 4.24346H14.725L17.0125 1.73096H1.075C0.625 1.73096 0.25 2.10596 0.25 2.55596V23.5935C0.25 24.081 0.625 24.456 1.075 24.456H22.1125C22.5625 24.456 22.9375 24.081 22.9375 23.631V7.24346L20.425 10.7685C20.4625 10.7685 20.4625 21.4935 20.4625 21.4935Z"
            fill="#B6B8BC" />
    </g>
    <defs>
        <clipPath id="clip0_6842_244">
            <rect width="24" height="24" fill="white" transform="translate(0.25 0.456055)" />
        </clipPath>
    </defs>
</svg>