<svg width="6" height="6" viewBox="0 0 6 6" fill="none"
    xmlns="http://www.w3.org/2000/svg">
    <g clip-path="url(#clip0_219_165)">
        <path d="M4.43802 5.20497C4.43802 5.25167 4.3991 5.29059 4.3524 5.29059H0.857578C0.810876 5.29059 0.771959 5.25167 0.771959 5.20497V1.71015C0.771959 1.66344 0.810876 1.62453 0.857578 1.62453H3.24713L3.72193 1.10303H0.413914C0.320511 1.10303 0.242676 1.18086 0.242676 1.27427V5.64085C0.242676 5.74204 0.320511 5.81987 0.413914 5.81987H4.7805C4.8739 5.81987 4.95174 5.74203 4.95174 5.64863V2.24721L4.43024 2.97887C4.43802 2.97887 4.43802 5.20497 4.43802 5.20497Z" fill="#B5B8C3"/>
    </g>
    <defs>
        <clipPath id="clip0_219_165">
            <rect width="4.98148" height="4.98148" fill="white" transform="translate(0.240967 0.838379)"/>
        </clipPath>
    </defs>
</svg>
