<svg width="365" height="49" viewBox="0 0 365 49" fill="none"
    xmlns="http://www.w3.org/2000/svg">
    <mask id="path-1-outside-1_72_2041" maskUnits="userSpaceOnUse" x="0" y="0" width="365" height="49" fill="black">
        <rect fill="white" width="365" height="49"/>
        <path d="M0 23.8934C0 15.5932 0 11.4431 1.59711 8.26484C3.04513 5.38328 5.38328 3.04513 8.26484 1.59711C11.4431 0 15.5932 0 23.8934 0L340.107 0C348.407 0 352.557 0 355.735 1.59711C358.617 3.04513 360.955 5.38328 362.403 8.26484C364 11.4431 364 15.5932 364 23.8934V23.8934C364 32.1936 364 36.3438 362.403 39.522C360.955 42.4035 358.617 44.7417 355.735 46.1897C352.557 47.7868 348.407 47.7868 340.107 47.7868H23.8934C15.5932 47.7868 11.4431 47.7868 8.26484 46.1897C5.38328 44.7417 3.04513 42.4035 1.59711 39.522C0 36.3438 0 32.1936 0 23.8934V23.8934Z"/>
    </mask>
    <path d="M0 23.8934C0 15.5932 0 11.4431 1.59711 8.26484C3.04513 5.38328 5.38328 3.04513 8.26484 1.59711C11.4431 0 15.5932 0 23.8934 0L340.107 0C348.407 0 352.557 0 355.735 1.59711C358.617 3.04513 360.955 5.38328 362.403 8.26484C364 11.4431 364 15.5932 364 23.8934V23.8934C364 32.1936 364 36.3438 362.403 39.522C360.955 42.4035 358.617 44.7417 355.735 46.1897C352.557 47.7868 348.407 47.7868 340.107 47.7868H23.8934C15.5932 47.7868 11.4431 47.7868 8.26484 46.1897C5.38328 44.7417 3.04513 42.4035 1.59711 39.522C0 36.3438 0 32.1936 0 23.8934V23.8934Z" fill="#020202" fill-opacity="0.15"/>
    <path d="M0 0L364 0L0 0ZM364.5 32.7868C364.5 41.3472 357.56 48.2868 349 48.2868H15.5C6.93959 48.2868 0 41.3472 0 32.7868C0 40.7949 6.71573 47.2868 15 47.2868H349C357.008 47.2868 363.5 40.7949 363.5 32.7868H364.5ZM0 47.7868L0 0L0 47.7868ZM349 0C357.56 0 364.5 6.93959 364.5 15.5V32.7868C364.5 41.3472 357.56 48.2868 349 48.2868V47.2868C357.008 47.2868 363.5 40.7949 363.5 32.7868V15C363.5 6.71573 357.008 0 349 0Z" fill="url(#paint0_linear_72_2041)" mask="url(#path-1-outside-1_72_2041)"/>
    <path d="M59.688 29.128C58.568 29.128 57.5547 28.8827 56.648 28.392C55.752 27.8907 55.048 27.208 54.536 26.344C54.024 25.4693 53.768 24.488 53.768 23.4C53.768 22.312 54.024 21.336 54.536 20.472C55.048 19.5973 55.7573 18.9147 56.664 18.424C57.5707 17.9227 58.584 17.672 59.704 17.672C60.5787 17.672 61.3787 17.8213 62.104 18.12C62.8293 18.408 63.448 18.84 63.96 19.416L62.92 20.424C62.0773 19.5387 61.0267 19.096 59.768 19.096C58.936 19.096 58.184 19.2827 57.512 19.656C56.84 20.0293 56.312 20.5467 55.928 21.208C55.5547 21.8587 55.368 22.5893 55.368 23.4C55.368 24.2107 55.5547 24.9467 55.928 25.608C56.312 26.2587 56.84 26.7707 57.512 27.144C58.184 27.5173 58.936 27.704 59.768 27.704C61.016 27.704 62.0667 27.256 62.92 26.36L63.96 27.368C63.448 27.944 62.824 28.3813 62.088 28.68C61.3627 28.9787 60.5627 29.128 59.688 29.128ZM69.2911 29.096C68.4485 29.096 67.6911 28.9093 67.0191 28.536C66.3471 28.1627 65.8191 27.6507 65.4351 27C65.0618 26.3387 64.8751 25.592 64.8751 24.76C64.8751 23.928 65.0618 23.1867 65.4351 22.536C65.8191 21.8747 66.3471 21.3627 67.0191 21C67.6911 20.6267 68.4485 20.44 69.2911 20.44C70.1338 20.44 70.8858 20.6267 71.5471 21C72.2191 21.3627 72.7418 21.8747 73.1151 22.536C73.4991 23.1867 73.6911 23.928 73.6911 24.76C73.6911 25.592 73.4991 26.3387 73.1151 27C72.7418 27.6507 72.2191 28.1627 71.5471 28.536C70.8858 28.9093 70.1338 29.096 69.2911 29.096ZM69.2911 27.752C69.8351 27.752 70.3205 27.6293 70.7471 27.384C71.1845 27.128 71.5258 26.776 71.7711 26.328C72.0165 25.8693 72.1391 25.3467 72.1391 24.76C72.1391 24.1733 72.0165 23.656 71.7711 23.208C71.5258 22.7493 71.1845 22.3973 70.7471 22.152C70.3205 21.9067 69.8351 21.784 69.2911 21.784C68.7471 21.784 68.2565 21.9067 67.8191 22.152C67.3925 22.3973 67.0511 22.7493 66.7951 23.208C66.5498 23.656 66.4271 24.1733 66.4271 24.76C66.4271 25.3467 66.5498 25.8693 66.7951 26.328C67.0511 26.776 67.3925 27.128 67.8191 27.384C68.2565 27.6293 68.7471 27.752 69.2911 27.752ZM80.3434 20.44C81.4207 20.44 82.274 20.7547 82.9034 21.384C83.5434 22.0027 83.8634 22.9147 83.8634 24.12V29H82.3274V24.296C82.3274 23.4747 82.13 22.856 81.7354 22.44C81.3407 22.024 80.7754 21.816 80.0394 21.816C79.2074 21.816 78.5514 22.0613 78.0714 22.552C77.5914 23.032 77.3514 23.7253 77.3514 24.632V29H75.8154V20.52H77.2874V21.8C77.5967 21.3627 78.0127 21.0267 78.5354 20.792C79.0687 20.5573 79.6714 20.44 80.3434 20.44ZM89.81 18.296C88.8927 18.296 88.434 18.792 88.434 19.784V20.52H90.898V21.784H88.466V29L86.93 29V21.784H85.49V20.52H86.93V19.768C86.93 18.9253 87.1753 18.2587 87.666 17.768C88.1567 17.2773 88.8447 17.032 89.73 17.032C90.0713 17.032 90.3913 17.0747 90.69 17.16C90.9887 17.2453 91.2447 17.368 91.458 17.528L90.994 18.696C90.642 18.4293 90.2473 18.296 89.81 18.296ZM93.634 20.52H95.17V29H93.634V20.52ZM94.402 18.888C94.1033 18.888 93.8527 18.792 93.65 18.6C93.458 18.408 93.362 18.1733 93.362 17.896C93.362 17.6187 93.458 17.384 93.65 17.192C93.8527 16.9893 94.1033 16.888 94.402 16.888C94.7007 16.888 94.946 16.984 95.138 17.176C95.3407 17.3573 95.442 17.5867 95.442 17.864C95.442 18.152 95.3407 18.3973 95.138 18.6C94.946 18.792 94.7007 18.888 94.402 18.888ZM106.097 17.128V29H104.625V27.656C104.283 28.1253 103.851 28.4827 103.329 28.728C102.806 28.9733 102.23 29.096 101.601 29.096C100.779 29.096 100.043 28.9147 99.3926 28.552C98.742 28.1893 98.23 27.6827 97.8566 27.032C97.494 26.3707 97.3126 25.6133 97.3126 24.76C97.3126 23.9067 97.494 23.1547 97.8566 22.504C98.23 21.8533 98.742 21.3467 99.3926 20.984C100.043 20.6213 100.779 20.44 101.601 20.44C102.209 20.44 102.769 20.5573 103.281 20.792C103.793 21.016 104.219 21.352 104.561 21.8V17.128H106.097ZM101.729 27.752C102.262 27.752 102.747 27.6293 103.185 27.384C103.622 27.128 103.963 26.776 104.209 26.328C104.454 25.8693 104.577 25.3467 104.577 24.76C104.577 24.1733 104.454 23.656 104.209 23.208C103.963 22.7493 103.622 22.3973 103.185 22.152C102.747 21.9067 102.262 21.784 101.729 21.784C101.185 21.784 100.694 21.9067 100.257 22.152C99.83 22.3973 99.4886 22.7493 99.2326 23.208C98.9873 23.656 98.8646 24.1733 98.8646 24.76C98.8646 25.3467 98.9873 25.8693 99.2326 26.328C99.4886 26.776 99.83 27.128 100.257 27.384C100.694 27.6293 101.185 27.752 101.729 27.752ZM116.667 24.808C116.667 24.9253 116.656 25.08 116.635 25.272H109.755C109.851 26.0187 110.176 26.6213 110.731 27.08C111.296 27.528 111.995 27.752 112.827 27.752C113.84 27.752 114.656 27.4107 115.275 26.728L116.123 27.72C115.739 28.168 115.259 28.5093 114.683 28.744C114.118 28.9787 113.483 29.096 112.779 29.096C111.883 29.096 111.088 28.9147 110.395 28.552C109.702 28.1787 109.163 27.6613 108.779 27C108.406 26.3387 108.219 25.592 108.219 24.76C108.219 23.9387 108.4 23.1973 108.763 22.536C109.136 21.8747 109.643 21.3627 110.283 21C110.934 20.6267 111.664 20.44 112.475 20.44C113.286 20.44 114.006 20.6267 114.635 21C115.275 21.3627 115.771 21.8747 116.123 22.536C116.486 23.1973 116.667 23.9547 116.667 24.808ZM112.475 21.736C111.739 21.736 111.12 21.96 110.619 22.408C110.128 22.856 109.84 23.4427 109.755 24.168H115.195C115.11 23.4533 114.816 22.872 114.315 22.424C113.824 21.9653 113.211 21.736 112.475 21.736ZM123.328 20.44C124.405 20.44 125.258 20.7547 125.888 21.384C126.528 22.0027 126.848 22.9147 126.848 24.12V29H125.312V24.296C125.312 23.4747 125.114 22.856 124.72 22.44C124.325 22.024 123.76 21.816 123.024 21.816C122.192 21.816 121.536 22.0613 121.056 22.552C120.576 23.032 120.336 23.7253 120.336 24.632V29H118.8V20.52H120.272V21.8C120.581 21.3627 120.997 21.0267 121.52 20.792C122.053 20.5573 122.656 20.44 123.328 20.44ZM134.458 28.504C134.234 28.696 133.957 28.8453 133.626 28.952C133.296 29.048 132.954 29.096 132.602 29.096C131.749 29.096 131.088 28.8667 130.618 28.408C130.149 27.9493 129.914 27.2933 129.914 26.44V21.784H128.474V20.52H129.914V18.664H131.45V20.52H133.882V21.784H131.45V26.376C131.45 26.8347 131.562 27.1867 131.786 27.432C132.021 27.6773 132.352 27.8 132.778 27.8C133.248 27.8 133.648 27.6667 133.978 27.4L134.458 28.504ZM136.315 20.52H137.851V29H136.315V20.52ZM137.083 18.888C136.785 18.888 136.534 18.792 136.331 18.6C136.139 18.408 136.043 18.1733 136.043 17.896C136.043 17.6187 136.139 17.384 136.331 17.192C136.534 16.9893 136.785 16.888 137.083 16.888C137.382 16.888 137.627 16.984 137.819 17.176C138.022 17.3573 138.123 17.5867 138.123 17.864C138.123 18.152 138.022 18.3973 137.819 18.6C137.627 18.792 137.382 18.888 137.083 18.888ZM143.872 20.44C145.045 20.44 145.941 20.728 146.56 21.304C147.189 21.88 147.504 22.7387 147.504 23.88V29H146.048V27.88C145.792 28.2747 145.424 28.5787 144.944 28.792C144.475 28.9947 143.915 29.096 143.264 29.096C142.315 29.096 141.552 28.8667 140.976 28.408C140.411 27.9493 140.128 27.3467 140.128 26.6C140.128 25.8533 140.4 25.256 140.944 24.808C141.488 24.3493 142.352 24.12 143.536 24.12H145.968V23.816C145.968 23.1547 145.776 22.648 145.392 22.296C145.008 21.944 144.443 21.768 143.696 21.768C143.195 21.768 142.704 21.8533 142.224 22.024C141.744 22.184 141.339 22.4027 141.008 22.68L140.368 21.528C140.805 21.176 141.328 20.9093 141.936 20.728C142.544 20.536 143.189 20.44 143.872 20.44ZM143.52 27.912C144.107 27.912 144.613 27.784 145.04 27.528C145.467 27.2613 145.776 26.888 145.968 26.408V25.224H143.6C142.299 25.224 141.648 25.6613 141.648 26.536C141.648 26.9627 141.813 27.2987 142.144 27.544C142.475 27.7893 142.933 27.912 143.52 27.912ZM150.347 17.128H151.883V29H150.347V17.128Z" fill="#F7931A"/>
    <path d="M163.704 17.8C165.155 17.8 166.296 18.1467 167.128 18.84C167.96 19.5333 168.376 20.488 168.376 21.704C168.376 22.92 167.96 23.8747 167.128 24.568C166.296 25.2613 165.155 25.608 163.704 25.608H160.936V29H159.336V17.8H163.704ZM163.656 24.216C164.67 24.216 165.443 24.0027 165.976 23.576C166.51 23.1387 166.776 22.5147 166.776 21.704C166.776 20.8933 166.51 20.2747 165.976 19.848C165.443 19.4107 164.67 19.192 163.656 19.192H160.936V24.216H163.656ZM171.834 21.944C172.101 21.4533 172.496 21.08 173.018 20.824C173.541 20.568 174.176 20.44 174.922 20.44V21.928C174.837 21.9173 174.72 21.912 174.57 21.912C173.738 21.912 173.082 22.1627 172.602 22.664C172.133 23.1547 171.898 23.8587 171.898 24.776V29H170.362V20.52H171.834V21.944ZM176.815 20.52H178.351V29H176.815V20.52ZM177.583 18.888C177.285 18.888 177.034 18.792 176.831 18.6C176.639 18.408 176.543 18.1733 176.543 17.896C176.543 17.6187 176.639 17.384 176.831 17.192C177.034 16.9893 177.285 16.888 177.583 16.888C177.882 16.888 178.127 16.984 178.319 17.176C178.522 17.3573 178.623 17.5867 178.623 17.864C178.623 18.152 178.522 18.3973 178.319 18.6C178.127 18.792 177.882 18.888 177.583 18.888ZM188.788 20.52L185.076 29L183.508 29L179.796 20.52L181.396 20.52L184.308 27.32L187.284 20.52H188.788ZM193.044 20.44C194.217 20.44 195.113 20.728 195.732 21.304C196.361 21.88 196.676 22.7387 196.676 23.88V29H195.22V27.88C194.964 28.2747 194.596 28.5787 194.116 28.792C193.647 28.9947 193.087 29.096 192.436 29.096C191.487 29.096 190.724 28.8667 190.148 28.408C189.583 27.9493 189.3 27.3467 189.3 26.6C189.3 25.8533 189.572 25.256 190.116 24.808C190.66 24.3493 191.524 24.12 192.708 24.12H195.14V23.816C195.14 23.1547 194.948 22.648 194.564 22.296C194.18 21.944 193.615 21.768 192.868 21.768C192.367 21.768 191.876 21.8533 191.396 22.024C190.916 22.184 190.511 22.4027 190.18 22.68L189.54 21.528C189.977 21.176 190.5 20.9093 191.108 20.728C191.716 20.536 192.361 20.44 193.044 20.44ZM192.692 27.912C193.279 27.912 193.785 27.784 194.212 27.528C194.639 27.2613 194.948 26.888 195.14 26.408V25.224H192.772C191.471 25.224 190.82 25.6613 190.82 26.536C190.82 26.9627 190.985 27.2987 191.316 27.544C191.647 27.7893 192.105 27.912 192.692 27.912ZM204.287 28.504C204.063 28.696 203.785 28.8453 203.455 28.952C203.124 29.048 202.783 29.096 202.431 29.096C201.577 29.096 200.916 28.8667 200.447 28.408C199.977 27.9493 199.743 27.2933 199.743 26.44V21.784H198.303V20.52H199.743V18.664H201.279V20.52L203.711 20.52V21.784L201.279 21.784V26.376C201.279 26.8347 201.391 27.1867 201.615 27.432C201.849 27.6773 202.18 27.8 202.607 27.8C203.076 27.8 203.476 27.6667 203.807 27.4L204.287 28.504ZM213.526 24.808C213.526 24.9253 213.516 25.08 213.494 25.272H206.614C206.71 26.0187 207.036 26.6213 207.59 27.08C208.156 27.528 208.854 27.752 209.686 27.752C210.7 27.752 211.516 27.4107 212.134 26.728L212.982 27.72C212.598 28.168 212.118 28.5093 211.542 28.744C210.977 28.9787 210.342 29.096 209.638 29.096C208.742 29.096 207.948 28.9147 207.254 28.552C206.561 28.1787 206.022 27.6613 205.638 27C205.265 26.3387 205.078 25.592 205.078 24.76C205.078 23.9387 205.26 23.1973 205.622 22.536C205.996 21.8747 206.502 21.3627 207.142 21C207.793 20.6267 208.524 20.44 209.334 20.44C210.145 20.44 210.865 20.6267 211.494 21C212.134 21.3627 212.63 21.8747 212.982 22.536C213.345 23.1973 213.526 23.9547 213.526 24.808ZM209.334 21.736C208.598 21.736 207.98 21.96 207.478 22.408C206.988 22.856 206.7 23.4427 206.614 24.168H212.054C211.969 23.4533 211.676 22.872 211.174 22.424C210.684 21.9653 210.07 21.736 209.334 21.736ZM219.956 20.52H221.492V29H219.956V20.52ZM220.724 18.888C220.425 18.888 220.175 18.792 219.972 18.6C219.78 18.408 219.684 18.1733 219.684 17.896C219.684 17.6187 219.78 17.384 219.972 17.192C220.175 16.9893 220.425 16.888 220.724 16.888C221.023 16.888 221.268 16.984 221.46 17.176C221.663 17.3573 221.764 17.5867 221.764 17.864C221.764 18.152 221.663 18.3973 221.46 18.6C221.268 18.792 221.023 18.888 220.724 18.888ZM228.953 20.44C230.03 20.44 230.883 20.7547 231.513 21.384C232.153 22.0027 232.473 22.9147 232.473 24.12V29H230.937V24.296C230.937 23.4747 230.739 22.856 230.345 22.44C229.95 22.024 229.385 21.816 228.649 21.816C227.817 21.816 227.161 22.0613 226.681 22.552C226.201 23.032 225.961 23.7253 225.961 24.632V29H224.425V20.52H225.897V21.8C226.206 21.3627 226.622 21.0267 227.145 20.792C227.678 20.5573 228.281 20.44 228.953 20.44ZM242.663 20.52L238.951 29H237.383L233.671 20.52H235.271L238.183 27.32L241.159 20.52H242.663ZM251.526 24.808C251.526 24.9253 251.516 25.08 251.494 25.272H244.614C244.71 26.0187 245.036 26.6213 245.59 27.08C246.156 27.528 246.854 27.752 247.686 27.752C248.7 27.752 249.516 27.4107 250.134 26.728L250.982 27.72C250.598 28.168 250.118 28.5093 249.542 28.744C248.977 28.9787 248.342 29.096 247.638 29.096C246.742 29.096 245.948 28.9147 245.254 28.552C244.561 28.1787 244.022 27.6613 243.638 27C243.265 26.3387 243.078 25.592 243.078 24.76C243.078 23.9387 243.26 23.1973 243.622 22.536C243.996 21.8747 244.502 21.3627 245.142 21C245.793 20.6267 246.524 20.44 247.334 20.44C248.145 20.44 248.865 20.6267 249.494 21C250.134 21.3627 250.63 21.8747 250.982 22.536C251.345 23.1973 251.526 23.9547 251.526 24.808ZM247.334 21.736C246.598 21.736 245.98 21.96 245.478 22.408C244.988 22.856 244.7 23.4427 244.614 24.168H250.054C249.969 23.4533 249.676 22.872 249.174 22.424C248.684 21.9653 248.07 21.736 247.334 21.736ZM256.091 29.096C255.398 29.096 254.731 29.0053 254.091 28.824C253.451 28.632 252.95 28.392 252.587 28.104L253.227 26.888C253.6 27.1547 254.054 27.368 254.587 27.528C255.12 27.688 255.659 27.768 256.203 27.768C257.547 27.768 258.219 27.384 258.219 26.616C258.219 26.36 258.128 26.1573 257.947 26.008C257.766 25.8587 257.536 25.752 257.259 25.688C256.992 25.6133 256.608 25.5333 256.107 25.448C255.424 25.3413 254.864 25.2187 254.427 25.08C254 24.9413 253.632 24.7067 253.323 24.376C253.014 24.0453 252.859 23.5813 252.859 22.984C252.859 22.216 253.179 21.6027 253.819 21.144C254.459 20.6747 255.318 20.44 256.395 20.44C256.96 20.44 257.526 20.5093 258.091 20.648C258.656 20.7867 259.12 20.9733 259.483 21.208L258.827 22.424C258.134 21.976 257.318 21.752 256.379 21.752C255.728 21.752 255.232 21.8587 254.891 22.072C254.55 22.2853 254.379 22.568 254.379 22.92C254.379 23.1973 254.475 23.416 254.667 23.576C254.859 23.736 255.094 23.8533 255.371 23.928C255.659 24.0027 256.059 24.088 256.571 24.184C257.254 24.3013 257.803 24.4293 258.219 24.568C258.646 24.696 259.008 24.92 259.307 25.24C259.606 25.56 259.755 26.008 259.755 26.584C259.755 27.352 259.424 27.9653 258.763 28.424C258.112 28.872 257.222 29.096 256.091 29.096ZM266.443 28.504C266.219 28.696 265.941 28.8453 265.611 28.952C265.28 29.048 264.939 29.096 264.587 29.096C263.733 29.096 263.072 28.8667 262.603 28.408C262.133 27.9493 261.899 27.2933 261.899 26.44V21.784H260.459V20.52H261.899V18.664H263.435V20.52H265.867V21.784H263.435V26.376C263.435 26.8347 263.547 27.1867 263.771 27.432C264.005 27.6773 264.336 27.8 264.763 27.8C265.232 27.8 265.632 27.6667 265.963 27.4L266.443 28.504ZM271.651 29.096C270.808 29.096 270.051 28.9093 269.379 28.536C268.707 28.1627 268.179 27.6507 267.795 27C267.421 26.3387 267.235 25.592 267.235 24.76C267.235 23.928 267.421 23.1867 267.795 22.536C268.179 21.8747 268.707 21.3627 269.379 21C270.051 20.6267 270.808 20.44 271.651 20.44C272.493 20.44 273.245 20.6267 273.907 21C274.579 21.3627 275.101 21.8747 275.475 22.536C275.859 23.1867 276.051 23.928 276.051 24.76C276.051 25.592 275.859 26.3387 275.475 27C275.101 27.6507 274.579 28.1627 273.907 28.536C273.245 28.9093 272.493 29.096 271.651 29.096ZM271.651 27.752C272.195 27.752 272.68 27.6293 273.107 27.384C273.544 27.128 273.885 26.776 274.131 26.328C274.376 25.8693 274.499 25.3467 274.499 24.76C274.499 24.1733 274.376 23.656 274.131 23.208C273.885 22.7493 273.544 22.3973 273.107 22.152C272.68 21.9067 272.195 21.784 271.651 21.784C271.107 21.784 270.616 21.9067 270.179 22.152C269.752 22.3973 269.411 22.7493 269.155 23.208C268.909 23.656 268.787 24.1733 268.787 24.76C268.787 25.3467 268.909 25.8693 269.155 26.328C269.411 26.776 269.752 27.128 270.179 27.384C270.616 27.6293 271.107 27.752 271.651 27.752ZM279.647 21.944C279.913 21.4533 280.308 21.08 280.831 20.824C281.353 20.568 281.988 20.44 282.735 20.44V21.928C282.649 21.9173 282.532 21.912 282.383 21.912C281.551 21.912 280.895 22.1627 280.415 22.664C279.945 23.1547 279.711 23.8587 279.711 24.776V29H278.175V20.52H279.647V21.944ZM287.122 29.096C286.429 29.096 285.762 29.0053 285.122 28.824C284.482 28.632 283.981 28.392 283.618 28.104L284.258 26.888C284.632 27.1547 285.085 27.368 285.618 27.528C286.152 27.688 286.69 27.768 287.234 27.768C288.578 27.768 289.25 27.384 289.25 26.616C289.25 26.36 289.16 26.1573 288.978 26.008C288.797 25.8587 288.568 25.752 288.29 25.688C288.024 25.6133 287.64 25.5333 287.138 25.448C286.456 25.3413 285.896 25.2187 285.458 25.08C285.032 24.9413 284.664 24.7067 284.354 24.376C284.045 24.0453 283.89 23.5813 283.89 22.984C283.89 22.216 284.21 21.6027 284.85 21.144C285.49 20.6747 286.349 20.44 287.426 20.44C287.992 20.44 288.557 20.5093 289.122 20.648C289.688 20.7867 290.152 20.9733 290.514 21.208L289.858 22.424C289.165 21.976 288.349 21.752 287.41 21.752C286.76 21.752 286.264 21.8587 285.922 22.072C285.581 22.2853 285.41 22.568 285.41 22.92C285.41 23.1973 285.506 23.416 285.698 23.576C285.89 23.736 286.125 23.8533 286.402 23.928C286.69 24.0027 287.09 24.088 287.602 24.184C288.285 24.3013 288.834 24.4293 289.25 24.568C289.677 24.696 290.04 24.92 290.338 25.24C290.637 25.56 290.786 26.008 290.786 26.584C290.786 27.352 290.456 27.9653 289.794 28.424C289.144 28.872 288.253 29.096 287.122 29.096ZM301.499 20.44C302.32 20.44 303.056 20.6213 303.707 20.984C304.358 21.3467 304.864 21.8533 305.227 22.504C305.6 23.1547 305.787 23.9067 305.787 24.76C305.787 25.6133 305.6 26.3707 305.227 27.032C304.864 27.6827 304.358 28.1893 303.707 28.552C303.056 28.9147 302.32 29.096 301.499 29.096C300.891 29.096 300.331 28.9787 299.819 28.744C299.318 28.5093 298.891 28.168 298.539 27.72V32.104H297.003V20.52H298.475V21.864C298.816 21.3947 299.248 21.0427 299.771 20.808C300.294 20.5627 300.87 20.44 301.499 20.44ZM301.371 27.752C301.915 27.752 302.4 27.6293 302.827 27.384C303.264 27.128 303.606 26.776 303.851 26.328C304.107 25.8693 304.235 25.3467 304.235 24.76C304.235 24.1733 304.107 23.656 303.851 23.208C303.606 22.7493 303.264 22.3973 302.827 22.152C302.4 21.9067 301.915 21.784 301.371 21.784C300.838 21.784 300.352 21.912 299.915 22.168C299.488 22.4133 299.147 22.76 298.891 23.208C298.646 23.656 298.523 24.1733 298.523 24.76C298.523 25.3467 298.646 25.8693 298.891 26.328C299.136 26.776 299.478 27.128 299.915 27.384C300.352 27.6293 300.838 27.752 301.371 27.752ZM307.909 20.52H309.445V29L307.909 29V20.52ZM308.677 18.888C308.378 18.888 308.128 18.792 307.925 18.6C307.733 18.408 307.637 18.1733 307.637 17.896C307.637 17.6187 307.733 17.384 307.925 17.192C308.128 16.9893 308.378 16.888 308.677 16.888C308.976 16.888 309.221 16.984 309.413 17.176C309.616 17.3573 309.717 17.5867 309.717 17.864C309.717 18.152 309.616 18.3973 309.413 18.6C309.221 18.792 308.976 18.888 308.677 18.888ZM317.146 28.504C316.922 28.696 316.645 28.8453 316.314 28.952C315.983 29.048 315.642 29.096 315.29 29.096C314.437 29.096 313.775 28.8667 313.306 28.408C312.837 27.9493 312.602 27.2933 312.602 26.44V21.784L311.162 21.784V20.52L312.602 20.52V18.664H314.138V20.52H316.57V21.784H314.138V26.376C314.138 26.8347 314.25 27.1867 314.474 27.432C314.709 27.6773 315.039 27.8 315.466 27.8C315.935 27.8 316.335 27.6667 316.666 27.4L317.146 28.504ZM322.418 29.096C321.554 29.096 320.78 28.9093 320.098 28.536C319.426 28.1627 318.898 27.6507 318.514 27C318.13 26.3387 317.938 25.592 317.938 24.76C317.938 23.928 318.13 23.1867 318.514 22.536C318.898 21.8747 319.426 21.3627 320.098 21C320.78 20.6267 321.554 20.44 322.418 20.44C323.186 20.44 323.868 20.5947 324.466 20.904C325.074 21.2133 325.543 21.6613 325.874 22.248L324.706 23C324.439 22.5947 324.108 22.2907 323.714 22.088C323.319 21.8853 322.882 21.784 322.402 21.784C321.847 21.784 321.346 21.9067 320.898 22.152C320.46 22.3973 320.114 22.7493 319.858 23.208C319.612 23.656 319.49 24.1733 319.49 24.76C319.49 25.3573 319.612 25.8853 319.858 26.344C320.114 26.792 320.46 27.1387 320.898 27.384C321.346 27.6293 321.847 27.752 322.402 27.752C322.882 27.752 323.319 27.6507 323.714 27.448C324.108 27.2453 324.439 26.9413 324.706 26.536L325.874 27.272C325.543 27.8587 325.074 28.312 324.466 28.632C323.868 28.9413 323.186 29.096 322.418 29.096ZM332.281 20.44C333.358 20.44 334.212 20.7547 334.841 21.384C335.481 22.0027 335.801 22.9147 335.801 24.12V29H334.265V24.296C334.265 23.4747 334.068 22.856 333.673 22.44C333.278 22.024 332.713 21.816 331.977 21.816C331.145 21.816 330.489 22.0613 330.009 22.552C329.529 23.032 329.289 23.7253 329.289 24.632V29H327.753V17.128H329.289V21.72C329.609 21.3147 330.025 21 330.537 20.776C331.06 20.552 331.641 20.44 332.281 20.44Z" fill="white"/>
    <defs>
        <linearGradient id="paint0_linear_72_2041" x1="0" y1="23.8934" x2="364" y2="23.8934" gradientUnits="userSpaceOnUse">
            <stop stop-color="#F7931A" stop-opacity="0"/>
            <stop offset="1" stop-color="#F7931A"/>
        </linearGradient>
    </defs>
</svg>
