<svg width="686" height="294" viewBox="0 0 686 294" fill="none"
    xmlns="http://www.w3.org/2000/svg">
    <path d="M584.418 286.968C583.754 286.968 583.162 286.8 582.642 286.464C582.13 286.12 581.726 285.624 581.43 284.976C581.134 284.328 580.986 283.56 580.986 282.672C580.986 281.784 581.134 281.016 581.43 280.368C581.726 279.72 582.13 279.228 582.642 278.892C583.162 278.548 583.754 278.376 584.418 278.376C585.074 278.376 585.658 278.548 586.17 278.892C586.69 279.228 587.098 279.72 587.394 280.368C587.69 281.016 587.838 281.784 587.838 282.672C587.838 283.56 587.69 284.328 587.394 284.976C587.098 285.624 586.69 286.12 586.17 286.464C585.658 286.8 585.074 286.968 584.418 286.968ZM584.418 285.9C585.09 285.9 585.626 285.624 586.026 285.072C586.434 284.52 586.638 283.72 586.638 282.672C586.638 281.624 586.434 280.824 586.026 280.272C585.626 279.72 585.09 279.444 584.418 279.444C583.738 279.444 583.194 279.72 582.786 280.272C582.386 280.824 582.186 281.624 582.186 282.672C582.186 283.72 582.386 284.52 582.786 285.072C583.194 285.624 583.738 285.9 584.418 285.9ZM597.462 280.452C598.262 280.452 598.894 280.684 599.358 281.148C599.83 281.612 600.066 282.3 600.066 283.212V286.872H598.914V283.344C598.914 282.728 598.77 282.264 598.482 281.952C598.202 281.64 597.798 281.484 597.27 281.484C596.686 281.484 596.222 281.668 595.878 282.036C595.534 282.396 595.362 282.916 595.362 283.596V286.872H594.21V283.344C594.21 282.728 594.066 282.264 593.778 281.952C593.498 281.64 593.094 281.484 592.566 281.484C591.982 281.484 591.518 281.668 591.174 282.036C590.83 282.396 590.658 282.916 590.658 283.596V286.872H589.506V280.512H590.61V281.46C590.842 281.132 591.146 280.884 591.522 280.716C591.898 280.54 592.326 280.452 592.806 280.452C593.302 280.452 593.742 280.552 594.126 280.752C594.51 280.952 594.806 281.244 595.014 281.628C595.254 281.26 595.586 280.972 596.01 280.764C596.442 280.556 596.926 280.452 597.462 280.452Z" fill="black"/>
    <path d="M23.0017 286.968C22.3377 286.968 21.7457 286.8 21.2257 286.464C20.7137 286.12 20.3097 285.624 20.0137 284.976C19.7177 284.328 19.5697 283.56 19.5697 282.672C19.5697 281.784 19.7177 281.016 20.0137 280.368C20.3097 279.72 20.7137 279.228 21.2257 278.892C21.7457 278.548 22.3377 278.376 23.0017 278.376C23.6577 278.376 24.2417 278.548 24.7537 278.892C25.2737 279.228 25.6817 279.72 25.9777 280.368C26.2737 281.016 26.4217 281.784 26.4217 282.672C26.4217 283.56 26.2737 284.328 25.9777 284.976C25.6817 285.624 25.2737 286.12 24.7537 286.464C24.2417 286.8 23.6577 286.968 23.0017 286.968ZM23.0017 285.9C23.6737 285.9 24.2097 285.624 24.6097 285.072C25.0177 284.52 25.2217 283.72 25.2217 282.672C25.2217 281.624 25.0177 280.824 24.6097 280.272C24.2097 279.72 23.6737 279.444 23.0017 279.444C22.3217 279.444 21.7777 279.72 21.3697 280.272C20.9697 280.824 20.7697 281.624 20.7697 282.672C20.7697 283.72 20.9697 284.52 21.3697 285.072C21.7777 285.624 22.3217 285.9 23.0017 285.9ZM33.7842 283.908L32.4642 285.132V286.872H31.3122V277.968H32.4642V283.68L35.9322 280.512H37.3242L34.6482 283.14L37.5882 286.872H36.1722L33.7842 283.908Z" fill="#B5B8C3"/>
    <path d="M9.72732 246.755V255.155H8.53932V247.799H6.64332V246.755H9.72732ZM14.9967 255.251C14.3327 255.251 13.7407 255.083 13.2207 254.747C12.7087 254.403 12.3047 253.907 12.0087 253.259C11.7127 252.611 11.5647 251.843 11.5647 250.955C11.5647 250.067 11.7127 249.299 12.0087 248.651C12.3047 248.003 12.7087 247.511 13.2207 247.175C13.7407 246.831 14.3327 246.659 14.9967 246.659C15.6527 246.659 16.2367 246.831 16.7487 247.175C17.2687 247.511 17.6767 248.003 17.9727 248.651C18.2687 249.299 18.4167 250.067 18.4167 250.955C18.4167 251.843 18.2687 252.611 17.9727 253.259C17.6767 253.907 17.2687 254.403 16.7487 254.747C16.2367 255.083 15.6527 255.251 14.9967 255.251ZM14.9967 254.183C15.6687 254.183 16.2047 253.907 16.6047 253.355C17.0127 252.803 17.2167 252.003 17.2167 250.955C17.2167 249.907 17.0127 249.107 16.6047 248.555C16.2047 248.003 15.6687 247.727 14.9967 247.727C14.3167 247.727 13.7727 248.003 13.3647 248.555C12.9647 249.107 12.7647 249.907 12.7647 250.955C12.7647 252.003 12.9647 252.803 13.3647 253.355C13.7727 253.907 14.3167 254.183 14.9967 254.183ZM23.0006 255.251C22.3366 255.251 21.7446 255.083 21.2246 254.747C20.7126 254.403 20.3086 253.907 20.0126 253.259C19.7166 252.611 19.5686 251.843 19.5686 250.955C19.5686 250.067 19.7166 249.299 20.0126 248.651C20.3086 248.003 20.7126 247.511 21.2246 247.175C21.7446 246.831 22.3366 246.659 23.0006 246.659C23.6566 246.659 24.2406 246.831 24.7526 247.175C25.2726 247.511 25.6806 248.003 25.9766 248.651C26.2726 249.299 26.4206 250.067 26.4206 250.955C26.4206 251.843 26.2726 252.611 25.9766 253.259C25.6806 253.907 25.2726 254.403 24.7526 254.747C24.2406 255.083 23.6566 255.251 23.0006 255.251ZM23.0006 254.183C23.6726 254.183 24.2086 253.907 24.6086 253.355C25.0166 252.803 25.2206 252.003 25.2206 250.955C25.2206 249.907 25.0166 249.107 24.6086 248.555C24.2086 248.003 23.6726 247.727 23.0006 247.727C22.3206 247.727 21.7766 248.003 21.3686 248.555C20.9686 249.107 20.7686 249.907 20.7686 250.955C20.7686 252.003 20.9686 252.803 21.3686 253.355C21.7766 253.907 22.3206 254.183 23.0006 254.183ZM33.7832 252.191L32.4632 253.415V255.155H31.3112V246.251H32.4632V251.963L35.9312 248.795H37.3232L34.6472 251.423L37.5872 255.155H36.1712L33.7832 252.191Z" fill="#B5B8C3"/>
    <path d="M10.8424 217.921V226.321H9.65441V218.965H7.75841V217.921H10.8424ZM15.0798 221.269C16.2798 221.269 17.1598 221.497 17.7198 221.953C18.2878 222.401 18.5718 223.017 18.5718 223.801C18.5718 224.297 18.4518 224.745 18.2118 225.145C17.9798 225.537 17.6238 225.849 17.1438 226.081C16.6718 226.305 16.0878 226.417 15.3918 226.417C14.7998 226.417 14.2278 226.329 13.6758 226.153C13.1238 225.969 12.6678 225.717 12.3078 225.397L12.8598 224.449C13.1478 224.721 13.5158 224.941 13.9638 225.109C14.4118 225.269 14.8838 225.349 15.3798 225.349C16.0118 225.349 16.4998 225.217 16.8438 224.953C17.1958 224.681 17.3718 224.313 17.3718 223.849C17.3718 223.345 17.1798 222.965 16.7958 222.709C16.4118 222.445 15.7558 222.313 14.8278 222.313H12.9198L13.3638 217.921H18.1038V218.965H14.3718L14.1438 221.269H15.0798ZM23.0024 226.417C22.3384 226.417 21.7464 226.249 21.2264 225.913C20.7144 225.569 20.3104 225.073 20.0144 224.425C19.7184 223.777 19.5704 223.009 19.5704 222.121C19.5704 221.233 19.7184 220.465 20.0144 219.817C20.3104 219.169 20.7144 218.677 21.2264 218.341C21.7464 217.997 22.3384 217.825 23.0024 217.825C23.6584 217.825 24.2424 217.997 24.7544 218.341C25.2744 218.677 25.6824 219.169 25.9784 219.817C26.2744 220.465 26.4224 221.233 26.4224 222.121C26.4224 223.009 26.2744 223.777 25.9784 224.425C25.6824 225.073 25.2744 225.569 24.7544 225.913C24.2424 226.249 23.6584 226.417 23.0024 226.417ZM23.0024 225.349C23.6744 225.349 24.2104 225.073 24.6104 224.521C25.0184 223.969 25.2224 223.169 25.2224 222.121C25.2224 221.073 25.0184 220.273 24.6104 219.721C24.2104 219.169 23.6744 218.893 23.0024 218.893C22.3224 218.893 21.7784 219.169 21.3704 219.721C20.9704 220.273 20.7704 221.073 20.7704 222.121C20.7704 223.169 20.9704 223.969 21.3704 224.521C21.7784 225.073 22.3224 225.349 23.0024 225.349ZM33.785 223.357L32.465 224.581V226.321H31.313V217.417H32.465V223.129L35.933 219.961H37.325L34.649 222.589L37.589 226.321H36.173L33.785 223.357Z" fill="#B5B8C3"/>
    <path d="M10.6135 195.723V196.767H4.57746V195.951L7.99747 192.651C8.41347 192.251 8.69346 191.907 8.83747 191.619C8.98147 191.323 9.05347 191.027 9.05347 190.731C9.05347 190.291 8.89747 189.951 8.58547 189.711C8.28146 189.463 7.84146 189.339 7.26546 189.339C6.33746 189.339 5.62146 189.643 5.11746 190.251L4.30146 189.543C4.62946 189.143 5.05746 188.831 5.58546 188.607C6.12146 188.383 6.71746 188.271 7.37346 188.271C8.25347 188.271 8.95347 188.483 9.47347 188.907C9.99347 189.323 10.2535 189.891 10.2535 190.611C10.2535 191.059 10.1575 191.483 9.96547 191.883C9.77347 192.283 9.40946 192.739 8.87346 193.251L6.30546 195.723H10.6135ZM14.9969 196.863C14.3329 196.863 13.7409 196.695 13.2209 196.359C12.7089 196.015 12.3049 195.519 12.0089 194.871C11.7129 194.223 11.5649 193.455 11.5649 192.567C11.5649 191.679 11.7129 190.911 12.0089 190.263C12.3049 189.615 12.7089 189.123 13.2209 188.787C13.7409 188.443 14.3329 188.271 14.9969 188.271C15.6529 188.271 16.2369 188.443 16.7489 188.787C17.2689 189.123 17.6769 189.615 17.9729 190.263C18.2689 190.911 18.4169 191.679 18.4169 192.567C18.4169 193.455 18.2689 194.223 17.9729 194.871C17.6769 195.519 17.2689 196.015 16.7489 196.359C16.2369 196.695 15.6529 196.863 14.9969 196.863ZM14.9969 195.795C15.6689 195.795 16.2049 195.519 16.6049 194.967C17.0129 194.415 17.2169 193.615 17.2169 192.567C17.2169 191.519 17.0129 190.719 16.6049 190.167C16.2049 189.615 15.6689 189.339 14.9969 189.339C14.3169 189.339 13.7729 189.615 13.3649 190.167C12.9649 190.719 12.7649 191.519 12.7649 192.567C12.7649 193.615 12.9649 194.415 13.3649 194.967C13.7729 195.519 14.3169 195.795 14.9969 195.795ZM23.0008 196.863C22.3368 196.863 21.7448 196.695 21.2248 196.359C20.7128 196.015 20.3088 195.519 20.0128 194.871C19.7168 194.223 19.5688 193.455 19.5688 192.567C19.5688 191.679 19.7168 190.911 20.0128 190.263C20.3088 189.615 20.7128 189.123 21.2248 188.787C21.7448 188.443 22.3368 188.271 23.0008 188.271C23.6568 188.271 24.2408 188.443 24.7528 188.787C25.2728 189.123 25.6808 189.615 25.9768 190.263C26.2728 190.911 26.4208 191.679 26.4208 192.567C26.4208 193.455 26.2728 194.223 25.9768 194.871C25.6808 195.519 25.2728 196.015 24.7528 196.359C24.2408 196.695 23.6568 196.863 23.0008 196.863ZM23.0008 195.795C23.6728 195.795 24.2088 195.519 24.6088 194.967C25.0168 194.415 25.2208 193.615 25.2208 192.567C25.2208 191.519 25.0168 190.719 24.6088 190.167C24.2088 189.615 23.6728 189.339 23.0008 189.339C22.3208 189.339 21.7768 189.615 21.3688 190.167C20.9688 190.719 20.7688 191.519 20.7688 192.567C20.7688 193.615 20.9688 194.415 21.3688 194.967C21.7768 195.519 22.3208 195.795 23.0008 195.795ZM33.7834 193.803L32.4634 195.027V196.767H31.3114V187.863H32.4634V193.575L35.9314 190.407H37.3234L34.6474 193.035L37.5874 196.767H36.1714L33.7834 193.803Z" fill="#B5B8C3"/>
    <path d="M11.6926 164.006V165.05H5.65664V164.234L9.07664 160.934C9.49264 160.534 9.77264 160.19 9.91664 159.902C10.0606 159.606 10.1326 159.31 10.1326 159.014C10.1326 158.574 9.97664 158.234 9.66464 157.994C9.36064 157.746 8.92064 157.622 8.34464 157.622C7.41664 157.622 6.70064 157.926 6.19664 158.534L5.38064 157.826C5.70864 157.426 6.13664 157.114 6.66464 156.89C7.20064 156.666 7.79664 156.554 8.45264 156.554C9.33264 156.554 10.0326 156.766 10.5526 157.19C11.0726 157.606 11.3326 158.174 11.3326 158.894C11.3326 159.342 11.2366 159.766 11.0446 160.166C10.8526 160.566 10.4886 161.022 9.95264 161.534L7.38464 164.006H11.6926ZM15.0793 159.998C16.2793 159.998 17.1593 160.226 17.7193 160.682C18.2873 161.13 18.5713 161.746 18.5713 162.53C18.5713 163.026 18.4513 163.474 18.2113 163.874C17.9793 164.266 17.6233 164.578 17.1433 164.81C16.6713 165.034 16.0873 165.146 15.3913 165.146C14.7993 165.146 14.2273 165.058 13.6753 164.882C13.1233 164.698 12.6673 164.446 12.3073 164.126L12.8593 163.178C13.1473 163.45 13.5153 163.67 13.9633 163.838C14.4113 163.998 14.8833 164.078 15.3793 164.078C16.0113 164.078 16.4993 163.946 16.8433 163.682C17.1953 163.41 17.3713 163.042 17.3713 162.578C17.3713 162.074 17.1793 161.694 16.7953 161.438C16.4113 161.174 15.7553 161.042 14.8273 161.042H12.9193L13.3633 156.65H18.1033V157.694H14.3713L14.1433 159.998H15.0793ZM23.0019 165.146C22.3379 165.146 21.7459 164.978 21.2259 164.642C20.7139 164.298 20.3099 163.802 20.0139 163.154C19.7179 162.506 19.5699 161.738 19.5699 160.85C19.5699 159.962 19.7179 159.194 20.0139 158.546C20.3099 157.898 20.7139 157.406 21.2259 157.07C21.7459 156.726 22.3379 156.554 23.0019 156.554C23.6579 156.554 24.2419 156.726 24.7539 157.07C25.2739 157.406 25.6819 157.898 25.9779 158.546C26.2739 159.194 26.4219 159.962 26.4219 160.85C26.4219 161.738 26.2739 162.506 25.9779 163.154C25.6819 163.802 25.2739 164.298 24.7539 164.642C24.2419 164.978 23.6579 165.146 23.0019 165.146ZM23.0019 164.078C23.6739 164.078 24.2099 163.802 24.6099 163.25C25.0179 162.698 25.2219 161.898 25.2219 160.85C25.2219 159.802 25.0179 159.002 24.6099 158.45C24.2099 157.898 23.6739 157.622 23.0019 157.622C22.3219 157.622 21.7779 157.898 21.3699 158.45C20.9699 159.002 20.7699 159.802 20.7699 160.85C20.7699 161.898 20.9699 162.698 21.3699 163.25C21.7779 163.802 22.3219 164.078 23.0019 164.078ZM33.7844 162.086L32.4644 163.31V165.05H31.3124V156.146H32.4644V161.858L35.9324 158.69H37.3244L34.6484 161.318L37.5884 165.05H36.1724L33.7844 162.086Z" fill="#B5B8C3"/>
    <path d="M7.91375 131.344C8.73775 131.424 9.36575 131.68 9.79775 132.112C10.2297 132.536 10.4457 133.08 10.4457 133.744C10.4457 134.224 10.3257 134.66 10.0857 135.052C9.84575 135.436 9.48575 135.744 9.00575 135.976C8.53375 136.2 7.95375 136.312 7.26575 136.312C6.66575 136.312 6.08975 136.224 5.53775 136.048C4.98575 135.864 4.53375 135.612 4.18175 135.292L4.73375 134.344C5.02175 134.616 5.38975 134.836 5.83775 135.004C6.28575 135.164 6.76175 135.244 7.26575 135.244C7.88975 135.244 8.37375 135.112 8.71775 134.848C9.06975 134.584 9.24575 134.22 9.24575 133.756C9.24575 133.292 9.07375 132.932 8.72975 132.676C8.38575 132.42 7.86575 132.292 7.16975 132.292H6.49775V131.452L8.60975 128.86H4.56575V127.816H10.1097V128.632L7.91375 131.344ZM14.9969 136.312C14.3329 136.312 13.7409 136.144 13.2209 135.808C12.7089 135.464 12.3049 134.968 12.0089 134.32C11.7129 133.672 11.5649 132.904 11.5649 132.016C11.5649 131.128 11.7129 130.36 12.0089 129.712C12.3049 129.064 12.7089 128.572 13.2209 128.236C13.7409 127.892 14.3329 127.72 14.9969 127.72C15.6529 127.72 16.2369 127.892 16.7489 128.236C17.2689 128.572 17.6769 129.064 17.9729 129.712C18.2689 130.36 18.4169 131.128 18.4169 132.016C18.4169 132.904 18.2689 133.672 17.9729 134.32C17.6769 134.968 17.2689 135.464 16.7489 135.808C16.2369 136.144 15.6529 136.312 14.9969 136.312ZM14.9969 135.244C15.6689 135.244 16.2049 134.968 16.6049 134.416C17.0129 133.864 17.2169 133.064 17.2169 132.016C17.2169 130.968 17.0129 130.168 16.6049 129.616C16.2049 129.064 15.6689 128.788 14.9969 128.788C14.3169 128.788 13.7729 129.064 13.3649 129.616C12.9649 130.168 12.7649 130.968 12.7649 132.016C12.7649 133.064 12.9649 133.864 13.3649 134.416C13.7729 134.968 14.3169 135.244 14.9969 135.244ZM23.0008 136.312C22.3368 136.312 21.7448 136.144 21.2248 135.808C20.7128 135.464 20.3088 134.968 20.0128 134.32C19.7168 133.672 19.5688 132.904 19.5688 132.016C19.5688 131.128 19.7168 130.36 20.0128 129.712C20.3088 129.064 20.7128 128.572 21.2248 128.236C21.7448 127.892 22.3368 127.72 23.0008 127.72C23.6568 127.72 24.2408 127.892 24.7528 128.236C25.2728 128.572 25.6808 129.064 25.9768 129.712C26.2728 130.36 26.4208 131.128 26.4208 132.016C26.4208 132.904 26.2728 133.672 25.9768 134.32C25.6808 134.968 25.2728 135.464 24.7528 135.808C24.2408 136.144 23.6568 136.312 23.0008 136.312ZM23.0008 135.244C23.6728 135.244 24.2088 134.968 24.6088 134.416C25.0168 133.864 25.2208 133.064 25.2208 132.016C25.2208 130.968 25.0168 130.168 24.6088 129.616C24.2088 129.064 23.6728 128.788 23.0008 128.788C22.3208 128.788 21.7768 129.064 21.3688 129.616C20.9688 130.168 20.7688 130.968 20.7688 132.016C20.7688 133.064 20.9688 133.864 21.3688 134.416C21.7768 134.968 22.3208 135.244 23.0008 135.244ZM33.7834 133.252L32.4634 134.476V136.216H31.3114V127.312H32.4634V133.024L35.9314 129.856H37.3234L34.6474 132.484L37.5874 136.216H36.1714L33.7834 133.252Z" fill="#B5B8C3"/>
    <path d="M9.14526 101.789C9.96926 101.869 10.5973 102.125 11.0293 102.557C11.4613 102.981 11.6773 103.525 11.6773 104.189C11.6773 104.669 11.5573 105.105 11.3173 105.497C11.0773 105.881 10.7173 106.189 10.2373 106.421C9.76526 106.645 9.18526 106.757 8.49726 106.757C7.89726 106.757 7.32126 106.669 6.76926 106.493C6.21726 106.309 5.76526 106.057 5.41326 105.737L5.96526 104.789C6.25326 105.061 6.62126 105.281 7.06926 105.449C7.51726 105.609 7.99326 105.689 8.49726 105.689C9.12126 105.689 9.60526 105.557 9.94926 105.293C10.3013 105.029 10.4773 104.665 10.4773 104.201C10.4773 103.737 10.3053 103.377 9.96126 103.121C9.61726 102.865 9.09726 102.737 8.40126 102.737H7.72926V101.897L9.84126 99.3051H5.79726V98.2611H11.3413V99.0771L9.14526 101.789ZM15.0793 101.609C16.2793 101.609 17.1593 101.837 17.7193 102.293C18.2873 102.741 18.5713 103.357 18.5713 104.141C18.5713 104.637 18.4513 105.085 18.2113 105.485C17.9793 105.877 17.6233 106.189 17.1433 106.421C16.6713 106.645 16.0873 106.757 15.3913 106.757C14.7993 106.757 14.2273 106.669 13.6753 106.493C13.1233 106.309 12.6673 106.057 12.3073 105.737L12.8593 104.789C13.1473 105.061 13.5153 105.281 13.9633 105.449C14.4113 105.609 14.8833 105.689 15.3793 105.689C16.0113 105.689 16.4993 105.557 16.8433 105.293C17.1953 105.021 17.3713 104.653 17.3713 104.189C17.3713 103.685 17.1793 103.305 16.7953 103.049C16.4113 102.785 15.7553 102.653 14.8273 102.653H12.9193L13.3633 98.2611H18.1033V99.3051H14.3713L14.1433 101.609H15.0793ZM23.0019 106.757C22.3379 106.757 21.7459 106.589 21.2259 106.253C20.7139 105.909 20.3099 105.413 20.0139 104.765C19.7179 104.117 19.5699 103.349 19.5699 102.461C19.5699 101.573 19.7179 100.805 20.0139 100.157C20.3099 99.5091 20.7139 99.0171 21.2259 98.6811C21.7459 98.3371 22.3379 98.1651 23.0019 98.1651C23.6579 98.1651 24.2419 98.3371 24.7539 98.6811C25.2739 99.0171 25.6819 99.5091 25.9779 100.157C26.2739 100.805 26.4219 101.573 26.4219 102.461C26.4219 103.349 26.2739 104.117 25.9779 104.765C25.6819 105.413 25.2739 105.909 24.7539 106.253C24.2419 106.589 23.6579 106.757 23.0019 106.757ZM23.0019 105.689C23.6739 105.689 24.2099 105.413 24.6099 104.861C25.0179 104.309 25.2219 103.509 25.2219 102.461C25.2219 101.413 25.0179 100.613 24.6099 100.061C24.2099 99.5091 23.6739 99.2331 23.0019 99.2331C22.3219 99.2331 21.7779 99.5091 21.3699 100.061C20.9699 100.613 20.7699 101.413 20.7699 102.461C20.7699 103.509 20.9699 104.309 21.3699 104.861C21.7779 105.413 22.3219 105.689 23.0019 105.689ZM33.7844 103.697L32.4644 104.921V106.661H31.3124V97.7571H32.4644V103.469L35.9324 100.301H37.3244L34.6484 102.929L37.5884 106.661H36.1724L33.7844 103.697Z" fill="#B5B8C3"/>
    <path d="M10.8462 71.4399H9.25022V73.5039H8.08622V71.4399H3.41822V70.5999L7.71422 65.1039H9.01022L4.89422 70.4079H8.12222V68.5839H9.25022V70.4079H10.8462V71.4399ZM14.9976 73.5999C14.3336 73.5999 13.7416 73.4319 13.2216 73.0959C12.7096 72.7519 12.3056 72.2559 12.0096 71.6079C11.7136 70.9599 11.5656 70.1919 11.5656 69.3039C11.5656 68.4159 11.7136 67.6479 12.0096 66.9999C12.3056 66.3519 12.7096 65.8599 13.2216 65.5239C13.7416 65.1799 14.3336 65.0079 14.9976 65.0079C15.6536 65.0079 16.2376 65.1799 16.7496 65.5239C17.2696 65.8599 17.6776 66.3519 17.9736 66.9999C18.2696 67.6479 18.4176 68.4159 18.4176 69.3039C18.4176 70.1919 18.2696 70.9599 17.9736 71.6079C17.6776 72.2559 17.2696 72.7519 16.7496 73.0959C16.2376 73.4319 15.6536 73.5999 14.9976 73.5999ZM14.9976 72.5319C15.6696 72.5319 16.2056 72.2559 16.6056 71.7039C17.0136 71.1519 17.2176 70.3519 17.2176 69.3039C17.2176 68.2559 17.0136 67.4559 16.6056 66.9039C16.2056 66.3519 15.6696 66.0759 14.9976 66.0759C14.3176 66.0759 13.7736 66.3519 13.3656 66.9039C12.9656 67.4559 12.7656 68.2559 12.7656 69.3039C12.7656 70.3519 12.9656 71.1519 13.3656 71.7039C13.7736 72.2559 14.3176 72.5319 14.9976 72.5319ZM23.0015 73.5999C22.3375 73.5999 21.7455 73.4319 21.2255 73.0959C20.7135 72.7519 20.3095 72.2559 20.0135 71.6079C19.7175 70.9599 19.5695 70.1919 19.5695 69.3039C19.5695 68.4159 19.7175 67.6479 20.0135 66.9999C20.3095 66.3519 20.7135 65.8599 21.2255 65.5239C21.7455 65.1799 22.3375 65.0079 23.0015 65.0079C23.6575 65.0079 24.2415 65.1799 24.7535 65.5239C25.2735 65.8599 25.6815 66.3519 25.9775 66.9999C26.2735 67.6479 26.4215 68.4159 26.4215 69.3039C26.4215 70.1919 26.2735 70.9599 25.9775 71.6079C25.6815 72.2559 25.2735 72.7519 24.7535 73.0959C24.2415 73.4319 23.6575 73.5999 23.0015 73.5999ZM23.0015 72.5319C23.6735 72.5319 24.2095 72.2559 24.6095 71.7039C25.0175 71.1519 25.2215 70.3519 25.2215 69.3039C25.2215 68.2559 25.0175 67.4559 24.6095 66.9039C24.2095 66.3519 23.6735 66.0759 23.0015 66.0759C22.3215 66.0759 21.7775 66.3519 21.3695 66.9039C20.9695 67.4559 20.7695 68.2559 20.7695 69.3039C20.7695 70.3519 20.9695 71.1519 21.3695 71.7039C21.7775 72.2559 22.3215 72.5319 23.0015 72.5319ZM33.784 70.5399L32.464 71.7639V73.5039H31.312V64.5999H32.464V70.3119L35.932 67.1439H37.324L34.648 69.7719L37.588 73.5039H36.172L33.784 70.5399Z" fill="#B5B8C3"/>
    <path d="M11.9952 41.1635H10.3992V43.2275H9.23521V41.1635H4.56721V40.3235L8.86321 34.8275H10.1592L6.04321 40.1315H9.27121V38.3075H10.3992V40.1315H11.9952V41.1635ZM15.0794 38.1755C16.2794 38.1755 17.1594 38.4035 17.7194 38.8595C18.2874 39.3075 18.5714 39.9235 18.5714 40.7075C18.5714 41.2035 18.4514 41.6515 18.2114 42.0515C17.9794 42.4435 17.6234 42.7555 17.1434 42.9875C16.6714 43.2115 16.0874 43.3235 15.3914 43.3235C14.7994 43.3235 14.2274 43.2355 13.6754 43.0595C13.1234 42.8755 12.6674 42.6235 12.3074 42.3035L12.8594 41.3555C13.1474 41.6275 13.5154 41.8475 13.9634 42.0155C14.4114 42.1755 14.8834 42.2555 15.3794 42.2555C16.0114 42.2555 16.4994 42.1235 16.8434 41.8595C17.1954 41.5875 17.3714 41.2195 17.3714 40.7555C17.3714 40.2515 17.1794 39.8715 16.7954 39.6155C16.4114 39.3515 15.7554 39.2195 14.8274 39.2195H12.9194L13.3634 34.8275H18.1034V35.8715H14.3714L14.1434 38.1755H15.0794ZM23.002 43.3235C22.338 43.3235 21.746 43.1555 21.226 42.8195C20.714 42.4755 20.31 41.9795 20.014 41.3315C19.718 40.6835 19.57 39.9155 19.57 39.0275C19.57 38.1395 19.718 37.3715 20.014 36.7235C20.31 36.0755 20.714 35.5835 21.226 35.2475C21.746 34.9035 22.338 34.7315 23.002 34.7315C23.658 34.7315 24.242 34.9035 24.754 35.2475C25.274 35.5835 25.682 36.0755 25.978 36.7235C26.274 37.3715 26.422 38.1395 26.422 39.0275C26.422 39.9155 26.274 40.6835 25.978 41.3315C25.682 41.9795 25.274 42.4755 24.754 42.8195C24.242 43.1555 23.658 43.3235 23.002 43.3235ZM23.002 42.2555C23.674 42.2555 24.21 41.9795 24.61 41.4275C25.018 40.8755 25.222 40.0755 25.222 39.0275C25.222 37.9795 25.018 37.1795 24.61 36.6275C24.21 36.0755 23.674 35.7995 23.002 35.7995C22.322 35.7995 21.778 36.0755 21.37 36.6275C20.97 37.1795 20.77 37.9795 20.77 39.0275C20.77 40.0755 20.97 40.8755 21.37 41.4275C21.778 41.9795 22.322 42.2555 23.002 42.2555ZM33.7846 40.2635L32.4646 41.4875V43.2275H31.3126V34.3235H32.4646V40.0355L35.9326 36.8675H37.3246L34.6486 39.4955L37.5886 43.2275H36.1726L33.7846 40.2635Z" fill="#B5B8C3"/>
    <path d="M7.07431 7.17944C8.27431 7.17944 9.15431 7.40744 9.71431 7.86345C10.2823 8.31144 10.5663 8.92745 10.5663 9.71145C10.5663 10.2074 10.4463 10.6554 10.2063 11.0554C9.97431 11.4474 9.61831 11.7594 9.13831 11.9914C8.66631 12.2154 8.08231 12.3274 7.38631 12.3274C6.79431 12.3274 6.22231 12.2394 5.67031 12.0634C5.11831 11.8794 4.66231 11.6274 4.30231 11.3074L4.85431 10.3594C5.14231 10.6314 5.51031 10.8514 5.95831 11.0194C6.40631 11.1794 6.87831 11.2594 7.37431 11.2594C8.00631 11.2594 8.49431 11.1274 8.83831 10.8634C9.19031 10.5914 9.36631 10.2234 9.36631 9.75945C9.36631 9.25545 9.17431 8.87545 8.79031 8.61944C8.40631 8.35545 7.75031 8.22345 6.82231 8.22345H4.91431L5.35831 3.83144H10.0983V4.87544H6.36631L6.13831 7.17944H7.07431ZM14.9969 12.3274C14.3329 12.3274 13.7409 12.1594 13.2209 11.8234C12.7089 11.4794 12.3049 10.9834 12.0089 10.3354C11.7129 9.68745 11.5649 8.91945 11.5649 8.03145C11.5649 7.14345 11.7129 6.37544 12.0089 5.72744C12.3049 5.07944 12.7089 4.58745 13.2209 4.25145C13.7409 3.90745 14.3329 3.73545 14.9969 3.73545C15.6529 3.73545 16.2369 3.90745 16.7489 4.25145C17.2689 4.58745 17.6769 5.07944 17.9729 5.72744C18.2689 6.37544 18.4169 7.14345 18.4169 8.03145C18.4169 8.91945 18.2689 9.68745 17.9729 10.3354C17.6769 10.9834 17.2689 11.4794 16.7489 11.8234C16.2369 12.1594 15.6529 12.3274 14.9969 12.3274ZM14.9969 11.2594C15.6689 11.2594 16.2049 10.9834 16.6049 10.4314C17.0129 9.87945 17.2169 9.07945 17.2169 8.03145C17.2169 6.98344 17.0129 6.18344 16.6049 5.63145C16.2049 5.07945 15.6689 4.80345 14.9969 4.80345C14.3169 4.80345 13.7729 5.07945 13.3649 5.63145C12.9649 6.18344 12.7649 6.98344 12.7649 8.03145C12.7649 9.07945 12.9649 9.87945 13.3649 10.4314C13.7729 10.9834 14.3169 11.2594 14.9969 11.2594ZM23.0008 12.3274C22.3368 12.3274 21.7448 12.1594 21.2248 11.8234C20.7128 11.4794 20.3088 10.9834 20.0128 10.3354C19.7168 9.68745 19.5688 8.91945 19.5688 8.03145C19.5688 7.14345 19.7168 6.37544 20.0128 5.72744C20.3088 5.07944 20.7128 4.58745 21.2248 4.25145C21.7448 3.90745 22.3368 3.73545 23.0008 3.73545C23.6568 3.73545 24.2408 3.90745 24.7528 4.25145C25.2728 4.58745 25.6808 5.07944 25.9768 5.72744C26.2728 6.37544 26.4208 7.14345 26.4208 8.03145C26.4208 8.91945 26.2728 9.68745 25.9768 10.3354C25.6808 10.9834 25.2728 11.4794 24.7528 11.8234C24.2408 12.1594 23.6568 12.3274 23.0008 12.3274ZM23.0008 11.2594C23.6728 11.2594 24.2088 10.9834 24.6088 10.4314C25.0168 9.87945 25.2208 9.07945 25.2208 8.03145C25.2208 6.98344 25.0168 6.18344 24.6088 5.63145C24.2088 5.07945 23.6728 4.80345 23.0008 4.80345C22.3208 4.80345 21.7768 5.07945 21.3688 5.63145C20.9688 6.18344 20.7688 6.98344 20.7688 8.03145C20.7688 9.07945 20.9688 9.87945 21.3688 10.4314C21.7768 10.9834 22.3208 11.2594 23.0008 11.2594ZM33.7834 9.26745L32.4634 10.4914V12.2314H31.3114V3.32744H32.4634V9.03945L35.9314 5.87144H37.3234L34.6474 8.49945L37.5874 12.2314H36.1714L33.7834 9.26745Z" fill="#B5B8C3"/>
    <path d="M584.418 256.694C583.754 256.694 583.162 256.526 582.642 256.19C582.13 255.846 581.726 255.35 581.43 254.702C581.134 254.054 580.986 253.286 580.986 252.398C580.986 251.51 581.134 250.742 581.43 250.094C581.726 249.446 582.13 248.954 582.642 248.618C583.162 248.274 583.754 248.102 584.418 248.102C585.074 248.102 585.658 248.274 586.17 248.618C586.69 248.954 587.098 249.446 587.394 250.094C587.69 250.742 587.838 251.51 587.838 252.398C587.838 253.286 587.69 254.054 587.394 254.702C587.098 255.35 586.69 255.846 586.17 256.19C585.658 256.526 585.074 256.694 584.418 256.694ZM584.418 255.626C585.09 255.626 585.626 255.35 586.026 254.798C586.434 254.246 586.638 253.446 586.638 252.398C586.638 251.35 586.434 250.55 586.026 249.998C585.626 249.446 585.09 249.17 584.418 249.17C583.738 249.17 583.194 249.446 582.786 249.998C582.386 250.55 582.186 251.35 582.186 252.398C582.186 253.446 582.386 254.246 582.786 254.798C583.194 255.35 583.738 255.626 584.418 255.626ZM591.39 251.546C592.59 251.546 593.47 251.774 594.03 252.23C594.598 252.678 594.882 253.294 594.882 254.078C594.882 254.574 594.762 255.022 594.522 255.422C594.29 255.814 593.934 256.126 593.454 256.358C592.982 256.582 592.398 256.694 591.702 256.694C591.11 256.694 590.538 256.606 589.986 256.43C589.434 256.246 588.978 255.994 588.618 255.674L589.17 254.726C589.458 254.998 589.826 255.218 590.274 255.386C590.722 255.546 591.194 255.626 591.69 255.626C592.322 255.626 592.81 255.494 593.154 255.23C593.506 254.958 593.682 254.59 593.682 254.126C593.682 253.622 593.49 253.242 593.106 252.986C592.722 252.722 592.066 252.59 591.138 252.59H589.23L589.674 248.198H594.414V249.242H590.682L590.454 251.546H591.39ZM604.352 250.178C605.152 250.178 605.784 250.41 606.248 250.874C606.72 251.338 606.956 252.026 606.956 252.938V256.598H605.804V253.07C605.804 252.454 605.66 251.99 605.372 251.678C605.092 251.366 604.688 251.21 604.16 251.21C603.576 251.21 603.112 251.394 602.768 251.762C602.424 252.122 602.252 252.642 602.252 253.322V256.598H601.1V253.07C601.1 252.454 600.956 251.99 600.668 251.678C600.388 251.366 599.984 251.21 599.456 251.21C598.872 251.21 598.408 251.394 598.064 251.762C597.72 252.122 597.548 252.642 597.548 253.322V256.598H596.396V250.238H597.5V251.186C597.732 250.858 598.036 250.61 598.412 250.442C598.788 250.266 599.216 250.178 599.696 250.178C600.192 250.178 600.632 250.278 601.016 250.478C601.4 250.678 601.696 250.97 601.904 251.354C602.144 250.986 602.476 250.698 602.9 250.49C603.332 250.282 603.816 250.178 604.352 250.178Z" fill="black"/>
    <path d="M583.59 218.643V227.043H582.402V219.687H580.506V218.643H583.59ZM587.827 221.991C589.027 221.991 589.907 222.219 590.467 222.675C591.035 223.123 591.319 223.739 591.319 224.523C591.319 225.019 591.199 225.467 590.959 225.867C590.727 226.259 590.371 226.571 589.891 226.803C589.419 227.027 588.835 227.139 588.139 227.139C587.547 227.139 586.975 227.051 586.423 226.875C585.871 226.691 585.415 226.439 585.055 226.119L585.607 225.171C585.895 225.443 586.263 225.663 586.711 225.831C587.159 225.991 587.631 226.071 588.127 226.071C588.759 226.071 589.247 225.939 589.591 225.675C589.943 225.403 590.119 225.035 590.119 224.571C590.119 224.067 589.927 223.687 589.543 223.431C589.159 223.167 588.503 223.035 587.575 223.035H585.667L586.111 218.643H590.851V219.687H587.119L586.891 221.991H587.827ZM600.79 220.623C601.59 220.623 602.222 220.855 602.686 221.319C603.158 221.783 603.394 222.471 603.394 223.383V227.043H602.242V223.515C602.242 222.899 602.098 222.435 601.81 222.123C601.53 221.811 601.126 221.655 600.598 221.655C600.014 221.655 599.55 221.839 599.206 222.207C598.862 222.567 598.69 223.087 598.69 223.767V227.043H597.538V223.515C597.538 222.899 597.394 222.435 597.106 222.123C596.826 221.811 596.422 221.655 595.894 221.655C595.31 221.655 594.846 221.839 594.502 222.207C594.158 222.567 593.986 223.087 593.986 223.767V227.043H592.834V220.683H593.938V221.631C594.17 221.303 594.474 221.055 594.85 220.887C595.226 220.711 595.654 220.623 596.134 220.623C596.63 220.623 597.07 220.723 597.454 220.923C597.838 221.123 598.134 221.415 598.342 221.799C598.582 221.431 598.914 221.143 599.338 220.935C599.77 220.727 600.254 220.623 600.79 220.623Z" fill="black"/>
    <path d="M583.59 188.367V196.767H582.402V189.411H580.506V188.367H583.59ZM589.339 190.347C590.147 190.347 590.787 190.583 591.259 191.055C591.739 191.519 591.979 192.203 591.979 193.107V196.767H590.827V193.239C590.827 192.623 590.679 192.159 590.383 191.847C590.087 191.535 589.663 191.379 589.111 191.379C588.487 191.379 587.995 191.563 587.635 191.931C587.275 192.291 587.095 192.811 587.095 193.491V196.767H585.943V187.863H587.095V191.307C587.335 191.003 587.647 190.767 588.031 190.599C588.423 190.431 588.859 190.347 589.339 190.347Z" fill="black"/>
    <path d="M586.89 165.448V166.492H580.854V165.676L584.274 162.376C584.69 161.976 584.97 161.632 585.114 161.344C585.258 161.048 585.33 160.752 585.33 160.456C585.33 160.016 585.174 159.676 584.862 159.436C584.558 159.188 584.118 159.064 583.542 159.064C582.614 159.064 581.898 159.368 581.394 159.976L580.578 159.268C580.906 158.868 581.334 158.556 581.862 158.332C582.398 158.108 582.994 157.996 583.65 157.996C584.53 157.996 585.23 158.208 585.75 158.632C586.27 159.048 586.53 159.616 586.53 160.336C586.53 160.784 586.434 161.208 586.242 161.608C586.05 162.008 585.686 162.464 585.15 162.976L582.582 165.448H586.89ZM591.788 160.072C592.596 160.072 593.236 160.308 593.708 160.78C594.188 161.244 594.428 161.928 594.428 162.832V166.492H593.276V162.964C593.276 162.348 593.128 161.884 592.832 161.572C592.536 161.26 592.112 161.104 591.56 161.104C590.936 161.104 590.444 161.288 590.084 161.656C589.724 162.016 589.544 162.536 589.544 163.216V166.492H588.392V157.588H589.544V161.032C589.784 160.728 590.096 160.492 590.48 160.324C590.872 160.156 591.308 160.072 591.788 160.072Z" fill="black"/>
    <path d="M588.294 134.873H586.698V136.938H585.534V134.873H580.866V134.033L585.162 128.537H586.458L582.342 133.841H585.57V132.017H586.698V133.841H588.294V134.873ZM592.925 130.517C593.733 130.517 594.373 130.753 594.845 131.225C595.325 131.689 595.565 132.373 595.565 133.277V136.938H594.413V133.41C594.413 132.793 594.265 132.329 593.969 132.017C593.673 131.705 593.249 131.549 592.697 131.549C592.073 131.549 591.581 131.733 591.221 132.101C590.861 132.461 590.681 132.981 590.681 133.661V136.938H589.529V128.033H590.681V131.477C590.921 131.173 591.233 130.937 591.617 130.77C592.009 130.601 592.445 130.517 592.925 130.517Z" fill="black"/>
    <path d="M584.61 101.561C585.162 101.561 585.654 101.665 586.086 101.873C586.526 102.081 586.87 102.381 587.118 102.773C587.366 103.157 587.49 103.601 587.49 104.105C587.49 104.633 587.358 105.097 587.094 105.497C586.838 105.897 586.482 106.209 586.026 106.433C585.578 106.649 585.074 106.757 584.514 106.757C583.386 106.757 582.514 106.393 581.898 105.665C581.29 104.937 580.986 103.905 580.986 102.569C580.986 101.633 581.15 100.837 581.478 100.181C581.814 99.5171 582.278 99.0171 582.87 98.6811C583.47 98.3371 584.166 98.1651 584.958 98.1651C585.366 98.1651 585.75 98.2091 586.11 98.2971C586.47 98.3771 586.782 98.4971 587.046 98.6571L586.59 99.5931C586.19 99.3291 585.654 99.1971 584.982 99.1971C584.11 99.1971 583.426 99.4691 582.93 100.013C582.434 100.549 582.186 101.333 582.186 102.365C582.186 102.493 582.19 102.593 582.198 102.665C582.438 102.305 582.766 102.033 583.182 101.849C583.606 101.657 584.082 101.561 584.61 101.561ZM584.466 105.785C585.018 105.785 585.466 105.637 585.81 105.341C586.154 105.045 586.326 104.649 586.326 104.153C586.326 103.657 586.15 103.265 585.798 102.977C585.454 102.681 584.99 102.533 584.406 102.533C584.03 102.533 583.694 102.605 583.398 102.749C583.11 102.893 582.882 103.089 582.714 103.337C582.554 103.585 582.474 103.861 582.474 104.165C582.474 104.461 582.55 104.733 582.702 104.981C582.862 105.221 583.09 105.417 583.386 105.569C583.69 105.713 584.05 105.785 584.466 105.785ZM592.304 100.241C593.112 100.241 593.752 100.477 594.224 100.949C594.704 101.413 594.944 102.097 594.944 103.001V106.661H593.792V103.133C593.792 102.517 593.644 102.053 593.348 101.741C593.052 101.429 592.628 101.273 592.076 101.273C591.452 101.273 590.96 101.457 590.6 101.825C590.24 102.185 590.06 102.705 590.06 103.385V106.661H588.908V97.7571H590.06V101.201C590.3 100.897 590.612 100.661 590.996 100.493C591.388 100.325 591.824 100.241 592.304 100.241Z" fill="#B5B8C3"/>
    <rect x="591.148" y="64.8145" width="67" height="23" rx="4" fill="#F7931A"/>
    <path d="M604.328 71.4145V79.8145H603.14V72.4585H601.244V71.4145H604.328ZM612.07 78.7705V79.8145H606.034V78.9985L609.454 75.6985C609.87 75.2985 610.15 74.9545 610.294 74.6665C610.438 74.3705 610.51 74.0745 610.51 73.7785C610.51 73.3385 610.354 72.9985 610.042 72.7585C609.738 72.5105 609.298 72.3865 608.722 72.3865C607.794 72.3865 607.078 72.6905 606.574 73.2985L605.758 72.5905C606.086 72.1905 606.514 71.8785 607.042 71.6545C607.578 71.4305 608.174 71.3185 608.83 71.3185C609.71 71.3185 610.41 71.5305 610.93 71.9545C611.45 72.3705 611.71 72.9385 611.71 73.6585C611.71 74.1065 611.614 74.5305 611.422 74.9305C611.23 75.3305 610.866 75.7865 610.33 76.2985L607.762 78.7705H612.07ZM616.968 73.3945C617.776 73.3945 618.416 73.6305 618.888 74.1025C619.368 74.5665 619.608 75.2505 619.608 76.1545V79.8145H618.456V76.2865C618.456 75.6705 618.308 75.2065 618.012 74.8945C617.716 74.5825 617.292 74.4265 616.74 74.4265C616.116 74.4265 615.624 74.6105 615.264 74.9785C614.904 75.3385 614.724 75.8585 614.724 76.5385V79.8145H613.572V70.9105H614.724V74.3545C614.964 74.0505 615.276 73.8145 615.66 73.6465C616.052 73.4785 616.488 73.3945 616.968 73.3945Z" fill="white"/>
    <path d="M586.89 41.4628V42.5068H580.854V41.6908L584.274 38.3908C584.69 37.9908 584.97 37.6468 585.114 37.3588C585.258 37.0628 585.33 36.7668 585.33 36.4708C585.33 36.0308 585.174 35.6908 584.862 35.4508C584.558 35.2028 584.118 35.0788 583.542 35.0788C582.614 35.0788 581.898 35.3828 581.394 35.9908L580.578 35.2828C580.906 34.8828 581.334 34.5708 581.862 34.3468C582.398 34.1228 582.994 34.0108 583.65 34.0108C584.53 34.0108 585.23 34.2228 585.75 34.6468C586.27 35.0628 586.53 35.6308 586.53 36.3508C586.53 36.7988 586.434 37.2228 586.242 37.6228C586.05 38.0228 585.686 38.4788 585.15 38.9908L582.582 41.4628H586.89ZM594.962 40.4428H593.366V42.5068H592.202V40.4428H587.534V39.6028L591.83 34.1068H593.126L589.01 39.4108H592.238V37.5868H593.366V39.4108H594.962V40.4428ZM599.593 36.0868C600.401 36.0868 601.041 36.3228 601.513 36.7948C601.993 37.2588 602.233 37.9428 602.233 38.8468V42.5068H601.081V38.9788C601.081 38.3628 600.933 37.8988 600.637 37.5868C600.341 37.2748 599.917 37.1188 599.365 37.1188C598.741 37.1188 598.249 37.3028 597.889 37.6708C597.529 38.0308 597.349 38.5508 597.349 39.2308V42.5068H596.197V33.6028H597.349V37.0468C597.589 36.7428 597.901 36.5068 598.285 36.3388C598.677 36.1708 599.113 36.0868 599.593 36.0868Z" fill="#B5B8C3"/>
    <path d="M583.386 7.17944C584.586 7.17944 585.466 7.40744 586.026 7.86345C586.594 8.31144 586.878 8.92745 586.878 9.71145C586.878 10.2074 586.758 10.6554 586.518 11.0554C586.286 11.4474 585.93 11.7594 585.45 11.9914C584.978 12.2154 584.394 12.3274 583.698 12.3274C583.106 12.3274 582.534 12.2394 581.982 12.0634C581.43 11.8794 580.974 11.6274 580.614 11.3074L581.166 10.3594C581.454 10.6314 581.822 10.8514 582.27 11.0194C582.718 11.1794 583.19 11.2594 583.686 11.2594C584.318 11.2594 584.806 11.1274 585.15 10.8634C585.502 10.5914 585.678 10.2234 585.678 9.75945C585.678 9.25545 585.486 8.87545 585.102 8.61944C584.718 8.35545 584.062 8.22345 583.134 8.22345H581.226L581.67 3.83144H586.41V4.87544H582.678L582.45 7.17944H583.386ZM591.308 12.3274C590.644 12.3274 590.052 12.1594 589.532 11.8234C589.02 11.4794 588.616 10.9834 588.32 10.3354C588.024 9.68745 587.876 8.91945 587.876 8.03145C587.876 7.14345 588.024 6.37544 588.32 5.72744C588.616 5.07944 589.02 4.58745 589.532 4.25145C590.052 3.90745 590.644 3.73545 591.308 3.73545C591.964 3.73545 592.548 3.90745 593.06 4.25145C593.58 4.58745 593.988 5.07944 594.284 5.72744C594.58 6.37544 594.728 7.14345 594.728 8.03145C594.728 8.91945 594.58 9.68745 594.284 10.3354C593.988 10.9834 593.58 11.4794 593.06 11.8234C592.548 12.1594 591.964 12.3274 591.308 12.3274ZM591.308 11.2594C591.98 11.2594 592.516 10.9834 592.916 10.4314C593.324 9.87945 593.528 9.07945 593.528 8.03145C593.528 6.98344 593.324 6.18344 592.916 5.63145C592.516 5.07945 591.98 4.80345 591.308 4.80345C590.628 4.80345 590.084 5.07945 589.676 5.63145C589.276 6.18344 589.076 6.98344 589.076 8.03145C589.076 9.07945 589.276 9.87945 589.676 10.4314C590.084 10.9834 590.628 11.2594 591.308 11.2594ZM604.352 5.81144C605.152 5.81144 605.784 6.04344 606.248 6.50744C606.72 6.97144 606.956 7.65945 606.956 8.57145V12.2314H605.804V8.70345C605.804 8.08745 605.66 7.62345 605.372 7.31144C605.092 6.99944 604.688 6.84344 604.16 6.84344C603.576 6.84344 603.112 7.02744 602.768 7.39544C602.424 7.75545 602.252 8.27545 602.252 8.95545V12.2314H601.1V8.70345C601.1 8.08745 600.956 7.62345 600.668 7.31144C600.388 6.99944 599.984 6.84344 599.456 6.84344C598.872 6.84344 598.408 7.02744 598.064 7.39544C597.72 7.75545 597.548 8.27545 597.548 8.95545V12.2314H596.396V5.87144H597.5V6.81944C597.732 6.49145 598.036 6.24345 598.412 6.07545C598.788 5.89945 599.216 5.81144 599.696 5.81144C600.192 5.81144 600.632 5.91144 601.016 6.11144C601.4 6.31144 601.696 6.60345 601.904 6.98745C602.144 6.61945 602.476 6.33145 602.9 6.12345C603.332 5.91545 603.816 5.81144 604.352 5.81144Z" fill="#B5B8C3"/>
    <g opacity="0.5">
        <line x1="44.6851" y1="249.207" x2="554.586" y2="249.207" stroke="#3B3D4A"/>
        <line x1="44.6851" y1="280.292" x2="554.586" y2="280.292" stroke="#3B3D4A"/>
        <line x1="44.6851" y1="219.829" x2="554.586" y2="219.829" stroke="#3B3D4A"/>
        <line x1="44.6851" y1="189.769" x2="554.586" y2="189.769" stroke="#3B3D4A"/>
        <line x1="44.6851" y1="159.024" x2="554.586" y2="159.024" stroke="#3B3D4A"/>
        <line x1="45.4351" y1="67.2266" x2="560.918" y2="67.2266" stroke="#3B3D4A" stroke-width="1.5" stroke-linecap="round" stroke-dasharray="4 4"/>
        <line x1="44.6851" y1="130.33" x2="554.586" y2="130.33" stroke="#3B3D4A"/>
        <line x1="44.6851" y1="100.27" x2="554.586" y2="100.27" stroke="#3B3D4A"/>
        <line x1="44.6851" y1="36.7314" x2="554.586" y2="36.7315" stroke="#3B3D4A"/>
        <line x1="44.6851" y1="5.98828" x2="554.586" y2="5.98832" stroke="#3B3D4A"/>
        <line x1="554.087" y1="293.431" x2="554.087" y2="6.14612" stroke="#32333E"/>
    </g>
    <path d="M66.7014 180.901L50.5898 187.744V293.615H523.463L538.373 50.0726L520.569 59.9996L492.851 115.688L476.471 87.5096L460.897 80.2637L444.785 87.5096L429.211 50.0726L413.099 45.6445L381.682 109.65L366.376 91.9376L350.533 192.575L334.958 216.325L318.578 234.44L303.004 188.952L286.624 187.744L272.123 201.431L256.012 204.249L240.437 213.105L224.326 215.118L208.483 243.296L192.64 204.249L176.26 205.456L145.648 221.558L129.536 166.007L113.693 205.456L97.5818 199.418L82.0073 168.019L66.7014 180.901Z" fill="url(#paint0_linear_77_161)" fill-opacity="0.2"/>
    <path d="M50.5898 187.643L66.7014 180.805L82.0073 167.932L97.5818 199.309L113.693 205.343L129.536 165.921L145.648 221.433L176.26 205.343L192.64 204.136L208.483 243.156L224.326 214.997L240.437 212.986L256.012 204.136L272.123 201.32L286.624 187.643L303.004 188.85L318.578 234.306L334.958 216.204L350.533 192.47L366.376 91.9048L381.682 109.604L413.099 45.6445L429.211 50.0694L444.785 87.4799L460.897 80.2391L476.471 87.4799L492.851 115.638L520.679 59.7922L540.069 50.0694" stroke="white" stroke-width="1.5"/>
    <path d="M175.407 260.078V261.122H169.371V260.306L172.791 257.006C173.207 256.606 173.487 256.262 173.631 255.974C173.775 255.678 173.847 255.382 173.847 255.086C173.847 254.646 173.691 254.306 173.379 254.066C173.075 253.818 172.635 253.694 172.059 253.694C171.131 253.694 170.415 253.998 169.911 254.606L169.095 253.898C169.423 253.498 169.851 253.186 170.379 252.962C170.915 252.738 171.511 252.626 172.167 252.626C173.047 252.626 173.747 252.838 174.267 253.262C174.787 253.678 175.047 254.246 175.047 254.966C175.047 255.414 174.951 255.838 174.759 256.238C174.567 256.638 174.203 257.094 173.667 257.606L171.099 260.078H175.407ZM178.997 252.722V261.122H177.809V253.766H175.913V252.722H178.997ZM184.741 252.722H188.281C189.169 252.722 189.957 252.898 190.645 253.25C191.333 253.602 191.865 254.098 192.241 254.738C192.625 255.37 192.817 256.098 192.817 256.922C192.817 257.746 192.625 258.478 192.241 259.118C191.865 259.75 191.333 260.242 190.645 260.594C189.957 260.946 189.169 261.122 188.281 261.122H184.741V252.722ZM188.209 260.078C188.889 260.078 189.485 259.946 189.997 259.682C190.517 259.418 190.917 259.05 191.197 258.578C191.477 258.098 191.617 257.546 191.617 256.922C191.617 256.298 191.477 255.75 191.197 255.278C190.917 254.798 190.517 254.426 189.997 254.162C189.485 253.898 188.889 253.766 188.209 253.766H185.941V260.078H188.209ZM200.236 257.978C200.236 258.066 200.228 258.182 200.212 258.326H195.052C195.124 258.886 195.368 259.338 195.784 259.682C196.208 260.018 196.732 260.186 197.356 260.186C198.116 260.186 198.728 259.93 199.192 259.418L199.828 260.162C199.54 260.498 199.18 260.754 198.748 260.93C198.324 261.106 197.848 261.194 197.32 261.194C196.648 261.194 196.052 261.058 195.532 260.786C195.012 260.506 194.608 260.118 194.32 259.622C194.04 259.126 193.9 258.566 193.9 257.942C193.9 257.326 194.036 256.77 194.308 256.274C194.588 255.778 194.968 255.394 195.448 255.122C195.936 254.842 196.484 254.702 197.092 254.702C197.7 254.702 198.24 254.842 198.712 255.122C199.192 255.394 199.564 255.778 199.828 256.274C200.1 256.77 200.236 257.338 200.236 257.978ZM197.092 255.674C196.54 255.674 196.076 255.842 195.7 256.178C195.332 256.514 195.116 256.954 195.052 257.498H199.132C199.068 256.962 198.848 256.526 198.472 256.19C198.104 255.846 197.644 255.674 197.092 255.674ZM204.607 261.194C203.959 261.194 203.379 261.054 202.867 260.774C202.363 260.494 201.967 260.11 201.679 259.622C201.391 259.126 201.247 258.566 201.247 257.942C201.247 257.318 201.391 256.762 201.679 256.274C201.967 255.778 202.363 255.394 202.867 255.122C203.379 254.842 203.959 254.702 204.607 254.702C205.183 254.702 205.695 254.818 206.143 255.05C206.599 255.282 206.951 255.618 207.199 256.058L206.323 256.622C206.123 256.318 205.875 256.09 205.579 255.938C205.283 255.786 204.955 255.71 204.595 255.71C204.179 255.71 203.803 255.802 203.467 255.986C203.139 256.17 202.879 256.434 202.687 256.778C202.503 257.114 202.411 257.502 202.411 257.942C202.411 258.39 202.503 258.786 202.687 259.13C202.879 259.466 203.139 259.726 203.467 259.91C203.803 260.094 204.179 260.186 204.595 260.186C204.955 260.186 205.283 260.11 205.579 259.958C205.875 259.806 206.123 259.578 206.323 259.274L207.199 259.826C206.951 260.266 206.599 260.606 206.143 260.846C205.695 261.078 205.183 261.194 204.607 261.194Z" fill="#B5B8C3"/>
    <path d="M252.156 260.078V261.122H246.12V260.306L249.54 257.006C249.956 256.606 250.236 256.262 250.38 255.974C250.524 255.678 250.596 255.382 250.596 255.086C250.596 254.646 250.44 254.306 250.128 254.066C249.824 253.818 249.384 253.694 248.808 253.694C247.88 253.694 247.164 253.998 246.66 254.606L245.844 253.898C246.172 253.498 246.6 253.186 247.128 252.962C247.664 252.738 248.26 252.626 248.916 252.626C249.796 252.626 250.496 252.838 251.016 253.262C251.536 253.678 251.796 254.246 251.796 254.966C251.796 255.414 251.7 255.838 251.508 256.238C251.316 256.638 250.952 257.094 250.416 257.606L247.848 260.078H252.156ZM259.047 260.078V261.122H253.011V260.306L256.431 257.006C256.847 256.606 257.127 256.262 257.271 255.974C257.415 255.678 257.487 255.382 257.487 255.086C257.487 254.646 257.331 254.306 257.019 254.066C256.715 253.818 256.275 253.694 255.699 253.694C254.771 253.694 254.055 253.998 253.551 254.606L252.735 253.898C253.063 253.498 253.491 253.186 254.019 252.962C254.555 252.738 255.151 252.626 255.807 252.626C256.687 252.626 257.387 252.838 257.907 253.262C258.427 253.678 258.687 254.246 258.687 254.966C258.687 255.414 258.591 255.838 258.399 256.238C258.207 256.638 257.843 257.094 257.307 257.606L254.739 260.078H259.047ZM263.94 252.722H267.48C268.368 252.722 269.156 252.898 269.844 253.25C270.532 253.602 271.064 254.098 271.44 254.738C271.824 255.37 272.016 256.098 272.016 256.922C272.016 257.746 271.824 258.478 271.44 259.118C271.064 259.75 270.532 260.242 269.844 260.594C269.156 260.946 268.368 261.122 267.48 261.122H263.94V252.722ZM267.408 260.078C268.088 260.078 268.684 259.946 269.196 259.682C269.716 259.418 270.116 259.05 270.396 258.578C270.676 258.098 270.816 257.546 270.816 256.922C270.816 256.298 270.676 255.75 270.396 255.278C270.116 254.798 269.716 254.426 269.196 254.162C268.684 253.898 268.088 253.766 267.408 253.766H265.14V260.078H267.408ZM279.434 257.978C279.434 258.066 279.426 258.182 279.41 258.326H274.25C274.322 258.886 274.566 259.338 274.982 259.682C275.406 260.018 275.93 260.186 276.554 260.186C277.314 260.186 277.926 259.93 278.39 259.418L279.026 260.162C278.738 260.498 278.378 260.754 277.946 260.93C277.522 261.106 277.046 261.194 276.518 261.194C275.846 261.194 275.25 261.058 274.73 260.786C274.21 260.506 273.806 260.118 273.518 259.622C273.238 259.126 273.098 258.566 273.098 257.942C273.098 257.326 273.234 256.77 273.506 256.274C273.786 255.778 274.166 255.394 274.646 255.122C275.134 254.842 275.682 254.702 276.29 254.702C276.898 254.702 277.438 254.842 277.91 255.122C278.39 255.394 278.762 255.778 279.026 256.274C279.298 256.77 279.434 257.338 279.434 257.978ZM276.29 255.674C275.738 255.674 275.274 255.842 274.898 256.178C274.53 256.514 274.314 256.954 274.25 257.498H278.33C278.266 256.962 278.046 256.526 277.67 256.19C277.302 255.846 276.842 255.674 276.29 255.674ZM283.806 261.194C283.158 261.194 282.578 261.054 282.066 260.774C281.562 260.494 281.166 260.11 280.878 259.622C280.59 259.126 280.446 258.566 280.446 257.942C280.446 257.318 280.59 256.762 280.878 256.274C281.166 255.778 281.562 255.394 282.066 255.122C282.578 254.842 283.158 254.702 283.806 254.702C284.382 254.702 284.894 254.818 285.342 255.05C285.798 255.282 286.15 255.618 286.398 256.058L285.522 256.622C285.322 256.318 285.074 256.09 284.778 255.938C284.482 255.786 284.154 255.71 283.794 255.71C283.378 255.71 283.002 255.802 282.666 255.986C282.338 256.17 282.078 256.434 281.886 256.778C281.702 257.114 281.61 257.502 281.61 257.942C281.61 258.39 281.702 258.786 281.886 259.13C282.078 259.466 282.338 259.726 282.666 259.91C283.002 260.094 283.378 260.186 283.794 260.186C284.154 260.186 284.482 260.11 284.778 259.958C285.074 259.806 285.322 259.578 285.522 259.274L286.398 259.826C286.15 260.266 285.798 260.606 285.342 260.846C284.894 261.078 284.382 261.194 283.806 261.194Z" fill="#B5B8C3"/>
    <path d="M331.642 260.078V261.122H325.606V260.306L329.026 257.006C329.442 256.606 329.722 256.262 329.866 255.974C330.01 255.678 330.082 255.382 330.082 255.086C330.082 254.646 329.926 254.306 329.614 254.066C329.31 253.818 328.87 253.694 328.294 253.694C327.366 253.694 326.65 253.998 326.146 254.606L325.33 253.898C325.658 253.498 326.086 253.186 326.614 252.962C327.15 252.738 327.746 252.626 328.402 252.626C329.282 252.626 329.982 252.838 330.502 253.262C331.022 253.678 331.282 254.246 331.282 254.966C331.282 255.414 331.186 255.838 330.994 256.238C330.802 256.638 330.438 257.094 329.902 257.606L327.334 260.078H331.642ZM335.845 256.25C336.669 256.33 337.297 256.586 337.729 257.018C338.161 257.442 338.377 257.986 338.377 258.65C338.377 259.13 338.257 259.566 338.017 259.958C337.777 260.342 337.417 260.65 336.937 260.882C336.465 261.106 335.885 261.218 335.197 261.218C334.597 261.218 334.021 261.13 333.469 260.954C332.917 260.77 332.465 260.518 332.113 260.198L332.665 259.25C332.953 259.522 333.321 259.742 333.769 259.91C334.217 260.07 334.693 260.15 335.197 260.15C335.821 260.15 336.305 260.018 336.649 259.754C337.001 259.49 337.177 259.126 337.177 258.662C337.177 258.198 337.005 257.838 336.661 257.582C336.317 257.326 335.797 257.198 335.101 257.198H334.429V256.358L336.541 253.766H332.497V252.722H338.041V253.538L335.845 256.25ZM343.403 252.722H346.943C347.831 252.722 348.619 252.898 349.307 253.25C349.995 253.602 350.527 254.098 350.903 254.738C351.287 255.37 351.479 256.098 351.479 256.922C351.479 257.746 351.287 258.478 350.903 259.118C350.527 259.75 349.995 260.242 349.307 260.594C348.619 260.946 347.831 261.122 346.943 261.122H343.403V252.722ZM346.871 260.078C347.551 260.078 348.147 259.946 348.659 259.682C349.179 259.418 349.579 259.05 349.859 258.578C350.139 258.098 350.279 257.546 350.279 256.922C350.279 256.298 350.139 255.75 349.859 255.278C349.579 254.798 349.179 254.426 348.659 254.162C348.147 253.898 347.551 253.766 346.871 253.766H344.603V260.078H346.871ZM358.897 257.978C358.897 258.066 358.889 258.182 358.873 258.326H353.713C353.785 258.886 354.029 259.338 354.445 259.682C354.869 260.018 355.393 260.186 356.017 260.186C356.777 260.186 357.389 259.93 357.853 259.418L358.489 260.162C358.201 260.498 357.841 260.754 357.409 260.93C356.985 261.106 356.509 261.194 355.981 261.194C355.309 261.194 354.713 261.058 354.193 260.786C353.673 260.506 353.269 260.118 352.981 259.622C352.701 259.126 352.561 258.566 352.561 257.942C352.561 257.326 352.697 256.77 352.969 256.274C353.249 255.778 353.629 255.394 354.109 255.122C354.597 254.842 355.145 254.702 355.753 254.702C356.361 254.702 356.901 254.842 357.373 255.122C357.853 255.394 358.225 255.778 358.489 256.274C358.761 256.77 358.897 257.338 358.897 257.978ZM355.753 255.674C355.201 255.674 354.737 255.842 354.361 256.178C353.993 256.514 353.777 256.954 353.713 257.498H357.793C357.729 256.962 357.509 256.526 357.133 256.19C356.765 255.846 356.305 255.674 355.753 255.674ZM363.268 261.194C362.62 261.194 362.04 261.054 361.528 260.774C361.024 260.494 360.628 260.11 360.34 259.622C360.052 259.126 359.908 258.566 359.908 257.942C359.908 257.318 360.052 256.762 360.34 256.274C360.628 255.778 361.024 255.394 361.528 255.122C362.04 254.842 362.62 254.702 363.268 254.702C363.844 254.702 364.356 254.818 364.804 255.05C365.26 255.282 365.612 255.618 365.86 256.058L364.984 256.622C364.784 256.318 364.536 256.09 364.24 255.938C363.944 255.786 363.616 255.71 363.256 255.71C362.84 255.71 362.464 255.802 362.128 255.986C361.8 256.17 361.54 256.434 361.348 256.778C361.164 257.114 361.072 257.502 361.072 257.942C361.072 258.39 361.164 258.786 361.348 259.13C361.54 259.466 361.8 259.726 362.128 259.91C362.464 260.094 362.84 260.186 363.256 260.186C363.616 260.186 363.944 260.11 364.24 259.958C364.536 259.806 364.784 259.578 364.984 259.274L365.86 259.826C365.612 260.266 365.26 260.606 364.804 260.846C364.356 261.078 363.844 261.194 363.268 261.194Z" fill="#B5B8C3"/>
    <path d="M411.147 260.078V261.122H405.111V260.306L408.531 257.006C408.947 256.606 409.227 256.262 409.371 255.974C409.515 255.678 409.587 255.382 409.587 255.086C409.587 254.646 409.431 254.306 409.119 254.066C408.815 253.818 408.375 253.694 407.799 253.694C406.871 253.694 406.155 253.998 405.651 254.606L404.835 253.898C405.163 253.498 405.591 253.186 406.119 252.962C406.655 252.738 407.251 252.626 407.907 252.626C408.787 252.626 409.487 252.838 410.007 253.262C410.527 253.678 410.787 254.246 410.787 254.966C410.787 255.414 410.691 255.838 410.499 256.238C410.307 256.638 409.943 257.094 409.407 257.606L406.839 260.078H411.147ZM419.219 259.058H417.623V261.122H416.459V259.058H411.791V258.218L416.087 252.722H417.383L413.267 258.026H416.495V256.202H417.623V258.026H419.219V259.058ZM423.845 252.722H427.385C428.273 252.722 429.061 252.898 429.749 253.25C430.437 253.602 430.969 254.098 431.345 254.738C431.729 255.37 431.921 256.098 431.921 256.922C431.921 257.746 431.729 258.478 431.345 259.118C430.969 259.75 430.437 260.242 429.749 260.594C429.061 260.946 428.273 261.122 427.385 261.122H423.845V252.722ZM427.313 260.078C427.993 260.078 428.589 259.946 429.101 259.682C429.621 259.418 430.021 259.05 430.301 258.578C430.581 258.098 430.721 257.546 430.721 256.922C430.721 256.298 430.581 255.75 430.301 255.278C430.021 254.798 429.621 254.426 429.101 254.162C428.589 253.898 427.993 253.766 427.313 253.766H425.045V260.078H427.313ZM439.34 257.978C439.34 258.066 439.332 258.182 439.316 258.326H434.156C434.228 258.886 434.472 259.338 434.888 259.682C435.312 260.018 435.836 260.186 436.46 260.186C437.22 260.186 437.832 259.93 438.296 259.418L438.932 260.162C438.644 260.498 438.284 260.754 437.852 260.93C437.428 261.106 436.952 261.194 436.424 261.194C435.752 261.194 435.156 261.058 434.636 260.786C434.116 260.506 433.712 260.118 433.424 259.622C433.144 259.126 433.004 258.566 433.004 257.942C433.004 257.326 433.14 256.77 433.412 256.274C433.692 255.778 434.072 255.394 434.552 255.122C435.04 254.842 435.588 254.702 436.196 254.702C436.804 254.702 437.344 254.842 437.816 255.122C438.296 255.394 438.668 255.778 438.932 256.274C439.204 256.77 439.34 257.338 439.34 257.978ZM436.196 255.674C435.644 255.674 435.18 255.842 434.804 256.178C434.436 256.514 434.22 256.954 434.156 257.498H438.236C438.172 256.962 437.952 256.526 437.576 256.19C437.208 255.846 436.748 255.674 436.196 255.674ZM443.711 261.194C443.063 261.194 442.483 261.054 441.971 260.774C441.467 260.494 441.071 260.11 440.783 259.622C440.495 259.126 440.351 258.566 440.351 257.942C440.351 257.318 440.495 256.762 440.783 256.274C441.071 255.778 441.467 255.394 441.971 255.122C442.483 254.842 443.063 254.702 443.711 254.702C444.287 254.702 444.799 254.818 445.247 255.05C445.703 255.282 446.055 255.618 446.303 256.058L445.427 256.622C445.227 256.318 444.979 256.09 444.683 255.938C444.387 255.786 444.059 255.71 443.699 255.71C443.283 255.71 442.907 255.802 442.571 255.986C442.243 256.17 441.983 256.434 441.791 256.778C441.607 257.114 441.515 257.502 441.515 257.942C441.515 258.39 441.607 258.786 441.791 259.13C441.983 259.466 442.243 259.726 442.571 259.91C442.907 260.094 443.283 260.186 443.699 260.186C444.059 260.186 444.387 260.11 444.683 259.958C444.979 259.806 445.227 259.578 445.427 259.274L446.303 259.826C446.055 260.266 445.703 260.606 445.247 260.846C444.799 261.078 444.287 261.194 443.711 261.194Z" fill="#B5B8C3"/>
    <path d="M491.579 260.078V261.122H485.543V260.306L488.963 257.006C489.379 256.606 489.659 256.262 489.803 255.974C489.947 255.678 490.019 255.382 490.019 255.086C490.019 254.646 489.863 254.306 489.551 254.066C489.247 253.818 488.807 253.694 488.231 253.694C487.303 253.694 486.587 253.998 486.083 254.606L485.267 253.898C485.595 253.498 486.023 253.186 486.551 252.962C487.087 252.738 487.683 252.626 488.339 252.626C489.219 252.626 489.919 252.838 490.439 253.262C490.959 253.678 491.219 254.246 491.219 254.966C491.219 255.414 491.123 255.838 490.931 256.238C490.739 256.638 490.375 257.094 489.839 257.606L487.271 260.078H491.579ZM494.965 256.07C496.165 256.07 497.045 256.298 497.605 256.754C498.173 257.202 498.457 257.818 498.457 258.602C498.457 259.098 498.337 259.546 498.097 259.946C497.865 260.338 497.509 260.65 497.029 260.882C496.557 261.106 495.973 261.218 495.277 261.218C494.685 261.218 494.113 261.13 493.561 260.954C493.009 260.77 492.553 260.518 492.193 260.198L492.745 259.25C493.033 259.522 493.401 259.742 493.849 259.91C494.297 260.07 494.769 260.15 495.265 260.15C495.897 260.15 496.385 260.018 496.729 259.754C497.081 259.482 497.257 259.114 497.257 258.65C497.257 258.146 497.065 257.766 496.681 257.51C496.297 257.246 495.641 257.114 494.713 257.114H492.805L493.249 252.722H497.989V253.766H494.257L494.029 256.07H494.965ZM503.363 252.722H506.903C507.791 252.722 508.579 252.898 509.267 253.25C509.955 253.602 510.487 254.098 510.863 254.738C511.247 255.37 511.439 256.098 511.439 256.922C511.439 257.746 511.247 258.478 510.863 259.118C510.487 259.75 509.955 260.242 509.267 260.594C508.579 260.946 507.791 261.122 506.903 261.122H503.363V252.722ZM506.831 260.078C507.511 260.078 508.107 259.946 508.619 259.682C509.139 259.418 509.539 259.05 509.819 258.578C510.099 258.098 510.239 257.546 510.239 256.922C510.239 256.298 510.099 255.75 509.819 255.278C509.539 254.798 509.139 254.426 508.619 254.162C508.107 253.898 507.511 253.766 506.831 253.766H504.563V260.078H506.831ZM518.857 257.978C518.857 258.066 518.849 258.182 518.833 258.326H513.673C513.745 258.886 513.989 259.338 514.405 259.682C514.829 260.018 515.353 260.186 515.977 260.186C516.737 260.186 517.349 259.93 517.813 259.418L518.449 260.162C518.161 260.498 517.801 260.754 517.369 260.93C516.945 261.106 516.469 261.194 515.941 261.194C515.269 261.194 514.673 261.058 514.153 260.786C513.633 260.506 513.229 260.118 512.941 259.622C512.661 259.126 512.521 258.566 512.521 257.942C512.521 257.326 512.657 256.77 512.929 256.274C513.209 255.778 513.589 255.394 514.069 255.122C514.557 254.842 515.105 254.702 515.713 254.702C516.321 254.702 516.861 254.842 517.333 255.122C517.813 255.394 518.185 255.778 518.449 256.274C518.721 256.77 518.857 257.338 518.857 257.978ZM515.713 255.674C515.161 255.674 514.697 255.842 514.321 256.178C513.953 256.514 513.737 256.954 513.673 257.498H517.753C517.689 256.962 517.469 256.526 517.093 256.19C516.725 255.846 516.265 255.674 515.713 255.674ZM523.228 261.194C522.58 261.194 522 261.054 521.488 260.774C520.984 260.494 520.588 260.11 520.3 259.622C520.012 259.126 519.868 258.566 519.868 257.942C519.868 257.318 520.012 256.762 520.3 256.274C520.588 255.778 520.984 255.394 521.488 255.122C522 254.842 522.58 254.702 523.228 254.702C523.804 254.702 524.316 254.818 524.764 255.05C525.22 255.282 525.572 255.618 525.82 256.058L524.944 256.622C524.744 256.318 524.496 256.09 524.2 255.938C523.904 255.786 523.576 255.71 523.216 255.71C522.8 255.71 522.424 255.802 522.088 255.986C521.76 256.17 521.5 256.434 521.308 256.778C521.124 257.114 521.032 257.502 521.032 257.942C521.032 258.39 521.124 258.786 521.308 259.13C521.5 259.466 521.76 259.726 522.088 259.91C522.424 260.094 522.8 260.186 523.216 260.186C523.576 260.186 523.904 260.11 524.2 259.958C524.496 259.806 524.744 259.578 524.944 259.274L525.82 259.826C525.572 260.266 525.22 260.606 524.764 260.846C524.316 261.078 523.804 261.194 523.228 261.194Z" fill="#B5B8C3"/>
    <path d="M570.813 260.078V261.122H564.777V260.306L568.197 257.006C568.613 256.606 568.893 256.262 569.037 255.974C569.181 255.678 569.253 255.382 569.253 255.086C569.253 254.646 569.097 254.306 568.785 254.066C568.481 253.818 568.041 253.694 567.465 253.694C566.537 253.694 565.821 253.998 565.317 254.606L564.501 253.898C564.829 253.498 565.257 253.186 565.785 252.962C566.321 252.738 566.917 252.626 567.573 252.626C568.453 252.626 569.153 252.838 569.673 253.262C570.193 253.678 570.453 254.246 570.453 254.966C570.453 255.414 570.357 255.838 570.165 256.238C569.973 256.638 569.609 257.094 569.073 257.606L566.505 260.078H570.813ZM575.388 256.022C575.94 256.022 576.432 256.126 576.864 256.334C577.304 256.542 577.648 256.842 577.896 257.234C578.144 257.618 578.268 258.062 578.268 258.566C578.268 259.094 578.136 259.558 577.872 259.958C577.616 260.358 577.26 260.67 576.804 260.894C576.356 261.11 575.852 261.218 575.292 261.218C574.164 261.218 573.292 260.854 572.676 260.126C572.068 259.398 571.764 258.366 571.764 257.03C571.764 256.094 571.928 255.298 572.256 254.642C572.592 253.978 573.056 253.478 573.648 253.142C574.248 252.798 574.944 252.626 575.736 252.626C576.144 252.626 576.528 252.67 576.888 252.758C577.248 252.838 577.56 252.958 577.824 253.118L577.368 254.054C576.968 253.79 576.432 253.658 575.76 253.658C574.888 253.658 574.204 253.93 573.708 254.474C573.212 255.01 572.964 255.794 572.964 256.826C572.964 256.954 572.968 257.054 572.976 257.126C573.216 256.766 573.544 256.494 573.96 256.31C574.384 256.118 574.86 256.022 575.388 256.022ZM575.244 260.246C575.796 260.246 576.244 260.098 576.588 259.802C576.932 259.506 577.104 259.11 577.104 258.614C577.104 258.118 576.928 257.726 576.576 257.438C576.232 257.142 575.768 256.994 575.184 256.994C574.808 256.994 574.472 257.066 574.176 257.21C573.888 257.354 573.66 257.55 573.492 257.798C573.332 258.046 573.252 258.322 573.252 258.626C573.252 258.922 573.328 259.194 573.48 259.442C573.64 259.682 573.868 259.878 574.164 260.03C574.468 260.174 574.828 260.246 575.244 260.246ZM583.077 252.722H586.617C587.505 252.722 588.293 252.898 588.981 253.25C589.669 253.602 590.201 254.098 590.577 254.738C590.961 255.37 591.153 256.098 591.153 256.922C591.153 257.746 590.961 258.478 590.577 259.118C590.201 259.75 589.669 260.242 588.981 260.594C588.293 260.946 587.505 261.122 586.617 261.122H583.077V252.722ZM586.545 260.078C587.225 260.078 587.821 259.946 588.333 259.682C588.853 259.418 589.253 259.05 589.533 258.578C589.813 258.098 589.953 257.546 589.953 256.922C589.953 256.298 589.813 255.75 589.533 255.278C589.253 254.798 588.853 254.426 588.333 254.162C587.821 253.898 587.225 253.766 586.545 253.766H584.277V260.078H586.545ZM598.571 257.978C598.571 258.066 598.563 258.182 598.547 258.326H593.387C593.459 258.886 593.703 259.338 594.119 259.682C594.543 260.018 595.067 260.186 595.691 260.186C596.451 260.186 597.063 259.93 597.527 259.418L598.163 260.162C597.875 260.498 597.515 260.754 597.083 260.93C596.659 261.106 596.183 261.194 595.655 261.194C594.983 261.194 594.387 261.058 593.867 260.786C593.347 260.506 592.943 260.118 592.655 259.622C592.375 259.126 592.235 258.566 592.235 257.942C592.235 257.326 592.371 256.77 592.643 256.274C592.923 255.778 593.303 255.394 593.783 255.122C594.271 254.842 594.819 254.702 595.427 254.702C596.035 254.702 596.575 254.842 597.047 255.122C597.527 255.394 597.899 255.778 598.163 256.274C598.435 256.77 598.571 257.338 598.571 257.978ZM595.427 255.674C594.875 255.674 594.411 255.842 594.035 256.178C593.667 256.514 593.451 256.954 593.387 257.498H597.467C597.403 256.962 597.183 256.526 596.807 256.19C596.439 255.846 595.979 255.674 595.427 255.674ZM602.943 261.194C602.295 261.194 601.715 261.054 601.203 260.774C600.699 260.494 600.303 260.11 600.015 259.622C599.727 259.126 599.583 258.566 599.583 257.942C599.583 257.318 599.727 256.762 600.015 256.274C600.303 255.778 600.699 255.394 601.203 255.122C601.715 254.842 602.295 254.702 602.943 254.702C603.519 254.702 604.031 254.818 604.479 255.05C604.935 255.282 605.287 255.618 605.535 256.058L604.659 256.622C604.459 256.318 604.211 256.09 603.915 255.938C603.619 255.786 603.291 255.71 602.931 255.71C602.515 255.71 602.139 255.802 601.803 255.986C601.475 256.17 601.215 256.434 601.023 256.778C600.839 257.114 600.747 257.502 600.747 257.942C600.747 258.39 600.839 258.786 601.023 259.13C601.215 259.466 601.475 259.726 601.803 259.91C602.139 260.094 602.515 260.186 602.931 260.186C603.291 260.186 603.619 260.11 603.915 259.958C604.211 259.806 604.459 259.578 604.659 259.274L605.535 259.826C605.287 260.266 604.935 260.606 604.479 260.846C604.031 261.078 603.519 261.194 602.943 261.194Z" fill="#B5B8C3"/>
    <path d="M650.404 260.078V261.122H644.368V260.306L647.788 257.006C648.204 256.606 648.484 256.262 648.628 255.974C648.772 255.678 648.844 255.382 648.844 255.086C648.844 254.646 648.688 254.306 648.376 254.066C648.072 253.818 647.632 253.694 647.056 253.694C646.128 253.694 645.412 253.998 644.908 254.606L644.092 253.898C644.42 253.498 644.848 253.186 645.376 252.962C645.912 252.738 646.508 252.626 647.164 252.626C648.044 252.626 648.744 252.838 649.264 253.262C649.784 253.678 650.044 254.246 650.044 254.966C650.044 255.414 649.948 255.838 649.756 256.238C649.564 256.638 649.2 257.094 648.664 257.606L646.096 260.078H650.404ZM657.475 252.722V253.538L654.079 261.122H652.807L656.131 253.766H652.291V255.266H651.139V252.722H657.475ZM662.434 252.722H665.974C666.862 252.722 667.65 252.898 668.338 253.25C669.026 253.602 669.558 254.098 669.934 254.738C670.318 255.37 670.51 256.098 670.51 256.922C670.51 257.746 670.318 258.478 669.934 259.118C669.558 259.75 669.026 260.242 668.338 260.594C667.65 260.946 666.862 261.122 665.974 261.122H662.434V252.722ZM665.902 260.078C666.582 260.078 667.178 259.946 667.69 259.682C668.21 259.418 668.61 259.05 668.89 258.578C669.17 258.098 669.31 257.546 669.31 256.922C669.31 256.298 669.17 255.75 668.89 255.278C668.61 254.798 668.21 254.426 667.69 254.162C667.178 253.898 666.582 253.766 665.902 253.766H663.634V260.078H665.902ZM677.928 257.978C677.928 258.066 677.92 258.182 677.904 258.326H672.744C672.816 258.886 673.06 259.338 673.476 259.682C673.9 260.018 674.424 260.186 675.048 260.186C675.808 260.186 676.42 259.93 676.884 259.418L677.52 260.162C677.232 260.498 676.872 260.754 676.44 260.93C676.016 261.106 675.54 261.194 675.012 261.194C674.34 261.194 673.744 261.058 673.224 260.786C672.704 260.506 672.3 260.118 672.012 259.622C671.732 259.126 671.592 258.566 671.592 257.942C671.592 257.326 671.728 256.77 672 256.274C672.28 255.778 672.66 255.394 673.14 255.122C673.628 254.842 674.176 254.702 674.784 254.702C675.392 254.702 675.932 254.842 676.404 255.122C676.884 255.394 677.256 255.778 677.52 256.274C677.792 256.77 677.928 257.338 677.928 257.978ZM674.784 255.674C674.232 255.674 673.768 255.842 673.392 256.178C673.024 256.514 672.808 256.954 672.744 257.498H676.824C676.76 256.962 676.54 256.526 676.164 256.19C675.796 255.846 675.336 255.674 674.784 255.674ZM682.3 261.194C681.652 261.194 681.072 261.054 680.56 260.774C680.056 260.494 679.66 260.11 679.372 259.622C679.084 259.126 678.94 258.566 678.94 257.942C678.94 257.318 679.084 256.762 679.372 256.274C679.66 255.778 680.056 255.394 680.56 255.122C681.072 254.842 681.652 254.702 682.3 254.702C682.876 254.702 683.388 254.818 683.836 255.05C684.292 255.282 684.644 255.618 684.892 256.058L684.016 256.622C683.816 256.318 683.568 256.09 683.272 255.938C682.976 255.786 682.648 255.71 682.288 255.71C681.872 255.71 681.496 255.802 681.16 255.986C680.832 256.17 680.572 256.434 680.38 256.778C680.196 257.114 680.104 257.502 680.104 257.942C680.104 258.39 680.196 258.786 680.38 259.13C680.572 259.466 680.832 259.726 681.16 259.91C681.496 260.094 681.872 260.186 682.288 260.186C682.648 260.186 682.976 260.11 683.272 259.958C683.568 259.806 683.816 259.578 684.016 259.274L684.892 259.826C684.644 260.266 684.292 260.606 683.836 260.846C683.388 261.078 682.876 261.194 682.3 261.194Z" fill="#B5B8C3"/>
    <defs>
        <linearGradient id="paint0_linear_77_161" x1="287.026" y1="169.987" x2="281.648" y2="281.713" gradientUnits="userSpaceOnUse">
            <stop/>
            <stop offset="1" stop-color="#282933" stop-opacity="0"/>
        </linearGradient>
    </defs>
</svg>
