<svg width="24" height="25" viewBox="0 0 24 25" fill="none"
    xmlns="http://www.w3.org/2000/svg">
    <g clip-path="url(#clip0_77_212)">
        <path d="M20.2125 21.6522C20.2125 21.8771 20.025 22.0647 19.8 22.0647H2.9625C2.7375 22.0647 2.55 21.8771 2.55 21.6522V4.81465C2.55 4.58965 2.7375 4.40215 2.9625 4.40215H14.475L16.7625 1.88965H0.825C0.375 1.88965 0 2.26465 0 2.71465V23.7522C0 24.2397 0.375 24.6147 0.825 24.6147H21.8625C22.3125 24.6147 22.6875 24.2397 22.6875 23.7897V7.40215L20.175 10.9271C20.2125 10.9271 20.2125 21.6522 20.2125 21.6522Z" fill="#B6B8BC"/>
    </g>
    <defs>
        <clipPath id="clip0_77_212">
            <rect width="24" height="24" fill="white" transform="translate(0 0.614258)"/>
        </clipPath>
    </defs>
</svg>
