<svg width="101" height="134" viewBox="0 0 101 134" fill="none" xmlns="http://www.w3.org/2000/svg">
<g filter="url(#filter0_b_6560_185)">
<path d="M1 24C1 10.7452 11.7452 0 25 0H77C90.2548 0 101 10.7452 101 24V76C101 89.2548 90.2548 100 77 100H25C11.7452 100 1 89.2548 1 76V24Z" fill="url(#paint0_linear_6560_185)" fill-opacity="0.5"/>
<path d="M1 0H101H1ZM101 76C101 89.8071 89.8071 101 76 101H25C11.1929 101 0 89.8071 0 76H2C2 88.7026 12.2975 99 25 99H77C90.2548 99 101 88.7026 101 76ZM25 101C11.1929 101 0 89.8071 0 76V25C0 11.1929 11.1929 0 25 0C12.2975 0 2 10.7452 2 24V76C2 88.7026 12.2975 99 25 99V101ZM101 0V100V0Z" fill="url(#paint1_linear_6560_185)"/>
</g>
<rect x="24.9997" y="70.6622" width="15.9817" height="8.26667" rx="4.13333" transform="rotate(-51.1804 24.9997 70.6622)" stroke="white" stroke-width="2"/>
<g filter="url(#filter1_f_6560_185)">
<rect x="43.217" y="52.6379" width="15.9817" height="8.26667" rx="4.13333" transform="rotate(-35.9722 43.217 52.6379)" stroke="url(#paint2_linear_6560_185)" stroke-width="2"/>
</g>
<g filter="url(#filter2_d_6560_185)">
<rect x="43.217" y="52.6384" width="15.9817" height="8.26667" rx="4.13333" transform="rotate(-35.9722 43.217 52.6384)" stroke="url(#paint3_linear_6560_185)" stroke-width="2" shape-rendering="crispEdges"/>
</g>
<rect x="62.3472" y="38.0459" width="15.9817" height="8.26667" rx="4.13333" transform="rotate(-54.6781 62.3472 38.0459)" stroke="white" stroke-width="2"/>
<path d="M66.5586 39.0132L56.8475 48.169" stroke="white" stroke-width="2" stroke-linecap="round"/>
<path d="M47.6094 54.4121L37.1874 62.7497" stroke="white" stroke-width="2" stroke-linecap="round"/>
<path d="M16.1209 119.8H20.6809C21.8649 119.8 22.9102 120.04 23.8169 120.52C24.7235 120.989 25.4275 121.651 25.9289 122.504C26.4302 123.347 26.6809 124.312 26.6809 125.4C26.6809 126.488 26.4302 127.459 25.9289 128.312C25.4275 129.155 24.7235 129.816 23.8169 130.296C22.9102 130.765 21.8649 131 20.6809 131H16.1209V119.8ZM20.6169 129.976C21.5982 129.976 22.4569 129.784 23.1929 129.4C23.9289 129.005 24.4995 128.467 24.9049 127.784C25.3102 127.091 25.5129 126.296 25.5129 125.4C25.5129 124.504 25.3102 123.715 24.9049 123.032C24.4995 122.339 23.9289 121.8 23.1929 121.416C22.4569 121.021 21.5982 120.824 20.6169 120.824H17.3049V129.976H20.6169ZM32.0436 122.52C33.1423 122.52 33.985 122.797 34.5716 123.352C35.1583 123.896 35.4516 124.707 35.4516 125.784V131H34.3636V129.688C34.1076 130.125 33.729 130.467 33.2276 130.712C32.737 130.957 32.1503 131.08 31.4676 131.08C30.529 131.08 29.7823 130.856 29.2276 130.408C28.673 129.96 28.3956 129.368 28.3956 128.632C28.3956 127.917 28.6516 127.341 29.1636 126.904C29.6863 126.467 30.513 126.248 31.6436 126.248H34.3156V125.736C34.3156 125.011 34.113 124.461 33.7076 124.088C33.3023 123.704 32.7103 123.512 31.9316 123.512C31.3983 123.512 30.8863 123.603 30.3956 123.784C29.905 123.955 29.4836 124.195 29.1316 124.504L28.6196 123.656C29.0463 123.293 29.5583 123.016 30.1556 122.824C30.753 122.621 31.3823 122.52 32.0436 122.52ZM31.6436 130.184C32.2836 130.184 32.833 130.04 33.2916 129.752C33.7503 129.453 34.0916 129.027 34.3156 128.472V127.096H31.6756C30.2356 127.096 29.5156 127.597 29.5156 128.6C29.5156 129.091 29.7023 129.48 30.0756 129.768C30.449 130.045 30.9716 130.184 31.6436 130.184ZM42.9691 130.488C42.7558 130.68 42.4891 130.829 42.1691 130.936C41.8598 131.032 41.5345 131.08 41.1931 131.08C40.4038 131.08 39.7958 130.867 39.3691 130.44C38.9425 130.013 38.7291 129.411 38.7291 128.632V123.544H37.2251V122.584H38.7291V120.744H39.8651V122.584H42.4251V123.544H39.8651V128.568C39.8651 129.069 39.9878 129.453 40.2331 129.72C40.4891 129.976 40.8518 130.104 41.3211 130.104C41.5558 130.104 41.7798 130.067 41.9931 129.992C42.2171 129.917 42.4091 129.811 42.5691 129.672L42.9691 130.488ZM47.9811 122.52C49.0798 122.52 49.9225 122.797 50.5091 123.352C51.0958 123.896 51.3891 124.707 51.3891 125.784V131H50.3011V129.688C50.0451 130.125 49.6665 130.467 49.1651 130.712C48.6745 130.957 48.0878 131.08 47.4051 131.08C46.4665 131.08 45.7198 130.856 45.1651 130.408C44.6105 129.96 44.3331 129.368 44.3331 128.632C44.3331 127.917 44.5891 127.341 45.1011 126.904C45.6238 126.467 46.4505 126.248 47.5811 126.248H50.2531V125.736C50.2531 125.011 50.0505 124.461 49.6451 124.088C49.2398 123.704 48.6478 123.512 47.8691 123.512C47.3358 123.512 46.8238 123.603 46.3331 123.784C45.8425 123.955 45.4211 124.195 45.0691 124.504L44.5571 123.656C44.9838 123.293 45.4958 123.016 46.0931 122.824C46.6905 122.621 47.3198 122.52 47.9811 122.52ZM47.5811 130.184C48.2211 130.184 48.7705 130.04 49.2291 129.752C49.6878 129.453 50.0291 129.027 50.2531 128.472V127.096H47.6131C46.1731 127.096 45.4531 127.597 45.4531 128.6C45.4531 129.091 45.6398 129.48 46.0131 129.768C46.3865 130.045 46.9091 130.184 47.5811 130.184ZM68.2621 119.8V131H67.0941V125.832H60.0861V131H58.9021V119.8H60.0861V124.792H67.0941V119.8H68.2621ZM79.2618 122.584V131H78.1737V129.464C77.8751 129.976 77.4644 130.376 76.9418 130.664C76.4191 130.941 75.8218 131.08 75.1498 131.08C74.0511 131.08 73.1818 130.776 72.5418 130.168C71.9124 129.549 71.5978 128.648 71.5978 127.464V122.584H72.7338V127.352C72.7338 128.237 72.9524 128.909 73.3898 129.368C73.8271 129.827 74.4511 130.056 75.2618 130.056C76.1471 130.056 76.8458 129.789 77.3578 129.256C77.8698 128.712 78.1258 127.96 78.1258 127V122.584H79.2618ZM86.7794 122.52C87.5687 122.52 88.2834 122.701 88.9234 123.064C89.5634 123.416 90.0647 123.917 90.4274 124.568C90.79 125.219 90.9714 125.96 90.9714 126.792C90.9714 127.624 90.79 128.365 90.4274 129.016C90.0647 129.667 89.5634 130.173 88.9234 130.536C88.2834 130.899 87.5687 131.08 86.7794 131.08C86.0754 131.08 85.4407 130.931 84.8754 130.632C84.3207 130.333 83.8727 129.901 83.5314 129.336V131H82.4434V119.128H83.5794V124.184C83.9314 123.64 84.3794 123.229 84.9234 122.952C85.478 122.664 86.0967 122.52 86.7794 122.52ZM86.6994 130.072C87.286 130.072 87.8194 129.939 88.2994 129.672C88.7794 129.395 89.1527 129.005 89.4194 128.504C89.6967 128.003 89.8354 127.432 89.8354 126.792C89.8354 126.152 89.6967 125.581 89.4194 125.08C89.1527 124.579 88.7794 124.195 88.2994 123.928C87.8194 123.651 87.286 123.512 86.6994 123.512C86.102 123.512 85.5634 123.651 85.0834 123.928C84.614 124.195 84.2407 124.579 83.9634 125.08C83.6967 125.581 83.5634 126.152 83.5634 126.792C83.5634 127.432 83.6967 128.003 83.9634 128.504C84.2407 129.005 84.614 129.395 85.0834 129.672C85.5634 129.939 86.102 130.072 86.6994 130.072Z" fill="#B2B2B2"/>
<defs>
<filter id="filter0_b_6560_185" x="-49.3555" y="-49.3555" width="199.711" height="199.711" filterUnits="userSpaceOnUse" color-interpolation-filters="sRGB">
<feFlood flood-opacity="0" result="BackgroundImageFix"/>
<feGaussianBlur in="BackgroundImageFix" stdDeviation="24.6777"/>
<feComposite in2="SourceAlpha" operator="in" result="effect1_backgroundBlur_6560_185"/>
<feBlend mode="normal" in="SourceGraphic" in2="effect1_backgroundBlur_6560_185" result="shape"/>
</filter>
<filter id="filter1_f_6560_185" x="38.1555" y="38.1896" width="27.9117" height="26.1993" filterUnits="userSpaceOnUse" color-interpolation-filters="sRGB">
<feFlood flood-opacity="0" result="BackgroundImageFix"/>
<feBlend mode="normal" in="SourceGraphic" in2="BackgroundImageFix" result="shape"/>
<feGaussianBlur stdDeviation="2.85" result="effect1_foregroundBlur_6560_185"/>
</filter>
<filter id="filter2_d_6560_185" x="39.8555" y="43.8901" width="24.5117" height="22.7993" filterUnits="userSpaceOnUse" color-interpolation-filters="sRGB">
<feFlood flood-opacity="0" result="BackgroundImageFix"/>
<feColorMatrix in="SourceAlpha" type="matrix" values="0 0 0 0 0 0 0 0 0 0 0 0 0 0 0 0 0 0 127 0" result="hardAlpha"/>
<feOffset dy="4"/>
<feGaussianBlur stdDeviation="2"/>
<feComposite in2="hardAlpha" operator="out"/>
<feColorMatrix type="matrix" values="0 0 0 0 0 0 0 0 0 0 0 0 0 0 0 0 0 0 0.25 0"/>
<feBlend mode="normal" in2="BackgroundImageFix" result="effect1_dropShadow_6560_185"/>
<feBlend mode="normal" in="SourceGraphic" in2="effect1_dropShadow_6560_185" result="shape"/>
</filter>
<linearGradient id="paint0_linear_6560_185" x1="51" y1="0" x2="33.3948" y2="101.465" gradientUnits="userSpaceOnUse">
<stop stop-color="#22232D"/>
<stop offset="1" stop-color="#1A1B23" stop-opacity="0"/>
</linearGradient>
<linearGradient id="paint1_linear_6560_185" x1="69.0427" y1="-1.45466e-06" x2="40.8867" y2="11.3172" gradientUnits="userSpaceOnUse">
<stop stop-color="white"/>
<stop offset="0.0001" stop-color="white"/>
<stop offset="1" stop-color="white" stop-opacity="0"/>
</linearGradient>
<linearGradient id="paint2_linear_6560_185" x1="49.4583" y1="52.8147" x2="44.071" y2="62.859" gradientUnits="userSpaceOnUse">
<stop stop-color="#F7931A"/>
<stop offset="1" stop-color="#8E2C2C"/>
</linearGradient>
<linearGradient id="paint3_linear_6560_185" x1="49.4583" y1="52.8152" x2="44.071" y2="62.8595" gradientUnits="userSpaceOnUse">
<stop stop-color="#F7931A"/>
<stop offset="1" stop-color="#8E2C2C"/>
</linearGradient>
</defs>
</svg>
