<svg width="101" height="101" viewBox="0 0 101 101" fill="none"
    xmlns="http://www.w3.org/2000/svg">
    <g filter="url(#filter0_b_162_560)">
        <path d="M1 24C1 10.7452 11.7452 0 25 0H77C90.2548 0 101 10.7452 101 24V76C101 89.2548 90.2548 100 77 100H25C11.7452 100 1 89.2548 1 76V24Z" fill="url(#paint0_linear_162_560)" fill-opacity="0.8"/>
        <path d="M1 0H101H1ZM101 76C101 89.8071 89.8071 101 76 101H25C11.1929 101 0 89.8071 0 76H2C2 88.7026 12.2975 99 25 99H77C90.2548 99 101 88.7026 101 76ZM25 101C11.1929 101 0 89.8071 0 76V25C0 11.1929 11.1929 0 25 0C12.2975 0 2 10.7452 2 24V76C2 88.7026 12.2975 99 25 99V101ZM101 0V100V0Z" fill="url(#paint1_linear_162_560)"/>
    </g>
    <path d="M46.3172 72.8287L45.9879 72.6574L45.9615 68.3234C45.922 64.0289 45.922 63.963 46.225 63.4624C46.3963 63.1594 46.7256 62.8301 47.0418 62.672C47.5292 62.4217 47.7795 62.3954 50.5327 62.3954C53.2859 62.3954 53.5362 62.4217 54.0236 62.672C54.3398 62.8301 54.6691 63.1594 54.8404 63.4624C55.1302 63.963 55.1434 64.0684 55.1434 68.2707C55.1434 72.1173 55.117 72.5916 54.9194 72.7496C54.6164 73.0131 46.8046 73.079 46.3172 72.8287Z" fill="white"/>
    <path d="M56.7108 72.7497L56.3947 72.4994L56.3552 63.726L56.3288 54.9525L55.8282 55.2687C54.142 56.3357 51.5864 57.2974 49.4918 57.6399C48.0032 57.8902 46.3039 57.9165 46.0799 57.6926C45.9614 57.574 45.9219 55.519 45.9219 49.2616V40.9888H37.6885H29.4552L29.1785 40.7121C28.9151 40.4486 28.9019 40.3433 28.9809 39.1972C29.2049 35.917 30.206 32.9925 31.9844 30.3842C32.788 29.1986 33.1832 28.9088 33.6048 29.1854C34.0922 29.5016 34 29.9495 33.2359 31.0034C32.406 32.1626 31.5761 33.8356 31.1809 35.0871C30.9701 35.7853 30.2456 39.184 30.2456 39.4738C30.2456 39.5133 33.9341 39.5397 38.4526 39.5397C45.6584 39.5397 46.6859 39.566 46.9494 39.7505L47.2392 39.9481V48.1814V56.4016H47.911C48.9386 56.4016 51.1253 55.9142 52.4427 55.3872C53.6283 54.9262 55.8809 53.6747 56.1576 53.3454C56.2629 53.2268 56.3288 51.8173 56.3552 48.9586C56.3947 44.7695 56.3947 44.7432 56.7108 44.1899C57.2509 43.2414 57.7252 43.0965 60.3072 43.0965C62.27 43.0965 62.5071 43.0701 62.5861 42.8725C62.6388 42.7408 62.7047 41.8714 62.7442 40.9229C62.8233 38.9469 62.5993 37.208 62.0592 35.4559C61.6904 34.2967 60.4521 31.6357 60.2808 31.6357C60.2149 31.6357 59.5694 32.7027 58.8449 34.0069C58.1072 35.2979 57.3827 36.4571 57.2378 36.5625C56.8953 36.7996 56.3815 36.6152 56.2498 36.22C56.1707 35.9434 56.2498 35.7721 57.8833 32.874C58.5288 31.7147 59.1216 30.6477 59.2006 30.4896C59.3455 30.2393 59.2533 30.1076 58.3575 29.1459C57.1324 27.8418 55.7492 26.7879 54.1815 25.9711C48.3062 22.9017 41.68 23.5209 36.3975 27.6178C35.8838 28.013 35.3963 28.3423 35.291 28.3423C35.067 28.3423 34.5928 27.8681 34.5928 27.631C34.5928 27.3016 35.4095 26.5771 37.0298 25.4837C40.231 23.3365 44.5123 22.2826 48.2931 22.7305C52.6403 23.2574 55.8546 24.7855 59.0293 27.8286L60.1227 28.8824L60.7024 27.8549C61.0317 27.2753 61.4137 26.7615 61.5981 26.6693C62.0329 26.4454 71.7548 26.4322 72.3871 26.643C72.9404 26.8406 73.0853 27.3675 72.6638 27.71C72.3871 27.934 72.0183 27.9471 67.4076 27.9471C63.6268 27.9471 62.3885 27.9867 62.2436 28.1184C62.1251 28.1974 61.8484 28.5795 61.6245 28.9483C61.0976 29.7782 61.0844 30.3579 61.5323 31.0429C62.5071 32.4788 63.4161 34.7314 63.8508 36.8128C64.1406 38.2224 64.2592 41.0414 64.0747 42.372L63.9825 43.0306L64.6017 43.4258C65.7477 44.1635 65.6819 43.4653 65.6819 54.307C65.6819 63.3966 65.6687 63.8972 65.4448 64.1739C65.1023 64.5954 64.5753 64.4505 64.3777 63.8972C64.2723 63.6074 64.2328 60.5907 64.2328 54.1621C64.2328 45.6521 64.2196 44.8222 64.0089 44.6641C63.8508 44.5192 63.1789 44.4665 61.3479 44.4402C58.6473 44.3875 57.9886 44.4929 57.8569 44.9803C57.8174 45.1384 57.7779 51.1849 57.7779 58.4171V71.5509H61.0053H64.2328V69.1534C64.2328 66.5582 64.325 66.1235 64.8783 66.0445C65.0364 66.0181 65.2867 66.0972 65.4316 66.2289C65.6687 66.4397 65.6819 66.6636 65.6819 69.5222C65.6819 72.5389 65.6819 72.5916 65.3921 72.7892C65.1418 72.9737 64.4963 73 61.058 73C57.2773 73 57.0006 72.9868 56.7108 72.7497Z" fill="white"/>
    <path d="M67.3008 72.8681C67.1164 72.7891 66.9847 72.5915 66.932 72.3149C66.8924 72.0777 66.8661 68.297 66.8924 63.9103C66.932 56.1248 66.932 55.9272 67.2086 55.4134C67.3667 55.1105 67.696 54.768 67.999 54.5835C68.4996 54.2937 68.605 54.2937 71.6744 54.3201C74.7701 54.3596 74.8491 54.3596 75.2839 54.6757C75.521 54.847 75.8371 55.229 75.9689 55.532C76.1928 56.0458 76.2192 56.5595 76.2192 64.2528C76.2192 71.1029 76.1928 72.4598 76.0347 72.6837C75.8503 72.9208 75.6395 72.934 71.7139 72.9603C69.4481 72.9735 67.4589 72.934 67.3008 72.8681Z" fill="#F7931A"/>
    <path d="M27.0291 65.6756C26.7657 65.4253 26.7657 65.0432 27.0028 64.7929C27.2399 64.5558 30.2566 64.4241 33.1547 64.5295C34.7487 64.5822 35.2361 64.5558 35.4074 64.4241C35.605 64.266 37.4888 60.3535 37.4888 60.1032C37.4888 60.0374 37.1067 59.8398 36.6325 59.629C35.5523 59.1811 33.6553 58.0614 32.5883 57.2446C29.8219 55.15 27.5824 51.8962 26.6208 48.5765C26.1992 47.0748 25.7645 44.7036 25.7645 43.8078C25.7645 42.6222 25.1058 42.7012 34.9858 42.7012C42.2443 42.7012 43.6671 42.7276 43.891 42.8857C44.1281 43.0701 44.1413 43.3335 44.1808 51.5142C44.194 56.1644 44.1677 60.1427 44.1018 60.3799C43.9174 61.0781 43.7856 61.1044 41.2827 60.7882C40.0312 60.6302 38.951 60.5511 38.8851 60.617C38.8325 60.6697 38.2792 61.8158 37.66 63.1463C37.054 64.4636 36.4612 65.636 36.3427 65.7282C36.1714 65.8468 35.0254 65.8863 31.6793 65.8863C27.8064 65.8863 27.2004 65.86 27.0291 65.6756Z" fill="#F7931A"/>
    <path d="M67.3008 72.8681C67.1164 72.7891 66.9847 72.5915 66.932 72.3149C66.8924 72.0777 66.8661 68.297 66.8924 63.9103C66.932 56.1248 66.932 55.9272 67.2086 55.4134C67.3667 55.1105 67.696 54.768 67.999 54.5835C68.4996 54.2937 68.605 54.2937 71.6744 54.3201C74.7701 54.3596 74.8491 54.3596 75.2839 54.6757C75.521 54.847 75.8371 55.229 75.9689 55.532C76.1928 56.0458 76.2192 56.5595 76.2192 64.2528C76.2192 71.1029 76.1928 72.4598 76.0347 72.6837C75.8503 72.9208 75.6395 72.934 71.7139 72.9603C69.4481 72.9735 67.4589 72.934 67.3008 72.8681Z" fill="url(#paint2_linear_162_560)"/>
    <path d="M27.0291 65.6756C26.7657 65.4253 26.7657 65.0432 27.0028 64.7929C27.2399 64.5558 30.2566 64.4241 33.1547 64.5295C34.7487 64.5822 35.2361 64.5558 35.4074 64.4241C35.605 64.266 37.4888 60.3535 37.4888 60.1032C37.4888 60.0374 37.1067 59.8398 36.6325 59.629C35.5523 59.1811 33.6553 58.0614 32.5883 57.2446C29.8219 55.15 27.5824 51.8962 26.6208 48.5765C26.1992 47.0748 25.7645 44.7036 25.7645 43.8078C25.7645 42.6222 25.1058 42.7012 34.9858 42.7012C42.2443 42.7012 43.6671 42.7276 43.891 42.8857C44.1281 43.0701 44.1413 43.3335 44.1808 51.5142C44.194 56.1644 44.1677 60.1427 44.1018 60.3799C43.9174 61.0781 43.7856 61.1044 41.2827 60.7882C40.0312 60.6302 38.951 60.5511 38.8851 60.617C38.8325 60.6697 38.2792 61.8158 37.66 63.1463C37.054 64.4636 36.4612 65.636 36.3427 65.7282C36.1714 65.8468 35.0254 65.8863 31.6793 65.8863C27.8064 65.8863 27.2004 65.86 27.0291 65.6756Z" fill="url(#paint3_linear_162_560)"/>
    <path d="M27.044 62.4876C26.7542 62.1714 26.7542 61.7499 27.044 61.5259C27.347 61.2625 33.4594 61.1966 33.9337 61.4469C34.3421 61.6445 34.4211 62.1319 34.1181 62.4744C33.9073 62.7116 33.6834 62.7247 30.5745 62.7247C27.5314 62.7247 27.2416 62.7116 27.044 62.4876Z" fill="white"/>
    <path d="M68.1858 46.785C68.0409 46.6401 67.9224 46.4293 67.9224 46.3239C67.9224 46.2185 68.0409 46.0077 68.1858 45.8628C68.4361 45.6125 68.6206 45.5994 71.3474 45.5994C74.0743 45.5994 74.2587 45.6125 74.509 45.8628C74.6539 46.0077 74.7725 46.2185 74.7725 46.3239C74.7725 46.4293 74.6539 46.6401 74.509 46.785C74.2587 47.0353 74.0743 47.0484 71.3474 47.0484C68.6206 47.0484 68.4361 47.0353 68.1858 46.785Z" fill="white"/>
    <path d="M68.4224 43.7289C68.2116 43.663 68.0536 43.5576 68.0536 43.4917C68.0536 43.4259 68.014 43.2941 67.9745 43.1887C67.935 43.0702 68.0272 42.8594 68.1721 42.7145C68.4356 42.451 68.5937 42.4379 71.3469 42.4379C74.0738 42.4379 74.2582 42.451 74.5085 42.7013C74.93 43.1229 74.8247 43.5049 74.2055 43.742C73.7313 43.9265 68.9098 43.9133 68.4224 43.7289Z" fill="white"/>
    <path d="M68.1043 40.2642C67.9067 39.9613 67.9067 39.9086 68.1043 39.6056L68.3282 39.2762L71.3712 39.3026L74.4275 39.3421L74.6251 39.6978C74.8095 40.014 74.8095 40.0666 74.5855 40.3169C74.3484 40.5804 74.2035 40.5936 71.3317 40.5936H68.315L68.1043 40.2642Z" fill="white"/>
    <path d="M64.7598 24.9567C64.5096 24.8645 64.2329 24.522 64.2329 24.298C64.2329 24.2058 64.3515 24.0082 64.4964 23.8633C64.7467 23.613 64.9311 23.5999 68.6328 23.5999C72.4926 23.5999 72.5189 23.5999 72.7165 23.8897C73.0064 24.298 72.98 24.601 72.6375 24.8381C72.3872 25.0226 71.7944 25.0489 68.646 25.0357C66.6173 25.0357 64.8652 24.9962 64.7598 24.9567Z" fill="white"/>
    <defs>
        <filter id="filter0_b_162_560" x="-49.3555" y="-49.3555" width="199.711" height="199.711" filterUnits="userSpaceOnUse" color-interpolation-filters="sRGB">
            <feFlood flood-opacity="0" result="BackgroundImageFix"/>
            <feGaussianBlur in="BackgroundImageFix" stdDeviation="24.6777"/>
            <feComposite in2="SourceAlpha" operator="in" result="effect1_backgroundBlur_162_560"/>
            <feBlend mode="normal" in="SourceGraphic" in2="effect1_backgroundBlur_162_560" result="shape"/>
        </filter>
        <linearGradient id="paint0_linear_162_560" x1="51" y1="0" x2="33.3948" y2="101.465" gradientUnits="userSpaceOnUse">
            <stop stop-color="#22232D"/>
            <stop offset="1" stop-color="#1A1B23" stop-opacity="0"/>
        </linearGradient>
        <linearGradient id="paint1_linear_162_560" x1="69.0427" y1="-1.45466e-06" x2="40.8867" y2="11.3172" gradientUnits="userSpaceOnUse">
            <stop stop-color="white"/>
            <stop offset="0.0001" stop-color="white"/>
            <stop offset="1" stop-color="white" stop-opacity="0"/>
        </linearGradient>
        <linearGradient id="paint2_linear_162_560" x1="70.848" y1="55.0337" x2="61.0953" y2="60.2305" gradientUnits="userSpaceOnUse">
            <stop stop-color="#F7931A"/>
            <stop offset="1" stop-color="#8E2C2C"/>
        </linearGradient>
        <linearGradient id="paint3_linear_162_560" x1="33.5833" y1="43.6006" x2="19.1801" y2="55.7869" gradientUnits="userSpaceOnUse">
            <stop stop-color="#F7931A"/>
            <stop offset="1" stop-color="#8E2C2C"/>
        </linearGradient>
    </defs>
</svg>
