<svg width="101" height="101" viewBox="0 0 101 101" fill="none"
    xmlns="http://www.w3.org/2000/svg">
    <path d="M1 24C1 10.7452 11.7452 0 25 0H77C90.2548 0 101 10.7452 101 24V76C101 89.2548 90.2548 100 77 100H25C11.7452 100 1 89.2548 1 76V24Z" fill="url(#paint0_linear_162_603)" fill-opacity="0.8"/>
    <path d="M1 0H101H1ZM101 76C101 89.8071 89.8071 101 76 101H25C11.1929 101 0 89.8071 0 76H2C2 88.7026 12.2975 99 25 99H77C90.2548 99 101 88.7026 101 76ZM25 101C11.1929 101 0 89.8071 0 76V25C0 11.1929 11.1929 0 25 0C12.2975 0 2 10.7452 2 24V76C2 88.7026 12.2975 99 25 99V101ZM101 0V100V0Z" fill="url(#paint1_linear_162_603)"/>
    <path d="M24.2451 77.6629C24.046 77.3872 24 76.805 24 74.4457C24 72.883 24.0613 71.4123 24.1532 71.1978C24.2758 70.876 24.429 70.7994 25.0724 70.7075L25.8384 70.6003V55.5557V40.4958L25.149 39.6838C24.1685 38.5348 24.0766 38.1671 24.0766 35.2563V32.7284L26.8189 28.1323C28.3203 25.6045 29.6838 23.4136 29.8524 23.2758C30.1435 23.0153 31.3538 23 50.5808 23C61.8106 23 71.1253 23.046 71.2479 23.0919C71.3858 23.1379 72.7953 25.3287 74.3733 27.9638L77.2382 32.7284L77.2228 35.3329C77.2075 38.2284 77.085 38.6727 75.9972 39.8983L75.4763 40.4652V55.5557V70.6462H76.0125C76.3955 70.6462 76.6866 70.7688 76.9318 71.0292C77.3148 71.3969 77.3148 71.4123 77.3148 74.3538C77.3148 76.7897 77.2688 77.3872 77.0696 77.6629L76.8398 78H50.6574H24.4749L24.2451 77.6629ZM75.3231 74.3997V72.6379H50.5808H25.8384V74.3997V76.1616H50.5808H75.3231V74.3997ZM73.4847 55.9847V41.3078L72.4889 41.2772C71.3245 41.2465 70.4053 40.8788 69.5474 40.0975L68.9345 39.5613L68.4902 40.0209C67.6936 40.8635 66.6671 41.2772 65.3649 41.2925C64.032 41.2925 63.1435 40.9708 62.2089 40.1128L61.6114 39.5766L61.1518 40.0362C60.3398 40.8482 59.298 41.2772 58.0877 41.2925C56.7396 41.3078 56.0501 41.0627 55.039 40.2507L54.2577 39.6072L53.7521 40.0975C52.9095 40.9248 51.9749 41.2772 50.6421 41.2772C49.3552 41.2925 48.5279 40.9861 47.5167 40.1128L46.9499 39.6226L46.429 40.0975C45.5404 40.9401 44.6212 41.2925 43.3189 41.2772C42.0014 41.2772 41.4192 41.078 40.3468 40.2507L39.6114 39.6838L39.1365 40.0822C37.2368 41.6755 34.8468 41.7061 32.8858 40.1588L32.2883 39.6838L31.5529 40.2507C30.5724 41.0014 30.0515 41.2159 28.7646 41.3231L27.6769 41.4304V56.0306V70.6462H50.5808H73.4847V55.9847ZM29.9443 39.117C31.032 38.5501 31.3384 37.7535 31.3538 35.4554V34.0306H28.5961H25.8384V35.4554C25.8384 37.1866 26.0223 37.8914 26.6504 38.5655C27.539 39.5306 28.7646 39.7298 29.9443 39.117ZM37.298 39.1323C37.5891 38.9944 38.0028 38.6114 38.2173 38.2744C38.6003 37.7075 38.6309 37.493 38.6922 35.8384L38.7382 34.0306H35.9652H33.1922V35.6086C33.1922 36.8036 33.2688 37.3092 33.4833 37.7841C34.188 39.3315 35.7354 39.8677 37.298 39.1323ZM44.6518 39.1323C45.6936 38.6421 46.1532 37.3092 45.9694 35.2256L45.8774 34.0306H43.2117H40.546V35.532C40.546 37.3705 40.6992 37.968 41.3733 38.6114C42.3231 39.5306 43.4262 39.6992 44.6518 39.1323ZM51.9137 39.1476C52.9708 38.5961 53.415 37.585 53.415 35.6699C53.415 33.9081 53.6295 34.0306 50.5655 34.0306H47.8997V35.532C47.8997 37.3705 48.0529 37.968 48.727 38.6114C49.6616 39.5153 50.8259 39.7145 51.9137 39.1476ZM58.6546 39.3928C59.3287 39.1936 60.0794 38.5961 60.3705 38.0292C60.6616 37.4471 60.7841 36.298 60.6769 35.0877L60.5696 34.0306H57.9192H55.2535V35.6393C55.2535 36.6504 55.3301 37.4471 55.468 37.7535C55.7437 38.4276 56.5098 39.1323 57.1992 39.3468C57.9499 39.5766 57.9805 39.5766 58.6546 39.3928ZM66.0084 39.3928C66.7591 39.1783 67.4944 38.5501 67.7702 37.876C67.8928 37.585 68.0306 36.6045 68.0766 35.6852L68.1685 34.0306H65.3802H62.6072V35.6699C62.6072 37.0181 62.6685 37.4164 62.929 37.968C63.2813 38.7033 63.8022 39.1323 64.5989 39.3621C65.3036 39.5613 65.3496 39.5766 66.0084 39.3928ZM73.3621 39.3928C74.0975 39.1783 74.8482 38.5501 75.124 37.9067C75.2312 37.6156 75.3691 36.6351 75.4304 35.7159L75.5223 34.0306H72.7493H69.961V35.7159C69.961 37.11 70.0223 37.5237 70.2674 38.0139C70.5891 38.6421 71.1253 39.0864 71.876 39.3621C72.4735 39.5766 72.688 39.5766 73.3621 39.3928ZM74.5418 32.0084C74.5418 31.9011 73.5919 30.2618 72.4276 28.3621L70.3287 24.915L50.7033 24.8691C34.5557 24.8384 31.0627 24.8691 30.9095 25.0376C30.6184 25.4053 26.7577 31.9164 26.7577 32.0543C26.7577 32.1309 36.5627 32.1922 50.6574 32.1922C69.6852 32.1922 74.5571 32.1462 74.5418 32.0084Z" fill="white"/>
    <path d="M34.1898 68.5014C33.2093 68.1184 32.336 67.2758 31.8305 66.2034L31.4321 65.3607V56.0153V46.6699L31.7998 45.8579C32.0143 45.383 32.4586 44.7855 32.9029 44.3872C34.2817 43.1462 33.1633 43.2228 50.6591 43.2228C68.155 43.2228 67.0366 43.1462 68.4154 44.3872C68.8597 44.7855 69.304 45.383 69.5185 45.8579L69.8862 46.6699V56.0153V65.3607L69.5185 66.1727C69.304 66.6476 68.8597 67.2451 68.4154 67.6435C67.0366 68.8844 68.1703 68.8078 50.5979 68.7925C35.5227 68.7925 34.9252 68.7772 34.1898 68.5014ZM66.531 66.6783C67.2511 66.3566 67.7107 65.7744 67.9558 64.9011C68.1856 64.0432 68.1856 47.9875 67.9558 47.1295C67.7107 46.2563 67.2511 45.6741 66.531 45.3524C65.9335 45.0766 65.1981 45.0613 50.6591 45.0613C36.1968 45.0613 35.3848 45.0766 34.8026 45.3524C34.0519 45.6894 33.6842 46.0878 33.4085 46.8538C33.0867 47.773 33.102 64.2117 33.4238 65.1462C33.7302 65.9889 34.0366 66.3259 34.8026 66.6783C35.3848 66.954 36.1968 66.9694 50.6591 66.9694C65.1981 66.9694 65.9335 66.954 66.531 66.6783Z" fill="white"/>
    <path d="M40.0399 63.1851C39.9787 63.1391 39.9327 62.7868 39.9327 62.4191V61.7603H38.9522C37.8645 61.7603 37.4814 61.5458 37.4814 60.933C37.4814 60.4734 37.7266 60.2896 38.4466 60.1517L39.0135 60.0444V56.0765V52.1085H38.4926C37.8798 52.1085 37.4814 51.7715 37.4814 51.2812C37.4814 50.745 37.8645 50.5305 38.9062 50.4845L39.8561 50.4386L39.9021 49.8564C39.9633 49.1364 40.1625 48.8912 40.6834 48.8912C41.2502 48.8912 41.4647 49.1517 41.4647 49.8411C41.4647 50.3467 41.5107 50.4233 41.8324 50.4233C42.1235 50.4233 42.2001 50.3313 42.2767 49.8717C42.3993 49.1823 42.6291 48.8912 43.0887 48.8912C43.5789 48.8912 43.916 49.2896 43.916 49.9024C43.916 50.3467 43.9773 50.4233 44.345 50.4999C45.1569 50.6684 46.0302 51.174 46.4132 51.6795C47.2558 52.8132 47.3477 54.3759 46.6277 55.4637L46.214 56.0765L46.6736 56.9344C47.7001 58.8801 46.8728 60.9177 44.8199 61.6071C44.0692 61.8676 43.9926 61.9288 43.8087 62.5876C43.6096 63.2464 43.5636 63.2924 43.0734 63.2924C42.5372 63.2924 42.5065 63.2617 42.3074 62.2659C42.2307 61.8676 42.1388 61.7603 41.8324 61.7603C41.5107 61.7603 41.4647 61.8216 41.4647 62.3425C41.4647 62.6642 41.3881 63.0013 41.2809 63.1085C41.0817 63.3077 40.2085 63.369 40.0399 63.1851ZM43.9007 60.0904C44.9578 59.9372 45.448 59.4316 45.448 58.5277C45.448 58.0528 45.3408 57.8077 45.019 57.4706C44.6514 57.1029 44.4216 57.0263 43.4257 56.9344C42.7823 56.8731 41.909 56.8731 41.4801 56.9344L40.6987 57.0417V58.543V60.0598L41.2809 60.121C42.2461 60.213 43.0427 60.213 43.9007 60.0904ZM44.5748 55.1573C45.1416 54.8662 45.448 54.3606 45.448 53.7171C45.448 53.0737 45.1416 52.5681 44.5748 52.277C44.3909 52.1851 43.4717 52.1085 42.4759 52.1085H40.6987V53.7171V55.3258H42.4759C43.4717 55.3258 44.3909 55.2492 44.5748 55.1573Z" fill="url(#paint2_linear_162_603)"/>
    <path d="M50.2006 63.0013C49.9555 62.5264 50.0015 58.5125 50.2619 58.1601C50.4457 57.8997 50.6909 57.869 52.6978 57.8537C55.67 57.8537 55.5627 57.7465 55.5627 60.5194C55.5627 63.4303 55.7159 63.2924 52.7285 63.2924C50.553 63.2924 50.3538 63.2618 50.2006 63.0013ZM53.7243 60.6114V59.7687H52.8051H51.8859V60.6114V61.454H52.8051H53.7243V60.6114Z" fill="white"/>
    <path d="M59.0834 63.0013C58.8383 62.5264 58.8843 58.5125 59.1447 58.1448C59.3439 57.8843 59.5584 57.8537 61.5806 57.8537C64.5528 57.8537 64.4456 57.7465 64.4456 60.5194C64.4456 63.4303 64.5988 63.2924 61.6113 63.2924C59.4358 63.2924 59.2366 63.2618 59.0834 63.0013ZM62.6071 60.6114V59.7687H61.6879H60.7687V60.6114V61.454H61.6879H62.6071V60.6114Z" fill="white"/>
    <path d="M50.2891 54.1614C50.09 53.9622 50.044 53.5179 50.044 51.6488C50.044 48.7533 49.9061 48.8912 52.8323 48.8912C54.7473 48.8912 54.9771 48.9218 55.2529 49.1976C55.5287 49.4734 55.5593 49.7032 55.5593 51.6182C55.5593 54.5444 55.6972 54.4065 52.8017 54.4065C50.9326 54.4065 50.4883 54.3605 50.2891 54.1614ZM53.6443 51.6488V50.8062H52.8017H51.959L51.9131 51.6948L51.8671 52.5834L52.7557 52.5374L53.6443 52.4915V51.6488Z" fill="white"/>
    <path d="M59.1749 54.1614C58.9757 53.9622 58.9297 53.5179 58.9297 51.6488C58.9297 48.7533 58.7919 48.8912 61.718 48.8912C64.537 48.8912 64.4451 48.7993 64.4451 51.6182C64.4451 54.5444 64.5829 54.4065 61.6874 54.4065C59.8183 54.4065 59.374 54.3605 59.1749 54.1614ZM62.576 51.6948L62.53 50.8062L61.6568 50.7603L60.7682 50.7143V51.6488V52.5681H61.6874H62.6219L62.576 51.6948Z" fill="white"/>
    <defs>
        <linearGradient id="paint0_linear_162_603" x1="51" y1="0" x2="33.3948" y2="101.465" gradientUnits="userSpaceOnUse">
            <stop stop-color="#1A1B23" stop-opacity="0"/>
            <stop offset="1" stop-color="#22232D"/>
        </linearGradient>
        <linearGradient id="paint1_linear_162_603" x1="69.0427" y1="-1.45466e-06" x2="40.8867" y2="11.3172" gradientUnits="userSpaceOnUse">
            <stop stop-color="white"/>
            <stop offset="0.0001" stop-color="white"/>
            <stop offset="1" stop-color="white" stop-opacity="0"/>
        </linearGradient>
        <linearGradient id="paint2_linear_162_603" x1="41.5731" y1="49.4506" x2="33" y2="55.5539" gradientUnits="userSpaceOnUse">
            <stop stop-color="#F7931A"/>
            <stop offset="1" stop-color="#8E2C2C"/>
        </linearGradient>
    </defs>
</svg>
