<svg width="75" height="28" viewBox="0 0 75 28" fill="none"
    xmlns="http://www.w3.org/2000/svg">
    <g clip-path="url(#clip0_178_982)">
        <path d="M25.3077 5.31374C25.3473 7.56888 25.1627 9.78446 24.7011 11.9869C24.3186 13.8332 23.7252 15.6399 22.9207 17.3412C22.1822 18.9105 21.259 20.3876 20.204 21.7723C20.0062 22.0229 19.8083 22.2735 19.5973 22.524C19.3995 22.7614 19.2017 23.0648 18.9643 23.2494C18.8852 23.3153 18.8192 23.3813 18.7665 23.4472C18.595 23.6318 18.4104 23.8165 18.2126 24.0011C18.1467 24.0538 18.0807 24.1198 18.028 24.1857C16.696 25.3858 15.2189 26.4936 13.4517 27.3377C13.2275 27.4432 12.8715 27.641 12.6605 27.6542C12.4758 27.6542 12.1461 27.4695 11.9087 27.364C8.41393 25.7287 5.73677 23.0252 3.77176 19.8864C2.75629 18.2643 1.93863 16.5103 1.34517 14.6772C0.672587 12.6331 0.276947 10.5098 0.0923158 8.36016C0.0395639 7.60845 0 6.84355 0 6.09183C0 5.73576 0.013188 5.39287 0.0263759 5.03679C0.0263759 4.8126 -0.013188 4.44334 0.171444 4.27189C0.303323 4.14001 0.738526 4.1532 1.06823 4.12682C5.23562 3.79712 8.69087 2.67615 11.4208 0.908958C11.579 0.803455 11.8164 0.658387 12.0406 0.486943C12.2121 0.355064 12.4626 0.104492 12.6868 0.104492C12.8978 0.104492 13.1352 0.368252 13.333 0.513319C16.0893 2.51789 19.8743 3.79712 24.3186 4.14001C24.5692 4.1532 25.0835 4.16639 25.2022 4.28508C25.3209 4.40377 25.3077 4.60159 25.3209 4.75985C25.2945 4.93129 25.3077 5.11592 25.3077 5.31374Z" fill="url(#paint0_radial_178_982)"/>
        <mask id="mask0_178_982" style="mask-type:luminance" maskUnits="userSpaceOnUse" x="0" y="0" width="26" height="28">
            <path d="M25.3209 5.31375C25.3737 13.4771 22.7756 18.9765 18.9643 23.2626C18.8852 23.3285 18.8192 23.3945 18.7665 23.4604C18.595 23.645 18.4104 23.8297 18.2126 24.0143C18.1467 24.067 18.0807 24.133 18.028 24.1989C16.696 25.399 15.2189 26.5068 13.4517 27.3508C13.2275 27.4564 12.8715 27.6542 12.6605 27.6674C12.4758 27.6674 12.1461 27.4827 11.9087 27.3772C8.41393 25.7419 5.73677 23.0384 3.77176 19.8996C1.60893 16.418 0.263759 12.2506 0.013188 7.02818C0 6.93587 0.0395639 6.7908 0 6.73805C0 6.32922 0 5.93358 0 5.52475C0.0395639 5.45881 0.013188 5.32693 0.013188 5.23462C0.0263759 4.97086 -0.013188 4.43015 0.158256 4.25871C0.290135 4.12683 0.725338 4.14002 1.05504 4.11364C5.22244 3.78394 8.67769 2.66296 11.4076 0.895775C11.5659 0.790271 11.8032 0.645203 12.0274 0.47376C12.1989 0.34188 12.4494 0.0913086 12.6736 0.0913086C12.8846 0.0913086 13.122 0.355068 13.3199 0.500136C16.0761 2.50471 19.8611 3.78394 24.3054 4.12683C24.556 4.14002 25.0703 4.1532 25.189 4.2719C25.3605 4.44334 25.2813 4.74666 25.3209 5.11593C25.3209 5.16868 25.2813 5.27418 25.3209 5.31375Z" fill="white"/>
        </mask>
        <g mask="url(#mask0_178_982)">
            <path d="M1.7276 13.6487C1.35834 14.5719 0.883574 16.0094 0.553874 16.9457C0.501123 17.104 0.448371 17.0512 0.487935 16.893C1.2924 13.8202 2.09687 10.7474 3.98275 8.12298C4.41795 7.5559 4.82678 6.97563 5.23561 6.38217C5.16967 6.26348 5.03779 6.36898 4.94547 6.36898C3.75855 6.83056 2.57163 7.27895 1.47703 7.93835C2.50569 6.09204 4.00912 4.40398 5.67081 2.94011C5.10372 2.96649 4.64215 3.34894 4.15419 3.58632C4.91909 2.63679 5.73675 1.68725 6.73903 0.961914C6.79179 0.975102 6.83135 1.00148 6.91048 1.00148C6.47527 1.48943 6.04007 2.00376 5.74994 2.57085C6.29064 2.42578 6.80497 2.14883 7.35887 1.97739C6.13239 2.9533 4.94547 4.25891 4.141 5.56452C4.07506 5.73596 3.96956 5.89422 3.90362 6.05247C3.85087 6.15798 3.94318 6.19754 4.07506 6.14479C5.40705 5.52495 6.7786 5.01062 8.24246 4.74686C5.1301 6.96244 3.0464 10.3254 1.7276 13.6487Z" fill="white"/>
        </g>
        <g opacity="0.3">
            <path d="M7.51716 20.2425C7.39846 20.2425 7.33252 20.2557 7.29296 20.2557C7.18746 20.2557 7.09514 20.2425 7.04239 20.2161C6.98964 20.1898 6.95007 20.137 6.95007 20.0843C6.95007 19.9656 7.10833 19.8864 7.41165 19.8469C7.43803 19.8469 7.45122 19.8337 7.4644 19.8337C7.62266 19.8205 7.75454 19.8073 7.86004 19.7677C7.97873 19.7414 8.07105 19.7018 8.16337 19.6622C8.40075 19.5436 8.55901 19.3853 8.65132 19.1743C8.74364 18.9633 8.7832 18.6072 8.7832 18.1193V9.54707C8.7832 9.0723 8.74364 8.71623 8.65132 8.50522C8.55901 8.29421 8.40075 8.13596 8.17655 8.03045C8.03149 7.95133 7.78092 7.91176 7.43803 7.88539H7.42484C7.41165 7.88539 7.39846 7.8722 7.37209 7.8722C7.09514 7.83263 6.95007 7.76669 6.95007 7.68757C6.95007 7.62163 6.98964 7.58206 7.05558 7.5425C7.12152 7.50293 7.20064 7.48975 7.31934 7.48975C7.3589 7.48975 7.4644 7.48975 7.63585 7.50293C8.38756 7.55569 9.1129 7.58206 9.79868 7.58206C10.0756 7.58206 10.5108 7.56887 11.0911 7.5425C11.6714 7.51612 12.1066 7.50293 12.3967 7.50293C14.665 7.50293 16.4322 8.08321 17.7115 9.23056C18.9907 10.3779 19.6237 11.9868 19.6237 14.031C19.6237 16.1147 19.0566 17.6709 17.9093 18.7127C16.7619 19.7546 15.0607 20.2689 12.7792 20.2689C12.2912 20.2689 11.6846 20.2557 10.9592 20.2293M10.8141 17.2093C10.8141 18.1852 10.9856 18.8578 11.3153 19.2402C11.6582 19.6095 12.2384 19.8073 13.0825 19.8073C14.5595 19.8073 15.6409 19.3721 16.3135 18.5149C16.9861 17.6577 17.329 16.2729 17.329 14.3607C17.329 12.1187 16.9202 10.4966 16.0893 9.46794C15.2585 8.45247 13.9397 7.93814 12.1329 7.93814C11.5527 7.93814 11.1834 8.00408 11.0252 8.14914C10.8801 8.28102 10.801 8.57116 10.801 8.99318L10.8141 17.2093Z" fill="white"/>
        </g>
        <path d="M7.6095 20.2425C7.49081 20.2425 7.42487 20.2557 7.38531 20.2557C7.2798 20.2557 7.18749 20.2425 7.13473 20.2161C7.08198 20.1898 7.04242 20.137 7.04242 20.0843C7.04242 19.9656 7.20068 19.8864 7.504 19.8469C7.53037 19.8469 7.54356 19.8337 7.55675 19.8337C7.71501 19.8205 7.84689 19.8073 7.95239 19.7677C8.07108 19.7414 8.1634 19.7018 8.25571 19.6622C8.4931 19.5436 8.65135 19.3853 8.74367 19.1743C8.83598 18.9633 8.87555 18.6072 8.87555 18.1193V9.54707C8.87555 9.0723 8.83598 8.71623 8.74367 8.50522C8.65135 8.29421 8.4931 8.13596 8.2689 8.03045C8.12383 7.95133 7.87326 7.91176 7.53037 7.88539H7.51719C7.504 7.88539 7.49081 7.8722 7.46443 7.8722C7.18749 7.83263 7.04242 7.76669 7.04242 7.68757C7.04242 7.62163 7.08198 7.58206 7.14792 7.5425C7.21386 7.50293 7.29299 7.48975 7.41168 7.48975C7.45125 7.48975 7.55675 7.48975 7.72819 7.50293C8.47991 7.55569 9.20525 7.58206 9.89102 7.58206C10.168 7.58206 10.6032 7.56887 11.1834 7.5425C11.7637 7.51612 12.1989 7.50293 12.4891 7.50293C14.7574 7.50293 16.5246 8.08321 17.8038 9.23056C19.083 10.3779 19.7161 11.9868 19.7161 14.031C19.7161 16.1147 19.149 17.6709 18.0016 18.7127C16.8543 19.7546 15.153 20.2689 12.8715 20.2689C12.3835 20.2689 11.7769 20.2557 11.0516 20.2293M10.8933 17.2093C10.8933 18.1852 11.0648 18.8578 11.3945 19.2402C11.7373 19.6095 12.3176 19.8073 13.1616 19.8073C14.6387 19.8073 15.7201 19.3721 16.3927 18.5149C17.0653 17.6577 17.4082 16.2729 17.4082 14.3607C17.4082 12.1187 16.9993 10.4966 16.1685 9.46794C15.3377 8.45247 14.0189 7.93814 12.2121 7.93814C11.6318 7.93814 11.2626 8.00408 11.1043 8.14914C10.9592 8.28102 10.8801 8.57116 10.8801 8.99318L10.8933 17.2093Z" fill="white"/>
        <g opacity="0.3">
            <path d="M10.6295 17.2093C10.6295 18.1852 10.801 18.8578 11.1307 19.2402C11.4735 19.6095 12.0538 19.8073 12.8978 19.8073C14.3749 19.8073 15.4563 19.3721 16.1289 18.5149C16.8015 17.6577 17.1444 16.2729 17.1444 14.3607C17.1444 12.1187 16.7355 10.4966 15.9047 9.46794C15.0739 8.45247 13.7551 7.93814 11.9483 7.93814C11.368 7.93814 10.9988 8.00408 10.8405 8.14914C10.6955 8.28102 10.6163 8.57116 10.6163 8.99318L10.6295 17.2093ZM7.33252 20.2425C7.21383 20.2425 7.14789 20.2557 7.10833 20.2557C7.00283 20.2557 6.91051 20.2425 6.85776 20.2161C6.80501 20.1898 6.76544 20.137 6.76544 20.0843C6.76544 19.9656 6.9237 19.8864 7.22702 19.8469C7.2534 19.8469 7.26658 19.8337 7.27977 19.8337C7.43803 19.8205 7.56991 19.8073 7.67541 19.7677C7.7941 19.7414 7.88642 19.7018 7.97874 19.6622C8.21612 19.5436 8.37437 19.3853 8.46669 19.1743C8.55901 18.9633 8.59857 18.6072 8.59857 18.1193V9.54707C8.59857 9.0723 8.55901 8.71623 8.46669 8.50522C8.37437 8.29421 8.21612 8.13596 7.99192 8.03045C7.84686 7.95133 7.59628 7.91176 7.2534 7.88539C7.24021 7.88539 7.22702 7.8722 7.20064 7.8722C6.9237 7.83263 6.77863 7.76669 6.77863 7.68757C6.77863 7.62163 6.81819 7.58206 6.88413 7.5425C6.95007 7.50293 7.0292 7.48975 7.14789 7.48975C7.18746 7.48975 7.29296 7.48975 7.4644 7.50293C8.21612 7.55569 8.94146 7.58206 9.62723 7.58206C9.90418 7.58206 10.3394 7.56887 10.9197 7.5425C11.4999 7.51612 11.9351 7.50293 12.2253 7.50293C14.4936 7.50293 16.2608 8.08321 17.54 9.23056C18.8192 10.3779 19.4523 11.9868 19.4523 14.031C19.4523 16.1147 18.8852 17.6709 17.7378 18.7127C16.5905 19.7546 14.8892 20.2689 12.6077 20.2689C12.1198 20.2689 11.5131 20.2557 10.7878 20.2293" fill="white"/>
        </g>
        <path d="M10.7086 17.2093C10.7086 18.1852 10.8801 18.8578 11.2098 19.2402C11.5526 19.6095 12.1329 19.8073 12.977 19.8073C14.454 19.8073 15.5354 19.3721 16.208 18.5149C16.8806 17.6577 17.2235 16.2729 17.2235 14.3607C17.2235 12.1187 16.8146 10.4966 15.9838 9.46794C15.153 8.45247 13.8342 7.93814 12.0274 7.93814C11.4471 7.93814 11.0779 8.00408 10.9196 8.14914C10.7746 8.28102 10.6954 8.57116 10.6954 8.99318L10.7086 17.2093ZM7.41163 20.2425C7.29293 20.2425 7.22699 20.2557 7.18743 20.2557C7.08193 20.2557 6.98961 20.2425 6.93686 20.2161C6.88411 20.1898 6.84454 20.137 6.84454 20.0843C6.84454 19.9656 7.0028 19.8864 7.30612 19.8469C7.3325 19.8469 7.34569 19.8337 7.35887 19.8337C7.51713 19.8205 7.64901 19.8073 7.75451 19.7677C7.8732 19.7414 7.96552 19.7018 8.05784 19.6622C8.29522 19.5436 8.45348 19.3853 8.54579 19.1743C8.63811 18.9633 8.67767 18.6072 8.67767 18.1193V9.54707C8.67767 9.0723 8.63811 8.71623 8.54579 8.50522C8.45348 8.29421 8.29522 8.13596 8.07102 8.03045C7.92596 7.95133 7.67539 7.91176 7.3325 7.88539H7.31931C7.30612 7.88539 7.29293 7.8722 7.26656 7.8722C6.98961 7.83263 6.85773 7.76669 6.85773 7.68757C6.85773 7.62163 6.8973 7.58206 6.96323 7.5425C7.02917 7.50293 7.1083 7.48975 7.22699 7.48975C7.26656 7.48975 7.37206 7.48975 7.54351 7.50293C8.29522 7.55569 9.02056 7.58206 9.70633 7.58206C9.98328 7.58206 10.4185 7.56887 10.9988 7.5425C11.579 7.51612 12.0142 7.50293 12.3044 7.50293C14.5727 7.50293 16.3399 8.08321 17.6191 9.23056C18.8983 10.3779 19.5314 11.9868 19.5314 14.031C19.5314 16.1147 18.9643 17.6709 17.8169 18.7127C16.6696 19.7546 14.9683 20.2689 12.6868 20.2689C12.1989 20.2689 11.5922 20.2557 10.8669 20.2293" fill="white"/>
        <path d="M30.095 16.3387V8.03027H32.9304C35.502 8.03027 37.1901 9.83703 37.1901 12.1845C37.1901 14.5451 35.5152 16.3255 32.9304 16.3255H30.095V16.3387ZM36.1219 12.1845C36.1219 10.3909 34.9877 8.95343 32.9304 8.95343H31.1236V15.4155H32.9304C34.9481 15.4155 36.1219 13.9649 36.1219 12.1845Z" fill="white"/>
        <path d="M43.6126 16.3387L41.4894 13.0417H39.8277V16.3387H38.799V8.03027H42.1356C43.6522 8.03027 44.7336 9.00618 44.7336 10.536C44.7336 12.0262 43.7181 12.8571 42.584 12.9494L44.8259 16.3387H43.6126ZM43.6786 10.536C43.6786 9.59964 43.006 8.95343 42.0169 8.95343H39.8409V12.1317H42.0169C43.006 12.1317 43.6786 11.4723 43.6786 10.536Z" fill="white"/>
        <path d="M52.3035 16.3387L51.565 14.4924H47.4372L46.6986 16.3387H45.5117L48.8483 8.03027H50.1275L53.4773 16.3387H52.3035ZM49.5077 9.0985L47.7405 13.5692H51.2617L49.5077 9.0985Z" fill="white"/>
        <path d="M54.5718 16.3387V8.03027H57.9084C59.5833 8.03027 60.5064 9.17763 60.5064 10.536C60.5064 11.8943 59.5437 13.0417 57.9084 13.0417H55.6005V16.3387H54.5718ZM59.4382 10.536C59.4382 9.59964 58.7656 8.95343 57.7765 8.95343H55.6005V12.1185H57.7765C58.7656 12.1185 59.4382 11.4723 59.4382 10.536Z" fill="white"/>
        <path d="M61.878 16.3387V8.03027H67.3246V8.95343H62.9198V11.6306H67.2455V12.5537H62.9198V15.4155H67.3246V16.3387H61.878Z" fill="white"/>
        <path d="M73.7736 16.3387L71.6503 13.0417H69.9886V16.3387H68.9731V8.03027H72.3097C73.8263 8.03027 74.9077 9.00618 74.9077 10.536C74.9077 12.0262 73.8923 12.8571 72.7581 12.9494L75.0001 16.3387H73.7736ZM73.8395 10.536C73.8395 9.59964 73.1669 8.95343 72.1778 8.95343H70.0018V12.1317H72.1778C73.1669 12.1317 73.8395 11.4723 73.8395 10.536Z" fill="white"/>
        <path d="M30.3323 19.8731V18.1455H30.6884V19.8599C30.6884 20.3743 30.9654 20.704 31.4929 20.704C32.0204 20.704 32.2973 20.3743 32.2973 19.8599V18.1455H32.6534V19.8599C32.6534 20.5589 32.271 21.0073 31.5061 21.0073C30.7148 21.0205 30.3323 20.5721 30.3323 19.8731Z" fill="white"/>
        <path d="M36.3197 20.9677L34.6712 18.7258V20.9677H34.3151V18.1455H34.6712L36.2933 20.3479V18.1455H36.6494V20.9677H36.3197Z" fill="white"/>
        <path d="M38.3506 20.9677V18.1455H38.7067V20.9677H38.3506Z" fill="white"/>
        <path d="M41.2388 20.9677L40.1046 18.1455H40.5003L41.4498 20.5721L42.3993 18.1455H42.795L41.674 20.9677H41.2388Z" fill="white"/>
        <path d="M44.2061 20.9677V18.1455H46.0524V18.462H44.5621V19.372H46.026V19.6885H44.5621V20.6644H46.0524V20.9809L44.2061 20.9677Z" fill="white"/>
        <path d="M49.2703 20.9677L48.5581 19.8468H47.991V20.9677H47.6349V18.1455H48.7691C49.2834 18.1455 49.6527 18.4752 49.6527 18.9895C49.6527 19.4907 49.3098 19.7808 48.9274 19.8072L49.6923 20.9545H49.2703V20.9677ZM49.2966 19.0027C49.2966 18.6862 49.0724 18.462 48.7295 18.462H47.991V19.5434H48.7295C49.0724 19.5434 49.2966 19.3192 49.2966 19.0027Z" fill="white"/>
        <path d="M51.077 20.5721L51.288 20.3083C51.4727 20.5194 51.776 20.704 52.1716 20.704C52.6728 20.704 52.831 20.4402 52.831 20.216C52.831 19.8731 52.4881 19.7808 52.1189 19.6885C51.6705 19.5698 51.1693 19.4379 51.1693 18.884C51.1693 18.4225 51.5782 18.106 52.1321 18.106C52.5673 18.106 52.897 18.251 53.1344 18.5016L52.9233 18.7654C52.7123 18.528 52.4222 18.4225 52.1057 18.4225C51.7628 18.4225 51.5254 18.6071 51.5254 18.8709C51.5254 19.1478 51.8551 19.2401 52.2112 19.3324C52.6728 19.4511 53.2003 19.5962 53.2003 20.1897C53.2003 20.5985 52.9233 21.0205 52.1584 21.0205C51.6705 21.0205 51.3144 20.8359 51.077 20.5721Z" fill="white"/>
        <path d="M54.7565 20.9677V18.1455H55.1125V20.9677H54.7565Z" fill="white"/>
        <path d="M57.4996 20.9677V18.462H56.6028V18.1455H58.7392V18.462H57.8425V20.9677H57.4996Z" fill="white"/>
        <path d="M61.0603 20.9677V19.7808L59.9525 18.1587H60.3613L61.2317 19.4643L62.1022 18.1587H62.511L61.4032 19.7808V20.9677H61.0603Z" fill="white"/>
    </g>
    <defs>
        <radialGradient id="paint0_radial_178_982" cx="0" cy="0" r="1" gradientUnits="userSpaceOnUse" gradientTransform="translate(12.6605 13.8793) scale(13.2294)">
            <stop offset="0.0121212" stop-color="#29AAE1"/>
            <stop offset="0.132" stop-color="#2AA4DB"/>
            <stop offset="0.3117" stop-color="#2996CC"/>
            <stop offset="0.5289" stop-color="#2781B7"/>
            <stop offset="0.773" stop-color="#22689F"/>
            <stop offset="1" stop-color="#1D4F8A"/>
        </radialGradient>
        <clipPath id="clip0_178_982">
            <rect width="75" height="27.5761" fill="white" transform="translate(0 0.0913086)"/>
        </clipPath>
    </defs>
</svg>
