<svg width="75" height="18" viewBox="0 0 75 18" fill="none"
    xmlns="http://www.w3.org/2000/svg">
    <g clip-path="url(#clip0_178_949)">
        <path d="M15.4256 8.30042H7.65954C7.49362 8.30042 7.33444 8.36569 7.21711 8.48191C7.09977 8.59806 7.03382 8.75563 7.03382 8.91994V10.3552C7.03382 10.5196 7.09977 10.6771 7.21711 10.7933C7.33444 10.9095 7.49362 10.9748 7.65954 10.9748H11.9931C12.4103 10.9748 12.7092 11.3718 12.518 11.7375C12.4085 11.9468 12.281 12.1464 12.137 12.3341C11.8392 12.7423 11.4772 13.1008 11.065 13.3958C10.2159 14.0181 9.18359 14.3463 8.1274 14.33C7.43225 14.3342 6.74448 14.1893 6.11127 13.9052C5.50349 13.613 4.95198 13.2178 4.48165 12.7375C4.01876 12.2478 3.64843 11.6797 3.3883 11.0604C3.11644 10.4222 2.97786 9.73608 2.9809 9.04342C2.97921 8.35757 3.1178 7.67848 3.3883 7.04711C3.6599 6.39621 4.02435 5.83021 4.48165 5.3491C4.949 4.87073 5.50145 4.48179 6.11127 4.2018C6.74076 3.90447 7.43002 3.75205 8.1274 3.75596C8.97012 3.75171 9.7963 3.98756 10.5074 4.43539C11.049 4.76064 11.5353 5.16869 11.9481 5.64442C12.1641 5.89683 12.5319 5.97805 12.8167 5.80642L14.3258 4.89752C14.6292 4.71396 14.7198 4.31699 14.5013 4.04026C13.8297 3.19095 12.9987 2.49492 12.0084 1.95217C10.8363 1.30111 9.5426 0.975586 8.1274 0.975586C7.01225 0.975586 5.96171 1.18791 4.97573 1.61257C4.00741 2.02497 3.12703 2.61575 2.38138 3.35348C1.65232 4.07537 1.07296 4.93202 0.643314 5.92344C0.214594 6.90003 0.000154578 7.94023 8.34205e-08 9.0441C-0.000154411 10.148 0.214284 11.1882 0.643314 12.1648C1.07234 13.1413 1.6517 13.998 2.38138 14.7347C3.1245 15.4566 3.98928 16.0298 4.97573 16.4543C5.96218 16.8788 7.01275 17.0912 8.1274 17.0913C9.14213 17.0913 10.107 16.9215 11.0221 16.5819C11.9512 16.2421 12.7661 15.775 13.4665 15.1806C14.1791 14.5744 14.7685 13.8394 15.2032 13.0149C15.6607 12.18 15.9322 11.2741 16.018 10.2974C16.0347 10.1352 16.0419 9.97218 16.0395 9.8091C16.0395 9.58255 16.0467 9.35612 16.0608 9.1297C16.0608 9.07143 16.0608 9.01199 16.0608 8.95143C16.0662 8.59645 15.783 8.30042 15.4256 8.30042ZM28.7349 14.1604H21.6878C21.5218 14.1604 21.3627 14.0951 21.2453 13.9789C21.128 13.8628 21.0621 13.7051 21.0621 13.5409V1.87163C21.0621 1.70731 20.9962 1.54973 20.8788 1.43354C20.7615 1.31736 20.6023 1.25209 20.4364 1.25209H18.6867C18.5208 1.25209 18.3617 1.31736 18.2443 1.43354C18.1269 1.54973 18.0611 1.70731 18.0611 1.87163V16.173C18.0611 16.3373 18.1269 16.4949 18.2443 16.611C18.3617 16.7273 18.5208 16.7925 18.6867 16.7925H28.7349C28.9008 16.7925 29.06 16.7273 29.1773 16.611C29.2946 16.4949 29.3605 16.3373 29.3605 16.173V14.7802C29.3606 14.6988 29.3444 14.6182 29.313 14.543C29.2815 14.4678 29.2355 14.3995 29.1774 14.3419C29.1193 14.2844 29.0503 14.2387 28.9744 14.2076C28.8984 14.1764 28.817 14.1604 28.7349 14.1604ZM42.0932 1.25186H31.8084C31.6425 1.25186 31.4833 1.31713 31.366 1.43332C31.2487 1.5495 31.1827 1.70708 31.1827 1.8714V16.1728C31.1827 16.3371 31.2487 16.4946 31.366 16.6109C31.4833 16.727 31.6425 16.7923 31.8084 16.7923H42.0922C42.2582 16.7923 42.4173 16.727 42.5347 16.6109C42.652 16.4946 42.7179 16.3371 42.7179 16.1728V14.7375C42.7179 14.5731 42.652 14.4156 42.5347 14.2994C42.4173 14.1832 42.2582 14.1179 42.0922 14.1179H34.7888C34.6229 14.1179 34.4637 14.0527 34.3464 13.9365C34.2291 13.8203 34.1632 13.6627 34.1632 13.4984V11.0861C34.1632 10.9218 34.2291 10.7642 34.3464 10.648C34.4637 10.5318 34.6229 10.4666 34.7888 10.4666H41.1272C41.2932 10.4666 41.4523 10.4013 41.5696 10.2851C41.687 10.1689 41.7529 10.0113 41.7529 9.84697V8.39036C41.7529 8.22604 41.687 8.06848 41.5696 7.95226C41.4523 7.8361 41.2932 7.77083 41.1272 7.77083H34.7888C34.6229 7.77083 34.4637 7.70556 34.3464 7.58935C34.2291 7.47319 34.1632 7.31563 34.1632 7.15128V4.50446C34.1632 4.34015 34.2291 4.18256 34.3464 4.06637C34.4637 3.95019 34.6229 3.88492 34.7888 3.88492H42.0922C42.2582 3.88492 42.4173 3.81964 42.5347 3.70345C42.652 3.58727 42.7179 3.42968 42.7179 3.26537V1.87232C42.718 1.79088 42.702 1.71022 42.6705 1.63495C42.6392 1.55967 42.5931 1.49127 42.535 1.43364C42.4768 1.37601 42.4078 1.3303 42.3319 1.2991C42.2559 1.26791 42.1745 1.25186 42.0922 1.25186H42.0932ZM74.6176 12.7104L72.9322 12.0356C72.657 11.9252 72.344 12.0239 72.1593 12.2538C71.9988 12.4529 71.8271 12.6429 71.6448 12.8226C71.3411 13.1227 71.0033 13.3863 70.637 13.6083C70.2682 13.8336 69.8721 14.0119 69.4581 14.1391C69.0415 14.2668 68.6076 14.3312 68.1713 14.3302C67.4764 14.3344 66.7884 14.1896 66.155 13.9055C65.5519 13.6166 65.0064 13.2208 64.5471 12.7378C64.0841 12.2481 63.7134 11.68 63.4537 11.0606C63.1816 10.4224 63.0428 9.73633 63.0459 9.04366C63.044 8.35776 63.1828 7.67866 63.4537 7.04734C63.7252 6.39644 64.0897 5.83043 64.5471 5.34933C65.0039 4.86826 65.5494 4.47874 66.155 4.20203C66.7847 3.90466 67.474 3.75224 68.1713 3.75619C68.6076 3.75508 69.0415 3.81952 69.4581 3.94733C69.8721 4.07451 70.2682 4.25283 70.637 4.47807C71.0027 4.69999 71.3411 4.9636 71.6448 5.26352C71.8277 5.43554 71.9988 5.61895 72.1574 5.81261C72.344 6.04207 72.657 6.13983 72.9322 6.02945L74.6114 5.35714C74.9597 5.21716 75.1078 4.80437 74.8952 4.49711C74.6312 4.1178 74.3324 3.76319 74.0033 3.4377C73.5087 2.93226 72.9459 2.49649 72.331 2.14262C71.7173 1.76884 71.0529 1.48301 70.3587 1.29362C69.6471 1.09356 68.9107 0.993153 68.1713 0.995319C67.0562 0.995319 66.0062 1.20765 65.0194 1.6323C64.0512 2.04483 63.1704 2.63558 62.4242 3.37322C61.6951 4.0951 61.1161 4.9441 60.6874 5.92023C60.2587 6.89635 60.0443 7.93658 60.0441 9.04087C60.0441 10.1449 60.2585 11.1851 60.6874 12.1616C61.1163 13.138 61.6952 13.9947 62.4242 14.7315C63.1674 15.4534 64.0326 16.0266 65.0194 16.4511C66.0068 16.8756 67.0568 17.0879 68.1713 17.0881C68.9107 17.0901 69.6471 16.9897 70.3587 16.7898C71.0498 16.6012 71.7136 16.3228 72.331 15.9616C72.9397 15.5986 73.5012 15.1637 74.0033 14.6666C74.3374 14.3269 74.6393 13.9575 74.9052 13.5631C75.1122 13.2582 74.9634 12.8494 74.6163 12.7104H74.6176ZM52.4462 1.42602C52.4256 1.38621 52.3943 1.35281 52.3558 1.32949C52.3173 1.30616 52.273 1.29382 52.2278 1.29382C52.1826 1.29382 52.1383 1.30616 52.0998 1.32949C52.0613 1.35281 52.03 1.38621 52.0094 1.42602L44.5241 15.9114C44.4752 16.0058 44.4516 16.1111 44.4556 16.2171C44.4596 16.3231 44.491 16.4263 44.5468 16.5169C44.6026 16.6074 44.681 16.6823 44.7744 16.7343C44.8678 16.7862 44.9732 16.8135 45.0803 16.8137H47.6869C47.809 16.8143 47.9284 16.779 48.03 16.712C48.1315 16.645 48.2106 16.5496 48.257 16.4378C48.334 16.2503 48.4095 16.0601 48.485 15.8692C49.2195 14.0151 49.977 12.103 52.3762 12.103C54.5741 12.103 55.3277 14.0305 56.0178 15.7974C56.1033 16.0153 56.1875 16.2313 56.2727 16.4398C56.3191 16.5508 56.3979 16.6455 56.4989 16.7119C56.6 16.7783 56.7188 16.8133 56.84 16.8125H59.3714C59.4786 16.8126 59.5841 16.7854 59.6776 16.7335C59.7712 16.6816 59.8498 16.6068 59.9057 16.5162C59.9616 16.4256 59.9932 16.3223 59.9972 16.2162C60.0012 16.1101 59.9776 16.0047 59.9287 15.9103L52.4462 1.42602ZM52.236 10.3596C51.8877 10.3596 51.5472 10.2573 51.2575 10.0657C50.9679 9.87406 50.7421 9.6017 50.6088 9.28304C50.4756 8.96439 50.4407 8.61375 50.5086 8.2755C50.5766 7.9372 50.7443 7.62647 50.9906 7.38257C51.237 7.13869 51.5508 6.9726 51.8924 6.90531C52.2341 6.83803 52.5882 6.87256 52.91 7.00455C53.2318 7.13654 53.5069 7.36007 53.7004 7.64687C53.8939 7.9336 53.9973 8.27079 53.9973 8.61573C53.9973 8.84482 53.9516 9.07162 53.8631 9.28329C53.7745 9.4949 53.6447 9.68718 53.4811 9.84914C53.3174 10.0111 53.1232 10.1395 52.9093 10.2271C52.6956 10.3147 52.4665 10.3597 52.2351 10.3596H52.236Z" fill="white"/>
    </g>
    <defs>
        <clipPath id="clip0_178_949">
            <rect width="75" height="16.1157" fill="white" transform="translate(0 0.975586)"/>
        </clipPath>
    </defs>
</svg>
