<svg width="640" height="695" viewBox="0 0 640 695" fill="none"
    xmlns="http://www.w3.org/2000/svg">
    <g filter="url(#filter0_b_0_1)">
        <rect x="640" width="695" height="640" rx="27" transform="rotate(90 640 0)" fill="#DDDDDD" fill-opacity="0.04"/>
    </g>
    <path d="M613 -2.39912e-06C627.912 -1.07412e-06 640 12.0883 640 27L640 347L-7.46158e-06 347L-5.80584e-07 27C-2.59937e-07 12.0883 12.0883 -5.57939e-05 27 -5.44689e-05L613 -2.39912e-06Z" fill="white"/>
    <path d="M39.9869 218.04H47.1869V219.74H39.9869V218.04ZM40.1669 224.26H48.3269V226H38.1669V212H48.0469V213.74H40.1669V224.26ZM54.3453 226V213.74H49.5453V212H61.1253V213.74H56.3253V226H54.3453ZM73.3436 212H75.3436V226H73.3436V212ZM65.3036 226H63.3036V212H65.3036V226ZM73.5236 219.76H65.1036V218.02H73.5236V219.76ZM84.9052 226V212H86.5452L92.8252 222.58H91.9452L98.1452 212H99.7852L99.8052 226H97.8852L97.8652 215.02H98.3252L92.8052 224.3H91.8852L86.3252 215.02H86.8252V226H84.9052ZM110.267 226.16C109.2 226.16 108.213 225.987 107.307 225.64C106.413 225.28 105.633 224.78 104.967 224.14C104.313 223.487 103.8 222.727 103.427 221.86C103.053 220.993 102.867 220.04 102.867 219C102.867 217.96 103.053 217.007 103.427 216.14C103.8 215.273 104.32 214.52 104.987 213.88C105.653 213.227 106.433 212.727 107.327 212.38C108.233 212.02 109.22 211.84 110.287 211.84C111.367 211.84 112.36 212.027 113.267 212.4C114.187 212.76 114.967 213.3 115.607 214.02L114.307 215.28C113.773 214.72 113.173 214.307 112.507 214.04C111.84 213.76 111.127 213.62 110.367 213.62C109.58 213.62 108.847 213.753 108.167 214.02C107.5 214.287 106.92 214.66 106.427 215.14C105.933 215.62 105.547 216.193 105.267 216.86C105 217.513 104.867 218.227 104.867 219C104.867 219.773 105 220.493 105.267 221.16C105.547 221.813 105.933 222.38 106.427 222.86C106.92 223.34 107.5 223.713 108.167 223.98C108.847 224.247 109.58 224.38 110.367 224.38C111.127 224.38 111.84 224.247 112.507 223.98C113.173 223.7 113.773 223.273 114.307 222.7L115.607 223.96C114.967 224.68 114.187 225.227 113.267 225.6C112.36 225.973 111.36 226.16 110.267 226.16ZM116.008 226L122.348 212H124.328L130.688 226H128.588L122.928 213.12H123.728L118.068 226H116.008ZM118.708 222.5L119.248 220.9H127.128L127.708 222.5H118.708ZM132.776 226V212H138.236C139.463 212 140.51 212.193 141.376 212.58C142.243 212.967 142.91 213.527 143.376 214.26C143.843 214.993 144.076 215.867 144.076 216.88C144.076 217.893 143.843 218.767 143.376 219.5C142.91 220.22 142.243 220.78 141.376 221.18C140.51 221.567 139.463 221.76 138.236 221.76H133.876L134.776 220.82V226H132.776ZM134.776 221.02L133.876 220.02H138.176C139.456 220.02 140.423 219.747 141.076 219.2C141.743 218.653 142.076 217.88 142.076 216.88C142.076 215.88 141.743 215.107 141.076 214.56C140.423 214.013 139.456 213.74 138.176 213.74H133.876L134.776 212.74V221.02ZM56.5534 244.7C56.0734 244.7 55.6534 244.6 55.2934 244.4C54.9334 244.2 54.6 243.973 54.2934 243.72C54 243.467 53.72 243.247 53.4534 243.06C53.1867 242.86 52.8934 242.76 52.5734 242.76C52.1467 242.76 51.8067 242.92 51.5534 243.24C51.3 243.56 51.16 244 51.1334 244.56H49.8734C49.9 243.44 50.16 242.613 50.6534 242.08C51.1467 241.547 51.7667 241.28 52.5134 241.28C52.9934 241.28 53.4134 241.38 53.7734 241.58C54.1334 241.78 54.46 242.007 54.7534 242.26C55.06 242.513 55.3467 242.74 55.6134 242.94C55.88 243.127 56.1734 243.22 56.4934 243.22C56.9334 243.22 57.28 243.06 57.5334 242.74C57.7867 242.407 57.92 241.96 57.9334 241.4H59.1934C59.1667 242.52 58.9067 243.353 58.4134 243.9C57.9334 244.433 57.3134 244.7 56.5534 244.7ZM71.4051 252.4V233.6H72.6851V252.4H71.4051ZM71.9051 250.16C70.8384 250.16 69.8184 250 68.8451 249.68C67.8717 249.347 67.1051 248.92 66.5451 248.4L67.2851 246.84C67.8184 247.307 68.4984 247.693 69.3251 248C70.1517 248.307 71.0117 248.46 71.9051 248.46C72.7184 248.46 73.3784 248.367 73.8851 248.18C74.3917 247.993 74.7651 247.74 75.0051 247.42C75.2451 247.087 75.3651 246.713 75.3651 246.3C75.3651 245.82 75.2051 245.433 74.8851 245.14C74.5784 244.847 74.1717 244.613 73.6651 244.44C73.1717 244.253 72.6251 244.093 72.0251 243.96C71.4251 243.827 70.8184 243.673 70.2051 243.5C69.6051 243.313 69.0517 243.08 68.5451 242.8C68.0517 242.52 67.6517 242.147 67.3451 241.68C67.0384 241.2 66.8851 240.587 66.8851 239.84C66.8851 239.12 67.0717 238.46 67.4451 237.86C67.8317 237.247 68.4184 236.76 69.2051 236.4C70.0051 236.027 71.0184 235.84 72.2451 235.84C73.0584 235.84 73.8651 235.947 74.6651 236.16C75.4651 236.373 76.1584 236.68 76.7451 237.08L76.0851 238.68C75.4851 238.28 74.8517 237.993 74.1851 237.82C73.5184 237.633 72.8717 237.54 72.2451 237.54C71.4584 237.54 70.8117 237.64 70.3051 237.84C69.7984 238.04 69.4251 238.307 69.1851 238.64C68.9584 238.973 68.8451 239.347 68.8451 239.76C68.8451 240.253 68.9984 240.647 69.3051 240.94C69.6251 241.233 70.0317 241.467 70.5251 241.64C71.0317 241.813 71.5851 241.973 72.1851 242.12C72.7851 242.253 73.3851 242.407 73.9851 242.58C74.5984 242.753 75.1517 242.98 75.6451 243.26C76.1517 243.54 76.5584 243.913 76.8651 244.38C77.1717 244.847 77.3251 245.447 77.3251 246.18C77.3251 246.887 77.1317 247.547 76.7451 248.16C76.3584 248.76 75.7584 249.247 74.9451 249.62C74.1451 249.98 73.1317 250.16 71.9051 250.16ZM79.1023 246.56V245.16L86.2623 236H88.4223L81.3223 245.16L80.3023 244.84H91.4823V246.56H79.1023ZM86.8823 250V246.56L86.9423 244.84V241.8H88.8223V250H86.8823ZM94.5334 250V236.8L95.3934 237.74H91.3734V236H96.5134V250H94.5334ZM105.296 250.16C104.202 250.16 103.222 249.88 102.356 249.32C101.502 248.76 100.822 247.947 100.316 246.88C99.8224 245.813 99.5757 244.52 99.5757 243C99.5757 241.48 99.8224 240.187 100.316 239.12C100.822 238.053 101.502 237.24 102.356 236.68C103.222 236.12 104.202 235.84 105.296 235.84C106.376 235.84 107.349 236.12 108.216 236.68C109.082 237.24 109.762 238.053 110.256 239.12C110.749 240.187 110.996 241.48 110.996 243C110.996 244.52 110.749 245.813 110.256 246.88C109.762 247.947 109.082 248.76 108.216 249.32C107.349 249.88 106.376 250.16 105.296 250.16ZM105.296 248.38C106.029 248.38 106.669 248.18 107.216 247.78C107.776 247.38 108.209 246.78 108.516 245.98C108.836 245.18 108.996 244.187 108.996 243C108.996 241.813 108.836 240.82 108.516 240.02C108.209 239.22 107.776 238.62 107.216 238.22C106.669 237.82 106.029 237.62 105.296 237.62C104.562 237.62 103.916 237.82 103.356 238.22C102.796 238.62 102.356 239.22 102.036 240.02C101.729 240.82 101.576 241.813 101.576 243C101.576 244.187 101.729 245.18 102.036 245.98C102.356 246.78 102.796 247.38 103.356 247.78C103.916 248.18 104.562 248.38 105.296 248.38ZM119.427 250V236H125.707C127.32 236 128.56 236.327 129.427 236.98C130.293 237.62 130.727 238.5 130.727 239.62C130.727 240.38 130.553 241.02 130.207 241.54C129.873 242.06 129.42 242.46 128.847 242.74C128.273 243.02 127.653 243.16 126.987 243.16L127.347 242.56C128.147 242.56 128.853 242.7 129.467 242.98C130.08 243.26 130.567 243.673 130.927 244.22C131.287 244.753 131.467 245.42 131.467 246.22C131.467 247.42 131.013 248.353 130.107 249.02C129.213 249.673 127.88 250 126.107 250H119.427ZM121.427 248.38H126.027C127.133 248.38 127.98 248.193 128.567 247.82C129.153 247.447 129.447 246.86 129.447 246.06C129.447 245.247 129.153 244.653 128.567 244.28C127.98 243.907 127.133 243.72 126.027 243.72H121.247V242.1H125.527C126.54 242.1 127.327 241.913 127.887 241.54C128.447 241.167 128.727 240.607 128.727 239.86C128.727 239.113 128.447 238.553 127.887 238.18C127.327 237.807 126.54 237.62 125.527 237.62H121.427V248.38Z" fill="black"/>
    <path d="M302 346.481L308.511 371.38L322.017 387.626L343.001 439.236L372.982 454.525L395.646 516.64L430.518 543.402L446.429 577.809L456.825 583.54L469.677 557.735L486.212 467.901L520.46 440.183L524.133 398.141L535.606 393.357L538.756 375.197L557.254 346.481H302Z" fill="#F7931A"/>
    <path opacity="0.2" d="M302 346.481L308.511 371.38L322.017 387.626L343.001 439.236L372.982 454.525L395.646 516.64L430.518 543.402L446.429 577.809L456.825 583.54L469.677 557.735L486.212 467.901L520.46 440.183L524.133 398.141L535.606 393.357L538.756 375.197L557.254 346.481H302Z" fill="white"/>
    <path d="M465.762 479.454L456.825 583.53L446.419 577.799L430.518 543.402L395.646 516.64L372.982 454.525L343.001 439.236L322.017 387.626L308.511 371.37L302 346.481H385.028L454.53 394.253L438.841 441.27L465.762 479.454Z" fill="#F7931A"/>
    <path opacity="0.1" d="M308.511 371.37L379.885 366.182L454.53 394.253L385.028 346.481H302L308.511 371.37Z" fill="black"/>
    <path opacity="0.1" d="M438.841 441.271L441.92 477.621L461.656 527.226L465.762 479.454L438.841 441.271Z" fill="black"/>
    <path d="M524.128 398.142L501.715 407.851L486.207 467.901L512.172 430.07L524.128 398.142Z" fill="#F7931A"/>
    <path d="M538.759 375.197L487.02 358.265L535.609 393.357L538.759 375.197Z" fill="#F7931A"/>
    <path opacity="0.1" d="M395.647 516.64L438.852 530.872L430.519 543.402L395.647 516.64Z" fill="black"/>
    <path opacity="0.3" d="M446.423 577.799L438.855 530.872L430.522 543.402L446.423 577.799Z" fill="white"/>
    <path opacity="0.1" d="M372.981 454.525L388.691 437.231L322.017 387.626L343 439.236L372.981 454.525Z" fill="black"/>
    <path d="M438.842 441.27L414.417 434.411L442.787 429.446L469.427 438.823L438.842 441.27Z" fill="#F7931A"/>
    <path opacity="0.2" d="M438.842 441.27L414.417 434.411L442.787 429.446L469.427 438.823L438.842 441.27Z" fill="white"/>
    <path d="M414.417 434.411L442.787 429.446L469.427 438.823" fill="#F7931A"/>
    <path opacity="0.1" d="M308.511 371.37L385.028 346.481H302L308.511 371.37Z" fill="black"/>
    <path opacity="0.1" d="M441.92 477.621L465.762 479.454L438.841 441.271L441.92 477.621Z" fill="black"/>
    <path opacity="0.3" d="M487.02 358.265L501.724 407.851L535.609 393.357L487.02 358.265Z" fill="white"/>
    <path d="M385.029 346.481L412.473 354.62L464.102 346.481H385.029Z" fill="#F7931A"/>
    <path d="M333.631 346.481H557.254L546.546 334.093L542.268 320.374L504.579 295.808L487.017 283.893L464.816 276.923L445.211 239.495L410.701 216.258L394.861 183L372.629 197.01L349.542 248.499L331.316 262.59L327.704 284.618L312.185 313.868L319.32 331.212L309.286 340.599L302 346.481H333.631Z" fill="#F7931A"/>
    <path opacity="0.7" d="M333.631 346.481H557.254L546.546 334.093L542.268 320.374L504.579 295.808L487.017 283.893L464.816 276.923L445.211 239.495L410.701 216.258L394.861 183L372.629 197.01L349.542 248.499L331.316 262.59L327.704 284.618L312.185 313.868L319.32 331.212L309.286 340.599L302 346.481H333.631Z" fill="white"/>
    <path opacity="0.4" d="M454.53 346.481H302L319.33 331.202L312.185 313.878L327.704 284.618L331.316 262.59L349.542 248.499L372.619 197.01L394.861 183L374.441 243.665L383.619 261.19L374.441 283.621L387.232 300.371L427.015 312.74L429.632 330.013L454.53 346.481Z" fill="#F7931A"/>
    <path d="M362.091 247.462L375.98 239.112L394.568 238.709L375.849 246.344L362.091 247.462Z" fill="#F7931A"/>
    <path opacity="0.7" d="M362.091 247.462L375.98 239.112L394.568 238.709L375.849 246.344L362.091 247.462Z" fill="white"/>
    <path opacity="0.4" d="M362.091 247.462L394.568 238.709L375.849 246.344L362.091 247.462Z" fill="#F7931A"/>
    <path opacity="0.7" d="M388.691 346.481L319.33 331.202L302 346.481H388.691Z" fill="#F7931A"/>
    <path opacity="0.7" d="M464.811 276.923L438.846 298.054L487.012 283.893L464.811 276.923Z" fill="white"/>
    <path opacity="0.4" d="M546.547 334.093L512.833 329.621L478.968 346.481H557.256L546.547 334.093Z" fill="#F7931A"/>
    <path opacity="0.7" d="M410.698 216.258L383.615 261.19L445.207 239.495L410.698 216.258Z" fill="white"/>
    <path opacity="0.5" d="M394.567 257.333L397.114 272.34L414.414 291.215L401.139 270.698L401.964 254.734L394.567 257.333Z" fill="#F7931A"/>
    <path opacity="0.7" d="M331.312 262.59L359.34 293.874L362.088 329.621L312.18 313.878L327.699 284.618L331.312 262.59Z" fill="#F7931A"/>
    <path opacity="0.7" d="M349.538 248.499L374.99 217.245L372.615 197.01L349.538 248.499Z" fill="#F7931A"/>
    <path opacity="0.7" d="M429.63 330.013L427.013 312.74L403.373 325.702L388.69 346.481L429.63 330.013Z" fill="#F7931A"/>
    <path opacity="0.7" d="M512.826 329.621L542.263 320.374L546.55 334.082L512.826 329.621Z" fill="white"/>
    <path opacity="0.4" d="M438.846 298.054L457.927 300.885L487.012 283.893L438.846 298.054Z" fill="#F7931A"/>
    <path d="M327.707 284.618L359.348 293.874L331.32 262.59L327.707 284.618Z" fill="#F7931A"/>
    <path d="M388.69 346.481L427.013 312.74L403.373 325.702L388.69 346.481Z" fill="#F7931A"/>
    <g style="mix-blend-mode:exclusion">
        <path d="M401.601 371V357H407.661C408.915 357 409.995 357.207 410.901 357.62C411.808 358.02 412.508 358.6 413.001 359.36C413.495 360.12 413.741 361.027 413.741 362.08C413.741 363.12 413.495 364.02 413.001 364.78C412.508 365.54 411.808 366.127 410.901 366.54C409.995 366.94 408.915 367.14 407.661 367.14H403.401L404.841 365.68V371H401.601ZM404.841 366.04L403.401 364.5H407.481C408.481 364.5 409.228 364.287 409.721 363.86C410.215 363.433 410.461 362.84 410.461 362.08C410.461 361.307 410.215 360.707 409.721 360.28C409.228 359.853 408.481 359.64 407.481 359.64H403.401L404.841 358.1V366.04ZM420.935 371.16C419.788 371.16 418.768 370.92 417.875 370.44C416.995 369.96 416.295 369.307 415.775 368.48C415.268 367.64 415.015 366.687 415.015 365.62C415.015 364.54 415.268 363.587 415.775 362.76C416.295 361.92 416.995 361.267 417.875 360.8C418.768 360.32 419.788 360.08 420.935 360.08C422.068 360.08 423.082 360.32 423.975 360.8C424.868 361.267 425.568 361.913 426.075 362.74C426.582 363.567 426.835 364.527 426.835 365.62C426.835 366.687 426.582 367.64 426.075 368.48C425.568 369.307 424.868 369.96 423.975 370.44C423.082 370.92 422.068 371.16 420.935 371.16ZM420.935 368.6C421.455 368.6 421.922 368.48 422.335 368.24C422.748 368 423.075 367.66 423.315 367.22C423.555 366.767 423.675 366.233 423.675 365.62C423.675 364.993 423.555 364.46 423.315 364.02C423.075 363.58 422.748 363.24 422.335 363C421.922 362.76 421.455 362.64 420.935 362.64C420.415 362.64 419.948 362.76 419.535 363C419.122 363.24 418.788 363.58 418.535 364.02C418.295 364.46 418.175 364.993 418.175 365.62C418.175 366.233 418.295 366.767 418.535 367.22C418.788 367.66 419.122 368 419.535 368.24C419.948 368.48 420.415 368.6 420.935 368.6ZM433.32 371.16C432.054 371.16 431.067 370.84 430.36 370.2C429.654 369.547 429.3 368.58 429.3 367.3V357.86H432.42V367.26C432.42 367.713 432.54 368.067 432.78 368.32C433.02 368.56 433.347 368.68 433.76 368.68C434.254 368.68 434.674 368.547 435.02 368.28L435.86 370.48C435.54 370.707 435.154 370.88 434.7 371C434.26 371.107 433.8 371.16 433.32 371.16ZM427.64 362.88V360.48H435.1V362.88H427.64ZM442.62 371.16C441.393 371.16 440.313 370.92 439.38 370.44C438.46 369.96 437.747 369.307 437.24 368.48C436.733 367.64 436.48 366.687 436.48 365.62C436.48 364.54 436.727 363.587 437.22 362.76C437.727 361.92 438.413 361.267 439.28 360.8C440.147 360.32 441.127 360.08 442.22 360.08C443.273 360.08 444.22 360.307 445.06 360.76C445.913 361.2 446.587 361.84 447.08 362.68C447.573 363.507 447.82 364.5 447.82 365.66C447.82 365.78 447.813 365.92 447.8 366.08C447.787 366.227 447.773 366.367 447.76 366.5H439.02V364.68H446.12L444.92 365.22C444.92 364.66 444.807 364.173 444.58 363.76C444.353 363.347 444.04 363.027 443.64 362.8C443.24 362.56 442.773 362.44 442.24 362.44C441.707 362.44 441.233 362.56 440.82 362.8C440.42 363.027 440.107 363.353 439.88 363.78C439.653 364.193 439.54 364.687 439.54 365.26V365.74C439.54 366.327 439.667 366.847 439.92 367.3C440.187 367.74 440.553 368.08 441.02 368.32C441.5 368.547 442.06 368.66 442.7 368.66C443.273 368.66 443.773 368.573 444.2 368.4C444.64 368.227 445.04 367.967 445.4 367.62L447.06 369.42C446.567 369.98 445.947 370.413 445.2 370.72C444.453 371.013 443.593 371.16 442.62 371.16ZM456.437 360.08C457.29 360.08 458.05 360.253 458.717 360.6C459.397 360.933 459.93 361.453 460.317 362.16C460.704 362.853 460.897 363.747 460.897 364.84V371H457.777V365.32C457.777 364.453 457.584 363.813 457.197 363.4C456.824 362.987 456.29 362.78 455.597 362.78C455.104 362.78 454.657 362.887 454.257 363.1C453.87 363.3 453.564 363.613 453.337 364.04C453.124 364.467 453.017 365.013 453.017 365.68V371H449.897V360.24H452.877V363.22L452.317 362.32C452.704 361.6 453.257 361.047 453.977 360.66C454.697 360.273 455.517 360.08 456.437 360.08ZM468.125 371.16C466.858 371.16 465.872 370.84 465.165 370.2C464.458 369.547 464.105 368.58 464.105 367.3V357.86H467.225V367.26C467.225 367.713 467.345 368.067 467.585 368.32C467.825 368.56 468.152 368.68 468.565 368.68C469.058 368.68 469.478 368.547 469.825 368.28L470.665 370.48C470.345 370.707 469.958 370.88 469.505 371C469.065 371.107 468.605 371.16 468.125 371.16ZM462.445 362.88V360.48H469.905V362.88H462.445ZM472.417 371V360.24H475.537V371H472.417ZM473.977 358.74C473.403 358.74 472.937 358.573 472.577 358.24C472.217 357.907 472.037 357.493 472.037 357C472.037 356.507 472.217 356.093 472.577 355.76C472.937 355.427 473.403 355.26 473.977 355.26C474.55 355.26 475.017 355.42 475.377 355.74C475.737 356.047 475.917 356.447 475.917 356.94C475.917 357.46 475.737 357.893 475.377 358.24C475.03 358.573 474.563 358.74 473.977 358.74ZM485.032 371V368.9L484.832 368.44V364.68C484.832 364.013 484.626 363.493 484.212 363.12C483.812 362.747 483.192 362.56 482.352 362.56C481.779 362.56 481.212 362.653 480.652 362.84C480.106 363.013 479.639 363.253 479.252 363.56L478.132 361.38C478.719 360.967 479.426 360.647 480.252 360.42C481.079 360.193 481.919 360.08 482.772 360.08C484.412 360.08 485.686 360.467 486.592 361.24C487.499 362.013 487.952 363.22 487.952 364.86V371H485.032ZM481.752 371.16C480.912 371.16 480.192 371.02 479.592 370.74C478.992 370.447 478.532 370.053 478.212 369.56C477.892 369.067 477.732 368.513 477.732 367.9C477.732 367.26 477.886 366.7 478.192 366.22C478.512 365.74 479.012 365.367 479.692 365.1C480.372 364.82 481.259 364.68 482.352 364.68H485.212V366.5H482.692C481.959 366.5 481.452 366.62 481.172 366.86C480.906 367.1 480.772 367.4 480.772 367.76C480.772 368.16 480.926 368.48 481.232 368.72C481.552 368.947 481.986 369.06 482.532 369.06C483.052 369.06 483.519 368.94 483.932 368.7C484.346 368.447 484.646 368.08 484.832 367.6L485.312 369.04C485.086 369.733 484.672 370.26 484.072 370.62C483.472 370.98 482.699 371.16 481.752 371.16ZM490.776 371V356.16H493.896V371H490.776ZM502.676 371V357H505.356L511.316 366.88H509.896L515.756 357H518.416L518.456 371H515.416L515.396 361.66H515.956L511.276 369.52H509.816L505.036 361.66H505.716V371H502.676ZM528.157 371V368.9L527.957 368.44V364.68C527.957 364.013 527.751 363.493 527.337 363.12C526.937 362.747 526.317 362.56 525.477 362.56C524.904 362.56 524.337 362.653 523.777 362.84C523.231 363.013 522.764 363.253 522.377 363.56L521.257 361.38C521.844 360.967 522.551 360.647 523.377 360.42C524.204 360.193 525.044 360.08 525.897 360.08C527.537 360.08 528.811 360.467 529.717 361.24C530.624 362.013 531.077 363.22 531.077 364.86V371H528.157ZM524.877 371.16C524.037 371.16 523.317 371.02 522.717 370.74C522.117 370.447 521.657 370.053 521.337 369.56C521.017 369.067 520.857 368.513 520.857 367.9C520.857 367.26 521.011 366.7 521.317 366.22C521.637 365.74 522.137 365.367 522.817 365.1C523.497 364.82 524.384 364.68 525.477 364.68H528.337V366.5H525.817C525.084 366.5 524.577 366.62 524.297 366.86C524.031 367.1 523.897 367.4 523.897 367.76C523.897 368.16 524.051 368.48 524.357 368.72C524.677 368.947 525.111 369.06 525.657 369.06C526.177 369.06 526.644 368.94 527.057 368.7C527.471 368.447 527.771 368.08 527.957 367.6L528.437 369.04C528.211 369.733 527.797 370.26 527.197 370.62C526.597 370.98 525.824 371.16 524.877 371.16ZM533.901 371V360.24H536.881V363.28L536.461 362.4C536.781 361.64 537.294 361.067 538.001 360.68C538.708 360.28 539.568 360.08 540.581 360.08V362.96C540.448 362.947 540.328 362.94 540.221 362.94C540.114 362.927 540.001 362.92 539.881 362.92C539.028 362.92 538.334 363.167 537.801 363.66C537.281 364.14 537.021 364.893 537.021 365.92V371H533.901ZM545.036 368.8L545.116 365L550.136 360.24H553.856L549.036 365.14L547.416 366.46L545.036 368.8ZM542.456 371V356.16H545.576V371H542.456ZM550.476 371L546.836 366.48L548.796 364.06L554.256 371H550.476ZM560.55 371.16C559.323 371.16 558.243 370.92 557.31 370.44C556.39 369.96 555.676 369.307 555.17 368.48C554.663 367.64 554.41 366.687 554.41 365.62C554.41 364.54 554.656 363.587 555.15 362.76C555.656 361.92 556.343 361.267 557.21 360.8C558.076 360.32 559.056 360.08 560.15 360.08C561.203 360.08 562.15 360.307 562.99 360.76C563.843 361.2 564.516 361.84 565.01 362.68C565.503 363.507 565.75 364.5 565.75 365.66C565.75 365.78 565.743 365.92 565.73 366.08C565.716 366.227 565.703 366.367 565.69 366.5H556.95V364.68H564.05L562.85 365.22C562.85 364.66 562.736 364.173 562.51 363.76C562.283 363.347 561.97 363.027 561.57 362.8C561.17 362.56 560.703 362.44 560.17 362.44C559.636 362.44 559.163 362.56 558.75 362.8C558.35 363.027 558.036 363.353 557.81 363.78C557.583 364.193 557.47 364.687 557.47 365.26V365.74C557.47 366.327 557.596 366.847 557.85 367.3C558.116 367.74 558.483 368.08 558.95 368.32C559.43 368.547 559.99 368.66 560.63 368.66C561.203 368.66 561.703 368.573 562.13 368.4C562.57 368.227 562.97 367.967 563.33 367.62L564.99 369.42C564.496 369.98 563.876 370.413 563.13 370.72C562.383 371.013 561.523 371.16 560.55 371.16ZM572.227 371.16C570.96 371.16 569.973 370.84 569.267 370.2C568.56 369.547 568.207 368.58 568.207 367.3V357.86H571.327V367.26C571.327 367.713 571.447 368.067 571.687 368.32C571.927 368.56 572.253 368.68 572.667 368.68C573.16 368.68 573.58 368.547 573.927 368.28L574.767 370.48C574.447 370.707 574.06 370.88 573.607 371C573.167 371.107 572.707 371.16 572.227 371.16ZM566.547 362.88V360.48H574.007V362.88H566.547ZM582.562 371V360C582.562 358.787 582.922 357.82 583.642 357.1C584.362 356.367 585.389 356 586.722 356C587.176 356 587.609 356.047 588.022 356.14C588.449 356.233 588.809 356.38 589.102 356.58L588.282 358.84C588.109 358.72 587.916 358.627 587.702 358.56C587.489 358.493 587.262 358.46 587.022 358.46C586.569 358.46 586.216 358.593 585.962 358.86C585.722 359.113 585.602 359.5 585.602 360.02V361.02L585.682 362.36V371H582.562ZM580.902 362.88V360.48H588.362V362.88H580.902ZM594.9 371.16C593.753 371.16 592.733 370.92 591.84 370.44C590.96 369.96 590.26 369.307 589.74 368.48C589.233 367.64 588.98 366.687 588.98 365.62C588.98 364.54 589.233 363.587 589.74 362.76C590.26 361.92 590.96 361.267 591.84 360.8C592.733 360.32 593.753 360.08 594.9 360.08C596.033 360.08 597.047 360.32 597.94 360.8C598.833 361.267 599.533 361.913 600.04 362.74C600.547 363.567 600.8 364.527 600.8 365.62C600.8 366.687 600.547 367.64 600.04 368.48C599.533 369.307 598.833 369.96 597.94 370.44C597.047 370.92 596.033 371.16 594.9 371.16ZM594.9 368.6C595.42 368.6 595.887 368.48 596.3 368.24C596.713 368 597.04 367.66 597.28 367.22C597.52 366.767 597.64 366.233 597.64 365.62C597.64 364.993 597.52 364.46 597.28 364.02C597.04 363.58 596.713 363.24 596.3 363C595.887 362.76 595.42 362.64 594.9 362.64C594.38 362.64 593.913 362.76 593.5 363C593.087 363.24 592.753 363.58 592.5 364.02C592.26 364.46 592.14 364.993 592.14 365.62C592.14 366.233 592.26 366.767 592.5 367.22C592.753 367.66 593.087 368 593.5 368.24C593.913 368.48 594.38 368.6 594.9 368.6ZM602.885 371V360.24H605.865V363.28L605.445 362.4C605.765 361.64 606.279 361.067 606.985 360.68C607.692 360.28 608.552 360.08 609.565 360.08V362.96C609.432 362.947 609.312 362.94 609.205 362.94C609.099 362.927 608.985 362.92 608.865 362.92C608.012 362.92 607.319 363.167 606.785 363.66C606.265 364.14 606.005 364.893 606.005 365.92V371H602.885ZM405.967 395V381H412.807C414.567 381 415.887 381.333 416.767 382C417.66 382.667 418.107 383.547 418.107 384.64C418.107 385.373 417.927 386.013 417.567 386.56C417.207 387.093 416.713 387.507 416.087 387.8C415.46 388.093 414.74 388.24 413.927 388.24L414.307 387.42C415.187 387.42 415.967 387.567 416.647 387.86C417.327 388.14 417.853 388.56 418.227 389.12C418.613 389.68 418.807 390.367 418.807 391.18C418.807 392.38 418.333 393.32 417.387 394C416.44 394.667 415.047 395 413.207 395H405.967ZM409.187 392.56H412.967C413.807 392.56 414.44 392.427 414.867 392.16C415.307 391.88 415.527 391.44 415.527 390.84C415.527 390.253 415.307 389.82 414.867 389.54C414.44 389.247 413.807 389.1 412.967 389.1H408.947V386.74H412.407C413.193 386.74 413.793 386.607 414.207 386.34C414.633 386.06 414.847 385.64 414.847 385.08C414.847 384.533 414.633 384.127 414.207 383.86C413.793 383.58 413.193 383.44 412.407 383.44H409.187V392.56ZM425.58 395.16C424.686 395.16 423.886 394.987 423.18 394.64C422.486 394.293 421.946 393.767 421.56 393.06C421.173 392.34 420.98 391.427 420.98 390.32V384.24H424.1V389.86C424.1 390.753 424.286 391.413 424.66 391.84C425.046 392.253 425.586 392.46 426.28 392.46C426.76 392.46 427.186 392.36 427.56 392.16C427.933 391.947 428.226 391.627 428.44 391.2C428.653 390.76 428.76 390.213 428.76 389.56V384.24H431.88V395H428.92V392.04L429.46 392.9C429.1 393.647 428.566 394.213 427.86 394.6C427.166 394.973 426.406 395.16 425.58 395.16ZM434.77 395V384.24H437.89V395H434.77ZM436.33 382.74C435.757 382.74 435.29 382.573 434.93 382.24C434.57 381.907 434.39 381.493 434.39 381C434.39 380.507 434.57 380.093 434.93 379.76C435.29 379.427 435.757 379.26 436.33 379.26C436.903 379.26 437.37 379.42 437.73 379.74C438.09 380.047 438.27 380.447 438.27 380.94C438.27 381.46 438.09 381.893 437.73 382.24C437.383 382.573 436.917 382.74 436.33 382.74ZM440.786 395V380.16H443.906V395H440.786ZM451.421 395.16C450.408 395.16 449.495 394.933 448.681 394.48C447.868 394.013 447.221 393.367 446.741 392.54C446.275 391.713 446.041 390.74 446.041 389.62C446.041 388.487 446.275 387.507 446.741 386.68C447.221 385.853 447.868 385.213 448.681 384.76C449.495 384.307 450.408 384.08 451.421 384.08C452.328 384.08 453.121 384.28 453.801 384.68C454.481 385.08 455.008 385.687 455.381 386.5C455.755 387.313 455.941 388.353 455.941 389.62C455.941 390.873 455.761 391.913 455.401 392.74C455.041 393.553 454.521 394.16 453.841 394.56C453.175 394.96 452.368 395.16 451.421 395.16ZM451.961 392.6C452.468 392.6 452.928 392.48 453.341 392.24C453.755 392 454.081 391.66 454.321 391.22C454.575 390.767 454.701 390.233 454.701 389.62C454.701 388.993 454.575 388.46 454.321 388.02C454.081 387.58 453.755 387.24 453.341 387C452.928 386.76 452.468 386.64 451.961 386.64C451.441 386.64 450.975 386.76 450.561 387C450.148 387.24 449.815 387.58 449.561 388.02C449.321 388.46 449.201 388.993 449.201 389.62C449.201 390.233 449.321 390.767 449.561 391.22C449.815 391.66 450.148 392 450.561 392.24C450.975 392.48 451.441 392.6 451.961 392.6ZM454.781 395V392.8L454.841 389.6L454.641 386.42V380.16H457.761V395H454.781ZM460.649 395V384.24H463.769V395H460.649ZM462.209 382.74C461.636 382.74 461.169 382.573 460.809 382.24C460.449 381.907 460.269 381.493 460.269 381C460.269 380.507 460.449 380.093 460.809 379.76C461.169 379.427 461.636 379.26 462.209 379.26C462.782 379.26 463.249 379.42 463.609 379.74C463.969 380.047 464.149 380.447 464.149 380.94C464.149 381.46 463.969 381.893 463.609 382.24C463.262 382.573 462.796 382.74 462.209 382.74ZM473.205 384.08C474.058 384.08 474.818 384.253 475.485 384.6C476.165 384.933 476.698 385.453 477.085 386.16C477.471 386.853 477.665 387.747 477.665 388.84V395H474.545V389.32C474.545 388.453 474.351 387.813 473.965 387.4C473.591 386.987 473.058 386.78 472.365 386.78C471.871 386.78 471.425 386.887 471.025 387.1C470.638 387.3 470.331 387.613 470.105 388.04C469.891 388.467 469.785 389.013 469.785 389.68V395H466.665V384.24H469.645V387.22L469.085 386.32C469.471 385.6 470.025 385.047 470.745 384.66C471.465 384.273 472.285 384.08 473.205 384.08ZM485.631 399.04C484.618 399.04 483.638 398.913 482.691 398.66C481.758 398.42 480.978 398.053 480.351 397.56L481.591 395.32C482.044 395.693 482.618 395.987 483.311 396.2C484.018 396.427 484.711 396.54 485.391 396.54C486.498 396.54 487.298 396.293 487.791 395.8C488.298 395.307 488.551 394.573 488.551 393.6V391.98L488.751 389.28L488.711 386.56V384.24H491.671V393.2C491.671 395.2 491.151 396.673 490.111 397.62C489.071 398.567 487.578 399.04 485.631 399.04ZM485.151 394.48C484.151 394.48 483.244 394.267 482.431 393.84C481.631 393.4 480.984 392.793 480.491 392.02C480.011 391.233 479.771 390.32 479.771 389.28C479.771 388.227 480.011 387.313 480.491 386.54C480.984 385.753 481.631 385.147 482.431 384.72C483.244 384.293 484.151 384.08 485.151 384.08C486.058 384.08 486.858 384.267 487.551 384.64C488.244 385 488.784 385.567 489.171 386.34C489.558 387.1 489.751 388.08 489.751 389.28C489.751 390.467 489.558 391.447 489.171 392.22C488.784 392.98 488.244 393.547 487.551 393.92C486.858 394.293 486.058 394.48 485.151 394.48ZM485.771 391.92C486.318 391.92 486.804 391.813 487.231 391.6C487.658 391.373 487.991 391.06 488.231 390.66C488.471 390.26 488.591 389.8 488.591 389.28C488.591 388.747 488.471 388.287 488.231 387.9C487.991 387.5 487.658 387.193 487.231 386.98C486.804 386.753 486.318 386.64 485.771 386.64C485.224 386.64 484.738 386.753 484.311 386.98C483.884 387.193 483.544 387.5 483.291 387.9C483.051 388.287 482.931 388.747 482.931 389.28C482.931 389.8 483.051 390.26 483.291 390.66C483.544 391.06 483.884 391.373 484.311 391.6C484.738 391.813 485.224 391.92 485.771 391.92ZM505.359 395.16C504.212 395.16 503.192 394.92 502.299 394.44C501.419 393.96 500.719 393.307 500.199 392.48C499.692 391.64 499.439 390.687 499.439 389.62C499.439 388.54 499.692 387.587 500.199 386.76C500.719 385.92 501.419 385.267 502.299 384.8C503.192 384.32 504.212 384.08 505.359 384.08C506.492 384.08 507.505 384.32 508.399 384.8C509.292 385.267 509.992 385.913 510.499 386.74C511.005 387.567 511.259 388.527 511.259 389.62C511.259 390.687 511.005 391.64 510.499 392.48C509.992 393.307 509.292 393.96 508.399 394.44C507.505 394.92 506.492 395.16 505.359 395.16ZM505.359 392.6C505.879 392.6 506.345 392.48 506.759 392.24C507.172 392 507.499 391.66 507.739 391.22C507.979 390.767 508.099 390.233 508.099 389.62C508.099 388.993 507.979 388.46 507.739 388.02C507.499 387.58 507.172 387.24 506.759 387C506.345 386.76 505.879 386.64 505.359 386.64C504.839 386.64 504.372 386.76 503.959 387C503.545 387.24 503.212 387.58 502.959 388.02C502.719 388.46 502.599 388.993 502.599 389.62C502.599 390.233 502.719 390.767 502.959 391.22C503.212 391.66 503.545 392 503.959 392.24C504.372 392.48 504.839 392.6 505.359 392.6ZM519.884 384.08C520.738 384.08 521.498 384.253 522.164 384.6C522.844 384.933 523.378 385.453 523.764 386.16C524.151 386.853 524.344 387.747 524.344 388.84V395H521.224V389.32C521.224 388.453 521.031 387.813 520.644 387.4C520.271 386.987 519.738 386.78 519.044 386.78C518.551 386.78 518.104 386.887 517.704 387.1C517.318 387.3 517.011 387.613 516.784 388.04C516.571 388.467 516.464 389.013 516.464 389.68V395H513.344V384.24H516.324V387.22L515.764 386.32C516.151 385.6 516.704 385.047 517.424 384.66C518.144 384.273 518.964 384.08 519.884 384.08ZM533.056 395V381H539.896C541.656 381 542.976 381.333 543.856 382C544.75 382.667 545.196 383.547 545.196 384.64C545.196 385.373 545.016 386.013 544.656 386.56C544.296 387.093 543.803 387.507 543.176 387.8C542.55 388.093 541.83 388.24 541.016 388.24L541.396 387.42C542.276 387.42 543.056 387.567 543.736 387.86C544.416 388.14 544.943 388.56 545.316 389.12C545.703 389.68 545.896 390.367 545.896 391.18C545.896 392.38 545.423 393.32 544.476 394C543.53 394.667 542.136 395 540.296 395H533.056ZM536.276 392.56H540.056C540.896 392.56 541.53 392.427 541.956 392.16C542.396 391.88 542.616 391.44 542.616 390.84C542.616 390.253 542.396 389.82 541.956 389.54C541.53 389.247 540.896 389.1 540.056 389.1H536.036V386.74H539.496C540.283 386.74 540.883 386.607 541.296 386.34C541.723 386.06 541.936 385.64 541.936 385.08C541.936 384.533 541.723 384.127 541.296 383.86C540.883 383.58 540.283 383.44 539.496 383.44H536.276V392.56ZM548.129 395V384.24H551.249V395H548.129ZM549.689 382.74C549.116 382.74 548.649 382.573 548.289 382.24C547.929 381.907 547.749 381.493 547.749 381C547.749 380.507 547.929 380.093 548.289 379.76C548.649 379.427 549.116 379.26 549.689 379.26C550.263 379.26 550.729 379.42 551.089 379.74C551.449 380.047 551.629 380.447 551.629 380.94C551.629 381.46 551.449 381.893 551.089 382.24C550.743 382.573 550.276 382.74 549.689 382.74ZM558.545 395.16C557.278 395.16 556.292 394.84 555.585 394.2C554.878 393.547 554.525 392.58 554.525 391.3V381.86H557.645V391.26C557.645 391.713 557.765 392.067 558.005 392.32C558.245 392.56 558.572 392.68 558.985 392.68C559.478 392.68 559.898 392.547 560.245 392.28L561.085 394.48C560.765 394.707 560.378 394.88 559.925 395C559.485 395.107 559.025 395.16 558.545 395.16ZM552.865 386.88V384.48H560.325V386.88H552.865ZM567.704 395.16C566.544 395.16 565.511 394.927 564.604 394.46C563.698 393.98 562.984 393.32 562.464 392.48C561.958 391.64 561.704 390.687 561.704 389.62C561.704 388.54 561.958 387.587 562.464 386.76C562.984 385.92 563.698 385.267 564.604 384.8C565.511 384.32 566.544 384.08 567.704 384.08C568.838 384.08 569.824 384.32 570.664 384.8C571.504 385.267 572.124 385.94 572.524 386.82L570.104 388.12C569.824 387.613 569.471 387.24 569.044 387C568.631 386.76 568.178 386.64 567.684 386.64C567.151 386.64 566.671 386.76 566.244 387C565.818 387.24 565.478 387.58 565.224 388.02C564.984 388.46 564.864 388.993 564.864 389.62C564.864 390.247 564.984 390.78 565.224 391.22C565.478 391.66 565.818 392 566.244 392.24C566.671 392.48 567.151 392.6 567.684 392.6C568.178 392.6 568.631 392.487 569.044 392.26C569.471 392.02 569.824 391.64 570.104 391.12L572.524 392.44C572.124 393.307 571.504 393.98 570.664 394.46C569.824 394.927 568.838 395.16 567.704 395.16ZM579.304 395.16C578.157 395.16 577.137 394.92 576.244 394.44C575.364 393.96 574.664 393.307 574.144 392.48C573.637 391.64 573.384 390.687 573.384 389.62C573.384 388.54 573.637 387.587 574.144 386.76C574.664 385.92 575.364 385.267 576.244 384.8C577.137 384.32 578.157 384.08 579.304 384.08C580.437 384.08 581.451 384.32 582.344 384.8C583.237 385.267 583.937 385.913 584.444 386.74C584.951 387.567 585.204 388.527 585.204 389.62C585.204 390.687 584.951 391.64 584.444 392.48C583.937 393.307 583.237 393.96 582.344 394.44C581.451 394.92 580.437 395.16 579.304 395.16ZM579.304 392.6C579.824 392.6 580.291 392.48 580.704 392.24C581.117 392 581.444 391.66 581.684 391.22C581.924 390.767 582.044 390.233 582.044 389.62C582.044 388.993 581.924 388.46 581.684 388.02C581.444 387.58 581.117 387.24 580.704 387C580.291 386.76 579.824 386.64 579.304 386.64C578.784 386.64 578.317 386.76 577.904 387C577.491 387.24 577.157 387.58 576.904 388.02C576.664 388.46 576.544 388.993 576.544 389.62C576.544 390.233 576.664 390.767 576.904 391.22C577.157 391.66 577.491 392 577.904 392.24C578.317 392.48 578.784 392.6 579.304 392.6ZM587.29 395V384.24H590.41V395H587.29ZM588.85 382.74C588.276 382.74 587.81 382.573 587.45 382.24C587.09 381.907 586.91 381.493 586.91 381C586.91 380.507 587.09 380.093 587.45 379.76C587.81 379.427 588.276 379.26 588.85 379.26C589.423 379.26 589.89 379.42 590.25 379.74C590.61 380.047 590.79 380.447 590.79 380.94C590.79 381.46 590.61 381.893 590.25 382.24C589.903 382.573 589.436 382.74 588.85 382.74ZM599.845 384.08C600.699 384.08 601.459 384.253 602.125 384.6C602.805 384.933 603.339 385.453 603.725 386.16C604.112 386.853 604.305 387.747 604.305 388.84V395H601.185V389.32C601.185 388.453 600.992 387.813 600.605 387.4C600.232 386.987 599.699 386.78 599.005 386.78C598.512 386.78 598.065 386.887 597.665 387.1C597.279 387.3 596.972 387.613 596.745 388.04C596.532 388.467 596.425 389.013 596.425 389.68V395H593.305V384.24H596.285V387.22L595.725 386.32C596.112 385.6 596.665 385.047 597.385 384.66C598.105 384.273 598.925 384.08 599.845 384.08Z" fill="white"/>
    </g>
    <g style="mix-blend-mode:exclusion">
        <path d="M433.608 442.716V426.084H438.252V442.716H433.608ZM427.38 436.596V432.204H444.516V436.596H427.38ZM466.867 451.32V417.48H470.467V451.32H466.867ZM468.163 447.432C466.147 447.432 464.215 447.168 462.367 446.64C460.519 446.088 459.031 445.38 457.903 444.516L459.883 440.124C460.963 440.892 462.235 441.528 463.699 442.032C465.187 442.512 466.687 442.752 468.199 442.752C469.351 442.752 470.275 442.644 470.971 442.428C471.691 442.188 472.219 441.864 472.555 441.456C472.891 441.048 473.059 440.58 473.059 440.052C473.059 439.38 472.795 438.852 472.267 438.468C471.739 438.06 471.043 437.736 470.179 437.496C469.315 437.232 468.355 436.992 467.299 436.776C466.267 436.536 465.223 436.248 464.167 435.912C463.135 435.576 462.187 435.144 461.323 434.616C460.459 434.088 459.751 433.392 459.199 432.528C458.671 431.664 458.407 430.56 458.407 429.216C458.407 427.776 458.791 426.468 459.559 425.292C460.351 424.092 461.527 423.144 463.087 422.448C464.671 421.728 466.651 421.368 469.027 421.368C470.611 421.368 472.171 421.56 473.707 421.944C475.243 422.304 476.599 422.856 477.775 423.6L475.975 428.028C474.799 427.356 473.623 426.864 472.447 426.552C471.271 426.216 470.119 426.048 468.991 426.048C467.863 426.048 466.939 426.18 466.219 426.444C465.499 426.708 464.983 427.056 464.671 427.488C464.359 427.896 464.203 428.376 464.203 428.928C464.203 429.576 464.467 430.104 464.995 430.512C465.523 430.896 466.219 431.208 467.083 431.448C467.947 431.688 468.895 431.928 469.927 432.168C470.983 432.408 472.027 432.684 473.059 432.996C474.115 433.308 475.075 433.728 475.939 434.256C476.803 434.784 477.499 435.48 478.027 436.344C478.579 437.208 478.855 438.3 478.855 439.62C478.855 441.036 478.459 442.332 477.667 443.508C476.875 444.684 475.687 445.632 474.103 446.352C472.543 447.072 470.563 447.432 468.163 447.432ZM489.824 447.432C488.072 447.432 486.332 447.204 484.604 446.748C482.9 446.268 481.436 445.596 480.212 444.732L482.516 440.268C483.476 440.964 484.58 441.516 485.828 441.924C487.1 442.332 488.384 442.536 489.68 442.536C491.144 442.536 492.296 442.248 493.136 441.672C493.976 441.096 494.396 440.292 494.396 439.26C494.396 438.612 494.228 438.036 493.892 437.532C493.556 437.028 492.956 436.644 492.092 436.38C491.252 436.116 490.064 435.984 488.528 435.984H482.084L483.38 421.8H498.752V426.48H485.468L488.492 423.816L487.592 433.932L484.568 431.268H489.896C492.392 431.268 494.396 431.616 495.908 432.312C497.444 432.984 498.56 433.908 499.256 435.084C499.952 436.26 500.3 437.592 500.3 439.08C500.3 440.568 499.928 441.948 499.184 443.22C498.44 444.468 497.288 445.488 495.728 446.28C494.192 447.048 492.224 447.432 489.824 447.432ZM513.466 447.432C511.402 447.432 509.554 446.928 507.922 445.92C506.29 444.888 505.006 443.4 504.07 441.456C503.134 439.512 502.666 437.16 502.666 434.4C502.666 431.64 503.134 429.288 504.07 427.344C505.006 425.4 506.29 423.924 507.922 422.916C509.554 421.884 511.402 421.368 513.466 421.368C515.554 421.368 517.402 421.884 519.01 422.916C520.642 423.924 521.926 425.4 522.862 427.344C523.798 429.288 524.266 431.64 524.266 434.4C524.266 437.16 523.798 439.512 522.862 441.456C521.926 443.4 520.642 444.888 519.01 445.92C517.402 446.928 515.554 447.432 513.466 447.432ZM513.466 442.5C514.45 442.5 515.302 442.224 516.022 441.672C516.766 441.12 517.342 440.244 517.75 439.044C518.182 437.844 518.398 436.296 518.398 434.4C518.398 432.504 518.182 430.956 517.75 429.756C517.342 428.556 516.766 427.68 516.022 427.128C515.302 426.576 514.45 426.3 513.466 426.3C512.506 426.3 511.654 426.576 510.91 427.128C510.19 427.68 509.614 428.556 509.182 429.756C508.774 430.956 508.57 432.504 508.57 434.4C508.57 436.296 508.774 437.844 509.182 439.044C509.614 440.244 510.19 441.12 510.91 441.672C511.654 442.224 512.506 442.5 513.466 442.5ZM537.899 447.432C535.835 447.432 533.987 446.928 532.355 445.92C530.723 444.888 529.439 443.4 528.503 441.456C527.567 439.512 527.099 437.16 527.099 434.4C527.099 431.64 527.567 429.288 528.503 427.344C529.439 425.4 530.723 423.924 532.355 422.916C533.987 421.884 535.835 421.368 537.899 421.368C539.987 421.368 541.835 421.884 543.443 422.916C545.075 423.924 546.359 425.4 547.295 427.344C548.231 429.288 548.699 431.64 548.699 434.4C548.699 437.16 548.231 439.512 547.295 441.456C546.359 443.4 545.075 444.888 543.443 445.92C541.835 446.928 539.987 447.432 537.899 447.432ZM537.899 442.5C538.883 442.5 539.735 442.224 540.455 441.672C541.199 441.12 541.775 440.244 542.183 439.044C542.615 437.844 542.831 436.296 542.831 434.4C542.831 432.504 542.615 430.956 542.183 429.756C541.775 428.556 541.199 427.68 540.455 427.128C539.735 426.576 538.883 426.3 537.899 426.3C536.939 426.3 536.087 426.576 535.343 427.128C534.623 427.68 534.047 428.556 533.615 429.756C533.207 430.956 533.003 432.504 533.003 434.4C533.003 436.296 533.207 437.844 533.615 439.044C534.047 440.244 534.623 441.12 535.343 441.672C536.087 442.224 536.939 442.5 537.899 442.5ZM563.312 447V421.8H575.624C578.792 421.8 581.168 422.4 582.752 423.6C584.36 424.8 585.164 426.384 585.164 428.352C585.164 429.672 584.84 430.824 584.192 431.808C583.544 432.768 582.656 433.512 581.528 434.04C580.4 434.568 579.104 434.832 577.64 434.832L578.324 433.356C579.908 433.356 581.312 433.62 582.536 434.148C583.76 434.652 584.708 435.408 585.38 436.416C586.076 437.424 586.424 438.66 586.424 440.124C586.424 442.284 585.572 443.976 583.868 445.2C582.164 446.4 579.656 447 576.344 447H563.312ZM569.108 442.608H575.912C577.424 442.608 578.564 442.368 579.332 441.888C580.124 441.384 580.52 440.592 580.52 439.512C580.52 438.456 580.124 437.676 579.332 437.172C578.564 436.644 577.424 436.38 575.912 436.38H568.676V432.132H574.904C576.32 432.132 577.4 431.892 578.144 431.412C578.912 430.908 579.296 430.152 579.296 429.144C579.296 428.16 578.912 427.428 578.144 426.948C577.4 426.444 576.32 426.192 574.904 426.192H569.108V442.608Z" fill="white"/>
    </g>
    <path d="M481.1 229V215H487.38C488.993 215 490.233 215.327 491.1 215.98C491.967 216.62 492.4 217.5 492.4 218.62C492.4 219.38 492.227 220.02 491.88 220.54C491.547 221.06 491.093 221.46 490.52 221.74C489.947 222.02 489.327 222.16 488.66 222.16L489.02 221.56C489.82 221.56 490.527 221.7 491.14 221.98C491.753 222.26 492.24 222.673 492.6 223.22C492.96 223.753 493.14 224.42 493.14 225.22C493.14 226.42 492.687 227.353 491.78 228.02C490.887 228.673 489.553 229 487.78 229H481.1ZM483.1 227.38H487.7C488.807 227.38 489.653 227.193 490.24 226.82C490.827 226.447 491.12 225.86 491.12 225.06C491.12 224.247 490.827 223.653 490.24 223.28C489.653 222.907 488.807 222.72 487.7 222.72H482.92V221.1H487.2C488.213 221.1 489 220.913 489.56 220.54C490.12 220.167 490.4 219.607 490.4 218.86C490.4 218.113 490.12 217.553 489.56 217.18C489 216.807 488.213 216.62 487.2 216.62H483.1V227.38ZM498.821 229V216.74H494.021V215H505.601V216.74H500.801V229H498.821ZM513.844 229.16C512.778 229.16 511.791 228.987 510.884 228.64C509.991 228.28 509.211 227.78 508.544 227.14C507.891 226.487 507.378 225.727 507.004 224.86C506.631 223.993 506.444 223.04 506.444 222C506.444 220.96 506.631 220.007 507.004 219.14C507.378 218.273 507.898 217.52 508.564 216.88C509.231 216.227 510.011 215.727 510.904 215.38C511.811 215.02 512.798 214.84 513.864 214.84C514.944 214.84 515.938 215.027 516.844 215.4C517.764 215.76 518.544 216.3 519.184 217.02L517.884 218.28C517.351 217.72 516.751 217.307 516.084 217.04C515.418 216.76 514.704 216.62 513.944 216.62C513.158 216.62 512.424 216.753 511.744 217.02C511.078 217.287 510.498 217.66 510.004 218.14C509.511 218.62 509.124 219.193 508.844 219.86C508.578 220.513 508.444 221.227 508.444 222C508.444 222.773 508.578 223.493 508.844 224.16C509.124 224.813 509.511 225.38 510.004 225.86C510.498 226.34 511.078 226.713 511.744 226.98C512.424 227.247 513.158 227.38 513.944 227.38C514.704 227.38 515.418 227.247 516.084 226.98C516.751 226.7 517.351 226.273 517.884 225.7L519.184 226.96C518.544 227.68 517.764 228.227 516.844 228.6C515.938 228.973 514.938 229.16 513.844 229.16ZM527.409 229V215H529.049L535.329 225.58H534.449L540.649 215H542.289L542.309 229H540.389L540.369 218.02H540.829L535.309 227.3H534.389L528.829 218.02H529.329V229H527.409ZM552.77 229.16C551.703 229.16 550.717 228.987 549.81 228.64C548.917 228.28 548.137 227.78 547.47 227.14C546.817 226.487 546.303 225.727 545.93 224.86C545.557 223.993 545.37 223.04 545.37 222C545.37 220.96 545.557 220.007 545.93 219.14C546.303 218.273 546.823 217.52 547.49 216.88C548.157 216.227 548.937 215.727 549.83 215.38C550.737 215.02 551.723 214.84 552.79 214.84C553.87 214.84 554.863 215.027 555.77 215.4C556.69 215.76 557.47 216.3 558.11 217.02L556.81 218.28C556.277 217.72 555.677 217.307 555.01 217.04C554.343 216.76 553.63 216.62 552.87 216.62C552.083 216.62 551.35 216.753 550.67 217.02C550.003 217.287 549.423 217.66 548.93 218.14C548.437 218.62 548.05 219.193 547.77 219.86C547.503 220.513 547.37 221.227 547.37 222C547.37 222.773 547.503 223.493 547.77 224.16C548.05 224.813 548.437 225.38 548.93 225.86C549.423 226.34 550.003 226.713 550.67 226.98C551.35 227.247 552.083 227.38 552.87 227.38C553.63 227.38 554.343 227.247 555.01 226.98C555.677 226.7 556.277 226.273 556.81 225.7L558.11 226.96C557.47 227.68 556.69 228.227 555.77 228.6C554.863 228.973 553.863 229.16 552.77 229.16ZM558.511 229L564.851 215H566.831L573.191 229H571.091L565.431 216.12H566.231L560.571 229H558.511ZM561.211 225.5L561.751 223.9H569.631L570.211 225.5H561.211ZM575.28 229V215H580.74C581.966 215 583.013 215.193 583.88 215.58C584.746 215.967 585.413 216.527 585.88 217.26C586.346 217.993 586.58 218.867 586.58 219.88C586.58 220.893 586.346 221.767 585.88 222.5C585.413 223.22 584.746 223.78 583.88 224.18C583.013 224.567 581.966 224.76 580.74 224.76H576.38L577.28 223.82V229H575.28ZM577.28 224.02L576.38 223.02H580.68C581.96 223.02 582.926 222.747 583.58 222.2C584.246 221.653 584.58 220.88 584.58 219.88C584.58 218.88 584.246 218.107 583.58 217.56C582.926 217.013 581.96 216.74 580.68 216.74H576.38L577.28 215.74V224.02ZM486.84 247.7C486.36 247.7 485.94 247.6 485.58 247.4C485.22 247.2 484.887 246.973 484.58 246.72C484.287 246.467 484.007 246.247 483.74 246.06C483.473 245.86 483.18 245.76 482.86 245.76C482.433 245.76 482.093 245.92 481.84 246.24C481.587 246.56 481.447 247 481.42 247.56H480.16C480.187 246.44 480.447 245.613 480.94 245.08C481.433 244.547 482.053 244.28 482.8 244.28C483.28 244.28 483.7 244.38 484.06 244.58C484.42 244.78 484.747 245.007 485.04 245.26C485.347 245.513 485.633 245.74 485.9 245.94C486.167 246.127 486.46 246.22 486.78 246.22C487.22 246.22 487.567 246.06 487.82 245.74C488.073 245.407 488.207 244.96 488.22 244.4H489.48C489.453 245.52 489.193 246.353 488.7 246.9C488.22 247.433 487.6 247.7 486.84 247.7ZM501.692 255.4V236.6H502.972V255.4H501.692ZM502.192 253.16C501.125 253.16 500.105 253 499.132 252.68C498.158 252.347 497.392 251.92 496.832 251.4L497.572 249.84C498.105 250.307 498.785 250.693 499.612 251C500.438 251.307 501.298 251.46 502.192 251.46C503.005 251.46 503.665 251.367 504.172 251.18C504.678 250.993 505.052 250.74 505.292 250.42C505.532 250.087 505.652 249.713 505.652 249.3C505.652 248.82 505.492 248.433 505.172 248.14C504.865 247.847 504.458 247.613 503.952 247.44C503.458 247.253 502.912 247.093 502.312 246.96C501.712 246.827 501.105 246.673 500.492 246.5C499.892 246.313 499.338 246.08 498.832 245.8C498.338 245.52 497.938 245.147 497.632 244.68C497.325 244.2 497.172 243.587 497.172 242.84C497.172 242.12 497.358 241.46 497.732 240.86C498.118 240.247 498.705 239.76 499.492 239.4C500.292 239.027 501.305 238.84 502.532 238.84C503.345 238.84 504.152 238.947 504.952 239.16C505.752 239.373 506.445 239.68 507.032 240.08L506.372 241.68C505.772 241.28 505.138 240.993 504.472 240.82C503.805 240.633 503.158 240.54 502.532 240.54C501.745 240.54 501.098 240.64 500.592 240.84C500.085 241.04 499.712 241.307 499.472 241.64C499.245 241.973 499.132 242.347 499.132 242.76C499.132 243.253 499.285 243.647 499.592 243.94C499.912 244.233 500.318 244.467 500.812 244.64C501.318 244.813 501.872 244.973 502.472 245.12C503.072 245.253 503.672 245.407 504.272 245.58C504.885 245.753 505.438 245.98 505.932 246.26C506.438 246.54 506.845 246.913 507.152 247.38C507.458 247.847 507.612 248.447 507.612 249.18C507.612 249.887 507.418 250.547 507.032 251.16C506.645 251.76 506.045 252.247 505.232 252.62C504.432 252.98 503.418 253.16 502.192 253.16ZM511.558 253V239.8L512.418 240.74H508.398V239H513.538V253H511.558ZM518.961 253V239.8L519.821 240.74H515.801V239H520.941V253H518.961ZM528.543 238.84C529.81 238.84 530.876 239.113 531.743 239.66C532.623 240.207 533.29 241 533.743 242.04C534.196 243.067 534.423 244.327 534.423 245.82C534.423 247.407 534.143 248.747 533.583 249.84C533.023 250.933 532.25 251.76 531.263 252.32C530.276 252.88 529.123 253.16 527.803 253.16C527.15 253.16 526.516 253.093 525.903 252.96C525.303 252.827 524.776 252.62 524.323 252.34L525.083 250.78C525.456 251.02 525.87 251.193 526.323 251.3C526.79 251.393 527.276 251.44 527.783 251.44C529.196 251.44 530.323 251 531.163 250.12C532.003 249.227 532.423 247.907 532.423 246.16C532.423 245.88 532.41 245.547 532.383 245.16C532.356 244.773 532.296 244.393 532.203 244.02L532.863 244.7C532.676 245.313 532.363 245.833 531.923 246.26C531.496 246.673 530.976 246.987 530.363 247.2C529.763 247.4 529.103 247.5 528.383 247.5C527.463 247.5 526.643 247.327 525.923 246.98C525.203 246.633 524.636 246.147 524.223 245.52C523.81 244.88 523.603 244.127 523.603 243.26C523.603 242.353 523.816 241.573 524.243 240.92C524.683 240.253 525.276 239.74 526.023 239.38C526.783 239.02 527.623 238.84 528.543 238.84ZM528.623 240.46C528.023 240.46 527.49 240.573 527.023 240.8C526.556 241.027 526.19 241.34 525.923 241.74C525.67 242.14 525.543 242.62 525.543 243.18C525.543 244.007 525.83 244.667 526.403 245.16C526.976 245.64 527.75 245.88 528.723 245.88C529.363 245.88 529.923 245.76 530.403 245.52C530.896 245.28 531.276 244.953 531.543 244.54C531.823 244.127 531.963 243.667 531.963 243.16C531.963 242.667 531.836 242.22 531.583 241.82C531.33 241.42 530.956 241.093 530.463 240.84C529.97 240.587 529.356 240.46 528.623 240.46ZM538.63 253L544.57 239.84L545.09 240.74H536.77L537.77 239.76V243.24H535.85V239H546.41V240.36L540.75 253H538.63ZM554.674 253V239H560.954C562.568 239 563.808 239.327 564.674 239.98C565.541 240.62 565.974 241.5 565.974 242.62C565.974 243.38 565.801 244.02 565.454 244.54C565.121 245.06 564.668 245.46 564.094 245.74C563.521 246.02 562.901 246.16 562.234 246.16L562.594 245.56C563.394 245.56 564.101 245.7 564.714 245.98C565.328 246.26 565.814 246.673 566.174 247.22C566.534 247.753 566.714 248.42 566.714 249.22C566.714 250.42 566.261 251.353 565.354 252.02C564.461 252.673 563.128 253 561.354 253H554.674ZM556.674 251.38H561.274C562.381 251.38 563.228 251.193 563.814 250.82C564.401 250.447 564.694 249.86 564.694 249.06C564.694 248.247 564.401 247.653 563.814 247.28C563.228 246.907 562.381 246.72 561.274 246.72H556.494V245.1H560.774C561.788 245.1 562.574 244.913 563.134 244.54C563.694 244.167 563.974 243.607 563.974 242.86C563.974 242.113 563.694 241.553 563.134 241.18C562.574 240.807 561.788 240.62 560.774 240.62H556.674V251.38Z" fill="black"/>
    <path d="M208.589 434.56C208.109 434.56 207.689 434.46 207.329 434.26C206.982 434.047 206.662 433.807 206.369 433.54C206.075 433.273 205.789 433.04 205.509 432.84C205.229 432.64 204.915 432.54 204.569 432.54C204.102 432.54 203.729 432.713 203.449 433.06C203.182 433.393 203.035 433.853 203.009 434.44H202.049C202.075 433.44 202.315 432.687 202.769 432.18C203.235 431.673 203.822 431.42 204.529 431.42C205.009 431.42 205.422 431.527 205.769 431.74C206.129 431.94 206.449 432.173 206.729 432.44C207.022 432.707 207.309 432.947 207.589 433.16C207.882 433.36 208.202 433.46 208.549 433.46C209.015 433.46 209.389 433.287 209.669 432.94C209.949 432.58 210.095 432.113 210.109 431.54H211.069C211.042 432.54 210.802 433.293 210.349 433.8C209.895 434.307 209.309 434.56 208.589 434.56ZM223.267 442.4V423.6H224.267V442.4H223.267ZM223.687 440.12C222.647 440.12 221.647 439.953 220.687 439.62C219.74 439.273 219.007 438.833 218.487 438.3L219.067 437.16C219.56 437.64 220.22 438.047 221.047 438.38C221.887 438.7 222.767 438.86 223.687 438.86C224.567 438.86 225.28 438.753 225.827 438.54C226.387 438.313 226.794 438.013 227.047 437.64C227.314 437.267 227.447 436.853 227.447 436.4C227.447 435.853 227.287 435.413 226.967 435.08C226.66 434.747 226.254 434.487 225.747 434.3C225.24 434.1 224.68 433.927 224.067 433.78C223.454 433.633 222.84 433.48 222.227 433.32C221.614 433.147 221.047 432.92 220.527 432.64C220.02 432.36 219.607 431.993 219.287 431.54C218.98 431.073 218.827 430.467 218.827 429.72C218.827 429.027 219.007 428.393 219.367 427.82C219.74 427.233 220.307 426.767 221.067 426.42C221.827 426.06 222.8 425.88 223.987 425.88C224.774 425.88 225.554 425.993 226.327 426.22C227.1 426.433 227.767 426.733 228.327 427.12L227.827 428.3C227.227 427.9 226.587 427.607 225.907 427.42C225.24 427.233 224.594 427.14 223.967 427.14C223.127 427.14 222.434 427.253 221.887 427.48C221.34 427.707 220.934 428.013 220.667 428.4C220.414 428.773 220.287 429.2 220.287 429.68C220.287 430.227 220.44 430.667 220.747 431C221.067 431.333 221.48 431.593 221.987 431.78C222.507 431.967 223.074 432.133 223.687 432.28C224.3 432.427 224.907 432.587 225.507 432.76C226.12 432.933 226.68 433.16 227.187 433.44C227.707 433.707 228.12 434.067 228.427 434.52C228.747 434.973 228.907 435.567 228.907 436.3C228.907 436.98 228.72 437.613 228.347 438.2C227.974 438.773 227.4 439.24 226.627 439.6C225.867 439.947 224.887 440.12 223.687 440.12ZM233.136 440V426.6L233.776 427.28H229.836V426H234.576V440H233.136ZM243.503 440.12C242.423 440.12 241.463 439.84 240.623 439.28C239.783 438.707 239.123 437.893 238.643 436.84C238.163 435.773 237.923 434.493 237.923 433C237.923 431.507 238.163 430.233 238.643 429.18C239.123 428.113 239.783 427.3 240.623 426.74C241.463 426.167 242.423 425.88 243.503 425.88C244.583 425.88 245.543 426.167 246.383 426.74C247.223 427.3 247.883 428.113 248.363 429.18C248.856 430.233 249.103 431.507 249.103 433C249.103 434.493 248.856 435.773 248.363 436.84C247.883 437.893 247.223 438.707 246.383 439.28C245.543 439.84 244.583 440.12 243.503 440.12ZM243.503 438.8C244.329 438.8 245.049 438.58 245.663 438.14C246.276 437.687 246.756 437.033 247.103 436.18C247.449 435.313 247.623 434.253 247.623 433C247.623 431.747 247.449 430.693 247.103 429.84C246.756 428.973 246.276 428.32 245.663 427.88C245.049 427.427 244.329 427.2 243.503 427.2C242.703 427.2 241.989 427.427 241.363 427.88C240.736 428.32 240.249 428.973 239.903 429.84C239.556 430.693 239.383 431.747 239.383 433C239.383 434.253 239.556 435.313 239.903 436.18C240.249 437.033 240.736 437.687 241.363 438.14C241.989 438.58 242.703 438.8 243.503 438.8ZM256.485 440.12C255.365 440.12 254.398 439.96 253.585 439.64C252.785 439.32 252.165 438.86 251.725 438.26C251.298 437.647 251.085 436.927 251.085 436.1C251.085 435.3 251.292 434.62 251.705 434.06C252.132 433.487 252.745 433.047 253.545 432.74C254.358 432.433 255.338 432.28 256.485 432.28C257.618 432.28 258.592 432.433 259.405 432.74C260.218 433.047 260.838 433.487 261.265 434.06C261.705 434.62 261.925 435.3 261.925 436.1C261.925 436.927 261.705 437.647 261.265 438.26C260.825 438.86 260.198 439.32 259.385 439.64C258.572 439.96 257.605 440.12 256.485 440.12ZM256.485 438.9C257.725 438.9 258.692 438.647 259.385 438.14C260.092 437.633 260.445 436.947 260.445 436.08C260.445 435.213 260.092 434.533 259.385 434.04C258.692 433.533 257.725 433.28 256.485 433.28C255.245 433.28 254.278 433.533 253.585 434.04C252.892 434.533 252.545 435.213 252.545 436.08C252.545 436.947 252.892 437.633 253.585 438.14C254.278 438.647 255.245 438.9 256.485 438.9ZM256.485 433.1C255.445 433.1 254.558 432.96 253.825 432.68C253.105 432.4 252.552 432 252.165 431.48C251.778 430.947 251.585 430.313 251.585 429.58C251.585 428.807 251.785 428.147 252.185 427.6C252.598 427.04 253.172 426.613 253.905 426.32C254.638 426.027 255.498 425.88 256.485 425.88C257.472 425.88 258.332 426.027 259.065 426.32C259.812 426.613 260.392 427.04 260.805 427.6C261.218 428.147 261.425 428.807 261.425 429.58C261.425 430.313 261.232 430.947 260.845 431.48C260.458 432 259.892 432.4 259.145 432.68C258.412 432.96 257.525 433.1 256.485 433.1ZM256.485 432.14C257.578 432.14 258.432 431.913 259.045 431.46C259.658 431.007 259.965 430.4 259.965 429.64C259.965 428.84 259.645 428.22 259.005 427.78C258.378 427.327 257.538 427.1 256.485 427.1C255.432 427.1 254.592 427.327 253.965 427.78C253.338 428.22 253.025 428.833 253.025 429.62C253.025 430.393 253.325 431.007 253.925 431.46C254.538 431.913 255.392 432.14 256.485 432.14ZM270.393 440V426H276.433C277.993 426 279.2 426.313 280.053 426.94C280.92 427.567 281.353 428.453 281.353 429.6C281.353 430.36 281.173 431 280.813 431.52C280.467 432.04 279.987 432.433 279.373 432.7C278.773 432.967 278.113 433.1 277.393 433.1L277.733 432.62C278.627 432.62 279.393 432.76 280.033 433.04C280.687 433.307 281.193 433.713 281.553 434.26C281.913 434.793 282.093 435.46 282.093 436.26C282.093 437.447 281.653 438.367 280.773 439.02C279.907 439.673 278.593 440 276.833 440H270.393ZM271.873 438.78H276.813C278.04 438.78 278.98 438.573 279.633 438.16C280.287 437.733 280.613 437.06 280.613 436.14C280.613 435.233 280.287 434.573 279.633 434.16C278.98 433.733 278.04 433.52 276.813 433.52H271.713V432.3H276.333C277.453 432.3 278.32 432.087 278.933 431.66C279.56 431.233 279.873 430.6 279.873 429.76C279.873 428.907 279.56 428.273 278.933 427.86C278.32 427.433 277.453 427.22 276.333 427.22H271.873V438.78Z" fill="white"/>
    <path d="M106 346.523L108.849 357.416L114.758 364.524L123.938 387.103L137.054 393.792L146.97 420.968L162.226 432.676L169.188 447.729L173.736 450.236L179.359 438.946L186.593 399.644L201.576 387.517L203.183 369.124L208.203 367.031L209.581 359.086L217.674 346.523H106Z" fill="#1A80F7"/>
    <path opacity="0.2" d="M106 346.523L108.849 357.416L114.758 364.524L123.938 387.103L137.054 393.792L146.97 420.968L162.226 432.676L169.188 447.729L173.736 450.236L179.359 438.946L186.593 399.644L201.576 387.517L203.183 369.124L208.203 367.031L209.581 359.086L217.674 346.523H106Z" fill="white"/>
    <path d="M177.646 404.699L173.736 450.232L169.183 447.724L162.226 432.676L146.97 420.968L137.054 393.792L123.938 387.103L114.758 364.524L108.849 357.412L106 346.523H142.325L172.732 367.423L165.868 387.993L177.646 404.699Z" fill="#1A80F7"/>
    <path opacity="0.1" d="M108.849 357.412L140.075 355.142L172.732 367.423L142.325 346.523H106L108.849 357.412Z" fill="black"/>
    <path opacity="0.1" d="M165.868 387.993L167.215 403.897L175.849 425.599L177.646 404.699L165.868 387.993Z" fill="black"/>
    <path d="M203.186 369.125L193.38 373.372L186.595 399.644L197.955 383.093L203.186 369.125Z" fill="#1A80F7"/>
    <path d="M209.582 359.086L186.946 351.679L208.204 367.031L209.582 359.086Z" fill="#1A80F7"/>
    <path opacity="0.1" d="M146.97 420.968L165.873 427.194L162.227 432.676L146.97 420.968Z" fill="black"/>
    <path opacity="0.3" d="M169.183 447.725L165.872 427.194L162.226 432.676L169.183 447.725Z" fill="white"/>
    <path opacity="0.1" d="M137.05 393.792L143.923 386.226L114.753 364.524L123.933 387.103L137.05 393.792Z" fill="black"/>
    <path d="M165.871 387.993L155.185 384.993L167.597 382.82L179.252 386.923L165.871 387.993Z" fill="#1A80F7"/>
    <path opacity="0.2" d="M165.871 387.993L155.185 384.993L167.597 382.82L179.252 386.923L165.871 387.993Z" fill="white"/>
    <path d="M155.185 384.993L167.597 382.82L179.252 386.923" fill="#1A80F7"/>
    <path opacity="0.1" d="M108.849 357.412L142.325 346.523H106L108.849 357.412Z" fill="black"/>
    <path opacity="0.1" d="M167.215 403.897L177.646 404.699L165.868 387.993L167.215 403.897Z" fill="black"/>
    <path opacity="0.3" d="M186.946 351.679L193.379 373.372L208.204 367.031L186.946 351.679Z" fill="white"/>
    <path d="M142.325 346.523L154.332 350.083L176.919 346.523H142.325Z" fill="#1A80F7"/>
    <path d="M119.839 346.523H217.674L212.989 341.103L211.118 335.101L194.628 324.354L186.945 319.141L177.232 316.091L168.655 299.716L153.557 289.551L146.627 275L136.9 281.13L126.8 303.656L118.826 309.821L117.245 319.458L110.456 332.255L113.578 339.843L109.188 343.95L106 346.523H119.839Z" fill="#1A80F7"/>
    <path opacity="0.7" d="M119.839 346.523H217.674L212.989 341.103L211.118 335.101L194.628 324.354L186.945 319.141L177.232 316.091L168.655 299.716L153.557 289.551L146.627 275L136.9 281.13L126.8 303.656L118.826 309.821L117.245 319.458L110.456 332.255L113.578 339.843L109.188 343.95L106 346.523H119.839Z" fill="white"/>
    <path opacity="0.4" d="M172.732 346.523H106L113.582 339.838L110.456 332.259L117.245 319.458L118.826 309.821L126.8 303.656L136.896 281.13L146.627 275L137.693 301.541L141.708 309.208L137.693 319.022L143.289 326.35L160.694 331.761L161.839 339.318L172.732 346.523Z" fill="#1A80F7"/>
    <path d="M132.294 303.202L138.371 299.549L146.503 299.373L138.313 302.713L132.294 303.202Z" fill="#1A80F7"/>
    <path opacity="0.7" d="M132.294 303.202L138.371 299.549L146.503 299.373L138.313 302.713L132.294 303.202Z" fill="white"/>
    <path opacity="0.4" d="M132.294 303.202L146.503 299.373L138.313 302.713L132.294 303.202Z" fill="#1A80F7"/>
    <path opacity="0.7" d="M143.928 346.523L113.582 339.838L106 346.523H143.928Z" fill="#1A80F7"/>
    <path opacity="0.7" d="M177.232 316.091L165.872 325.336L186.945 319.141L177.232 316.091Z" fill="white"/>
    <path opacity="0.4" d="M212.99 341.103L198.239 339.146L183.423 346.523H217.674L212.99 341.103Z" fill="#1A80F7"/>
    <path opacity="0.7" d="M153.562 289.551L141.713 309.208L168.66 299.717L153.562 289.551Z" fill="white"/>
    <path opacity="0.5" d="M146.505 307.52L147.619 314.086L155.188 322.344L149.38 313.368L149.741 306.384L146.505 307.52Z" fill="#1A80F7"/>
    <path opacity="0.7" d="M118.824 309.821L131.086 323.508L132.288 339.147L110.454 332.259L117.243 319.458L118.824 309.821Z" fill="#1A80F7"/>
    <path opacity="0.7" d="M126.796 303.656L137.931 289.982L136.892 281.13L126.796 303.656Z" fill="#1A80F7"/>
    <path opacity="0.7" d="M161.843 339.318L160.698 331.761L150.355 337.432L143.931 346.523L161.843 339.318Z" fill="#1A80F7"/>
    <path opacity="0.7" d="M198.236 339.147L211.115 335.101L212.991 341.099L198.236 339.147Z" fill="white"/>
    <path opacity="0.4" d="M165.872 325.336L174.22 326.575L186.945 319.141L165.872 325.336Z" fill="#1A80F7"/>
    <path d="M117.244 319.458L131.087 323.508L118.825 309.821L117.244 319.458Z" fill="#1A80F7"/>
    <path d="M143.931 346.523L160.698 331.761L150.355 337.432L143.931 346.523Z" fill="#1A80F7"/>
    <g style="mix-blend-mode:exclusion">
        <path d="M134.164 366V353.28H129.244V352H140.564V353.28H135.644V366H134.164ZM146.811 366L140.611 352H142.211L148.011 365.18H147.131L152.971 352H154.471L148.271 366H146.811ZM156.503 366V352H157.983V364.72H165.823V366H156.503ZM118.788 390V376H120.008L129.668 388.16H129.028V376H130.488V390H129.268L119.628 377.84H120.268V390H118.788ZM136.377 382.78H143.777V384.06H136.377V382.78ZM136.537 390H135.057V376H144.657V377.28H136.537V390ZM150.531 390V377.28H145.611V376H156.931V377.28H152.011V390H150.531ZM161.034 390.1C160.168 390.1 159.348 389.98 158.574 389.74C157.801 389.487 157.194 389.173 156.754 388.8L157.394 387.68C157.821 388 158.368 388.28 159.034 388.52C159.701 388.747 160.401 388.86 161.134 388.86C162.134 388.86 162.854 388.707 163.294 388.4C163.734 388.08 163.954 387.66 163.954 387.14C163.954 386.753 163.828 386.453 163.574 386.24C163.334 386.013 163.014 385.847 162.614 385.74C162.214 385.62 161.768 385.52 161.274 385.44C160.781 385.36 160.288 385.267 159.794 385.16C159.314 385.053 158.874 384.9 158.474 384.7C158.074 384.487 157.748 384.2 157.494 383.84C157.254 383.48 157.134 383 157.134 382.4C157.134 381.827 157.294 381.313 157.614 380.86C157.934 380.407 158.401 380.053 159.014 379.8C159.641 379.533 160.401 379.4 161.294 379.4C161.974 379.4 162.654 379.493 163.334 379.68C164.014 379.853 164.574 380.087 165.014 380.38L164.394 381.52C163.928 381.2 163.428 380.973 162.894 380.84C162.361 380.693 161.828 380.62 161.294 380.62C160.348 380.62 159.648 380.787 159.194 381.12C158.754 381.44 158.534 381.853 158.534 382.36C158.534 382.76 158.654 383.073 158.894 383.3C159.148 383.527 159.474 383.707 159.874 383.84C160.288 383.96 160.734 384.06 161.214 384.14C161.708 384.22 162.194 384.32 162.674 384.44C163.168 384.547 163.614 384.7 164.014 384.9C164.428 385.087 164.754 385.36 164.994 385.72C165.248 386.067 165.374 386.527 165.374 387.1C165.374 387.713 165.201 388.247 164.854 388.7C164.521 389.14 164.028 389.487 163.374 389.74C162.734 389.98 161.954 390.1 161.034 390.1ZM107.394 414.1C106.394 414.1 105.494 413.873 104.694 413.42C103.908 412.967 103.288 412.34 102.834 411.54C102.381 410.727 102.154 409.793 102.154 408.74C102.154 407.673 102.381 406.74 102.834 405.94C103.288 405.14 103.908 404.52 104.694 404.08C105.494 403.627 106.394 403.4 107.394 403.4C108.314 403.4 109.134 403.607 109.854 404.02C110.588 404.433 111.168 405.04 111.594 405.84C112.034 406.627 112.254 407.593 112.254 408.74C112.254 409.873 112.041 410.84 111.614 411.64C111.188 412.44 110.608 413.053 109.874 413.48C109.154 413.893 108.328 414.1 107.394 414.1ZM107.494 412.84C108.241 412.84 108.908 412.673 109.494 412.34C110.094 411.993 110.561 411.513 110.894 410.9C111.241 410.273 111.414 409.553 111.414 408.74C111.414 407.913 111.241 407.193 110.894 406.58C110.561 405.967 110.094 405.493 109.494 405.16C108.908 404.813 108.241 404.64 107.494 404.64C106.761 404.64 106.101 404.813 105.514 405.16C104.928 405.493 104.461 405.967 104.114 406.58C103.768 407.193 103.594 407.913 103.594 408.74C103.594 409.553 103.768 410.273 104.114 410.9C104.461 411.513 104.928 411.993 105.514 412.34C106.101 412.673 106.761 412.84 107.494 412.84ZM111.454 414V410.84L111.594 408.72L111.394 406.6V399.16H112.814V414H111.454ZM114.829 414L121.229 400H122.689L129.089 414H127.529L121.649 400.86H122.249L116.369 414H114.829ZM117.349 410.26L117.789 409.06H125.929L126.369 410.26H117.349ZM136.525 414.1C135.618 414.1 134.798 413.893 134.065 413.48C133.332 413.053 132.745 412.447 132.305 411.66C131.878 410.86 131.665 409.887 131.665 408.74C131.665 407.593 131.878 406.627 132.305 405.84C132.732 405.04 133.312 404.433 134.045 404.02C134.778 403.607 135.605 403.4 136.525 403.4C137.525 403.4 138.418 403.627 139.205 404.08C140.005 404.52 140.632 405.147 141.085 405.96C141.538 406.76 141.765 407.687 141.765 408.74C141.765 409.807 141.538 410.74 141.085 411.54C140.632 412.34 140.005 412.967 139.205 413.42C138.418 413.873 137.525 414.1 136.525 414.1ZM131.105 417.88V403.5H132.465V406.66L132.325 408.76L132.525 410.88V417.88H131.105ZM136.425 412.84C137.172 412.84 137.838 412.673 138.425 412.34C139.012 411.993 139.478 411.513 139.825 410.9C140.172 410.273 140.345 409.553 140.345 408.74C140.345 407.927 140.172 407.213 139.825 406.6C139.478 405.987 139.012 405.507 138.425 405.16C137.838 404.813 137.172 404.64 136.425 404.64C135.678 404.64 135.005 404.813 134.405 405.16C133.818 405.507 133.352 405.987 133.005 406.6C132.672 407.213 132.505 407.927 132.505 408.74C132.505 409.553 132.672 410.273 133.005 410.9C133.352 411.513 133.818 411.993 134.405 412.34C135.005 412.673 135.678 412.84 136.425 412.84ZM150.08 414.1C149.173 414.1 148.353 413.893 147.62 413.48C146.886 413.053 146.3 412.447 145.86 411.66C145.433 410.86 145.22 409.887 145.22 408.74C145.22 407.593 145.433 406.627 145.86 405.84C146.286 405.04 146.866 404.433 147.6 404.02C148.333 403.607 149.16 403.4 150.08 403.4C151.08 403.4 151.973 403.627 152.76 404.08C153.56 404.52 154.186 405.147 154.64 405.96C155.093 406.76 155.32 407.687 155.32 408.74C155.32 409.807 155.093 410.74 154.64 411.54C154.186 412.34 153.56 412.967 152.76 413.42C151.973 413.873 151.08 414.1 150.08 414.1ZM144.66 417.88V403.5H146.02V406.66L145.88 408.76L146.08 410.88V417.88H144.66ZM149.98 412.84C150.726 412.84 151.393 412.673 151.98 412.34C152.566 411.993 153.033 411.513 153.38 410.9C153.726 410.273 153.9 409.553 153.9 408.74C153.9 407.927 153.726 407.213 153.38 406.6C153.033 405.987 152.566 405.507 151.98 405.16C151.393 404.813 150.726 404.64 149.98 404.64C149.233 404.64 148.56 404.813 147.96 405.16C147.373 405.507 146.906 405.987 146.56 406.6C146.226 407.213 146.06 407.927 146.06 408.74C146.06 409.553 146.226 410.273 146.56 410.9C146.906 411.513 147.373 411.993 147.96 412.34C148.56 412.673 149.233 412.84 149.98 412.84ZM161.034 414.1C160.168 414.1 159.348 413.98 158.574 413.74C157.801 413.487 157.194 413.173 156.754 412.8L157.394 411.68C157.821 412 158.368 412.28 159.034 412.52C159.701 412.747 160.401 412.86 161.134 412.86C162.134 412.86 162.854 412.707 163.294 412.4C163.734 412.08 163.954 411.66 163.954 411.14C163.954 410.753 163.828 410.453 163.574 410.24C163.334 410.013 163.014 409.847 162.614 409.74C162.214 409.62 161.768 409.52 161.274 409.44C160.781 409.36 160.288 409.267 159.794 409.16C159.314 409.053 158.874 408.9 158.474 408.7C158.074 408.487 157.748 408.2 157.494 407.84C157.254 407.48 157.134 407 157.134 406.4C157.134 405.827 157.294 405.313 157.614 404.86C157.934 404.407 158.401 404.053 159.014 403.8C159.641 403.533 160.401 403.4 161.294 403.4C161.974 403.4 162.654 403.493 163.334 403.68C164.014 403.853 164.574 404.087 165.014 404.38L164.394 405.52C163.928 405.2 163.428 404.973 162.894 404.84C162.361 404.693 161.828 404.62 161.294 404.62C160.348 404.62 159.648 404.787 159.194 405.12C158.754 405.44 158.534 405.853 158.534 406.36C158.534 406.76 158.654 407.073 158.894 407.3C159.148 407.527 159.474 407.707 159.874 407.84C160.288 407.96 160.734 408.06 161.214 408.14C161.708 408.22 162.194 408.32 162.674 408.44C163.168 408.547 163.614 408.7 164.014 408.9C164.428 409.087 164.754 409.36 164.994 409.72C165.248 410.067 165.374 410.527 165.374 411.1C165.374 411.713 165.201 412.247 164.854 412.7C164.521 413.14 164.028 413.487 163.374 413.74C162.734 413.98 161.954 414.1 161.034 414.1ZM127.499 438V424H133.199C134.692 424 135.999 424.3 137.119 424.9C138.252 425.487 139.132 426.307 139.759 427.36C140.385 428.413 140.699 429.627 140.699 431C140.699 432.373 140.385 433.587 139.759 434.64C139.132 435.693 138.252 436.52 137.119 437.12C135.999 437.707 134.692 438 133.199 438H127.499ZM128.979 436.72H133.119C134.359 436.72 135.432 436.48 136.339 436C137.259 435.507 137.972 434.833 138.479 433.98C138.985 433.113 139.239 432.12 139.239 431C139.239 429.867 138.985 428.873 138.479 428.02C137.972 427.167 137.259 426.5 136.339 426.02C135.432 425.527 134.359 425.28 133.119 425.28H128.979V436.72ZM148.182 438.1C147.089 438.1 146.129 437.873 145.302 437.42C144.476 436.953 143.829 436.32 143.362 435.52C142.896 434.707 142.662 433.78 142.662 432.74C142.662 431.7 142.882 430.78 143.322 429.98C143.776 429.18 144.389 428.553 145.162 428.1C145.949 427.633 146.829 427.4 147.802 427.4C148.789 427.4 149.662 427.627 150.422 428.08C151.196 428.52 151.802 429.147 152.242 429.96C152.682 430.76 152.902 431.687 152.902 432.74C152.902 432.807 152.896 432.88 152.882 432.96C152.882 433.027 152.882 433.1 152.882 433.18H143.742V432.12H152.122L151.562 432.54C151.562 431.78 151.396 431.107 151.062 430.52C150.742 429.92 150.302 429.453 149.742 429.12C149.182 428.787 148.536 428.62 147.802 428.62C147.082 428.62 146.436 428.787 145.862 429.12C145.289 429.453 144.842 429.92 144.522 430.52C144.202 431.12 144.042 431.807 144.042 432.58V432.8C144.042 433.6 144.216 434.307 144.562 434.92C144.922 435.52 145.416 435.993 146.042 436.34C146.682 436.673 147.409 436.84 148.222 436.84C148.862 436.84 149.456 436.727 150.002 436.5C150.562 436.273 151.042 435.927 151.442 435.46L152.242 436.38C151.776 436.94 151.189 437.367 150.482 437.66C149.789 437.953 149.022 438.1 148.182 438.1ZM156.033 438V426.18C156.033 425.247 156.306 424.493 156.853 423.92C157.399 423.347 158.186 423.06 159.213 423.06C159.613 423.06 159.999 423.113 160.373 423.22C160.746 423.327 161.059 423.493 161.313 423.72L160.833 424.78C160.633 424.607 160.399 424.48 160.133 424.4C159.866 424.307 159.579 424.26 159.273 424.26C158.673 424.26 158.213 424.427 157.893 424.76C157.573 425.093 157.413 425.587 157.413 426.24V427.84L157.453 428.5V438H156.033ZM154.153 428.68V427.5H160.653V428.68H154.153ZM162.573 438V427.5H163.993V438H162.573ZM163.293 425.18C162.999 425.18 162.753 425.08 162.553 424.88C162.353 424.68 162.253 424.44 162.253 424.16C162.253 423.88 162.353 423.647 162.553 423.46C162.753 423.26 162.999 423.16 163.293 423.16C163.586 423.16 163.833 423.253 164.033 423.44C164.233 423.627 164.333 423.86 164.333 424.14C164.333 424.433 164.233 424.68 164.033 424.88C163.846 425.08 163.599 425.18 163.293 425.18Z" fill="white"/>
    </g>
    <path d="M34.992 54V37.2H38.208L45.36 49.056H43.656L50.688 37.2H53.88L53.928 54H50.28L50.256 42.792H50.928L45.312 52.224H43.56L37.824 42.792H38.64V54H34.992ZM65.5699 54V51.48L65.3299 50.928V46.416C65.3299 45.616 65.0819 44.992 64.5859 44.544C64.1059 44.096 63.3619 43.872 62.3539 43.872C61.6659 43.872 60.9859 43.984 60.3139 44.208C59.6579 44.416 59.0979 44.704 58.6339 45.072L57.2899 42.456C57.9939 41.96 58.8419 41.576 59.8339 41.304C60.8259 41.032 61.8339 40.896 62.8579 40.896C64.8259 40.896 66.3539 41.36 67.4419 42.288C68.5299 43.216 69.0739 44.664 69.0739 46.632V54H65.5699ZM61.6339 54.192C60.6259 54.192 59.7619 54.024 59.0419 53.688C58.3219 53.336 57.7699 52.864 57.3859 52.272C57.0019 51.68 56.8099 51.016 56.8099 50.28C56.8099 49.512 56.9939 48.84 57.3619 48.264C57.7459 47.688 58.3459 47.24 59.1619 46.92C59.9779 46.584 61.0419 46.416 62.3539 46.416H65.7859V48.6H62.7619C61.8819 48.6 61.2739 48.744 60.9379 49.032C60.6179 49.32 60.4579 49.68 60.4579 50.112C60.4579 50.592 60.6419 50.976 61.0099 51.264C61.3939 51.536 61.9139 51.672 62.5699 51.672C63.1939 51.672 63.7539 51.528 64.2499 51.24C64.7459 50.936 65.1059 50.496 65.3299 49.92L65.9059 51.648C65.6339 52.48 65.1379 53.112 64.4179 53.544C63.6979 53.976 62.7699 54.192 61.6339 54.192ZM72.4624 54V41.088H76.0384V44.736L75.5344 43.68C75.9184 42.768 76.5344 42.08 77.3824 41.616C78.2304 41.136 79.2624 40.896 80.4784 40.896V44.352C80.3184 44.336 80.1744 44.328 80.0464 44.328C79.9184 44.312 79.7824 44.304 79.6384 44.304C78.6144 44.304 77.7824 44.6 77.1424 45.192C76.5184 45.768 76.2064 46.672 76.2064 47.904V54H72.4624ZM85.824 51.36L85.92 46.8L91.944 41.088H96.408L90.624 46.968L88.68 48.552L85.824 51.36ZM82.728 54V36.192H86.472V54H82.728ZM92.352 54L87.984 48.576L90.336 45.672L96.888 54H92.352ZM104.441 54.192C102.969 54.192 101.673 53.904 100.553 53.328C99.4487 52.752 98.5927 51.968 97.9847 50.976C97.3767 49.968 97.0727 48.824 97.0727 47.544C97.0727 46.248 97.3687 45.104 97.9607 44.112C98.5687 43.104 99.3927 42.32 100.433 41.76C101.473 41.184 102.649 40.896 103.961 40.896C105.225 40.896 106.361 41.168 107.369 41.712C108.393 42.24 109.201 43.008 109.793 44.016C110.385 45.008 110.681 46.2 110.681 47.592C110.681 47.736 110.673 47.904 110.657 48.096C110.641 48.272 110.625 48.44 110.609 48.6H100.121V46.416H108.641L107.201 47.064C107.201 46.392 107.065 45.808 106.793 45.312C106.521 44.816 106.145 44.432 105.665 44.16C105.185 43.872 104.625 43.728 103.985 43.728C103.345 43.728 102.777 43.872 102.281 44.16C101.801 44.432 101.425 44.824 101.153 45.336C100.881 45.832 100.745 46.424 100.745 47.112V47.688C100.745 48.392 100.897 49.016 101.201 49.56C101.521 50.088 101.961 50.496 102.521 50.784C103.097 51.056 103.769 51.192 104.537 51.192C105.225 51.192 105.825 51.088 106.337 50.88C106.865 50.672 107.345 50.36 107.777 49.944L109.769 52.104C109.177 52.776 108.433 53.296 107.537 53.664C106.641 54.016 105.609 54.192 104.441 54.192ZM118.453 54.192C116.933 54.192 115.749 53.808 114.901 53.04C114.053 52.256 113.629 51.096 113.629 49.56V38.232H117.373V49.512C117.373 50.056 117.517 50.48 117.805 50.784C118.093 51.072 118.485 51.216 118.981 51.216C119.573 51.216 120.077 51.056 120.493 50.736L121.501 53.376C121.117 53.648 120.653 53.856 120.109 54C119.581 54.128 119.029 54.192 118.453 54.192ZM111.637 44.256V41.376H120.589V44.256H111.637ZM134.696 54L129.2 37.2H133.232L138.008 52.08H135.992L140.984 37.2H144.584L149.384 52.08H147.44L152.336 37.2H156.056L150.56 54H146.384L142.136 40.944H143.24L138.872 54H134.696ZM163.409 54.192C161.937 54.192 160.641 53.904 159.521 53.328C158.417 52.752 157.561 51.968 156.953 50.976C156.345 49.968 156.041 48.824 156.041 47.544C156.041 46.248 156.337 45.104 156.929 44.112C157.537 43.104 158.361 42.32 159.401 41.76C160.441 41.184 161.617 40.896 162.929 40.896C164.193 40.896 165.329 41.168 166.337 41.712C167.361 42.24 168.169 43.008 168.761 44.016C169.353 45.008 169.649 46.2 169.649 47.592C169.649 47.736 169.641 47.904 169.625 48.096C169.609 48.272 169.593 48.44 169.577 48.6H159.089V46.416H167.609L166.169 47.064C166.169 46.392 166.033 45.808 165.761 45.312C165.489 44.816 165.113 44.432 164.633 44.16C164.153 43.872 163.593 43.728 162.953 43.728C162.313 43.728 161.745 43.872 161.249 44.16C160.769 44.432 160.393 44.824 160.121 45.336C159.849 45.832 159.713 46.424 159.713 47.112V47.688C159.713 48.392 159.865 49.016 160.169 49.56C160.489 50.088 160.929 50.496 161.489 50.784C162.065 51.056 162.737 51.192 163.505 51.192C164.193 51.192 164.793 51.088 165.305 50.88C165.833 50.672 166.313 50.36 166.745 49.944L168.737 52.104C168.145 52.776 167.401 53.296 166.505 53.664C165.609 54.016 164.577 54.192 163.409 54.192ZM171.541 44.16L173.125 38.4L173.653 40.584C172.965 40.584 172.397 40.384 171.949 39.984C171.517 39.568 171.301 39.008 171.301 38.304C171.301 37.616 171.525 37.064 171.973 36.648C172.421 36.216 172.973 36 173.629 36C174.301 36 174.853 36.216 175.285 36.648C175.717 37.064 175.933 37.616 175.933 38.304C175.933 38.512 175.917 38.72 175.885 38.928C175.869 39.12 175.813 39.352 175.717 39.624C175.637 39.896 175.501 40.256 175.309 40.704L173.917 44.16H171.541ZM178.47 54V41.088H182.046V44.736L181.542 43.68C181.926 42.768 182.542 42.08 183.39 41.616C184.238 41.136 185.27 40.896 186.486 40.896V44.352C186.326 44.336 186.182 44.328 186.054 44.328C185.926 44.312 185.79 44.304 185.646 44.304C184.622 44.304 183.79 44.6 183.15 45.192C182.526 45.768 182.214 46.672 182.214 47.904V54H178.47ZM195.027 54.192C193.555 54.192 192.259 53.904 191.139 53.328C190.035 52.752 189.179 51.968 188.571 50.976C187.963 49.968 187.659 48.824 187.659 47.544C187.659 46.248 187.955 45.104 188.547 44.112C189.155 43.104 189.979 42.32 191.019 41.76C192.059 41.184 193.235 40.896 194.547 40.896C195.811 40.896 196.947 41.168 197.955 41.712C198.979 42.24 199.787 43.008 200.379 44.016C200.971 45.008 201.267 46.2 201.267 47.592C201.267 47.736 201.259 47.904 201.243 48.096C201.227 48.272 201.211 48.44 201.195 48.6H190.707V46.416H199.227L197.787 47.064C197.787 46.392 197.651 45.808 197.379 45.312C197.107 44.816 196.731 44.432 196.251 44.16C195.771 43.872 195.211 43.728 194.571 43.728C193.931 43.728 193.363 43.872 192.867 44.16C192.387 44.432 192.011 44.824 191.739 45.336C191.467 45.832 191.331 46.424 191.331 47.112V47.688C191.331 48.392 191.483 49.016 191.787 49.56C192.107 50.088 192.547 50.496 193.107 50.784C193.683 51.056 194.355 51.192 195.123 51.192C195.811 51.192 196.411 51.088 196.923 50.88C197.451 50.672 197.931 50.36 198.363 49.944L200.355 52.104C199.763 52.776 199.019 53.296 198.123 53.664C197.227 54.016 196.195 54.192 195.027 54.192ZM214.3 54V40.368H208.924V37.2H223.564V40.368H218.188V54H214.3ZM232.656 54V51.48L232.416 50.928V46.416C232.416 45.616 232.168 44.992 231.672 44.544C231.192 44.096 230.448 43.872 229.44 43.872C228.752 43.872 228.072 43.984 227.4 44.208C226.744 44.416 226.184 44.704 225.72 45.072L224.376 42.456C225.08 41.96 225.928 41.576 226.92 41.304C227.912 41.032 228.92 40.896 229.944 40.896C231.912 40.896 233.44 41.36 234.528 42.288C235.616 43.216 236.16 44.664 236.16 46.632V54H232.656ZM228.72 54.192C227.712 54.192 226.848 54.024 226.128 53.688C225.408 53.336 224.856 52.864 224.472 52.272C224.088 51.68 223.896 51.016 223.896 50.28C223.896 49.512 224.08 48.84 224.448 48.264C224.832 47.688 225.432 47.24 226.248 46.92C227.064 46.584 228.128 46.416 229.44 46.416H232.872V48.6H229.848C228.968 48.6 228.36 48.744 228.024 49.032C227.704 49.32 227.544 49.68 227.544 50.112C227.544 50.592 227.728 50.976 228.096 51.264C228.48 51.536 229 51.672 229.656 51.672C230.28 51.672 230.84 51.528 231.336 51.24C231.832 50.936 232.192 50.496 232.416 49.92L232.992 51.648C232.72 52.48 232.224 53.112 231.504 53.544C230.784 53.976 229.856 54.192 228.72 54.192ZM247.18 54.192C246.092 54.192 245.14 53.952 244.324 53.472C243.508 52.992 242.868 52.264 242.404 51.288C241.956 50.296 241.732 49.048 241.732 47.544C241.732 46.024 241.948 44.776 242.38 43.8C242.812 42.824 243.436 42.096 244.252 41.616C245.068 41.136 246.044 40.896 247.18 40.896C248.396 40.896 249.484 41.176 250.444 41.736C251.42 42.28 252.188 43.048 252.748 44.04C253.324 45.032 253.612 46.2 253.612 47.544C253.612 48.904 253.324 50.08 252.748 51.072C252.188 52.064 251.42 52.832 250.444 53.376C249.484 53.92 248.396 54.192 247.18 54.192ZM239.548 58.656V41.088H243.124V43.728L243.052 47.568L243.292 51.384V58.656H239.548ZM246.532 51.12C247.156 51.12 247.708 50.976 248.188 50.688C248.684 50.4 249.076 49.992 249.364 49.464C249.668 48.92 249.82 48.28 249.82 47.544C249.82 46.792 249.668 46.152 249.364 45.624C249.076 45.096 248.684 44.688 248.188 44.4C247.708 44.112 247.156 43.968 246.532 43.968C245.908 43.968 245.348 44.112 244.852 44.4C244.356 44.688 243.964 45.096 243.676 45.624C243.388 46.152 243.244 46.792 243.244 47.544C243.244 48.28 243.388 48.92 243.676 49.464C243.964 49.992 244.356 50.4 244.852 50.688C245.348 50.976 245.908 51.12 246.532 51.12ZM263.751 54.192C262.663 54.192 261.711 53.952 260.895 53.472C260.079 52.992 259.439 52.264 258.975 51.288C258.527 50.296 258.303 49.048 258.303 47.544C258.303 46.024 258.519 44.776 258.951 43.8C259.383 42.824 260.007 42.096 260.823 41.616C261.639 41.136 262.615 40.896 263.751 40.896C264.967 40.896 266.055 41.176 267.015 41.736C267.991 42.28 268.759 43.048 269.319 44.04C269.895 45.032 270.183 46.2 270.183 47.544C270.183 48.904 269.895 50.08 269.319 51.072C268.759 52.064 267.991 52.832 267.015 53.376C266.055 53.92 264.967 54.192 263.751 54.192ZM256.119 58.656V41.088H259.695V43.728L259.623 47.568L259.863 51.384V58.656H256.119ZM263.103 51.12C263.727 51.12 264.279 50.976 264.759 50.688C265.255 50.4 265.647 49.992 265.935 49.464C266.239 48.92 266.391 48.28 266.391 47.544C266.391 46.792 266.239 46.152 265.935 45.624C265.647 45.096 265.255 44.688 264.759 44.4C264.279 44.112 263.727 43.968 263.103 43.968C262.479 43.968 261.919 44.112 261.423 44.4C260.927 44.688 260.535 45.096 260.247 45.624C259.959 46.152 259.815 46.792 259.815 47.544C259.815 48.28 259.959 48.92 260.247 49.464C260.535 49.992 260.927 50.4 261.423 50.688C261.919 50.976 262.479 51.12 263.103 51.12ZM272.689 54V41.088H276.433V54H272.689ZM274.561 39.288C273.873 39.288 273.313 39.088 272.881 38.688C272.449 38.288 272.233 37.792 272.233 37.2C272.233 36.608 272.449 36.112 272.881 35.712C273.313 35.312 273.873 35.112 274.561 35.112C275.249 35.112 275.809 35.304 276.241 35.688C276.673 36.056 276.889 36.536 276.889 37.128C276.889 37.752 276.673 38.272 276.241 38.688C275.825 39.088 275.265 39.288 274.561 39.288ZM287.756 40.896C288.78 40.896 289.692 41.104 290.492 41.52C291.308 41.92 291.948 42.544 292.412 43.392C292.876 44.224 293.108 45.296 293.108 46.608V54H289.364V47.184C289.364 46.144 289.132 45.376 288.668 44.88C288.22 44.384 287.58 44.136 286.748 44.136C286.156 44.136 285.62 44.264 285.14 44.52C284.676 44.76 284.308 45.136 284.036 45.648C283.78 46.16 283.652 46.816 283.652 47.616V54H279.908V41.088H283.484V44.664L282.812 43.584C283.276 42.72 283.94 42.056 284.804 41.592C285.668 41.128 286.652 40.896 287.756 40.896ZM302.667 58.848C301.451 58.848 300.275 58.696 299.139 58.392C298.019 58.104 297.083 57.664 296.331 57.072L297.819 54.384C298.363 54.832 299.051 55.184 299.883 55.44C300.731 55.712 301.563 55.848 302.379 55.848C303.707 55.848 304.667 55.552 305.259 54.96C305.867 54.368 306.171 53.488 306.171 52.32V50.376L306.411 47.136L306.363 43.872V41.088H309.915V51.84C309.915 54.24 309.291 56.008 308.043 57.144C306.795 58.28 305.003 58.848 302.667 58.848ZM302.091 53.376C300.891 53.376 299.803 53.12 298.827 52.608C297.867 52.08 297.091 51.352 296.499 50.424C295.923 49.48 295.635 48.384 295.635 47.136C295.635 45.872 295.923 44.776 296.499 43.848C297.091 42.904 297.867 42.176 298.827 41.664C299.803 41.152 300.891 40.896 302.091 40.896C303.179 40.896 304.139 41.12 304.971 41.568C305.803 42 306.451 42.68 306.915 43.608C307.379 44.52 307.611 45.696 307.611 47.136C307.611 48.56 307.379 49.736 306.915 50.664C306.451 51.576 305.803 52.256 304.971 52.704C304.139 53.152 303.179 53.376 302.091 53.376ZM302.835 50.304C303.491 50.304 304.075 50.176 304.587 49.92C305.099 49.648 305.499 49.272 305.787 48.792C306.075 48.312 306.219 47.76 306.219 47.136C306.219 46.496 306.075 45.944 305.787 45.48C305.499 45 305.099 44.632 304.587 44.376C304.075 44.104 303.491 43.968 302.835 43.968C302.179 43.968 301.595 44.104 301.083 44.376C300.571 44.632 300.163 45 299.859 45.48C299.571 45.944 299.427 46.496 299.427 47.136C299.427 47.76 299.571 48.312 299.859 48.792C300.163 49.272 300.571 49.648 301.083 49.92C301.595 50.176 302.179 50.304 302.835 50.304Z" fill="black"/>
    <path d="M172.579 645.952C171.459 645.952 170.467 645.744 169.603 645.328C168.739 644.912 167.955 644.432 167.251 643.888C166.547 643.344 165.891 642.864 165.283 642.448C164.675 642 164.051 641.776 163.411 641.776C162.547 641.776 161.843 642.112 161.299 642.784C160.787 643.456 160.499 644.368 160.435 645.52H155.779C155.843 642.48 156.531 640.192 157.843 638.656C159.187 637.12 160.899 636.352 162.979 636.352C164.099 636.352 165.091 636.576 165.955 637.024C166.819 637.44 167.587 637.92 168.259 638.464C168.963 638.976 169.619 639.456 170.227 639.904C170.835 640.32 171.459 640.528 172.099 640.528C172.995 640.528 173.699 640.192 174.211 639.52C174.755 638.848 175.043 637.936 175.075 636.784H179.779C179.715 639.792 179.011 642.08 177.667 643.648C176.355 645.184 174.659 645.952 172.579 645.952ZM197.291 658V652.96L210.251 640.72C211.275 639.792 212.027 638.96 212.507 638.224C212.987 637.488 213.307 636.816 213.467 636.208C213.659 635.6 213.755 635.04 213.755 634.528C213.755 633.184 213.291 632.16 212.363 631.456C211.467 630.72 210.139 630.352 208.379 630.352C206.971 630.352 205.659 630.624 204.443 631.168C203.259 631.712 202.251 632.56 201.419 633.712L195.755 630.064C197.035 628.144 198.827 626.624 201.131 625.504C203.435 624.384 206.091 623.824 209.099 623.824C211.595 623.824 213.771 624.24 215.627 625.072C217.515 625.872 218.971 627.008 219.995 628.48C221.051 629.952 221.579 631.712 221.579 633.76C221.579 634.848 221.435 635.936 221.147 637.024C220.891 638.08 220.347 639.2 219.515 640.384C218.715 641.568 217.531 642.896 215.963 644.368L205.211 654.496L203.723 651.664H222.683V658H197.291ZM237.316 658.576C234.98 658.576 232.66 658.272 230.356 657.664C228.084 657.024 226.132 656.128 224.5 654.976L227.572 649.024C228.852 649.952 230.324 650.688 231.988 651.232C233.684 651.776 235.396 652.048 237.124 652.048C239.076 652.048 240.612 651.664 241.732 650.896C242.852 650.128 243.412 649.056 243.412 647.68C243.412 646.816 243.188 646.048 242.74 645.376C242.292 644.704 241.492 644.192 240.34 643.84C239.22 643.488 237.636 643.312 235.588 643.312H226.996L228.724 624.4H249.22V630.64H231.508L235.54 627.088L234.34 640.576L230.308 637.024H237.412C240.74 637.024 243.412 637.488 245.428 638.416C247.476 639.312 248.964 640.544 249.892 642.112C250.82 643.68 251.284 645.456 251.284 647.44C251.284 649.424 250.788 651.264 249.796 652.96C248.804 654.624 247.268 655.984 245.188 657.04C243.14 658.064 240.516 658.576 237.316 658.576ZM268.839 658.576C266.087 658.576 263.623 657.904 261.447 656.56C259.271 655.184 257.559 653.2 256.311 650.608C255.063 648.016 254.439 644.88 254.439 641.2C254.439 637.52 255.063 634.384 256.311 631.792C257.559 629.2 259.271 627.232 261.447 625.888C263.623 624.512 266.087 623.824 268.839 623.824C271.623 623.824 274.087 624.512 276.231 625.888C278.407 627.232 280.119 629.2 281.367 631.792C282.615 634.384 283.239 637.52 283.239 641.2C283.239 644.88 282.615 648.016 281.367 650.608C280.119 653.2 278.407 655.184 276.231 656.56C274.087 657.904 271.623 658.576 268.839 658.576ZM268.839 652C270.151 652 271.287 651.632 272.247 650.896C273.239 650.16 274.007 648.992 274.551 647.392C275.127 645.792 275.415 643.728 275.415 641.2C275.415 638.672 275.127 636.608 274.551 635.008C274.007 633.408 273.239 632.24 272.247 631.504C271.287 630.768 270.151 630.4 268.839 630.4C267.559 630.4 266.423 630.768 265.431 631.504C264.471 632.24 263.703 633.408 263.127 635.008C262.583 636.608 262.311 638.672 262.311 641.2C262.311 643.728 262.583 645.792 263.127 647.392C263.703 648.992 264.471 650.16 265.431 650.896C266.423 651.632 267.559 652 268.839 652ZM283.508 658L297.956 638.08V643.744L284.132 624.4H292.964L302.516 637.888L298.82 637.936L308.228 624.4H316.676L302.948 643.408V637.84L317.492 658H308.516L298.628 643.744H302.18L292.436 658H283.508ZM338.152 658.144C336.872 658.144 335.736 657.864 334.744 657.304C333.752 656.744 332.968 655.976 332.392 655C331.816 654.008 331.528 652.888 331.528 651.64C331.528 650.376 331.816 649.256 332.392 648.28C332.968 647.304 333.752 646.544 334.744 646C335.736 645.44 336.872 645.16 338.152 645.16C339.416 645.16 340.544 645.44 341.536 646C342.544 646.544 343.328 647.304 343.888 648.28C344.464 649.24 344.752 650.36 344.752 651.64C344.752 652.904 344.464 654.024 343.888 655C343.328 655.976 342.544 656.744 341.536 657.304C340.544 657.864 339.416 658.144 338.152 658.144ZM338.152 656.128C338.968 656.128 339.696 655.944 340.336 655.576C340.992 655.208 341.504 654.688 341.872 654.016C342.24 653.328 342.424 652.536 342.424 651.64C342.424 650.728 342.24 649.944 341.872 649.288C341.504 648.616 340.992 648.096 340.336 647.728C339.696 647.36 338.968 647.176 338.152 647.176C337.336 647.176 336.608 647.36 335.968 647.728C335.328 648.096 334.816 648.616 334.432 649.288C334.048 649.944 333.856 650.728 333.856 651.64C333.856 652.536 334.048 653.328 334.432 654.016C334.816 654.688 335.328 655.208 335.968 655.576C336.608 655.944 337.336 656.128 338.152 656.128ZM348.274 658V644.152C348.274 642.904 348.634 641.912 349.354 641.176C350.09 640.424 351.13 640.048 352.474 640.048C352.97 640.048 353.442 640.112 353.89 640.24C354.354 640.352 354.746 640.536 355.066 640.792L354.37 642.544C354.13 642.352 353.858 642.208 353.554 642.112C353.25 642 352.93 641.944 352.594 641.944C351.922 641.944 351.41 642.136 351.058 642.52C350.706 642.888 350.53 643.44 350.53 644.176V645.88L350.578 646.936V658H348.274ZM346.114 647.176V645.28H354.226V647.176H346.114ZM368.388 658.144C367.092 658.144 365.932 657.864 364.908 657.304C363.9 656.744 363.108 655.976 362.532 655C361.956 654.024 361.668 652.904 361.668 651.64C361.668 650.376 361.956 649.256 362.532 648.28C363.108 647.304 363.9 646.544 364.908 646C365.932 645.44 367.092 645.16 368.388 645.16C369.54 645.16 370.564 645.392 371.46 645.856C372.372 646.304 373.076 646.976 373.572 647.872L371.82 649C371.404 648.376 370.892 647.92 370.284 647.632C369.692 647.328 369.052 647.176 368.364 647.176C367.532 647.176 366.788 647.36 366.132 647.728C365.476 648.096 364.956 648.616 364.572 649.288C364.188 649.944 363.996 650.728 363.996 651.64C363.996 652.552 364.188 653.344 364.572 654.016C364.956 654.688 365.476 655.208 366.132 655.576C366.788 655.944 367.532 656.128 368.364 656.128C369.052 656.128 369.692 655.984 370.284 655.696C370.892 655.392 371.404 654.928 371.82 654.304L373.572 655.408C373.076 656.288 372.372 656.968 371.46 657.448C370.564 657.912 369.54 658.144 368.388 658.144ZM381.907 658.144C380.819 658.144 379.859 657.944 379.027 657.544C378.211 657.144 377.571 656.536 377.107 655.72C376.659 654.888 376.435 653.848 376.435 652.6V645.28H378.739V652.336C378.739 653.584 379.035 654.52 379.627 655.144C380.235 655.768 381.083 656.08 382.171 656.08C382.971 656.08 383.667 655.92 384.259 655.6C384.851 655.264 385.307 654.784 385.627 654.16C385.947 653.52 386.107 652.752 386.107 651.856V645.28H388.411V658H386.227V654.568L386.587 655.48C386.171 656.328 385.547 656.984 384.715 657.448C383.883 657.912 382.947 658.144 381.907 658.144ZM392.798 658V645.28H395.006V648.736L394.79 647.872C395.142 646.992 395.734 646.32 396.566 645.856C397.398 645.392 398.422 645.16 399.638 645.16V647.392C399.542 647.376 399.446 647.368 399.35 647.368C399.27 647.368 399.19 647.368 399.11 647.368C397.878 647.368 396.902 647.736 396.182 648.472C395.462 649.208 395.102 650.272 395.102 651.664V658H392.798ZM402.477 658V645.28H404.685V648.736L404.469 647.872C404.821 646.992 405.413 646.32 406.245 645.856C407.077 645.392 408.101 645.16 409.317 645.16V647.392C409.221 647.376 409.125 647.368 409.029 647.368C408.949 647.368 408.869 647.368 408.789 647.368C407.557 647.368 406.581 647.736 405.861 648.472C405.141 649.208 404.781 650.272 404.781 651.664V658H402.477ZM417.704 658.144C416.344 658.144 415.144 657.864 414.104 657.304C413.08 656.744 412.28 655.976 411.704 655C411.144 654.024 410.864 652.904 410.864 651.64C410.864 650.376 411.136 649.256 411.68 648.28C412.24 647.304 413 646.544 413.96 646C414.936 645.44 416.032 645.16 417.248 645.16C418.48 645.16 419.568 645.432 420.512 645.976C421.456 646.52 422.192 647.288 422.72 648.28C423.264 649.256 423.536 650.4 423.536 651.712C423.536 651.808 423.528 651.92 423.512 652.048C423.512 652.176 423.504 652.296 423.488 652.408H412.664V650.752H422.288L421.352 651.328C421.368 650.512 421.2 649.784 420.848 649.144C420.496 648.504 420.008 648.008 419.384 647.656C418.776 647.288 418.064 647.104 417.248 647.104C416.448 647.104 415.736 647.288 415.112 647.656C414.488 648.008 414 648.512 413.648 649.168C413.296 649.808 413.12 650.544 413.12 651.376V651.76C413.12 652.608 413.312 653.368 413.696 654.04C414.096 654.696 414.648 655.208 415.352 655.576C416.056 655.944 416.864 656.128 417.776 656.128C418.528 656.128 419.208 656 419.816 655.744C420.44 655.488 420.984 655.104 421.448 654.592L422.72 656.08C422.144 656.752 421.424 657.264 420.56 657.616C419.712 657.968 418.76 658.144 417.704 658.144ZM433.527 645.16C434.567 645.16 435.479 645.36 436.263 645.76C437.063 646.16 437.687 646.768 438.135 647.584C438.583 648.4 438.807 649.432 438.807 650.68V658H436.503V650.944C436.503 649.712 436.199 648.784 435.591 648.16C434.999 647.536 434.159 647.224 433.071 647.224C432.255 647.224 431.543 647.384 430.935 647.704C430.327 648.024 429.855 648.496 429.519 649.12C429.199 649.744 429.039 650.52 429.039 651.448V658H426.735V645.28H428.943V648.712L428.583 647.8C428.999 646.968 429.639 646.32 430.503 645.856C431.367 645.392 432.375 645.16 433.527 645.16ZM447.439 658.144C446.159 658.144 445.167 657.8 444.463 657.112C443.759 656.424 443.407 655.44 443.407 654.16V642.496H445.711V654.064C445.711 654.752 445.879 655.28 446.215 655.648C446.567 656.016 447.063 656.2 447.703 656.2C448.423 656.2 449.023 656 449.503 655.6L450.223 657.256C449.871 657.56 449.447 657.784 448.951 657.928C448.471 658.072 447.967 658.144 447.439 658.144ZM441.247 647.176V645.28H449.359V647.176H441.247ZM463.822 658.144C462.542 658.144 461.55 657.8 460.846 657.112C460.142 656.424 459.79 655.44 459.79 654.16V642.496H462.094V654.064C462.094 654.752 462.262 655.28 462.598 655.648C462.95 656.016 463.446 656.2 464.086 656.2C464.806 656.2 465.406 656 465.886 655.6L466.606 657.256C466.254 657.56 465.83 657.784 465.334 657.928C464.854 658.072 464.35 658.144 463.822 658.144ZM457.63 647.176V645.28H465.742V647.176H457.63ZM472.493 658L466.925 645.28H469.325L474.269 656.8H473.117L478.157 645.28H480.413L474.845 658H472.493ZM482.563 658V640.192H484.867V658H482.563Z" fill="#F7931A"/>
    <defs>
        <filter id="filter0_b_0_1" x="-50" y="-50" width="740" height="795" filterUnits="userSpaceOnUse" color-interpolation-filters="sRGB">
            <feFlood flood-opacity="0" result="BackgroundImageFix"/>
            <feGaussianBlur in="BackgroundImageFix" stdDeviation="25"/>
            <feComposite in2="SourceAlpha" operator="in" result="effect1_backgroundBlur_0_1"/>
            <feBlend mode="normal" in="SourceGraphic" in2="effect1_backgroundBlur_0_1" result="shape"/>
        </filter>
    </defs>
</svg>
