<svg width="1139" height="552" viewBox="0 0 1139 552" fill="none"
    xmlns="http://www.w3.org/2000/svg">
    <g filter="url(#filter0_b_174_69)">
        <rect x="1138.53" y="0.625244" width="550.742" height="1138.53" rx="27" transform="rotate(90 1138.53 0.625244)" fill="#DDDDDD" fill-opacity="0.04"/>
    </g>
    <path d="M1110.53 0.624999C1125.44 0.624999 1137.53 12.7133 1137.53 27.625L1137.53 275.996L0.000476244 275.996L0.000487101 27.6249C0.000487753 12.7133 12.0888 0.624951 27.0005 0.624951L1110.53 0.624999Z" fill="white"/>
    <path d="M285.388 275.923L288.236 286.816L294.145 293.923L303.326 316.503L316.442 323.192L326.358 350.367L341.614 362.076L348.575 377.128L353.124 379.636L358.746 368.346L365.98 329.044L380.964 316.917L382.571 298.524L387.59 296.431L388.969 288.486L397.061 275.923H285.388Z" fill="#1A80F7"/>
    <path opacity="0.2" d="M285.388 275.923L288.236 286.816L294.145 293.923L303.326 316.503L316.442 323.192L326.358 350.367L341.614 362.076L348.575 377.128L353.124 379.636L358.746 368.346L365.98 329.044L380.964 316.917L382.571 298.524L387.59 296.431L388.969 288.486L397.061 275.923H285.388Z" fill="white"/>
    <path d="M357.033 334.098L353.124 379.631L348.571 377.124L341.614 362.076L326.358 350.367L316.442 323.192L303.326 316.503L294.145 293.923L288.236 286.811L285.388 275.923H321.713L352.12 296.823L345.255 317.393L357.033 334.098Z" fill="#1A80F7"/>
    <path opacity="0.1" d="M288.236 286.811L319.463 284.542L352.12 296.823L321.713 275.923H285.388L288.236 286.811Z" fill="black"/>
    <path opacity="0.1" d="M345.255 317.393L346.603 333.296L355.237 354.999L357.033 334.098L345.255 317.393Z" fill="black"/>
    <path d="M382.573 298.524L372.768 302.772L365.983 329.044L377.342 312.493L382.573 298.524Z" fill="#1A80F7"/>
    <path d="M388.97 288.486L366.334 281.078L387.592 296.431L388.97 288.486Z" fill="#1A80F7"/>
    <path opacity="0.1" d="M326.358 350.367L345.26 356.594L341.615 362.076L326.358 350.367Z" fill="black"/>
    <path opacity="0.3" d="M348.571 377.124L345.259 356.594L341.614 362.076L348.571 377.124Z" fill="white"/>
    <path opacity="0.1" d="M316.437 323.192L323.31 315.626L294.14 293.924L303.321 316.503L316.437 323.192Z" fill="black"/>
    <path d="M345.259 317.393L334.573 314.392L346.985 312.22L358.639 316.322L345.259 317.393Z" fill="#1A80F7"/>
    <path opacity="0.2" d="M345.259 317.393L334.573 314.392L346.985 312.22L358.639 316.322L345.259 317.393Z" fill="white"/>
    <path d="M334.573 314.392L346.985 312.22L358.639 316.322" fill="#1A80F7"/>
    <path opacity="0.1" d="M288.236 286.811L321.713 275.923H285.388L288.236 286.811Z" fill="black"/>
    <path opacity="0.1" d="M346.603 333.296L357.033 334.098L345.255 317.393L346.603 333.296Z" fill="black"/>
    <path opacity="0.3" d="M366.334 281.078L372.767 302.772L387.592 296.431L366.334 281.078Z" fill="white"/>
    <path d="M321.713 275.923L333.72 279.483L356.307 275.923H321.713Z" fill="#1A80F7"/>
    <path d="M299.226 275.923H397.061L392.376 270.503L390.505 264.501L374.016 253.753L366.333 248.54L356.62 245.491L348.043 229.116L332.945 218.95L326.014 204.4L316.288 210.529L306.188 233.056L298.214 239.22L296.633 248.858L289.844 261.654L292.965 269.242L288.575 273.349L285.388 275.923H299.226Z" fill="#1A80F7"/>
    <path opacity="0.7" d="M299.226 275.923H397.061L392.376 270.503L390.505 264.501L374.016 253.753L366.333 248.54L356.62 245.491L348.043 229.116L332.945 218.95L326.014 204.4L316.288 210.529L306.188 233.056L298.214 239.22L296.633 248.858L289.844 261.654L292.965 269.242L288.575 273.349L285.388 275.923H299.226Z" fill="white"/>
    <path opacity="0.4" d="M352.12 275.923H285.388L292.97 269.238L289.844 261.659L296.633 248.858L298.214 239.22L306.188 233.056L316.284 210.529L326.014 204.4L317.081 230.94L321.096 238.608L317.081 248.421L322.677 255.749L340.082 261.161L341.227 268.718L352.12 275.923Z" fill="#1A80F7"/>
    <path d="M311.682 232.602L317.758 228.949L325.891 228.772L317.701 232.113L311.682 232.602Z" fill="#1A80F7"/>
    <path opacity="0.7" d="M311.682 232.602L317.758 228.949L325.891 228.772L317.701 232.113L311.682 232.602Z" fill="white"/>
    <path opacity="0.4" d="M311.682 232.602L325.891 228.772L317.701 232.113L311.682 232.602Z" fill="#1A80F7"/>
    <path opacity="0.7" d="M323.315 275.923L292.97 269.238L285.388 275.923H323.315Z" fill="#1A80F7"/>
    <path opacity="0.7" d="M356.62 245.491L345.26 254.736L366.333 248.54L356.62 245.491Z" fill="white"/>
    <path opacity="0.4" d="M392.377 270.503L377.627 268.546L362.811 275.923H397.062L392.377 270.503Z" fill="#1A80F7"/>
    <path opacity="0.7" d="M332.95 218.95L321.101 238.608L348.048 229.116L332.95 218.95Z" fill="white"/>
    <path opacity="0.5" d="M325.893 236.92L327.007 243.486L334.576 251.744L328.768 242.768L329.129 235.783L325.893 236.92Z" fill="#1A80F7"/>
    <path opacity="0.7" d="M298.212 239.22L310.474 252.907L311.676 268.546L289.842 261.659L296.631 248.858L298.212 239.22Z" fill="#1A80F7"/>
    <path opacity="0.7" d="M306.183 233.056L317.319 219.382L316.279 210.529L306.183 233.056Z" fill="#1A80F7"/>
    <path opacity="0.7" d="M341.231 268.718L340.086 261.161L329.743 266.832L323.319 275.923L341.231 268.718Z" fill="#1A80F7"/>
    <path opacity="0.7" d="M377.624 268.546L390.503 264.501L392.379 270.498L377.624 268.546Z" fill="white"/>
    <path opacity="0.4" d="M345.26 254.736L353.608 255.974L366.333 248.54L345.26 254.736Z" fill="#1A80F7"/>
    <path d="M296.632 248.858L310.475 252.907L298.213 239.22L296.632 248.858Z" fill="#1A80F7"/>
    <path d="M323.319 275.923L340.086 261.161L329.743 266.832L323.319 275.923Z" fill="#1A80F7"/>
    <path d="M596.807 275.256L603.319 300.154L616.824 316.401L637.808 368.011L667.789 383.3L690.453 445.415L725.325 472.177L741.236 506.583L751.632 512.315L764.484 486.51L781.019 396.676L815.267 368.957L818.94 326.916L830.413 322.132L833.563 303.972L852.061 275.256H596.807Z" fill="#F7931A"/>
    <path opacity="0.2" d="M596.807 275.256L603.319 300.154L616.824 316.401L637.808 368.011L667.789 383.3L690.453 445.415L725.325 472.177L741.236 506.583L751.632 512.315L764.484 486.51L781.019 396.676L815.267 368.957L818.94 326.916L830.413 322.132L833.563 303.972L852.061 275.256H596.807Z" fill="white"/>
    <path d="M760.569 408.229L751.632 512.304L741.226 506.573L725.325 472.177L690.453 445.415L667.789 383.3L637.808 368.011L616.824 316.401L603.319 300.144L596.807 275.256H679.835L749.337 323.028L733.648 370.045L760.569 408.229Z" fill="#F7931A"/>
    <path opacity="0.1" d="M603.319 300.144L674.693 294.957L749.337 323.028L679.835 275.256H596.807L603.319 300.144Z" fill="black"/>
    <path opacity="0.1" d="M733.648 370.045L736.727 406.396L756.463 456.001L760.569 408.229L733.648 370.045Z" fill="black"/>
    <path d="M818.935 326.917L796.522 336.626L781.014 396.676L806.979 358.845L818.935 326.917Z" fill="#F7931A"/>
    <path d="M833.566 303.972L781.827 287.04L830.416 322.132L833.566 303.972Z" fill="#F7931A"/>
    <path opacity="0.1" d="M690.454 445.415L733.659 459.647L725.326 472.177L690.454 445.415Z" fill="black"/>
    <path opacity="0.3" d="M741.23 506.573L733.662 459.647L725.329 472.177L741.23 506.573Z" fill="white"/>
    <path opacity="0.1" d="M667.788 383.3L683.498 366.006L616.824 316.401L637.807 368.011L667.788 383.3Z" fill="black"/>
    <path d="M733.65 370.045L709.224 363.186L737.595 358.22L764.234 367.598L733.65 370.045Z" fill="#F7931A"/>
    <path opacity="0.2" d="M733.65 370.045L709.224 363.186L737.595 358.22L764.234 367.598L733.65 370.045Z" fill="white"/>
    <path d="M709.224 363.186L737.595 358.22L764.234 367.598" fill="#F7931A"/>
    <path opacity="0.1" d="M603.319 300.144L679.835 275.256H596.807L603.319 300.144Z" fill="black"/>
    <path opacity="0.1" d="M736.727 406.396L760.569 408.229L733.648 370.045L736.727 406.396Z" fill="black"/>
    <path opacity="0.3" d="M781.827 287.04L796.531 336.626L830.416 322.132L781.827 287.04Z" fill="white"/>
    <path d="M679.836 275.256L707.28 283.394L758.909 275.256H679.836Z" fill="#F7931A"/>
    <path d="M628.438 275.256H852.061L841.353 262.867L837.076 249.149L799.386 224.583L781.824 212.668L759.623 205.698L740.018 168.27L705.509 145.033L689.668 111.775L667.436 125.785L644.35 177.274L626.124 191.365L622.511 213.393L606.992 242.643L614.127 259.987L604.093 269.374L596.807 275.256H628.438Z" fill="#F7931A"/>
    <path opacity="0.7" d="M628.438 275.256H852.061L841.353 262.867L837.076 249.149L799.386 224.583L781.824 212.668L759.623 205.698L740.018 168.27L705.509 145.033L689.668 111.775L667.436 125.785L644.35 177.274L626.124 191.365L622.511 213.393L606.992 242.643L614.127 259.987L604.093 269.374L596.807 275.256H628.438Z" fill="white"/>
    <path opacity="0.4" d="M749.337 275.256H596.807L614.137 259.977L606.992 242.653L622.511 213.393L626.124 191.365L644.35 177.274L667.426 125.785L689.668 111.775L669.248 172.44L678.426 189.965L669.248 212.396L682.039 229.146L721.822 241.514L724.439 258.788L749.337 275.256Z" fill="#F7931A"/>
    <path d="M656.898 176.237L670.787 167.887L689.375 167.484L670.656 175.119L656.898 176.237Z" fill="#F7931A"/>
    <path opacity="0.7" d="M656.898 176.237L670.787 167.887L689.375 167.484L670.656 175.119L656.898 176.237Z" fill="white"/>
    <path opacity="0.4" d="M656.898 176.237L689.375 167.484L670.656 175.119L656.898 176.237Z" fill="#F7931A"/>
    <path opacity="0.7" d="M683.499 275.256L614.137 259.977L596.807 275.256H683.499Z" fill="#F7931A"/>
    <path opacity="0.7" d="M759.618 205.698L733.653 226.829L781.819 212.668L759.618 205.698Z" fill="white"/>
    <path opacity="0.4" d="M841.355 262.868L807.64 258.396L773.775 275.256H852.063L841.355 262.868Z" fill="#F7931A"/>
    <path opacity="0.7" d="M705.505 145.033L678.422 189.965L740.014 168.27L705.505 145.033Z" fill="white"/>
    <path opacity="0.5" d="M689.375 186.107L691.921 201.115L709.221 219.99L695.946 199.473L696.772 183.509L689.375 186.107Z" fill="#F7931A"/>
    <path opacity="0.7" d="M626.119 191.365L654.148 222.649L656.895 258.396L606.988 242.653L622.506 213.393L626.119 191.365Z" fill="#F7931A"/>
    <path opacity="0.7" d="M644.345 177.274L669.797 146.02L667.422 125.785L644.345 177.274Z" fill="#F7931A"/>
    <path opacity="0.7" d="M724.437 258.788L721.821 241.514L698.18 254.477L683.497 275.256L724.437 258.788Z" fill="#F7931A"/>
    <path opacity="0.7" d="M807.633 258.395L837.07 249.149L841.357 262.857L807.633 258.395Z" fill="white"/>
    <path opacity="0.4" d="M733.653 226.829L752.734 229.659L781.819 212.668L733.653 226.829Z" fill="#F7931A"/>
    <path d="M622.514 213.393L654.155 222.649L626.127 191.365L622.514 213.393Z" fill="#F7931A"/>
    <path d="M683.497 275.256L721.821 241.514L698.18 254.477L683.497 275.256Z" fill="#F7931A"/>
    <path d="M905.72 180.792C906.534 181.018 907.174 181.432 907.64 182.032C908.107 182.618 908.34 183.365 908.34 184.272C908.34 185.485 907.88 186.418 906.96 187.072C906.054 187.725 904.727 188.052 902.98 188.052H896.3V174.052H902.58C904.18 174.052 905.414 174.372 906.28 175.012C907.16 175.652 907.6 176.538 907.6 177.672C907.6 178.405 907.427 179.038 907.08 179.572C906.747 180.105 906.294 180.512 905.72 180.792ZM898.3 175.672V180.152H902.4C903.427 180.152 904.214 179.965 904.76 179.592C905.32 179.205 905.6 178.645 905.6 177.912C905.6 177.178 905.32 176.625 904.76 176.252C904.214 175.865 903.427 175.672 902.4 175.672H898.3ZM902.9 186.432C904.034 186.432 904.887 186.245 905.46 185.872C906.034 185.498 906.32 184.912 906.32 184.112C906.32 182.552 905.18 181.772 902.9 181.772H898.3V186.432H902.9ZM914.022 175.792H909.222V174.052H920.802V175.792H916.002V188.052H914.022V175.792ZM929.045 188.212C927.645 188.212 926.378 187.905 925.245 187.292C924.125 186.665 923.245 185.812 922.605 184.732C921.965 183.638 921.645 182.412 921.645 181.052C921.645 179.692 921.965 178.472 922.605 177.392C923.245 176.298 924.131 175.445 925.265 174.832C926.398 174.205 927.665 173.892 929.065 173.892C930.158 173.892 931.158 174.078 932.065 174.452C932.971 174.812 933.745 175.352 934.385 176.072L933.085 177.332C932.031 176.225 930.718 175.672 929.145 175.672C928.105 175.672 927.165 175.905 926.325 176.372C925.485 176.838 924.825 177.485 924.345 178.312C923.878 179.125 923.645 180.038 923.645 181.052C923.645 182.065 923.878 182.985 924.345 183.812C924.825 184.625 925.485 185.265 926.325 185.732C927.165 186.198 928.105 186.432 929.145 186.432C930.705 186.432 932.018 185.872 933.085 184.752L934.385 186.012C933.745 186.732 932.965 187.278 932.045 187.652C931.138 188.025 930.138 188.212 929.045 188.212ZM955.589 188.052L955.569 177.852L950.509 186.352H949.589L944.529 177.912V188.052H942.609V174.052H944.249L950.089 183.892L955.849 174.052H957.489L957.509 188.052H955.589ZM967.97 188.212C966.57 188.212 965.304 187.905 964.17 187.292C963.05 186.665 962.17 185.812 961.53 184.732C960.89 183.638 960.57 182.412 960.57 181.052C960.57 179.692 960.89 178.472 961.53 177.392C962.17 176.298 963.057 175.445 964.19 174.832C965.324 174.205 966.59 173.892 967.99 173.892C969.084 173.892 970.084 174.078 970.99 174.452C971.897 174.812 972.67 175.352 973.31 176.072L972.01 177.332C970.957 176.225 969.644 175.672 968.07 175.672C967.03 175.672 966.09 175.905 965.25 176.372C964.41 176.838 963.75 177.485 963.27 178.312C962.804 179.125 962.57 180.038 962.57 181.052C962.57 182.065 962.804 182.985 963.27 183.812C963.75 184.625 964.41 185.265 965.25 185.732C966.09 186.198 967.03 186.432 968.07 186.432C969.63 186.432 970.944 185.872 972.01 184.752L973.31 186.012C972.67 186.732 971.89 187.278 970.97 187.652C970.064 188.025 969.064 188.212 967.97 188.212ZM984.751 184.552H977.311L975.771 188.052H973.711L980.051 174.052H982.031L988.391 188.052H986.291L984.751 184.552ZM984.051 182.952L981.031 176.092L978.011 182.952H984.051ZM995.94 174.052C997.753 174.052 999.18 174.485 1000.22 175.352C1001.26 176.218 1001.78 177.412 1001.78 178.932C1001.78 180.452 1001.26 181.645 1000.22 182.512C999.18 183.378 997.753 183.812 995.94 183.812H992.48V188.052H990.48V174.052H995.94ZM995.88 182.072C997.147 182.072 998.113 181.805 998.78 181.272C999.447 180.725 999.78 179.945 999.78 178.932C999.78 177.918 999.447 177.145 998.78 176.612C998.113 176.065 997.147 175.792 995.88 175.792H992.48V182.072H995.88ZM902.04 206.752C901.574 206.752 901.16 206.658 900.8 206.472C900.44 206.272 900.04 205.992 899.6 205.632C899.267 205.352 898.987 205.145 898.76 205.012C898.547 204.878 898.314 204.812 898.06 204.812C897.634 204.812 897.294 204.978 897.04 205.312C896.787 205.632 896.647 206.065 896.62 206.612H895.36C895.387 205.532 895.634 204.718 896.1 204.172C896.58 203.612 897.214 203.332 898 203.332C898.48 203.332 898.894 203.432 899.24 203.632C899.6 203.818 900 204.098 900.44 204.472C900.787 204.752 901.067 204.958 901.28 205.092C901.494 205.212 901.727 205.272 901.98 205.272C902.42 205.272 902.76 205.112 903 204.792C903.254 204.458 903.394 204.012 903.42 203.452H904.68C904.654 204.545 904.4 205.372 903.92 205.932C903.454 206.478 902.827 206.752 902.04 206.752ZM922.812 208.232C922.812 209.285 922.412 210.178 921.612 210.912C920.825 211.645 919.679 212.072 918.172 212.192V214.452H916.892V212.192C915.919 212.138 914.992 211.958 914.112 211.652C913.245 211.332 912.552 210.932 912.032 210.452L912.772 208.892C913.252 209.332 913.859 209.698 914.592 209.992C915.325 210.272 916.092 210.438 916.892 210.492V205.852C915.959 205.625 915.179 205.378 914.552 205.112C913.939 204.845 913.419 204.452 912.992 203.932C912.579 203.412 912.372 202.732 912.372 201.892C912.372 200.838 912.752 199.945 913.512 199.212C914.285 198.478 915.412 198.052 916.892 197.932V195.652H918.172V197.912C918.932 197.938 919.665 198.058 920.372 198.272C921.092 198.485 921.712 198.772 922.232 199.132L921.572 200.732C920.492 200.052 919.359 199.678 918.172 199.612V204.272C919.145 204.512 919.945 204.765 920.572 205.032C921.199 205.285 921.725 205.672 922.152 206.192C922.592 206.698 922.812 207.378 922.812 208.232ZM914.332 201.812C914.332 202.385 914.552 202.832 914.992 203.152C915.432 203.472 916.065 203.738 916.892 203.952V199.632C916.039 199.738 915.399 199.992 914.972 200.392C914.545 200.778 914.332 201.252 914.332 201.812ZM918.172 210.472C919.065 210.392 919.732 210.165 920.172 209.792C920.625 209.405 920.852 208.925 920.852 208.352C920.852 207.765 920.619 207.318 920.152 207.012C919.699 206.692 919.039 206.412 918.172 206.172V210.472ZM928.738 198.052V212.052H926.758V199.792H923.598V198.052H928.738ZM936.141 198.052V212.052H934.161V199.792H931.001V198.052H936.141ZM943.743 197.892C945.623 197.892 947.07 198.498 948.083 199.712C949.11 200.925 949.623 202.645 949.623 204.872C949.623 206.432 949.343 207.765 948.783 208.872C948.236 209.965 947.463 210.798 946.463 211.372C945.476 211.932 944.323 212.212 943.003 212.212C942.323 212.212 941.683 212.145 941.083 212.012C940.483 211.865 939.963 211.658 939.523 211.392L940.283 209.832C940.963 210.272 941.863 210.492 942.983 210.492C944.436 210.492 945.57 210.045 946.383 209.152C947.21 208.245 947.623 206.932 947.623 205.212V204.712C947.223 205.312 946.67 205.772 945.963 206.092C945.256 206.398 944.463 206.552 943.583 206.552C942.663 206.552 941.836 206.378 941.103 206.032C940.383 205.685 939.816 205.192 939.403 204.552C939.003 203.898 938.803 203.152 938.803 202.312C938.803 201.432 939.016 200.658 939.443 199.992C939.883 199.325 940.476 198.812 941.223 198.452C941.97 198.078 942.81 197.892 943.743 197.892ZM943.923 204.932C944.55 204.932 945.11 204.812 945.603 204.572C946.096 204.332 946.476 204.005 946.743 203.592C947.023 203.178 947.163 202.718 947.163 202.212C947.163 201.718 947.03 201.272 946.763 200.872C946.51 200.458 946.13 200.132 945.623 199.892C945.13 199.638 944.53 199.512 943.823 199.512C942.903 199.512 942.156 199.758 941.583 200.252C941.023 200.745 940.743 201.405 940.743 202.232C940.743 203.058 941.03 203.718 941.603 204.212C942.176 204.692 942.95 204.932 943.923 204.932ZM961.61 198.052V199.412L955.95 212.052H953.83L959.37 199.792H952.97V202.292H951.05V198.052H961.61ZM979.294 204.792C980.108 205.018 980.748 205.432 981.214 206.032C981.681 206.618 981.914 207.365 981.914 208.272C981.914 209.485 981.454 210.418 980.534 211.072C979.628 211.725 978.301 212.052 976.554 212.052H969.874V198.052H976.154C977.754 198.052 978.988 198.372 979.854 199.012C980.734 199.652 981.174 200.538 981.174 201.672C981.174 202.405 981.001 203.038 980.654 203.572C980.321 204.105 979.868 204.512 979.294 204.792ZM971.874 199.672V204.152H975.974C977.001 204.152 977.788 203.965 978.334 203.592C978.894 203.205 979.174 202.645 979.174 201.912C979.174 201.178 978.894 200.625 978.334 200.252C977.788 199.865 977.001 199.672 975.974 199.672H971.874ZM976.474 210.432C977.608 210.432 978.461 210.245 979.034 209.872C979.608 209.498 979.894 208.912 979.894 208.112C979.894 206.552 978.754 205.772 976.474 205.772H971.874V210.432H976.474Z" fill="black"/>
    <path d="M134.14 186.312V188.052H123.98V174.052H133.86V175.792H125.98V180.092H133V181.792H125.98V186.312H134.14ZM140.158 175.792H135.358V174.052H146.938V175.792H142.138V188.052H140.158V175.792ZM161.157 174.052V188.052H159.157V181.812H151.117V188.052H149.117V174.052H151.117V180.072H159.157V174.052H161.157ZM183.698 188.052L183.678 177.852L178.618 186.352H177.698L172.638 177.912V188.052H170.718V174.052H172.358L178.198 183.892L183.958 174.052H185.598L185.618 188.052H183.698ZM196.08 188.212C194.68 188.212 193.413 187.905 192.28 187.292C191.16 186.665 190.28 185.812 189.64 184.732C189 183.638 188.68 182.412 188.68 181.052C188.68 179.692 189 178.472 189.64 177.392C190.28 176.298 191.166 175.445 192.3 174.832C193.433 174.205 194.7 173.892 196.1 173.892C197.193 173.892 198.193 174.078 199.1 174.452C200.006 174.812 200.78 175.352 201.42 176.072L200.12 177.332C199.066 176.225 197.753 175.672 196.18 175.672C195.14 175.672 194.2 175.905 193.36 176.372C192.52 176.838 191.86 177.485 191.38 178.312C190.913 179.125 190.68 180.038 190.68 181.052C190.68 182.065 190.913 182.985 191.38 183.812C191.86 184.625 192.52 185.265 193.36 185.732C194.2 186.198 195.14 186.432 196.18 186.432C197.74 186.432 199.053 185.872 200.12 184.752L201.42 186.012C200.78 186.732 200 187.278 199.08 187.652C198.173 188.025 197.173 188.212 196.08 188.212ZM212.861 184.552H205.421L203.881 188.052H201.821L208.161 174.052H210.141L216.501 188.052H214.401L212.861 184.552ZM212.161 182.952L209.141 176.092L206.121 182.952H212.161ZM224.049 174.052C225.863 174.052 227.289 174.485 228.329 175.352C229.369 176.218 229.889 177.412 229.889 178.932C229.889 180.452 229.369 181.645 228.329 182.512C227.289 183.378 225.863 183.812 224.049 183.812H220.589V188.052H218.589V174.052H224.049ZM223.989 182.072C225.256 182.072 226.223 181.805 226.889 181.272C227.556 180.725 227.889 179.945 227.889 178.932C227.889 177.918 227.556 177.145 226.889 176.612C226.223 176.065 225.256 175.792 223.989 175.792H220.589V182.072H223.989ZM142.366 206.752C141.9 206.752 141.486 206.658 141.126 206.472C140.766 206.272 140.366 205.992 139.926 205.632C139.593 205.352 139.313 205.145 139.086 205.012C138.873 204.878 138.64 204.812 138.386 204.812C137.96 204.812 137.62 204.978 137.366 205.312C137.113 205.632 136.973 206.065 136.946 206.612H135.686C135.713 205.532 135.96 204.718 136.426 204.172C136.906 203.612 137.54 203.332 138.326 203.332C138.806 203.332 139.22 203.432 139.566 203.632C139.926 203.818 140.326 204.098 140.766 204.472C141.113 204.752 141.393 204.958 141.606 205.092C141.82 205.212 142.053 205.272 142.306 205.272C142.746 205.272 143.086 205.112 143.326 204.792C143.58 204.458 143.72 204.012 143.746 203.452H145.006C144.98 204.545 144.726 205.372 144.246 205.932C143.78 206.478 143.153 206.752 142.366 206.752ZM163.138 208.232C163.138 209.285 162.738 210.178 161.938 210.912C161.151 211.645 160.005 212.072 158.498 212.192V214.452H157.218V212.192C156.245 212.138 155.318 211.958 154.438 211.652C153.571 211.332 152.878 210.932 152.358 210.452L153.098 208.892C153.578 209.332 154.185 209.698 154.918 209.992C155.651 210.272 156.418 210.438 157.218 210.492V205.852C156.285 205.625 155.505 205.378 154.878 205.112C154.265 204.845 153.745 204.452 153.318 203.932C152.905 203.412 152.698 202.732 152.698 201.892C152.698 200.838 153.078 199.945 153.838 199.212C154.611 198.478 155.738 198.052 157.218 197.932V195.652H158.498V197.912C159.258 197.938 159.991 198.058 160.698 198.272C161.418 198.485 162.038 198.772 162.558 199.132L161.898 200.732C160.818 200.052 159.685 199.678 158.498 199.612V204.272C159.471 204.512 160.271 204.765 160.898 205.032C161.525 205.285 162.051 205.672 162.478 206.192C162.918 206.698 163.138 207.378 163.138 208.232ZM154.658 201.812C154.658 202.385 154.878 202.832 155.318 203.152C155.758 203.472 156.391 203.738 157.218 203.952V199.632C156.365 199.738 155.725 199.992 155.298 200.392C154.871 200.778 154.658 201.252 154.658 201.812ZM158.498 210.472C159.391 210.392 160.058 210.165 160.498 209.792C160.951 209.405 161.178 208.925 161.178 208.352C161.178 207.765 160.945 207.318 160.478 207.012C160.025 206.692 159.365 206.412 158.498 206.172V210.472ZM177.295 208.612H174.635V212.052H172.695V208.612H164.915V207.212L172.075 198.052H174.235L167.375 206.892H172.755V203.852H174.635V206.892H177.295V208.612ZM182.326 198.052V212.052H180.346V199.792H177.186V198.052H182.326ZM191.109 212.212C190.002 212.212 189.015 211.932 188.149 211.372C187.295 210.798 186.622 209.972 186.129 208.892C185.635 207.812 185.389 206.532 185.389 205.052C185.389 203.572 185.635 202.292 186.129 201.212C186.622 200.132 187.295 199.312 188.149 198.752C189.015 198.178 190.002 197.892 191.109 197.892C192.202 197.892 193.175 198.178 194.029 198.752C194.895 199.312 195.575 200.132 196.069 201.212C196.562 202.292 196.809 203.572 196.809 205.052C196.809 206.532 196.562 207.812 196.069 208.892C195.575 209.972 194.895 210.798 194.029 211.372C193.175 211.932 192.202 212.212 191.109 212.212ZM191.109 210.432C192.229 210.432 193.122 209.972 193.789 209.052C194.469 208.132 194.809 206.798 194.809 205.052C194.809 203.305 194.469 201.972 193.789 201.052C193.122 200.132 192.229 199.672 191.109 199.672C189.975 199.672 189.069 200.132 188.389 201.052C187.722 201.972 187.389 203.305 187.389 205.052C187.389 206.798 187.722 208.132 188.389 209.052C189.069 209.972 189.975 210.432 191.109 210.432ZM214.66 204.792C215.473 205.018 216.113 205.432 216.58 206.032C217.046 206.618 217.28 207.365 217.28 208.272C217.28 209.485 216.82 210.418 215.9 211.072C214.993 211.725 213.666 212.052 211.92 212.052H205.24V198.052H211.52C213.12 198.052 214.353 198.372 215.22 199.012C216.1 199.652 216.54 200.538 216.54 201.672C216.54 202.405 216.366 203.038 216.02 203.572C215.686 204.105 215.233 204.512 214.66 204.792ZM207.24 199.672V204.152H211.34C212.366 204.152 213.153 203.965 213.7 203.592C214.26 203.205 214.54 202.645 214.54 201.912C214.54 201.178 214.26 200.625 213.7 200.252C213.153 199.865 212.366 199.672 211.34 199.672H207.24ZM211.84 210.432C212.973 210.432 213.826 210.245 214.4 209.872C214.973 209.498 215.26 208.912 215.26 208.112C215.26 206.552 214.12 205.772 211.84 205.772H207.24V210.432H211.84Z" fill="black"/>
    <path d="M866.28 292.146C868.093 292.146 869.52 292.58 870.56 293.446C871.6 294.313 872.12 295.506 872.12 297.026C872.12 298.546 871.6 299.74 870.56 300.606C869.52 301.473 868.093 301.906 866.28 301.906H862.82V306.146H860.82V292.146H866.28ZM866.22 300.166C867.487 300.166 868.453 299.9 869.12 299.366C869.787 298.82 870.12 298.04 870.12 297.026C870.12 296.013 869.787 295.24 869.12 294.706C868.453 294.16 867.487 293.886 866.22 293.886H862.82V300.166H866.22ZM879.279 306.266C878.226 306.266 877.279 306.033 876.439 305.566C875.599 305.1 874.939 304.46 874.459 303.646C873.993 302.82 873.759 301.886 873.759 300.846C873.759 299.806 873.993 298.88 874.459 298.066C874.939 297.24 875.599 296.6 876.439 296.146C877.279 295.68 878.226 295.446 879.279 295.446C880.333 295.446 881.273 295.68 882.099 296.146C882.939 296.6 883.593 297.24 884.059 298.066C884.539 298.88 884.779 299.806 884.779 300.846C884.779 301.886 884.539 302.82 884.059 303.646C883.593 304.46 882.939 305.1 882.099 305.566C881.273 306.033 880.333 306.266 879.279 306.266ZM879.279 304.586C879.959 304.586 880.566 304.433 881.099 304.126C881.646 303.806 882.073 303.366 882.379 302.806C882.686 302.233 882.839 301.58 882.839 300.846C882.839 300.113 882.686 299.466 882.379 298.906C882.073 298.333 881.646 297.893 881.099 297.586C880.566 297.28 879.959 297.126 879.279 297.126C878.599 297.126 877.986 297.28 877.439 297.586C876.906 297.893 876.479 298.333 876.159 298.906C875.853 299.466 875.699 300.113 875.699 300.846C875.699 301.58 875.853 302.233 876.159 302.806C876.479 303.366 876.906 303.806 877.439 304.126C877.986 304.433 878.599 304.586 879.279 304.586ZM893.395 305.526C893.115 305.766 892.768 305.953 892.355 306.086C891.941 306.206 891.515 306.266 891.075 306.266C890.008 306.266 889.181 305.98 888.595 305.406C888.008 304.833 887.715 304.013 887.715 302.946V297.126H885.915V295.546H887.715V293.226H889.635V295.546H892.675V297.126H889.635V302.866C889.635 303.44 889.775 303.88 890.055 304.186C890.348 304.493 890.761 304.646 891.295 304.646C891.881 304.646 892.381 304.48 892.795 304.146L893.395 305.526ZM904.944 300.906C904.944 301.053 904.931 301.246 904.904 301.486H896.304C896.424 302.42 896.831 303.173 897.524 303.746C898.231 304.306 899.104 304.586 900.144 304.586C901.411 304.586 902.431 304.16 903.204 303.306L904.264 304.546C903.784 305.106 903.184 305.533 902.464 305.826C901.758 306.12 900.964 306.266 900.084 306.266C898.964 306.266 897.971 306.04 897.104 305.586C896.238 305.12 895.564 304.473 895.084 303.646C894.618 302.82 894.384 301.886 894.384 300.846C894.384 299.82 894.611 298.893 895.064 298.066C895.531 297.24 896.164 296.6 896.964 296.146C897.778 295.68 898.691 295.446 899.704 295.446C900.718 295.446 901.618 295.68 902.404 296.146C903.204 296.6 903.824 297.24 904.264 298.066C904.718 298.893 904.944 299.84 904.944 300.906ZM899.704 297.066C898.784 297.066 898.011 297.346 897.384 297.906C896.771 298.466 896.411 299.2 896.304 300.106H903.104C902.998 299.213 902.631 298.486 902.004 297.926C901.391 297.353 900.624 297.066 899.704 297.066ZM913.27 295.446C914.617 295.446 915.684 295.84 916.47 296.626C917.27 297.4 917.67 298.54 917.67 300.046V306.146H915.75V300.266C915.75 299.24 915.504 298.466 915.01 297.946C914.517 297.426 913.81 297.166 912.89 297.166C911.85 297.166 911.03 297.473 910.43 298.086C909.83 298.686 909.53 299.553 909.53 300.686V306.146H907.61V295.546H909.45V297.146C909.837 296.6 910.357 296.18 911.01 295.886C911.677 295.593 912.43 295.446 913.27 295.446ZM927.184 305.526C926.904 305.766 926.557 305.953 926.144 306.086C925.73 306.206 925.304 306.266 924.864 306.266C923.797 306.266 922.97 305.98 922.384 305.406C921.797 304.833 921.504 304.013 921.504 302.946V297.126H919.704V295.546H921.504V293.226H923.424V295.546H926.464V297.126H923.424V302.866C923.424 303.44 923.564 303.88 923.844 304.186C924.137 304.493 924.55 304.646 925.084 304.646C925.67 304.646 926.17 304.48 926.584 304.146L927.184 305.526ZM929.505 295.546H931.425V306.146H929.505V295.546ZM930.465 293.506C930.091 293.506 929.778 293.386 929.525 293.146C929.285 292.906 929.165 292.613 929.165 292.266C929.165 291.92 929.285 291.626 929.525 291.386C929.778 291.133 930.091 291.006 930.465 291.006C930.838 291.006 931.145 291.126 931.385 291.366C931.638 291.593 931.765 291.88 931.765 292.226C931.765 292.586 931.638 292.893 931.385 293.146C931.145 293.386 930.838 293.506 930.465 293.506ZM938.951 295.446C940.417 295.446 941.537 295.806 942.311 296.526C943.097 297.246 943.491 298.32 943.491 299.746V306.146H941.671V304.746C941.351 305.24 940.891 305.62 940.291 305.886C939.704 306.14 939.004 306.266 938.191 306.266C937.004 306.266 936.051 305.98 935.331 305.406C934.624 304.833 934.271 304.08 934.271 303.146C934.271 302.213 934.611 301.466 935.291 300.906C935.971 300.333 937.051 300.046 938.531 300.046H941.571V299.666C941.571 298.84 941.331 298.206 940.851 297.766C940.371 297.326 939.664 297.106 938.731 297.106C938.104 297.106 937.491 297.213 936.891 297.426C936.291 297.626 935.784 297.9 935.371 298.246L934.571 296.806C935.117 296.366 935.771 296.033 936.531 295.806C937.291 295.566 938.097 295.446 938.951 295.446ZM938.511 304.786C939.244 304.786 939.877 304.626 940.411 304.306C940.944 303.973 941.331 303.506 941.571 302.906V301.426H938.611C936.984 301.426 936.171 301.973 936.171 303.066C936.171 303.6 936.377 304.02 936.791 304.326C937.204 304.633 937.777 304.786 938.511 304.786ZM947.044 291.306H948.964V306.146H947.044V291.306ZM971.261 306.146L971.241 295.946L966.181 304.446H965.261L960.201 296.006V306.146H958.281V292.146H959.921L965.761 301.986L971.521 292.146H973.161L973.181 306.146H971.261ZM980.962 295.446C982.429 295.446 983.549 295.806 984.322 296.526C985.109 297.246 985.502 298.32 985.502 299.746V306.146H983.682V304.746C983.362 305.24 982.902 305.62 982.302 305.886C981.716 306.14 981.016 306.266 980.202 306.266C979.016 306.266 978.062 305.98 977.342 305.406C976.636 304.833 976.282 304.08 976.282 303.146C976.282 302.213 976.622 301.466 977.302 300.906C977.982 300.333 979.062 300.046 980.542 300.046H983.582V299.666C983.582 298.84 983.342 298.206 982.862 297.766C982.382 297.326 981.676 297.106 980.742 297.106C980.116 297.106 979.502 297.213 978.902 297.426C978.302 297.626 977.796 297.9 977.382 298.246L976.582 296.806C977.129 296.366 977.782 296.033 978.542 295.806C979.302 295.566 980.109 295.446 980.962 295.446ZM980.522 304.786C981.256 304.786 981.889 304.626 982.422 304.306C982.956 303.973 983.342 303.506 983.582 302.906V301.426H980.622C978.996 301.426 978.182 301.973 978.182 303.066C978.182 303.6 978.389 304.02 978.802 304.326C979.216 304.633 979.789 304.786 980.522 304.786ZM990.896 297.326C991.229 296.713 991.722 296.246 992.376 295.926C993.029 295.606 993.822 295.446 994.756 295.446V297.306C994.649 297.293 994.502 297.286 994.316 297.286C993.276 297.286 992.456 297.6 991.856 298.226C991.269 298.84 990.976 299.72 990.976 300.866V306.146H989.056V295.546H990.896V297.326ZM1001.24 301.206L999.042 303.246V306.146H997.122V291.306H999.042V300.826L1004.82 295.546H1007.14L1002.68 299.926L1007.58 306.146H1005.22L1001.24 301.206ZM1018.58 300.906C1018.58 301.053 1018.56 301.246 1018.54 301.486H1009.94C1010.06 302.42 1010.46 303.173 1011.16 303.746C1011.86 304.306 1012.74 304.586 1013.78 304.586C1015.04 304.586 1016.06 304.16 1016.84 303.306L1017.9 304.546C1017.42 305.106 1016.82 305.533 1016.1 305.826C1015.39 306.12 1014.6 306.266 1013.72 306.266C1012.6 306.266 1011.6 306.04 1010.74 305.586C1009.87 305.12 1009.2 304.473 1008.72 303.646C1008.25 302.82 1008.02 301.886 1008.02 300.846C1008.02 299.82 1008.24 298.893 1008.7 298.066C1009.16 297.24 1009.8 296.6 1010.6 296.146C1011.41 295.68 1012.32 295.446 1013.34 295.446C1014.35 295.446 1015.25 295.68 1016.04 296.146C1016.84 296.6 1017.46 297.24 1017.9 298.066C1018.35 298.893 1018.58 299.84 1018.58 300.906ZM1013.34 297.066C1012.42 297.066 1011.64 297.346 1011.02 297.906C1010.4 298.466 1010.04 299.2 1009.94 300.106H1016.74C1016.63 299.213 1016.26 298.486 1015.64 297.926C1015.02 297.353 1014.26 297.066 1013.34 297.066ZM1027.2 305.526C1026.92 305.766 1026.58 305.953 1026.16 306.086C1025.75 306.206 1025.32 306.266 1024.88 306.266C1023.82 306.266 1022.99 305.98 1022.4 305.406C1021.82 304.833 1021.52 304.013 1021.52 302.946V297.126H1019.72V295.546H1021.52V293.226H1023.44V295.546H1026.48V297.126H1023.44V302.866C1023.44 303.44 1023.58 303.88 1023.86 304.186C1024.16 304.493 1024.57 304.646 1025.1 304.646C1025.69 304.646 1026.19 304.48 1026.6 304.146L1027.2 305.526ZM1038.78 292.766C1037.63 292.766 1037.06 293.386 1037.06 294.626V295.546H1040.14V297.126H1037.1V306.146H1035.18V297.126H1033.38V295.546H1035.18V294.606C1035.18 293.553 1035.48 292.72 1036.1 292.106C1036.71 291.493 1037.57 291.186 1038.68 291.186C1039.1 291.186 1039.5 291.24 1039.88 291.346C1040.25 291.453 1040.57 291.606 1040.84 291.806L1040.26 293.266C1039.82 292.933 1039.32 292.766 1038.78 292.766ZM1046.33 306.266C1045.28 306.266 1044.33 306.033 1043.49 305.566C1042.65 305.1 1041.99 304.46 1041.51 303.646C1041.04 302.82 1040.81 301.886 1040.81 300.846C1040.81 299.806 1041.04 298.88 1041.51 298.066C1041.99 297.24 1042.65 296.6 1043.49 296.146C1044.33 295.68 1045.28 295.446 1046.33 295.446C1047.38 295.446 1048.32 295.68 1049.15 296.146C1049.99 296.6 1050.64 297.24 1051.11 298.066C1051.59 298.88 1051.83 299.806 1051.83 300.846C1051.83 301.886 1051.59 302.82 1051.11 303.646C1050.64 304.46 1049.99 305.1 1049.15 305.566C1048.32 306.033 1047.38 306.266 1046.33 306.266ZM1046.33 304.586C1047.01 304.586 1047.62 304.433 1048.15 304.126C1048.7 303.806 1049.12 303.366 1049.43 302.806C1049.74 302.233 1049.89 301.58 1049.89 300.846C1049.89 300.113 1049.74 299.466 1049.43 298.906C1049.12 298.333 1048.7 297.893 1048.15 297.586C1047.62 297.28 1047.01 297.126 1046.33 297.126C1045.65 297.126 1045.04 297.28 1044.49 297.586C1043.96 297.893 1043.53 298.333 1043.21 298.906C1042.9 299.466 1042.75 300.113 1042.75 300.846C1042.75 301.58 1042.9 302.233 1043.21 302.806C1043.53 303.366 1043.96 303.806 1044.49 304.126C1045.04 304.433 1045.65 304.586 1046.33 304.586ZM1056.33 297.326C1056.66 296.713 1057.15 296.246 1057.81 295.926C1058.46 295.606 1059.25 295.446 1060.19 295.446V297.306C1060.08 297.293 1059.93 297.286 1059.75 297.286C1058.71 297.286 1057.89 297.6 1057.29 298.226C1056.7 298.84 1056.41 299.72 1056.41 300.866V306.146H1054.49V295.546H1056.33V297.326ZM873.609 322.886C874.422 323.113 875.062 323.526 875.529 324.126C875.996 324.713 876.229 325.46 876.229 326.366C876.229 327.58 875.769 328.513 874.849 329.166C873.942 329.82 872.616 330.146 870.869 330.146H864.189V316.146H870.469C872.069 316.146 873.302 316.466 874.169 317.106C875.049 317.746 875.489 318.633 875.489 319.766C875.489 320.5 875.316 321.133 874.969 321.666C874.636 322.2 874.182 322.606 873.609 322.886ZM866.189 317.766V322.246H870.289C871.316 322.246 872.102 322.06 872.649 321.686C873.209 321.3 873.489 320.74 873.489 320.006C873.489 319.273 873.209 318.72 872.649 318.346C872.102 317.96 871.316 317.766 870.289 317.766H866.189ZM870.789 328.526C871.922 328.526 872.776 328.34 873.349 327.966C873.922 327.593 874.209 327.006 874.209 326.206C874.209 324.646 873.069 323.866 870.789 323.866H866.189V328.526H870.789ZM888.926 319.546V330.146H887.106V328.546C886.719 329.093 886.206 329.52 885.566 329.826C884.939 330.12 884.252 330.266 883.506 330.266C882.092 330.266 880.979 329.88 880.166 329.106C879.352 328.32 878.946 327.166 878.946 325.646V319.546H880.866V325.426C880.866 326.453 881.112 327.233 881.606 327.766C882.099 328.286 882.806 328.546 883.726 328.546C884.739 328.546 885.539 328.24 886.126 327.626C886.712 327.013 887.006 326.146 887.006 325.026V319.546H888.926ZM892.581 319.546H894.501V330.146H892.581V319.546ZM893.541 317.506C893.168 317.506 892.854 317.386 892.601 317.146C892.361 316.906 892.241 316.613 892.241 316.266C892.241 315.92 892.361 315.626 892.601 315.386C892.854 315.133 893.168 315.006 893.541 315.006C893.914 315.006 894.221 315.126 894.461 315.366C894.714 315.593 894.841 315.88 894.841 316.226C894.841 316.586 894.714 316.893 894.461 317.146C894.221 317.386 893.914 317.506 893.541 317.506ZM898.167 315.306H900.087V330.146H898.167V315.306ZM913.753 315.306V330.146H911.913V328.466C911.486 329.053 910.946 329.5 910.293 329.806C909.64 330.113 908.92 330.266 908.133 330.266C907.106 330.266 906.186 330.04 905.373 329.586C904.56 329.133 903.92 328.5 903.453 327.686C903 326.86 902.773 325.913 902.773 324.846C902.773 323.78 903 322.84 903.453 322.026C903.92 321.213 904.56 320.58 905.373 320.126C906.186 319.673 907.106 319.446 908.133 319.446C908.893 319.446 909.593 319.593 910.233 319.886C910.873 320.166 911.406 320.586 911.833 321.146V315.306H913.753ZM908.293 328.586C908.96 328.586 909.566 328.433 910.113 328.126C910.66 327.806 911.086 327.366 911.393 326.806C911.7 326.233 911.853 325.58 911.853 324.846C911.853 324.113 911.7 323.466 911.393 322.906C911.086 322.333 910.66 321.893 910.113 321.586C909.566 321.28 908.96 321.126 908.293 321.126C907.613 321.126 907 321.28 906.453 321.586C905.92 321.893 905.493 322.333 905.173 322.906C904.866 323.466 904.713 324.113 904.713 324.846C904.713 325.58 904.866 326.233 905.173 326.806C905.493 327.366 905.92 327.806 906.453 328.126C907 328.433 907.613 328.586 908.293 328.586ZM917.386 319.546H919.306V330.146H917.386V319.546ZM918.346 317.506C917.972 317.506 917.659 317.386 917.406 317.146C917.166 316.906 917.046 316.613 917.046 316.266C917.046 315.92 917.166 315.626 917.406 315.386C917.659 315.133 917.972 315.006 918.346 315.006C918.719 315.006 919.026 315.126 919.266 315.366C919.519 315.593 919.646 315.88 919.646 316.226C919.646 316.586 919.519 316.893 919.266 317.146C919.026 317.386 918.719 317.506 918.346 317.506ZM928.632 319.446C929.978 319.446 931.045 319.84 931.832 320.626C932.632 321.4 933.032 322.54 933.032 324.046V330.146H931.112V324.266C931.112 323.24 930.865 322.466 930.372 321.946C929.878 321.426 929.172 321.166 928.252 321.166C927.212 321.166 926.392 321.473 925.792 322.086C925.192 322.686 924.892 323.553 924.892 324.686V330.146H922.972V319.546H924.812V321.146C925.198 320.6 925.718 320.18 926.372 319.886C927.038 319.593 927.792 319.446 928.632 319.446ZM946.783 319.546V328.706C946.783 330.56 946.323 331.926 945.403 332.806C944.483 333.7 943.11 334.146 941.283 334.146C940.283 334.146 939.33 334.006 938.423 333.726C937.517 333.46 936.783 333.073 936.223 332.566L937.143 331.086C937.637 331.513 938.243 331.846 938.963 332.086C939.697 332.34 940.45 332.466 941.223 332.466C942.463 332.466 943.377 332.173 943.963 331.586C944.563 331 944.863 330.106 944.863 328.906V328.066C944.41 328.613 943.85 329.026 943.183 329.306C942.53 329.573 941.817 329.706 941.043 329.706C940.03 329.706 939.11 329.493 938.283 329.066C937.47 328.626 936.83 328.02 936.363 327.246C935.897 326.46 935.663 325.566 935.663 324.566C935.663 323.566 935.897 322.68 936.363 321.906C936.83 321.12 937.47 320.513 938.283 320.086C939.11 319.66 940.03 319.446 941.043 319.446C941.843 319.446 942.583 319.593 943.263 319.886C943.957 320.18 944.523 320.613 944.963 321.186V319.546H946.783ZM941.263 328.026C941.957 328.026 942.577 327.88 943.123 327.586C943.683 327.293 944.117 326.886 944.423 326.366C944.743 325.833 944.903 325.233 944.903 324.566C944.903 323.54 944.563 322.713 943.883 322.086C943.203 321.446 942.33 321.126 941.263 321.126C940.183 321.126 939.303 321.446 938.623 322.086C937.943 322.713 937.603 323.54 937.603 324.566C937.603 325.233 937.757 325.833 938.063 326.366C938.383 326.886 938.817 327.293 939.363 327.586C939.923 327.88 940.557 328.026 941.263 328.026ZM960.363 330.266C959.31 330.266 958.363 330.033 957.523 329.566C956.683 329.1 956.023 328.46 955.543 327.646C955.077 326.82 954.843 325.886 954.843 324.846C954.843 323.806 955.077 322.88 955.543 322.066C956.023 321.24 956.683 320.6 957.523 320.146C958.363 319.68 959.31 319.446 960.363 319.446C961.417 319.446 962.357 319.68 963.183 320.146C964.023 320.6 964.677 321.24 965.143 322.066C965.623 322.88 965.863 323.806 965.863 324.846C965.863 325.886 965.623 326.82 965.143 327.646C964.677 328.46 964.023 329.1 963.183 329.566C962.357 330.033 961.417 330.266 960.363 330.266ZM960.363 328.586C961.043 328.586 961.65 328.433 962.183 328.126C962.73 327.806 963.157 327.366 963.463 326.806C963.77 326.233 963.923 325.58 963.923 324.846C963.923 324.113 963.77 323.466 963.463 322.906C963.157 322.333 962.73 321.893 962.183 321.586C961.65 321.28 961.043 321.126 960.363 321.126C959.683 321.126 959.07 321.28 958.523 321.586C957.99 321.893 957.563 322.333 957.243 322.906C956.937 323.466 956.783 324.113 956.783 324.846C956.783 325.58 956.937 326.233 957.243 326.806C957.563 327.366 957.99 327.806 958.523 328.126C959.07 328.433 959.683 328.586 960.363 328.586ZM974.178 319.446C975.525 319.446 976.592 319.84 977.378 320.626C978.178 321.4 978.578 322.54 978.578 324.046V330.146H976.658V324.266C976.658 323.24 976.412 322.466 975.918 321.946C975.425 321.426 974.718 321.166 973.798 321.166C972.758 321.166 971.938 321.473 971.338 322.086C970.738 322.686 970.438 323.553 970.438 324.686V330.146H968.518V319.546H970.358V321.146C970.745 320.6 971.265 320.18 971.918 319.886C972.585 319.593 973.338 319.446 974.178 319.446ZM997.203 322.886C998.016 323.113 998.656 323.526 999.123 324.126C999.59 324.713 999.823 325.46 999.823 326.366C999.823 327.58 999.363 328.513 998.443 329.166C997.536 329.82 996.21 330.146 994.463 330.146H987.783V316.146H994.063C995.663 316.146 996.896 316.466 997.763 317.106C998.643 317.746 999.083 318.633 999.083 319.766C999.083 320.5 998.91 321.133 998.563 321.666C998.23 322.2 997.776 322.606 997.203 322.886ZM989.783 317.766V322.246H993.883C994.91 322.246 995.696 322.06 996.243 321.686C996.803 321.3 997.083 320.74 997.083 320.006C997.083 319.273 996.803 318.72 996.243 318.346C995.696 317.96 994.91 317.766 993.883 317.766H989.783ZM994.383 328.526C995.516 328.526 996.37 328.34 996.943 327.966C997.516 327.593 997.803 327.006 997.803 326.206C997.803 324.646 996.663 323.866 994.383 323.866H989.783V328.526H994.383ZM1002.64 319.546H1004.56V330.146H1002.64V319.546ZM1003.6 317.506C1003.23 317.506 1002.91 317.386 1002.66 317.146C1002.42 316.906 1002.3 316.613 1002.3 316.266C1002.3 315.92 1002.42 315.626 1002.66 315.386C1002.91 315.133 1003.23 315.006 1003.6 315.006C1003.97 315.006 1004.28 315.126 1004.52 315.366C1004.77 315.593 1004.9 315.88 1004.9 316.226C1004.9 316.586 1004.77 316.893 1004.52 317.146C1004.28 317.386 1003.97 317.506 1003.6 317.506ZM1014.19 329.526C1013.91 329.766 1013.56 329.953 1013.15 330.086C1012.73 330.206 1012.31 330.266 1011.87 330.266C1010.8 330.266 1009.97 329.98 1009.39 329.406C1008.8 328.833 1008.51 328.013 1008.51 326.946V321.126H1006.71V319.546H1008.51V317.226H1010.43V319.546H1013.47V321.126H1010.43V326.866C1010.43 327.44 1010.57 327.88 1010.85 328.186C1011.14 328.493 1011.55 328.646 1012.09 328.646C1012.67 328.646 1013.17 328.48 1013.59 328.146L1014.19 329.526ZM1020.78 330.266C1019.7 330.266 1018.73 330.033 1017.88 329.566C1017.04 329.1 1016.38 328.46 1015.9 327.646C1015.42 326.82 1015.18 325.886 1015.18 324.846C1015.18 323.806 1015.42 322.88 1015.9 322.066C1016.38 321.24 1017.04 320.6 1017.88 320.146C1018.73 319.68 1019.7 319.446 1020.78 319.446C1021.74 319.446 1022.59 319.64 1023.34 320.026C1024.1 320.413 1024.68 320.973 1025.1 321.706L1023.64 322.646C1023.3 322.14 1022.89 321.76 1022.4 321.506C1021.9 321.253 1021.36 321.126 1020.76 321.126C1020.06 321.126 1019.44 321.28 1018.88 321.586C1018.33 321.893 1017.9 322.333 1017.58 322.906C1017.27 323.466 1017.12 324.113 1017.12 324.846C1017.12 325.593 1017.27 326.253 1017.58 326.826C1017.9 327.386 1018.33 327.82 1018.88 328.126C1019.44 328.433 1020.06 328.586 1020.76 328.586C1021.36 328.586 1021.9 328.46 1022.4 328.206C1022.89 327.953 1023.3 327.573 1023.64 327.066L1025.1 327.986C1024.68 328.72 1024.1 329.286 1023.34 329.686C1022.59 330.073 1021.74 330.266 1020.78 330.266ZM1031.96 330.266C1030.91 330.266 1029.96 330.033 1029.12 329.566C1028.28 329.1 1027.62 328.46 1027.14 327.646C1026.68 326.82 1026.44 325.886 1026.44 324.846C1026.44 323.806 1026.68 322.88 1027.14 322.066C1027.62 321.24 1028.28 320.6 1029.12 320.146C1029.96 319.68 1030.91 319.446 1031.96 319.446C1033.02 319.446 1033.96 319.68 1034.78 320.146C1035.62 320.6 1036.28 321.24 1036.74 322.066C1037.22 322.88 1037.46 323.806 1037.46 324.846C1037.46 325.886 1037.22 326.82 1036.74 327.646C1036.28 328.46 1035.62 329.1 1034.78 329.566C1033.96 330.033 1033.02 330.266 1031.96 330.266ZM1031.96 328.586C1032.64 328.586 1033.25 328.433 1033.78 328.126C1034.33 327.806 1034.76 327.366 1035.06 326.806C1035.37 326.233 1035.52 325.58 1035.52 324.846C1035.52 324.113 1035.37 323.466 1035.06 322.906C1034.76 322.333 1034.33 321.893 1033.78 321.586C1033.25 321.28 1032.64 321.126 1031.96 321.126C1031.28 321.126 1030.67 321.28 1030.12 321.586C1029.59 321.893 1029.16 322.333 1028.84 322.906C1028.54 323.466 1028.38 324.113 1028.38 324.846C1028.38 325.58 1028.54 326.233 1028.84 326.806C1029.16 327.366 1029.59 327.806 1030.12 328.126C1030.67 328.433 1031.28 328.586 1031.96 328.586ZM1040.12 319.546H1042.04V330.146H1040.12V319.546ZM1041.08 317.506C1040.71 317.506 1040.39 317.386 1040.14 317.146C1039.9 316.906 1039.78 316.613 1039.78 316.266C1039.78 315.92 1039.9 315.626 1040.14 315.386C1040.39 315.133 1040.71 315.006 1041.08 315.006C1041.45 315.006 1041.76 315.126 1042 315.366C1042.25 315.593 1042.38 315.88 1042.38 316.226C1042.38 316.586 1042.25 316.893 1042 317.146C1041.76 317.386 1041.45 317.506 1041.08 317.506ZM1051.37 319.446C1052.71 319.446 1053.78 319.84 1054.57 320.626C1055.37 321.4 1055.77 322.54 1055.77 324.046V330.146H1053.85V324.266C1053.85 323.24 1053.6 322.466 1053.11 321.946C1052.61 321.426 1051.91 321.166 1050.99 321.166C1049.95 321.166 1049.13 321.473 1048.53 322.086C1047.93 322.686 1047.63 323.553 1047.63 324.686V330.146H1045.71V319.546H1047.55V321.146C1047.93 320.6 1048.45 320.18 1049.11 319.886C1049.77 319.593 1050.53 319.446 1051.37 319.446ZM926.041 371.946H922.401V375.526H920.721V371.946H917.081V370.366H920.721V366.766H922.401V370.366H926.041V371.946ZM944.353 374.326C944.353 375.38 943.953 376.273 943.153 377.006C942.367 377.74 941.22 378.166 939.713 378.286V380.546H938.433V378.286C937.46 378.233 936.533 378.053 935.653 377.746C934.787 377.426 934.093 377.026 933.573 376.546L934.313 374.986C934.793 375.426 935.4 375.793 936.133 376.086C936.867 376.366 937.633 376.533 938.433 376.586V371.946C937.5 371.72 936.72 371.473 936.093 371.206C935.48 370.94 934.96 370.546 934.533 370.026C934.12 369.506 933.913 368.826 933.913 367.986C933.913 366.933 934.293 366.04 935.053 365.306C935.827 364.573 936.953 364.146 938.433 364.026V361.746H939.713V364.006C940.473 364.033 941.207 364.153 941.913 364.366C942.633 364.58 943.253 364.866 943.773 365.226L943.113 366.826C942.033 366.146 940.9 365.773 939.713 365.706V370.366C940.687 370.606 941.487 370.86 942.113 371.126C942.74 371.38 943.267 371.766 943.693 372.286C944.133 372.793 944.353 373.473 944.353 374.326ZM935.873 367.906C935.873 368.48 936.093 368.926 936.533 369.246C936.973 369.566 937.607 369.833 938.433 370.046V365.726C937.58 365.833 936.94 366.086 936.513 366.486C936.087 366.873 935.873 367.346 935.873 367.906ZM939.713 376.566C940.607 376.486 941.273 376.26 941.713 375.886C942.167 375.5 942.393 375.02 942.393 374.446C942.393 373.86 942.16 373.413 941.693 373.106C941.24 372.786 940.58 372.506 939.713 372.266V376.566ZM950.135 369.726C952.135 369.726 953.602 370.106 954.535 370.866C955.482 371.613 955.955 372.64 955.955 373.946C955.955 374.773 955.755 375.52 955.355 376.186C954.968 376.84 954.375 377.36 953.575 377.746C952.788 378.12 951.815 378.306 950.655 378.306C949.668 378.306 948.715 378.16 947.795 377.866C946.875 377.56 946.115 377.14 945.515 376.606L946.435 375.026C946.915 375.48 947.528 375.846 948.275 376.126C949.022 376.393 949.808 376.526 950.635 376.526C951.688 376.526 952.502 376.306 953.075 375.866C953.662 375.413 953.955 374.8 953.955 374.026C953.955 373.186 953.635 372.553 952.995 372.126C952.355 371.686 951.262 371.466 949.715 371.466H946.535L947.275 364.146H955.175V365.886H948.955L948.575 369.726H950.135ZM963.339 378.306C962.233 378.306 961.246 378.026 960.379 377.466C959.526 376.893 958.853 376.066 958.359 374.986C957.866 373.906 957.619 372.626 957.619 371.146C957.619 369.666 957.866 368.386 958.359 367.306C958.853 366.226 959.526 365.406 960.379 364.846C961.246 364.273 962.233 363.986 963.339 363.986C964.433 363.986 965.406 364.273 966.259 364.846C967.126 365.406 967.806 366.226 968.299 367.306C968.793 368.386 969.039 369.666 969.039 371.146C969.039 372.626 968.793 373.906 968.299 374.986C967.806 376.066 967.126 376.893 966.259 377.466C965.406 378.026 964.433 378.306 963.339 378.306ZM963.339 376.526C964.459 376.526 965.353 376.066 966.019 375.146C966.699 374.226 967.039 372.893 967.039 371.146C967.039 369.4 966.699 368.066 966.019 367.146C965.353 366.226 964.459 365.766 963.339 365.766C962.206 365.766 961.299 366.226 960.619 367.146C959.953 368.066 959.619 369.4 959.619 371.146C959.619 372.893 959.953 374.226 960.619 375.146C961.299 376.066 962.206 376.526 963.339 376.526ZM976.679 378.306C975.573 378.306 974.586 378.026 973.719 377.466C972.866 376.893 972.193 376.066 971.699 374.986C971.206 373.906 970.959 372.626 970.959 371.146C970.959 369.666 971.206 368.386 971.699 367.306C972.193 366.226 972.866 365.406 973.719 364.846C974.586 364.273 975.573 363.986 976.679 363.986C977.773 363.986 978.746 364.273 979.599 364.846C980.466 365.406 981.146 366.226 981.639 367.306C982.133 368.386 982.379 369.666 982.379 371.146C982.379 372.626 982.133 373.906 981.639 374.986C981.146 376.066 980.466 376.893 979.599 377.466C978.746 378.026 977.773 378.306 976.679 378.306ZM976.679 376.526C977.799 376.526 978.693 376.066 979.359 375.146C980.039 374.226 980.379 372.893 980.379 371.146C980.379 369.4 980.039 368.066 979.359 367.146C978.693 366.226 977.799 365.766 976.679 365.766C975.546 365.766 974.639 366.226 973.959 367.146C973.293 368.066 972.959 369.4 972.959 371.146C972.959 372.893 973.293 374.226 973.959 375.146C974.639 376.066 975.546 376.526 976.679 376.526ZM1000.23 370.886C1001.04 371.113 1001.68 371.526 1002.15 372.126C1002.62 372.713 1002.85 373.46 1002.85 374.366C1002.85 375.58 1002.39 376.513 1001.47 377.166C1000.56 377.82 999.237 378.146 997.49 378.146H990.81V364.146H997.09C998.69 364.146 999.924 364.466 1000.79 365.106C1001.67 365.746 1002.11 366.633 1002.11 367.766C1002.11 368.5 1001.94 369.133 1001.59 369.666C1001.26 370.2 1000.8 370.606 1000.23 370.886ZM992.81 365.766V370.246H996.91C997.937 370.246 998.724 370.06 999.27 369.686C999.83 369.3 1000.11 368.74 1000.11 368.006C1000.11 367.273 999.83 366.72 999.27 366.346C998.724 365.96 997.937 365.766 996.91 365.766H992.81ZM997.41 376.526C998.544 376.526 999.397 376.34 999.97 375.966C1000.54 375.593 1000.83 375.006 1000.83 374.206C1000.83 372.646 999.69 371.866 997.41 371.866H992.81V376.526H997.41Z" fill="white"/>
    <g style="mix-blend-mode:exclusion">
        <path d="M307.965 293.886H303.165V292.146H314.745V293.886H309.945V306.146H307.965V293.886ZM328.927 292.146L322.787 306.146H320.807L314.647 292.146H316.807L321.847 303.646L326.927 292.146H328.927ZM330.712 292.146H332.712V304.406H340.292V306.146H330.712V292.146ZM304.608 316.146V330.146H302.968L294.568 319.706V330.146H292.568V316.146H294.208L302.608 326.586V316.146H304.608ZM310.798 317.886V322.766H317.818V324.486H310.798V330.146H308.798V316.146H318.678V317.886H310.798ZM324.371 317.886H319.571V316.146H331.151V317.886H326.351V330.146H324.371V317.886ZM335.328 330.266C334.461 330.266 333.628 330.153 332.828 329.926C332.028 329.686 331.401 329.386 330.948 329.026L331.748 327.506C332.214 327.839 332.781 328.106 333.448 328.306C334.114 328.506 334.788 328.606 335.468 328.606C337.148 328.606 337.988 328.126 337.988 327.166C337.988 326.846 337.874 326.593 337.648 326.406C337.421 326.219 337.134 326.086 336.788 326.006C336.454 325.913 335.974 325.813 335.348 325.706C334.494 325.573 333.794 325.419 333.248 325.246C332.714 325.073 332.254 324.779 331.868 324.366C331.481 323.953 331.288 323.373 331.288 322.626C331.288 321.666 331.688 320.899 332.488 320.326C333.288 319.739 334.361 319.446 335.708 319.446C336.414 319.446 337.121 319.533 337.828 319.706C338.534 319.879 339.114 320.113 339.568 320.406L338.748 321.926C337.881 321.366 336.861 321.086 335.688 321.086C334.874 321.086 334.254 321.219 333.828 321.486C333.401 321.753 333.188 322.106 333.188 322.546C333.188 322.893 333.308 323.166 333.548 323.366C333.788 323.566 334.081 323.713 334.428 323.806C334.788 323.899 335.288 324.006 335.928 324.126C336.781 324.273 337.468 324.433 337.988 324.606C338.521 324.766 338.974 325.046 339.348 325.446C339.721 325.846 339.908 326.406 339.908 327.126C339.908 328.086 339.494 328.853 338.668 329.426C337.854 329.986 336.741 330.266 335.328 330.266ZM296.76 339.306V354.146H294.92V352.466C294.494 353.053 293.954 353.499 293.3 353.806C292.647 354.113 291.927 354.266 291.14 354.266C290.114 354.266 289.194 354.039 288.38 353.586C287.567 353.133 286.927 352.499 286.46 351.686C286.007 350.859 285.78 349.913 285.78 348.846C285.78 347.779 286.007 346.839 286.46 346.026C286.927 345.213 287.567 344.579 288.38 344.126C289.194 343.673 290.114 343.446 291.14 343.446C291.9 343.446 292.6 343.593 293.24 343.886C293.88 344.166 294.414 344.586 294.84 345.146V339.306H296.76ZM291.3 352.586C291.967 352.586 292.574 352.433 293.12 352.126C293.667 351.806 294.094 351.366 294.4 350.806C294.707 350.233 294.86 349.579 294.86 348.846C294.86 348.113 294.707 347.466 294.4 346.906C294.094 346.333 293.667 345.893 293.12 345.586C292.574 345.279 291.967 345.126 291.3 345.126C290.62 345.126 290.007 345.279 289.46 345.586C288.927 345.893 288.5 346.333 288.18 346.906C287.874 347.466 287.72 348.113 287.72 348.846C287.72 349.579 287.874 350.233 288.18 350.806C288.5 351.366 288.927 351.806 289.46 352.126C290.007 352.433 290.62 352.586 291.3 352.586ZM309.593 350.646H302.153L300.613 354.146H298.553L304.893 340.146H306.873L313.233 354.146H311.133L309.593 350.646ZM308.893 349.046L305.873 342.186L302.853 349.046H308.893ZM320.662 343.446C321.688 343.446 322.608 343.673 323.422 344.126C324.235 344.579 324.868 345.213 325.322 346.026C325.788 346.839 326.022 347.779 326.022 348.846C326.022 349.913 325.788 350.859 325.322 351.686C324.868 352.499 324.235 353.133 323.422 353.586C322.608 354.039 321.688 354.266 320.662 354.266C319.902 354.266 319.202 354.119 318.562 353.826C317.935 353.533 317.402 353.106 316.962 352.546V358.026H315.042V343.546H316.882V345.226C317.308 344.639 317.848 344.199 318.502 343.906C319.155 343.599 319.875 343.446 320.662 343.446ZM320.502 352.586C321.182 352.586 321.788 352.433 322.322 352.126C322.868 351.806 323.295 351.366 323.602 350.806C323.922 350.233 324.082 349.579 324.082 348.846C324.082 348.113 323.922 347.466 323.602 346.906C323.295 346.333 322.868 345.893 322.322 345.586C321.788 345.279 321.182 345.126 320.502 345.126C319.835 345.126 319.228 345.286 318.682 345.606C318.148 345.913 317.722 346.346 317.402 346.906C317.095 347.466 316.942 348.113 316.942 348.846C316.942 349.579 317.095 350.233 317.402 350.806C317.708 351.366 318.135 351.806 318.682 352.126C319.228 352.433 319.835 352.586 320.502 352.586ZM334.294 343.446C335.321 343.446 336.241 343.673 337.055 344.126C337.868 344.579 338.501 345.213 338.955 346.026C339.421 346.839 339.655 347.779 339.655 348.846C339.655 349.913 339.421 350.859 338.955 351.686C338.501 352.499 337.868 353.133 337.055 353.586C336.241 354.039 335.321 354.266 334.294 354.266C333.535 354.266 332.835 354.119 332.195 353.826C331.568 353.533 331.035 353.106 330.594 352.546V358.026H328.674V343.546H330.515V345.226C330.941 344.639 331.481 344.199 332.134 343.906C332.788 343.599 333.508 343.446 334.294 343.446ZM334.135 352.586C334.815 352.586 335.421 352.433 335.955 352.126C336.501 351.806 336.928 351.366 337.235 350.806C337.555 350.233 337.715 349.579 337.715 348.846C337.715 348.113 337.555 347.466 337.235 346.906C336.928 346.333 336.501 345.893 335.955 345.586C335.421 345.279 334.815 345.126 334.135 345.126C333.468 345.126 332.861 345.286 332.314 345.606C331.781 345.913 331.354 346.346 331.034 346.906C330.728 347.466 330.574 348.113 330.574 348.846C330.574 349.579 330.728 350.233 331.034 350.806C331.341 351.366 331.768 351.806 332.314 352.126C332.861 352.433 333.468 352.586 334.135 352.586ZM335.328 378.266C334.461 378.266 333.628 378.153 332.828 377.926C332.028 377.686 331.401 377.386 330.948 377.026L331.748 375.506C332.214 375.839 332.781 376.106 333.448 376.306C334.114 376.506 334.788 376.606 335.468 376.606C337.148 376.606 337.988 376.126 337.988 375.166C337.988 374.846 337.874 374.593 337.648 374.406C337.421 374.219 337.134 374.086 336.788 374.006C336.454 373.913 335.974 373.813 335.348 373.706C334.494 373.573 333.794 373.419 333.248 373.246C332.714 373.073 332.254 372.779 331.868 372.366C331.481 371.953 331.288 371.373 331.288 370.626C331.288 369.666 331.688 368.899 332.488 368.326C333.288 367.739 334.361 367.446 335.708 367.446C336.414 367.446 337.121 367.533 337.828 367.706C338.534 367.879 339.114 368.113 339.568 368.406L338.748 369.926C337.881 369.366 336.861 369.086 335.688 369.086C334.874 369.086 334.254 369.219 333.828 369.486C333.401 369.753 333.188 370.106 333.188 370.546C333.188 370.893 333.308 371.166 333.548 371.366C333.788 371.566 334.081 371.713 334.428 371.806C334.788 371.899 335.288 372.006 335.928 372.126C336.781 372.273 337.468 372.433 337.988 372.606C338.521 372.766 338.974 373.046 339.348 373.446C339.721 373.846 339.908 374.406 339.908 375.126C339.908 376.086 339.494 376.853 338.668 377.426C337.854 377.986 336.741 378.266 335.328 378.266ZM299.579 388.146H305.479C306.96 388.146 308.273 388.439 309.419 389.026C310.566 389.613 311.453 390.439 312.08 391.506C312.72 392.559 313.04 393.773 313.04 395.146C313.04 396.519 312.72 397.739 312.08 398.806C311.453 399.859 310.566 400.679 309.419 401.266C308.273 401.853 306.96 402.146 305.479 402.146H299.579V388.146ZM305.36 400.406C306.493 400.406 307.486 400.186 308.34 399.746C309.206 399.306 309.873 398.693 310.339 397.906C310.806 397.106 311.04 396.186 311.04 395.146C311.04 394.106 310.806 393.193 310.339 392.406C309.873 391.606 309.206 390.986 308.34 390.546C307.486 390.106 306.493 389.886 305.36 389.886H301.58V400.406H305.36ZM325.403 396.906C325.403 397.053 325.39 397.246 325.363 397.486H316.763C316.883 398.419 317.29 399.173 317.983 399.746C318.69 400.306 319.563 400.586 320.603 400.586C321.87 400.586 322.89 400.159 323.663 399.306L324.723 400.546C324.243 401.106 323.643 401.533 322.923 401.826C322.216 402.119 321.423 402.266 320.543 402.266C319.423 402.266 318.43 402.039 317.563 401.586C316.696 401.119 316.023 400.473 315.543 399.646C315.076 398.819 314.843 397.886 314.843 396.846C314.843 395.819 315.07 394.893 315.523 394.066C315.99 393.239 316.623 392.599 317.423 392.146C318.236 391.679 319.15 391.446 320.163 391.446C321.176 391.446 322.076 391.679 322.863 392.146C323.663 392.599 324.283 393.239 324.723 394.066C325.176 394.893 325.403 395.839 325.403 396.906ZM320.163 393.066C319.243 393.066 318.47 393.346 317.843 393.906C317.23 394.466 316.87 395.199 316.763 396.106H323.563C323.456 395.213 323.09 394.486 322.463 393.926C321.85 393.353 321.083 393.066 320.163 393.066ZM331.949 388.766C330.802 388.766 330.229 389.386 330.229 390.626V391.546H333.309V393.126H330.269V402.146H328.349V393.126H326.549V391.546H328.349V390.606C328.349 389.553 328.656 388.719 329.269 388.106C329.882 387.493 330.742 387.186 331.849 387.186C332.276 387.186 332.676 387.239 333.049 387.346C333.422 387.453 333.742 387.606 334.009 387.806L333.429 389.266C332.989 388.933 332.496 388.766 331.949 388.766ZM336.729 391.546H338.649V402.146H336.729V391.546ZM337.689 389.506C337.316 389.506 337.002 389.386 336.749 389.146C336.509 388.906 336.389 388.613 336.389 388.266C336.389 387.919 336.509 387.626 336.749 387.386C337.002 387.133 337.316 387.006 337.689 387.006C338.062 387.006 338.369 387.126 338.609 387.366C338.862 387.593 338.989 387.879 338.989 388.226C338.989 388.586 338.862 388.893 338.609 389.146C338.369 389.386 338.062 389.506 337.689 389.506Z" fill="white"/>
    </g>
    <path d="M153.103 366.106C152.636 366.106 152.223 366.013 151.863 365.826C151.503 365.626 151.103 365.346 150.663 364.986C150.329 364.706 150.049 364.499 149.823 364.366C149.609 364.233 149.376 364.166 149.123 364.166C148.696 364.166 148.356 364.333 148.103 364.666C147.849 364.986 147.709 365.419 147.683 365.966H146.423C146.449 364.886 146.696 364.073 147.163 363.526C147.643 362.966 148.276 362.686 149.063 362.686C149.543 362.686 149.956 362.786 150.303 362.986C150.663 363.173 151.063 363.453 151.503 363.826C151.849 364.106 152.129 364.313 152.343 364.446C152.556 364.566 152.789 364.626 153.043 364.626C153.483 364.626 153.823 364.466 154.063 364.146C154.316 363.813 154.456 363.366 154.483 362.806H155.743C155.716 363.899 155.463 364.726 154.983 365.286C154.516 365.833 153.889 366.106 153.103 366.106ZM173.874 367.586C173.874 368.639 173.474 369.533 172.674 370.266C171.888 370.999 170.741 371.426 169.234 371.546V373.806H167.954V371.546C166.981 371.493 166.054 371.313 165.174 371.006C164.308 370.686 163.614 370.286 163.094 369.806L163.834 368.246C164.314 368.686 164.921 369.053 165.654 369.346C166.388 369.626 167.154 369.793 167.954 369.846V365.206C167.021 364.979 166.241 364.733 165.614 364.466C165.001 364.199 164.481 363.806 164.054 363.286C163.641 362.766 163.434 362.086 163.434 361.246C163.434 360.193 163.814 359.299 164.574 358.566C165.348 357.833 166.474 357.406 167.954 357.286V355.006H169.234V357.266C169.994 357.293 170.728 357.413 171.434 357.626C172.154 357.839 172.774 358.126 173.294 358.486L172.634 360.086C171.554 359.406 170.421 359.033 169.234 358.966V363.626C170.208 363.866 171.008 364.119 171.634 364.386C172.261 364.639 172.788 365.026 173.214 365.546C173.654 366.053 173.874 366.733 173.874 367.586ZM165.394 361.166C165.394 361.739 165.614 362.186 166.054 362.506C166.494 362.826 167.128 363.093 167.954 363.306V358.986C167.101 359.093 166.461 359.346 166.034 359.746C165.608 360.133 165.394 360.606 165.394 361.166ZM169.234 369.826C170.128 369.746 170.794 369.519 171.234 369.146C171.688 368.759 171.914 368.279 171.914 367.706C171.914 367.119 171.681 366.673 171.214 366.366C170.761 366.046 170.101 365.766 169.234 365.526V369.826ZM179.801 357.406V371.406H177.821V359.146H174.661V357.406H179.801ZM188.583 371.566C187.476 371.566 186.49 371.286 185.623 370.726C184.77 370.153 184.096 369.326 183.603 368.246C183.11 367.166 182.863 365.886 182.863 364.406C182.863 362.926 183.11 361.646 183.603 360.566C184.096 359.486 184.77 358.666 185.623 358.106C186.49 357.533 187.476 357.246 188.583 357.246C189.676 357.246 190.65 357.533 191.503 358.106C192.37 358.666 193.05 359.486 193.543 360.566C194.036 361.646 194.283 362.926 194.283 364.406C194.283 365.886 194.036 367.166 193.543 368.246C193.05 369.326 192.37 370.153 191.503 370.726C190.65 371.286 189.676 371.566 188.583 371.566ZM188.583 369.786C189.703 369.786 190.596 369.326 191.263 368.406C191.943 367.486 192.283 366.153 192.283 364.406C192.283 362.659 191.943 361.326 191.263 360.406C190.596 359.486 189.703 359.026 188.583 359.026C187.45 359.026 186.543 359.486 185.863 360.406C185.196 361.326 184.863 362.659 184.863 364.406C184.863 366.153 185.196 367.486 185.863 368.406C186.543 369.326 187.45 369.786 188.583 369.786ZM204.763 364.066C205.563 364.373 206.176 364.813 206.603 365.386C207.03 365.959 207.243 366.646 207.243 367.446C207.243 368.286 207.016 369.019 206.563 369.646C206.11 370.259 205.463 370.733 204.623 371.066C203.783 371.399 202.796 371.566 201.663 371.566C200.543 371.566 199.563 371.399 198.723 371.066C197.896 370.733 197.256 370.259 196.803 369.646C196.35 369.019 196.123 368.286 196.123 367.446C196.123 366.646 196.33 365.959 196.743 365.386C197.17 364.813 197.783 364.373 198.583 364.066C197.943 363.759 197.456 363.353 197.123 362.846C196.79 362.339 196.623 361.739 196.623 361.046C196.623 360.273 196.83 359.599 197.243 359.026C197.67 358.453 198.263 358.013 199.023 357.706C199.783 357.399 200.663 357.246 201.663 357.246C202.676 357.246 203.563 357.399 204.323 357.706C205.096 358.013 205.69 358.453 206.103 359.026C206.53 359.599 206.743 360.273 206.743 361.046C206.743 361.726 206.57 362.326 206.223 362.846C205.89 363.353 205.403 363.759 204.763 364.066ZM201.663 358.866C200.716 358.866 199.97 359.073 199.423 359.486C198.876 359.886 198.603 360.433 198.603 361.126C198.603 361.819 198.87 362.366 199.403 362.766C199.95 363.166 200.703 363.366 201.663 363.366C202.636 363.366 203.396 363.166 203.943 362.766C204.503 362.366 204.783 361.819 204.783 361.126C204.783 360.433 204.496 359.886 203.923 359.486C203.363 359.073 202.61 358.866 201.663 358.866ZM201.663 369.946C202.77 369.946 203.643 369.719 204.283 369.266C204.923 368.799 205.243 368.173 205.243 367.386C205.243 366.613 204.923 366.006 204.283 365.566C203.643 365.113 202.77 364.886 201.663 364.886C200.556 364.886 199.69 365.113 199.063 365.566C198.436 366.006 198.123 366.613 198.123 367.386C198.123 368.173 198.436 368.799 199.063 369.266C199.69 369.719 200.556 369.946 201.663 369.946ZM180.64 388.146C181.453 388.373 182.093 388.786 182.56 389.386C183.027 389.973 183.26 390.719 183.26 391.626C183.26 392.839 182.8 393.773 181.88 394.426C180.973 395.079 179.647 395.406 177.9 395.406H171.22V381.406H177.5C179.1 381.406 180.333 381.726 181.2 382.366C182.08 383.006 182.52 383.893 182.52 385.026C182.52 385.759 182.347 386.393 182 386.926C181.667 387.459 181.213 387.866 180.64 388.146ZM173.22 383.026V387.506H177.32C178.347 387.506 179.133 387.319 179.68 386.946C180.24 386.559 180.52 385.999 180.52 385.266C180.52 384.533 180.24 383.979 179.68 383.606C179.133 383.219 178.347 383.026 177.32 383.026H173.22ZM177.82 393.786C178.953 393.786 179.807 393.599 180.38 393.226C180.953 392.853 181.24 392.266 181.24 391.466C181.24 389.906 180.1 389.126 177.82 389.126H173.22V393.786H177.82Z" fill="white"/>
    <path d="M808.274 511.936C807.122 511.936 806.098 511.712 805.202 511.264C804.338 510.816 803.394 510.192 802.37 509.392C801.602 508.816 800.978 508.4 800.498 508.144C800.05 507.888 799.586 507.76 799.106 507.76C798.242 507.76 797.538 508.096 796.994 508.768C796.45 509.44 796.162 510.352 796.13 511.504H791.474C791.506 508.56 792.178 506.304 793.49 504.736C794.802 503.136 796.53 502.336 798.674 502.336C799.826 502.336 800.818 502.56 801.65 503.008C802.482 503.424 803.458 504.048 804.578 504.88C805.346 505.456 805.954 505.872 806.402 506.128C806.85 506.384 807.314 506.512 807.794 506.512C808.69 506.512 809.394 506.176 809.906 505.504C810.418 504.832 810.706 503.92 810.77 502.768H815.474C815.41 505.712 814.722 507.984 813.41 509.584C812.098 511.152 810.386 511.936 808.274 511.936ZM858.378 517.648V523.984H832.986V518.944L845.946 506.704C847.322 505.392 848.25 504.272 848.73 503.344C849.21 502.384 849.45 501.44 849.45 500.512C849.45 499.168 848.986 498.144 848.058 497.44C847.162 496.704 845.834 496.336 844.074 496.336C842.602 496.336 841.274 496.624 840.09 497.2C838.906 497.744 837.914 498.576 837.114 499.696L831.45 496.048C832.762 494.096 834.57 492.576 836.874 491.488C839.178 490.368 841.818 489.808 844.794 489.808C847.29 489.808 849.466 490.224 851.322 491.056C853.21 491.856 854.666 493.008 855.69 494.512C856.746 495.984 857.274 497.728 857.274 499.744C857.274 501.568 856.89 503.28 856.122 504.88C855.354 506.48 853.866 508.304 851.658 510.352L843.93 517.648H858.378ZM873.107 503.008C877.843 503.008 881.331 503.952 883.571 505.84C885.843 507.728 886.979 510.256 886.979 513.424C886.979 515.472 886.467 517.344 885.443 519.04C884.419 520.704 882.851 522.048 880.739 523.072C878.659 524.064 876.083 524.56 873.011 524.56C870.643 524.56 868.307 524.256 866.003 523.648C863.731 523.008 861.795 522.112 860.195 520.96L863.267 515.008C864.547 515.968 866.019 516.72 867.683 517.264C869.347 517.776 871.059 518.032 872.819 518.032C874.771 518.032 876.307 517.648 877.427 516.88C878.547 516.112 879.107 515.04 879.107 513.664C879.107 512.224 878.515 511.136 877.331 510.4C876.179 509.664 874.163 509.296 871.283 509.296H862.691L864.419 490.384H884.915V496.624H870.899L870.371 503.008H873.107ZM904.534 524.56C901.75 524.56 899.27 523.872 897.094 522.496C894.918 521.12 893.206 519.136 891.958 516.544C890.742 513.92 890.134 510.8 890.134 507.184C890.134 503.568 890.742 500.464 891.958 497.872C893.206 495.248 894.918 493.248 897.094 491.872C899.27 490.496 901.75 489.808 904.534 489.808C907.318 489.808 909.798 490.496 911.974 491.872C914.15 493.248 915.846 495.248 917.062 497.872C918.31 500.464 918.934 503.568 918.934 507.184C918.934 510.8 918.31 513.92 917.062 516.544C915.846 519.136 914.15 521.12 911.974 522.496C909.798 523.872 907.318 524.56 904.534 524.56ZM904.534 517.984C906.582 517.984 908.182 517.104 909.334 515.344C910.518 513.584 911.11 510.864 911.11 507.184C911.11 503.504 910.518 500.784 909.334 499.024C908.182 497.264 906.582 496.384 904.534 496.384C902.518 496.384 900.918 497.264 899.734 499.024C898.582 500.784 898.006 503.504 898.006 507.184C898.006 510.864 898.582 513.584 899.734 515.344C900.918 517.104 902.518 517.984 904.534 517.984ZM944.257 523.984L936.145 512.32L928.177 523.984H919.249L931.681 506.896L919.873 490.384H928.705L936.433 501.28L944.017 490.384H952.417L940.705 506.608L953.233 523.984H944.257ZM974.597 524.128C973.333 524.128 972.197 523.848 971.189 523.288C970.181 522.728 969.389 521.96 968.813 520.984C968.253 519.992 967.973 518.872 967.973 517.624C967.973 516.376 968.253 515.264 968.813 514.288C969.389 513.296 970.181 512.528 971.189 511.984C972.197 511.424 973.333 511.144 974.597 511.144C975.861 511.144 976.989 511.424 977.981 511.984C978.989 512.528 979.773 513.296 980.333 514.288C980.909 515.264 981.197 516.376 981.197 517.624C981.197 518.872 980.909 519.992 980.333 520.984C979.773 521.96 978.989 522.728 977.981 523.288C976.989 523.848 975.861 524.128 974.597 524.128ZM974.597 522.112C975.413 522.112 976.141 521.928 976.781 521.56C977.437 521.176 977.949 520.648 978.317 519.976C978.685 519.288 978.869 518.504 978.869 517.624C978.869 516.744 978.685 515.968 978.317 515.296C977.949 514.608 977.437 514.08 976.781 513.712C976.141 513.344 975.413 513.16 974.597 513.16C973.781 513.16 973.045 513.344 972.389 513.712C971.749 514.08 971.237 514.608 970.853 515.296C970.485 515.968 970.301 516.744 970.301 517.624C970.301 518.504 970.485 519.288 970.853 519.976C971.237 520.648 971.749 521.176 972.389 521.56C973.045 521.928 973.781 522.112 974.597 522.112ZM989.039 507.928C987.663 507.928 986.975 508.672 986.975 510.16V511.264H990.671V513.16H987.023V523.984H984.719V513.16H982.559V511.264H984.719V510.136C984.719 508.872 985.087 507.872 985.823 507.136C986.559 506.4 987.591 506.032 988.919 506.032C989.431 506.032 989.911 506.096 990.359 506.224C990.807 506.352 991.191 506.536 991.511 506.776L990.815 508.528C990.287 508.128 989.695 507.928 989.039 507.928ZM1004.83 524.128C1003.54 524.128 1002.38 523.848 1001.35 523.288C1000.35 522.728 999.553 521.96 998.977 520.984C998.401 519.992 998.113 518.872 998.113 517.624C998.113 516.376 998.401 515.264 998.977 514.288C999.553 513.296 1000.35 512.528 1001.35 511.984C1002.38 511.424 1003.54 511.144 1004.83 511.144C1005.99 511.144 1007.01 511.376 1007.91 511.84C1008.82 512.304 1009.52 512.976 1010.02 513.856L1008.27 514.984C1007.87 514.376 1007.37 513.92 1006.78 513.616C1006.19 513.312 1005.53 513.16 1004.81 513.16C1003.98 513.16 1003.23 513.344 1002.55 513.712C1001.9 514.08 1001.38 514.608 1000.99 515.296C1000.63 515.968 1000.44 516.744 1000.44 517.624C1000.44 518.52 1000.63 519.312 1000.99 520C1001.38 520.672 1001.9 521.192 1002.55 521.56C1003.23 521.928 1003.98 522.112 1004.81 522.112C1005.53 522.112 1006.19 521.96 1006.78 521.656C1007.37 521.352 1007.87 520.896 1008.27 520.288L1010.02 521.392C1009.52 522.272 1008.82 522.952 1007.91 523.432C1007.01 523.896 1005.99 524.128 1004.83 524.128ZM1024.86 511.264V523.984H1022.67V522.064C1022.21 522.72 1021.59 523.232 1020.82 523.6C1020.07 523.952 1019.25 524.128 1018.35 524.128C1016.66 524.128 1015.32 523.664 1014.34 522.736C1013.37 521.792 1012.88 520.408 1012.88 518.584V511.264H1015.18V518.32C1015.18 519.552 1015.48 520.488 1016.07 521.128C1016.66 521.752 1017.51 522.064 1018.62 522.064C1019.83 522.064 1020.79 521.696 1021.5 520.96C1022.2 520.224 1022.55 519.184 1022.55 517.84V511.264H1024.86ZM1031.45 513.4C1031.85 512.664 1032.44 512.104 1033.23 511.72C1034.01 511.336 1034.96 511.144 1036.08 511.144V513.376C1035.95 513.36 1035.78 513.352 1035.55 513.352C1034.31 513.352 1033.32 513.728 1032.6 514.48C1031.9 515.216 1031.55 516.272 1031.55 517.648V523.984H1029.24V511.264H1031.45V513.4ZM1041.13 513.4C1041.53 512.664 1042.12 512.104 1042.91 511.72C1043.69 511.336 1044.64 511.144 1045.76 511.144V513.376C1045.63 513.36 1045.46 513.352 1045.23 513.352C1043.99 513.352 1043 513.728 1042.28 514.48C1041.58 515.216 1041.23 516.272 1041.23 517.648V523.984H1038.92V511.264H1041.13V513.4ZM1059.98 517.696C1059.98 517.872 1059.96 518.104 1059.93 518.392H1049.61C1049.76 519.512 1050.24 520.416 1051.08 521.104C1051.92 521.776 1052.97 522.112 1054.22 522.112C1055.74 522.112 1056.96 521.6 1057.89 520.576L1059.16 522.064C1058.59 522.736 1057.87 523.248 1057 523.6C1056.16 523.952 1055.2 524.128 1054.15 524.128C1052.8 524.128 1051.61 523.856 1050.57 523.312C1049.53 522.752 1048.72 521.976 1048.15 520.984C1047.59 519.992 1047.31 518.872 1047.31 517.624C1047.31 516.392 1047.58 515.28 1048.12 514.288C1048.68 513.296 1049.44 512.528 1050.4 511.984C1051.38 511.424 1052.48 511.144 1053.69 511.144C1054.91 511.144 1055.99 511.424 1056.93 511.984C1057.89 512.528 1058.64 513.296 1059.16 514.288C1059.71 515.28 1059.98 516.416 1059.98 517.696ZM1053.69 513.088C1052.59 513.088 1051.66 513.424 1050.91 514.096C1050.17 514.768 1049.74 515.648 1049.61 516.736H1057.77C1057.64 515.664 1057.2 514.792 1056.45 514.12C1055.72 513.432 1054.8 513.088 1053.69 513.088ZM1069.97 511.144C1071.59 511.144 1072.87 511.616 1073.81 512.56C1074.77 513.488 1075.25 514.856 1075.25 516.664V523.984H1072.95V516.928C1072.95 515.696 1072.65 514.768 1072.06 514.144C1071.47 513.52 1070.62 513.208 1069.52 513.208C1068.27 513.208 1067.28 513.576 1066.56 514.312C1065.84 515.032 1065.48 516.072 1065.48 517.432V523.984H1063.18V511.264H1065.39V513.184C1065.85 512.528 1066.48 512.024 1067.26 511.672C1068.06 511.32 1068.96 511.144 1069.97 511.144ZM1086.67 523.24C1086.33 523.528 1085.92 523.752 1085.42 523.912C1084.92 524.056 1084.41 524.128 1083.88 524.128C1082.6 524.128 1081.61 523.784 1080.91 523.096C1080.2 522.408 1079.85 521.424 1079.85 520.144V513.16H1077.69V511.264H1079.85V508.48H1082.16V511.264H1085.8V513.16H1082.16V520.048C1082.16 520.736 1082.32 521.264 1082.66 521.632C1083.01 522 1083.51 522.184 1084.15 522.184C1084.85 522.184 1085.45 521.984 1085.95 521.584L1086.67 523.24ZM1103.05 523.24C1102.71 523.528 1102.3 523.752 1101.8 523.912C1101.31 524.056 1100.79 524.128 1100.27 524.128C1098.99 524.128 1097.99 523.784 1097.29 523.096C1096.59 522.408 1096.23 521.424 1096.23 520.144V513.16H1094.07V511.264H1096.23V508.48H1098.54V511.264H1102.19V513.16H1098.54V520.048C1098.54 520.736 1098.71 521.264 1099.04 521.632C1099.39 522 1099.89 522.184 1100.53 522.184C1101.23 522.184 1101.83 521.984 1102.33 521.584L1103.05 523.24ZM1116.86 511.264L1111.29 523.984H1108.94L1103.37 511.264H1105.77L1110.14 521.464L1114.6 511.264H1116.86ZM1119.01 506.176H1121.31V523.984H1119.01V506.176Z" fill="#F7931A"/>
    <path d="M126.92 73L126.884 57.88L119.468 70.336H116.84L109.46 58.204V73H103.988V47.8H108.812L118.244 63.46L127.532 47.8H132.32L132.392 73H126.92ZM145.787 53.344C148.787 53.344 151.091 54.064 152.699 55.504C154.307 56.92 155.111 59.068 155.111 61.948V73H149.855V70.588C148.799 72.388 146.831 73.288 143.951 73.288C142.463 73.288 141.167 73.036 140.063 72.532C138.983 72.028 138.155 71.332 137.579 70.444C137.003 69.556 136.715 68.548 136.715 67.42C136.715 65.62 137.387 64.204 138.731 63.172C140.099 62.14 142.199 61.624 145.031 61.624H149.495C149.495 60.4 149.123 59.464 148.379 58.816C147.635 58.144 146.519 57.808 145.031 57.808C143.999 57.808 142.979 57.976 141.971 58.312C140.987 58.624 140.147 59.056 139.451 59.608L137.435 55.684C138.491 54.94 139.751 54.364 141.215 53.956C142.703 53.548 144.227 53.344 145.787 53.344ZM145.355 69.508C146.315 69.508 147.167 69.292 147.911 68.86C148.655 68.404 149.183 67.744 149.495 66.88V64.9H145.643C143.339 64.9 142.187 65.656 142.187 67.168C142.187 67.888 142.463 68.464 143.015 68.896C143.591 69.304 144.371 69.508 145.355 69.508ZM165.558 56.188C166.23 55.252 167.13 54.544 168.258 54.064C169.41 53.584 170.73 53.344 172.218 53.344V58.528C171.594 58.48 171.174 58.456 170.958 58.456C169.35 58.456 168.09 58.912 167.178 59.824C166.266 60.712 165.81 62.056 165.81 63.856V73H160.194V53.632H165.558V56.188ZM183.873 65.404L181.173 68.068V73H175.557V46.288H181.173V61.408L189.381 53.632H196.077L188.013 61.84L196.797 73H189.993L183.873 65.404ZM217.451 63.388C217.451 63.46 217.415 63.964 217.343 64.9H202.691C202.955 66.1 203.579 67.048 204.563 67.744C205.547 68.44 206.771 68.788 208.235 68.788C209.243 68.788 210.131 68.644 210.899 68.356C211.691 68.044 212.423 67.564 213.095 66.916L216.083 70.156C214.259 72.244 211.595 73.288 208.091 73.288C205.907 73.288 203.975 72.868 202.295 72.028C200.615 71.164 199.319 69.976 198.407 68.464C197.495 66.952 197.039 65.236 197.039 63.316C197.039 61.42 197.483 59.716 198.371 58.204C199.283 56.668 200.519 55.48 202.079 54.64C203.663 53.776 205.427 53.344 207.371 53.344C209.267 53.344 210.983 53.752 212.519 54.568C214.055 55.384 215.255 56.56 216.119 58.096C217.007 59.608 217.451 61.372 217.451 63.388ZM207.407 57.592C206.135 57.592 205.067 57.952 204.203 58.672C203.339 59.392 202.811 60.376 202.619 61.624H212.159C211.967 60.4 211.439 59.428 210.575 58.708C209.711 57.964 208.655 57.592 207.407 57.592ZM233.682 72.064C233.13 72.472 232.446 72.784 231.63 73C230.838 73.192 229.998 73.288 229.11 73.288C226.806 73.288 225.018 72.7 223.746 71.524C222.498 70.348 221.874 68.62 221.874 66.34V58.384H218.886V54.064H221.874V49.348H227.49V54.064H232.314V58.384H227.49V66.268C227.49 67.084 227.694 67.72 228.102 68.176C228.534 68.608 229.134 68.824 229.902 68.824C230.79 68.824 231.546 68.584 232.17 68.104L233.682 72.064ZM285.514 47.8L277.27 73H271.006L265.462 55.936L259.738 73H253.51L245.23 47.8H251.278L256.966 65.512L262.906 47.8H268.306L274.066 65.656L279.934 47.8H285.514ZM305.904 63.388C305.904 63.46 305.868 63.964 305.796 64.9H291.144C291.408 66.1 292.032 67.048 293.016 67.744C294 68.44 295.224 68.788 296.688 68.788C297.696 68.788 298.584 68.644 299.352 68.356C300.144 68.044 300.876 67.564 301.548 66.916L304.536 70.156C302.712 72.244 300.048 73.288 296.544 73.288C294.36 73.288 292.428 72.868 290.748 72.028C289.068 71.164 287.772 69.976 286.86 68.464C285.948 66.952 285.492 65.236 285.492 63.316C285.492 61.42 285.936 59.716 286.824 58.204C287.736 56.668 288.972 55.48 290.532 54.64C292.116 53.776 293.88 53.344 295.824 53.344C297.72 53.344 299.436 53.752 300.972 54.568C302.508 55.384 303.708 56.56 304.572 58.096C305.46 59.608 305.904 61.372 305.904 63.388ZM295.86 57.592C294.588 57.592 293.52 57.952 292.656 58.672C291.792 59.392 291.264 60.376 291.072 61.624H300.612C300.42 60.4 299.892 59.428 299.028 58.708C298.164 57.964 297.108 57.592 295.86 57.592ZM311.838 46C312.846 46 313.674 46.324 314.322 46.972C314.97 47.596 315.294 48.424 315.294 49.456C315.294 49.936 315.234 50.416 315.114 50.896C314.994 51.376 314.742 52.096 314.358 53.056L312.27 58.24H308.706L310.254 52.552C309.654 52.288 309.186 51.892 308.85 51.364C308.514 50.836 308.346 50.2 308.346 49.456C308.346 48.424 308.67 47.596 309.318 46.972C309.99 46.324 310.83 46 311.838 46ZM324.464 56.188C325.136 55.252 326.036 54.544 327.164 54.064C328.316 53.584 329.636 53.344 331.124 53.344V58.528C330.5 58.48 330.08 58.456 329.864 58.456C328.256 58.456 326.996 58.912 326.084 59.824C325.172 60.712 324.716 62.056 324.716 63.856V73H319.1V53.632H324.464V56.188ZM353.259 63.388C353.259 63.46 353.223 63.964 353.151 64.9H338.499C338.763 66.1 339.387 67.048 340.371 67.744C341.355 68.44 342.579 68.788 344.043 68.788C345.051 68.788 345.939 68.644 346.707 68.356C347.499 68.044 348.231 67.564 348.903 66.916L351.891 70.156C350.067 72.244 347.403 73.288 343.899 73.288C341.715 73.288 339.783 72.868 338.103 72.028C336.423 71.164 335.127 69.976 334.215 68.464C333.303 66.952 332.847 65.236 332.847 63.316C332.847 61.42 333.291 59.716 334.179 58.204C335.091 56.668 336.327 55.48 337.887 54.64C339.471 53.776 341.235 53.344 343.179 53.344C345.075 53.344 346.791 53.752 348.327 54.568C349.863 55.384 351.063 56.56 351.927 58.096C352.815 59.608 353.259 61.372 353.259 63.388ZM343.215 57.592C341.943 57.592 340.875 57.952 340.011 58.672C339.147 59.392 338.619 60.376 338.427 61.624H347.967C347.775 60.4 347.247 59.428 346.383 58.708C345.519 57.964 344.463 57.592 343.215 57.592ZM372.81 52.552H364.746V47.8H386.706V52.552H378.642V73H372.81V52.552ZM396.275 53.344C399.275 53.344 401.579 54.064 403.187 55.504C404.795 56.92 405.599 59.068 405.599 61.948V73H400.343V70.588C399.287 72.388 397.319 73.288 394.439 73.288C392.951 73.288 391.655 73.036 390.551 72.532C389.471 72.028 388.643 71.332 388.067 70.444C387.491 69.556 387.203 68.548 387.203 67.42C387.203 65.62 387.875 64.204 389.219 63.172C390.587 62.14 392.687 61.624 395.519 61.624H399.983C399.983 60.4 399.611 59.464 398.867 58.816C398.123 58.144 397.007 57.808 395.519 57.808C394.487 57.808 393.467 57.976 392.459 58.312C391.475 58.624 390.635 59.056 389.939 59.608L387.923 55.684C388.979 54.94 390.239 54.364 391.703 53.956C393.191 53.548 394.715 53.344 396.275 53.344ZM395.843 69.508C396.803 69.508 397.655 69.292 398.399 68.86C399.143 68.404 399.671 67.744 399.983 66.88V64.9H396.131C393.827 64.9 392.675 65.656 392.675 67.168C392.675 67.888 392.951 68.464 393.503 68.896C394.079 69.304 394.859 69.508 395.843 69.508ZM422.13 53.344C423.93 53.344 425.562 53.764 427.026 54.604C428.514 55.42 429.678 56.584 430.518 58.096C431.358 59.584 431.778 61.324 431.778 63.316C431.778 65.308 431.358 67.06 430.518 68.572C429.678 70.06 428.514 71.224 427.026 72.064C425.562 72.88 423.93 73.288 422.13 73.288C419.658 73.288 417.714 72.508 416.298 70.948V79.984H410.682V53.632H416.046V55.864C417.438 54.184 419.466 53.344 422.13 53.344ZM421.158 68.68C422.598 68.68 423.774 68.2 424.686 67.24C425.622 66.256 426.09 64.948 426.09 63.316C426.09 61.684 425.622 60.388 424.686 59.428C423.774 58.444 422.598 57.952 421.158 57.952C419.718 57.952 418.53 58.444 417.594 59.428C416.682 60.388 416.226 61.684 416.226 63.316C416.226 64.948 416.682 66.256 417.594 67.24C418.53 68.2 419.718 68.68 421.158 68.68ZM446.985 53.344C448.785 53.344 450.417 53.764 451.881 54.604C453.369 55.42 454.533 56.584 455.373 58.096C456.213 59.584 456.633 61.324 456.633 63.316C456.633 65.308 456.213 67.06 455.373 68.572C454.533 70.06 453.369 71.224 451.881 72.064C450.417 72.88 448.785 73.288 446.985 73.288C444.513 73.288 442.569 72.508 441.153 70.948V79.984H435.537V53.632H440.901V55.864C442.293 54.184 444.321 53.344 446.985 53.344ZM446.013 68.68C447.453 68.68 448.629 68.2 449.541 67.24C450.477 66.256 450.945 64.948 450.945 63.316C450.945 61.684 450.477 60.388 449.541 59.428C448.629 58.444 447.453 57.952 446.013 57.952C444.573 57.952 443.385 58.444 442.449 59.428C441.537 60.388 441.081 61.684 441.081 63.316C441.081 64.948 441.537 66.256 442.449 67.24C443.385 68.2 444.573 68.68 446.013 68.68ZM460.393 53.632H466.009V73H460.393V53.632ZM463.201 50.932C462.169 50.932 461.329 50.632 460.681 50.032C460.033 49.432 459.709 48.688 459.709 47.8C459.709 46.912 460.033 46.168 460.681 45.568C461.329 44.968 462.169 44.668 463.201 44.668C464.233 44.668 465.073 44.956 465.721 45.532C466.369 46.108 466.693 46.828 466.693 47.692C466.693 48.628 466.369 49.408 465.721 50.032C465.073 50.632 464.233 50.932 463.201 50.932ZM482.993 53.344C485.393 53.344 487.325 54.064 488.789 55.504C490.277 56.944 491.021 59.08 491.021 61.912V73H485.405V62.776C485.405 61.24 485.069 60.1 484.397 59.356C483.725 58.588 482.753 58.204 481.481 58.204C480.065 58.204 478.937 58.648 478.097 59.536C477.257 60.4 476.837 61.696 476.837 63.424V73H471.221V53.632H476.585V55.9C477.329 55.084 478.253 54.46 479.357 54.028C480.461 53.572 481.673 53.344 482.993 53.344ZM516.302 53.632V69.76C516.302 73.312 515.378 75.952 513.53 77.68C511.682 79.408 508.982 80.272 505.43 80.272C503.558 80.272 501.782 80.044 500.102 79.588C498.422 79.132 497.03 78.472 495.926 77.608L498.158 73.576C498.974 74.248 500.006 74.776 501.254 75.16C502.502 75.568 503.75 75.772 504.998 75.772C506.942 75.772 508.37 75.328 509.282 74.44C510.218 73.576 510.686 72.256 510.686 70.48V69.652C509.222 71.26 507.182 72.064 504.566 72.064C502.79 72.064 501.158 71.68 499.67 70.912C498.206 70.12 497.042 69.016 496.178 67.6C495.314 66.184 494.882 64.552 494.882 62.704C494.882 60.856 495.314 59.224 496.178 57.808C497.042 56.392 498.206 55.3 499.67 54.532C501.158 53.74 502.79 53.344 504.566 53.344C507.374 53.344 509.51 54.268 510.974 56.116V53.632H516.302ZM505.682 67.456C507.17 67.456 508.382 67.024 509.318 66.16C510.278 65.272 510.758 64.12 510.758 62.704C510.758 61.288 510.278 60.148 509.318 59.284C508.382 58.396 507.17 57.952 505.682 57.952C504.194 57.952 502.97 58.396 502.01 59.284C501.05 60.148 500.57 61.288 500.57 62.704C500.57 64.12 501.05 65.272 502.01 66.16C502.97 67.024 504.194 67.456 505.682 67.456Z" fill="black"/>
    <defs>
        <filter id="filter0_b_174_69" x="-50" y="-49.3748" width="1238.53" height="650.742" filterUnits="userSpaceOnUse" color-interpolation-filters="sRGB">
            <feFlood flood-opacity="0" result="BackgroundImageFix"/>
            <feGaussianBlur in="BackgroundImageFix" stdDeviation="25"/>
            <feComposite in2="SourceAlpha" operator="in" result="effect1_backgroundBlur_174_69"/>
            <feBlend mode="normal" in="SourceGraphic" in2="effect1_backgroundBlur_174_69" result="shape"/>
        </filter>
    </defs>
</svg>
