<svg width="25" height="26" viewBox="0 0 25 26" fill="none"
    xmlns="http://www.w3.org/2000/svg">
    <path d="M22.7273 0.891052H2.27273C1.01705 0.891052 0 1.9081 0 3.16378V23.6183C0 24.874 1.01705 25.8911 2.27273 25.8911H22.7273C23.983 25.8911 25 24.874 25 23.6183V3.16378C25 1.9081 23.983 0.891052 22.7273 0.891052ZM7.90227 21.3456H4.55V10.5592H7.90227V21.3456ZM6.19205 9.01719C5.11136 9.01719 4.2375 8.14105 4.2375 7.06264C4.2375 5.98423 5.1125 5.10923 6.19205 5.10923C7.26932 5.10923 8.14545 5.98537 8.14545 7.06264C8.14545 8.14105 7.26932 9.01719 6.19205 9.01719ZM20.4591 21.3456H17.1091V16.1001C17.1091 14.849 17.0864 13.2399 15.367 13.2399C13.6227 13.2399 13.3545 14.6024 13.3545 16.0092V21.3456H10.0045V10.5592H13.2205V12.0331H13.2659C13.7136 11.1854 14.8068 10.2911 16.4375 10.2911C19.8318 10.2911 20.4591 12.5251 20.4591 15.4297V21.3456Z" fill="white"/>
</svg>
