<svg width="117" height="224" viewBox="0 0 117 224" fill="none"
    xmlns="http://www.w3.org/2000/svg">
    <path d="M79.0057 58.4101C76.7416 60.925 73.4786 62.5063 69.847 62.528C62.952 62.5691 57.321 56.95 57.2788 49.9707C57.2577 46.4902 58.6243 43.3369 60.8625 41.0388C68.1671 45.327 74.3859 51.2872 79.0026 58.4071L79.0057 58.4101Z" fill="white"/>
    <path d="M66.9314 88.0163C67.0431 106.49 52.3198 121.554 34.0279 121.663C20.3974 121.744 8.64559 113.489 3.50482 101.625C1.7444 97.5812 0.75728 93.1087 0.728842 88.4078C0.700404 83.7069 1.63336 79.226 3.34471 75.1584C8.34159 63.2372 19.9927 54.8395 33.6232 54.7582C51.915 54.6492 66.8196 69.5391 66.9314 88.0102L66.9314 88.0163Z" fill="white"/>
    <path d="M53.9241 1.29088C29.3076 1.4376 8.86079 19.1155 4.21412 42.5157C12.6246 36.9318 22.6825 33.6702 33.4994 33.6057C43.465 33.5463 52.8191 36.2149 60.866 40.901C63.1134 38.6011 66.2445 37.1686 69.6952 37.1481C76.5995 37.1069 82.2307 42.7074 82.2728 49.6548C82.2927 52.9506 81.0519 55.9559 79.0066 58.212C84.5253 66.6744 87.7504 76.7862 87.8162 87.6557C87.9978 117.68 63.9784 142.162 34.1572 142.34C22.8814 142.407 12.3937 138.985 3.6993 133.084L4.24597 223.451L66.1586 223.082C94.3405 222.914 117.04 199.765 116.868 171.395L115.837 0.921875L53.9241 1.29088Z" fill="white"/>
</svg>
