<svg width="21" height="17" viewBox="0 0 21 17" fill="none"
    xmlns="http://www.w3.org/2000/svg">
    <path d="M18.7198 13.765L12.7413 8.36504M7.59843 8.36504L1.61989 13.765M1.16986 3.86504L8.51829 9.00894C9.11334 9.42548 9.41087 9.63375 9.7345 9.71442C10.0204 9.78567 10.3194 9.78567 10.6052 9.71442C10.9289 9.63375 11.2264 9.42548 11.8214 9.00894L19.1699 3.86504M5.48986 15.565H14.8499C16.362 15.565 17.1181 15.565 17.6956 15.2708C18.2037 15.0119 18.6167 14.5989 18.8756 14.0908C19.1699 13.5133 19.1699 12.7572 19.1699 11.245V5.48504C19.1699 3.9729 19.1699 3.21683 18.8756 2.63926C18.6167 2.13123 18.2037 1.71818 17.6956 1.45932C17.1181 1.16504 16.362 1.16504 14.8499 1.16504H5.48986C3.97772 1.16504 3.22165 1.16504 2.64409 1.45932C2.13605 1.71818 1.723 2.13123 1.46414 2.63926C1.16986 3.21683 1.16986 3.9729 1.16986 5.48504V11.245C1.16986 12.7572 1.16986 13.5133 1.46414 14.0908C1.723 14.5989 2.13605 15.0119 2.64409 15.2708C3.22165 15.565 3.97772 15.565 5.48986 15.565Z" stroke="#F7931A" stroke-width="2" stroke-linecap="round" stroke-linejoin="round"/>
</svg>
