<svg width="75" height="19" viewBox="0 0 75 19" fill="none"
    xmlns="http://www.w3.org/2000/svg">
    <path d="M21.3538 17.5061V15.4783H16.2342V13.5952H21.1172V11.5955H16.2342V9.62064H21.3538V7.59277H14.0486V17.5061H21.3538Z" fill="white"/>
    <path fill-rule="evenodd" clip-rule="evenodd" d="M31.9047 6.73849C32.6204 7.31641 32.9824 8.12137 32.9824 9.13142C33.0029 10.4431 32.2646 11.6478 31.0896 12.2194L33.2669 15.7857H30.7837L28.8641 12.6408H27.296V15.7857H25.1102V5.87354H29.1978C30.2965 5.87354 31.2078 6.16441 31.9047 6.73849ZM28.8397 7.90025H27.296V10.6273H28.8397C30.1716 10.6273 30.8158 10.1589 30.8158 9.24303C30.8158 8.3275 30.188 7.90025 28.8397 7.90025Z" fill="white"/>
    <path d="M43.6514 14.2567C42.9943 15.15 42.1205 15.6043 41.0523 15.6043C40.2738 15.6239 39.5203 15.3269 38.9628 14.7804C38.4017 14.2308 38.1171 13.4728 38.1171 12.5277C38.1171 11.5827 38.4017 10.8541 38.9628 10.3175C39.485 9.78646 40.1981 9.48945 40.9411 9.49361C41.9515 9.47741 42.9041 9.96595 43.4839 10.7977L43.5225 10.853L44.996 9.34296L44.9644 9.30412C43.97 8.06598 42.6499 7.4375 41.0394 7.4375C39.5695 7.4375 38.3303 7.90828 37.3546 8.84982C36.3789 9.79137 35.8765 11.0319 35.8765 12.5725C35.8765 14.0919 36.3743 15.3336 37.3558 16.2634C38.3373 17.1931 39.6117 17.6616 41.1039 17.6616C42.7554 17.6616 44.1047 17.0342 45.1131 15.7961L45.1436 15.7573L43.6865 14.2049L43.6514 14.2567Z" fill="white"/>
    <path fill-rule="evenodd" clip-rule="evenodd" d="M50.986 5.87354H53.0382L53.0462 5.90876L56.8879 15.7857H54.6261L53.9083 14.0097H50.091L49.3883 15.7857H47.1254L47.1547 15.7093L50.986 5.87354ZM50.8256 12.0513H53.1996L52.0121 8.91134L50.8256 12.0513Z" fill="white"/>
    <path fill-rule="evenodd" clip-rule="evenodd" d="M66.5332 8.45773C67.2479 9.03564 67.6109 9.84061 67.6109 10.8507C67.6297 12.1617 66.89 13.365 65.7146 13.9352L67.892 17.5063H65.4088L63.4891 14.36H61.921V17.5063H59.7353V7.59277H63.8264C64.9254 7.59277 65.8189 7.87981 66.5332 8.45773ZM63.4647 9.62054H61.921V12.3462H63.4647C64.7942 12.3462 65.4395 11.8778 65.4395 10.9623C65.4395 10.0467 64.8131 9.62054 63.4647 9.62054Z" fill="white"/>
    <path d="M71.16 6.73242H73.3315V15.7854H71.16V6.73242Z" fill="white"/>
    <path d="M70.9413 3.7749L71.9455 1.39545L74.3364 2.40444L73.3323 4.7839L70.9413 3.7749Z" fill="white"/>
    <path d="M5.15155 11.2392L7.94618 5.87354H10.1716V15.7857H7.97547V10.1258H7.94975L5.83323 13.952H4.41248L2.29482 10.1317H2.26788V15.781H0.069397V5.87354H2.29482L5.10588 11.2392H5.15155Z" fill="white"/>
</svg>
