<svg width="167" height="167" viewBox="0 0 167 167" fill="none" xmlns="http://www.w3.org/2000/svg">
<g style="mix-blend-mode:luminosity" filter="url(#filter0_f_8335_254)">
<circle cx="83.257" cy="83.257" r="58.257" fill="#DC9A49"/>
</g>
<g style="mix-blend-mode:plus-lighter" filter="url(#filter1_f_8335_254)">
<ellipse cx="82.911" cy="82.5992" rx="40.7392" ry="39.9078" fill="#FFBF72"/>
</g>
<g style="mix-blend-mode:multiply" filter="url(#filter2_f_8335_254)">
<ellipse cx="96.5" cy="61" rx="17.5" ry="17" fill="#00F0FF" fill-opacity="0.43"/>
</g>
<path d="M51.3475 82.532L48.6315 85.542L51.5575 89H50.2135L47.8055 86.032H47.4275V89H46.3635V79.648H47.4275V85.192H47.7215L50.0315 82.532H51.3475ZM52.6799 82.532H53.4779L53.6039 83.778C53.7719 83.3207 54.0285 82.9753 54.3739 82.742C54.7285 82.4993 55.1625 82.378 55.6759 82.378C56.2919 82.378 56.7772 82.5507 57.1319 82.896C57.4865 83.2413 57.6639 83.7313 57.6639 84.366V89H56.5999V84.632C56.5999 84.212 56.4925 83.8853 56.2779 83.652C56.0725 83.4187 55.7739 83.302 55.3819 83.302C54.8499 83.302 54.4439 83.4653 54.1639 83.792C53.8839 84.1187 53.7439 84.5993 53.7439 85.234V89H52.6799V82.532ZM65.0416 85.724C65.0416 86.8067 64.7849 87.6513 64.2716 88.258C63.7582 88.8647 63.0536 89.168 62.1576 89.168C61.2616 89.168 60.5569 88.8647 60.0436 88.258C59.5302 87.6513 59.2736 86.8067 59.2736 85.724C59.2736 84.66 59.5256 83.8387 60.0296 83.26C60.5429 82.672 61.2522 82.378 62.1576 82.378C63.0629 82.378 63.7676 82.672 64.2716 83.26C64.7849 83.8387 65.0416 84.66 65.0416 85.724ZM63.9916 85.724C63.9916 84.8933 63.8376 84.2727 63.5296 83.862C63.2309 83.4513 62.7736 83.246 62.1576 83.246C61.5416 83.246 61.0796 83.4513 60.7716 83.862C60.4729 84.2727 60.3236 84.8933 60.3236 85.724C60.3236 86.5827 60.4776 87.2313 60.7856 87.67C61.0936 88.1087 61.5509 88.328 62.1576 88.328C62.7642 88.328 63.2216 88.1087 63.5296 87.67C63.8376 87.2313 63.9916 86.5827 63.9916 85.724ZM69.7449 82.532H70.8369L71.8309 86.158C71.9522 86.5873 72.0502 86.9793 72.1249 87.334C72.1996 87.6793 72.2462 87.9873 72.2649 88.258H72.3209C72.3302 87.9967 72.3629 87.6933 72.4189 87.348C72.4842 86.9933 72.5729 86.5967 72.6849 86.158L73.6229 82.532H74.7009L72.9229 89H71.6489L70.7109 85.682C70.5896 85.2527 70.4916 84.87 70.4169 84.534C70.3516 84.1887 70.3049 83.8947 70.2769 83.652H70.2209C70.2022 83.8947 70.1556 84.184 70.0809 84.52C70.0156 84.856 69.9222 85.2433 69.8009 85.682L68.9049 89H67.6309L65.8109 82.532H66.9169L67.8689 86.144C67.9902 86.5733 68.0836 86.9653 68.1489 87.32C68.2236 87.6747 68.2749 87.9873 68.3029 88.258H68.3589C68.3776 87.978 68.4196 87.6653 68.4849 87.32C68.5502 86.9653 68.6389 86.5733 68.7509 86.144L69.7449 82.532ZM81.9246 82.378C82.4379 82.378 82.8439 82.4993 83.1426 82.742C83.4506 82.9753 83.6419 83.33 83.7166 83.806C83.8566 83.3487 84.1039 82.9987 84.4586 82.756C84.8132 82.504 85.2379 82.378 85.7326 82.378C86.3392 82.378 86.8106 82.546 87.1466 82.882C87.4919 83.218 87.6646 83.6893 87.6646 84.296V89H86.6006V84.618C86.6006 84.198 86.5026 83.876 86.3066 83.652C86.1106 83.4187 85.8259 83.302 85.4526 83.302C84.9859 83.302 84.6032 83.4793 84.3046 83.834C84.0059 84.1793 83.8566 84.646 83.8566 85.234V89H82.7926V84.618C82.7926 84.198 82.6946 83.876 82.4986 83.652C82.3026 83.4187 82.0179 83.302 81.6446 83.302C81.1779 83.302 80.7952 83.4793 80.4966 83.834C80.1979 84.1793 80.0486 84.646 80.0486 85.234V89H78.9846V82.532H79.7826L79.9086 83.778C80.0579 83.33 80.3099 82.9847 80.6646 82.742C81.0192 82.4993 81.4392 82.378 81.9246 82.378ZM95.0376 85.724C95.0376 86.8067 94.781 87.6513 94.2676 88.258C93.7543 88.8647 93.0496 89.168 92.1536 89.168C91.2576 89.168 90.553 88.8647 90.0396 88.258C89.5263 87.6513 89.2696 86.8067 89.2696 85.724C89.2696 84.66 89.5216 83.8387 90.0256 83.26C90.539 82.672 91.2483 82.378 92.1536 82.378C93.059 82.378 93.7636 82.672 94.2676 83.26C94.781 83.8387 95.0376 84.66 95.0376 85.724ZM93.9876 85.724C93.9876 84.8933 93.8336 84.2727 93.5256 83.862C93.227 83.4513 92.7696 83.246 92.1536 83.246C91.5376 83.246 91.0756 83.4513 90.7676 83.862C90.469 84.2727 90.3196 84.8933 90.3196 85.724C90.3196 86.5827 90.4736 87.2313 90.7816 87.67C91.0896 88.1087 91.547 88.328 92.1536 88.328C92.7603 88.328 93.2176 88.1087 93.5256 87.67C93.8336 87.2313 93.9876 86.5827 93.9876 85.724ZM100.189 82.392L100.133 83.596C100.077 83.5867 100.002 83.5773 99.909 83.568C99.8157 83.5587 99.7177 83.554 99.615 83.554C99.1017 83.554 98.6677 83.75 98.313 84.142C97.9583 84.534 97.781 85.0287 97.781 85.626V89H96.717V82.532H97.599L97.725 84.268C97.8557 83.652 98.1357 83.1807 98.565 82.854C99.0037 82.518 99.545 82.364 100.189 82.392ZM103.556 88.328C103.967 88.328 104.293 88.2393 104.536 88.062C104.779 87.8753 104.956 87.5907 105.068 87.208L106.006 87.418C105.903 87.9967 105.637 88.4353 105.208 88.734C104.779 89.0233 104.2 89.168 103.472 89.168C102.604 89.168 101.918 88.874 101.414 88.286C100.919 87.6887 100.672 86.8627 100.672 85.808C100.672 84.744 100.929 83.9087 101.442 83.302C101.965 82.686 102.669 82.378 103.556 82.378C104.331 82.378 104.942 82.6253 105.39 83.12C105.838 83.6053 106.062 84.268 106.062 85.108C106.062 85.2853 106.048 85.458 106.02 85.626C106.001 85.7847 105.973 85.9107 105.936 86.004H101.694C101.731 86.732 101.913 87.3013 102.24 87.712C102.567 88.1227 103.005 88.328 103.556 88.328ZM103.486 83.232C102.982 83.232 102.576 83.4 102.268 83.736C101.969 84.0627 101.787 84.534 101.722 85.15H105.012C105.021 85.1127 105.026 85.0753 105.026 85.038C105.026 84.9913 105.026 84.9307 105.026 84.856C105.026 84.3893 104.881 84.002 104.592 83.694C104.303 83.386 103.934 83.232 103.486 83.232Z" fill="black"/>
<path d="M131.5 82.634C132.167 83.0189 132.167 83.9811 131.5 84.366L127 86.9641C126.333 87.349 125.5 86.8679 125.5 86.0981L125.5 80.9019C125.5 80.1321 126.333 79.651 127 80.0359L131.5 82.634Z" fill="black"/>
<defs>
<filter id="filter0_f_8335_254" x="0" y="0" width="166.516" height="166.514" filterUnits="userSpaceOnUse" color-interpolation-filters="sRGB">
<feFlood flood-opacity="0" result="BackgroundImageFix"/>
<feBlend mode="normal" in="SourceGraphic" in2="BackgroundImageFix" result="shape"/>
<feGaussianBlur stdDeviation="12.5" result="effect1_foregroundBlur_8335_254"/>
</filter>
<filter id="filter1_f_8335_254" x="22.1719" y="22.6914" width="121.477" height="119.815" filterUnits="userSpaceOnUse" color-interpolation-filters="sRGB">
<feFlood flood-opacity="0" result="BackgroundImageFix"/>
<feBlend mode="normal" in="SourceGraphic" in2="BackgroundImageFix" result="shape"/>
<feGaussianBlur stdDeviation="10" result="effect1_foregroundBlur_8335_254"/>
</filter>
<filter id="filter2_f_8335_254" x="59" y="24" width="75" height="74" filterUnits="userSpaceOnUse" color-interpolation-filters="sRGB">
<feFlood flood-opacity="0" result="BackgroundImageFix"/>
<feBlend mode="normal" in="SourceGraphic" in2="BackgroundImageFix" result="shape"/>
<feGaussianBlur stdDeviation="10" result="effect1_foregroundBlur_8335_254"/>
</filter>
</defs>
</svg>
