<svg width="75" height="22" viewBox="0 0 75 22" fill="none"
    xmlns="http://www.w3.org/2000/svg">
    <g clip-path="url(#clip0_178_930)">
        <path d="M9.44088 8.70733C9.34596 8.5853 8.37408 7.38525 8.37408 7.38525V14.9901C8.37408 15.6116 8.87807 16.1156 9.50416 16.1156C10.1303 16.1156 10.6342 15.6116 10.6342 14.9901L10.6185 9.97749C10.2703 9.66561 9.94041 9.31757 9.44088 8.70733Z" fill="white"/>
        <path d="M19.7431 13.1891C19.3544 13.1891 18.9882 13.1054 18.6582 12.9518C18.6334 13.1891 18.7305 13.944 17.5371 14.8163C17.449 14.8773 12.6709 17.9057 11.6695 18.4097C10.3767 19.0651 8.93242 18.8639 8.08258 18.4277C7.75259 18.2899 3.56212 15.7994 3.3926 15.6773C3.0807 15.4558 2.56762 15.0265 2.40488 14.4728C2.25571 13.9937 2.26249 13.2456 2.26249 13.2456V6.91764C2.26249 5.93906 2.5518 4.18305 4.33512 3.4011C6.2518 2.69372 7.29376 3.80337 8.29055 5.01925C8.36734 5.11417 10.3112 7.68151 11.1678 8.44311C12.273 9.4285 13.3896 9.93248 14.7345 9.93248C18.353 9.93248 19.7295 7.07132 19.7295 4.96049C19.7273 2.22139 17.4852 -0.00244141 14.7322 -0.00244141C13.0234 -0.00244141 11.4526 0.863137 10.544 2.27562C10.7112 2.46772 11.1384 2.9943 11.204 3.07114C11.222 3.08922 11.9408 4.01807 11.9792 4.07232C12.1035 3.92089 13.1365 2.27789 14.7299 2.27789C16.3618 2.27789 17.4219 3.548 17.4219 4.96049C17.4219 6.43626 16.2216 7.62953 14.7752 7.62953C13.9185 7.62953 13.3648 7.32443 12.6844 6.7165C12.0041 6.10856 10.2998 3.84857 10.2998 3.84857C10.1507 3.6497 8.97312 2.2259 8.13008 1.66543C7.07678 0.955793 5.59633 0.530915 3.62315 1.19083C1.64997 1.85075 0 3.98191 0 6.91764L0.00904094 13.2456C0.00904094 13.4874 -0.00904093 14.2762 0.187599 15.0197C0.508552 16.2446 1.09395 16.9362 2.3077 17.691C2.88631 18.0164 6.22015 20.012 6.73548 20.2877C7.71416 20.8075 8.68609 21.0697 9.99023 21.0719C10.996 21.0742 11.9747 20.8279 12.8042 20.3962C14.14 19.7159 18.4796 16.9362 18.7531 16.7644C20.0256 15.9056 21.063 14.5519 20.9569 12.8908C20.5952 13.0783 20.1816 13.1891 19.7431 13.1891Z" fill="white"/>
        <path d="M19.7479 11.9688C20.4802 11.9688 21.0747 11.379 21.0747 10.6468C21.0747 9.91908 20.4802 9.32471 19.7479 9.32471C19.0156 9.32471 18.4211 9.91455 18.4211 10.6468C18.4211 11.379 19.0156 11.9688 19.7479 11.9688Z" fill="white"/>
        <path d="M28.8294 20.2687C28.1241 20.2687 27.5848 19.688 27.5848 19.0242V9.81475C27.5848 8.07241 28.7879 5.33447 32.3969 5.33447C33.0192 5.33447 36.8773 5.33448 36.8773 10.3955C36.8773 15.2906 34.0563 15.581 32.8948 15.581C31.3598 15.581 30.3643 14.6269 30.0739 14.0876V19.0242C30.0739 19.688 29.5346 20.2687 28.8294 20.2687ZM34.3052 10.4785C34.3052 9.52436 34.1393 8.77764 33.7659 8.23835C33.3926 7.69906 32.8533 7.45016 32.1895 7.45016C31.5258 7.45016 30.9865 7.69906 30.6132 8.23835C30.2813 8.69468 30.1154 9.44139 30.1154 10.4785C30.1154 11.4326 30.2813 12.1379 30.6547 12.5941C31.028 13.1334 31.5673 13.3823 32.231 13.3823C32.8533 13.3823 33.3926 13.1334 33.7659 12.5941C34.1393 12.0964 34.3052 11.3912 34.3052 10.4785Z" fill="white"/>
        <path d="M51.3133 15.4157C50.5665 15.4157 49.9443 14.8349 49.9443 14.1297V6.86998C49.9443 6.16477 50.5665 5.58398 51.3133 5.58398C52.06 5.58398 52.6822 6.16477 52.6822 6.86998V14.1297C52.6822 14.8349 52.06 15.4157 51.3133 15.4157Z" fill="white"/>
        <path d="M51.3291 1.07715C50.5471 1.07715 49.9023 1.73341 49.9023 2.52931C49.9023 3.32521 50.5471 3.98148 51.3291 3.98148C52.1109 3.98148 52.7557 3.32521 52.7557 2.52931C52.7557 1.73341 52.1247 1.07715 51.3291 1.07715Z" fill="white"/>
        <path d="M62.9342 0.771484C62.229 0.771484 61.6897 1.35226 61.6897 2.01601V6.86963C61.3994 6.4133 60.9845 5.99847 60.4867 5.70808C60.0304 5.45918 59.4911 5.33472 58.8688 5.33472C57.7072 5.33472 56.7531 5.83252 56.0064 6.78665C55.3012 7.74079 54.9278 8.98529 54.9278 10.5202C54.9278 12.0966 55.3012 13.3412 56.0064 14.2537C56.3797 14.7101 56.8776 15.0834 57.4998 15.2908C58.1221 15.4983 58.7444 15.6227 59.4081 15.6227C60.6112 15.6227 61.6897 15.3323 62.7268 14.7101C63.7224 14.0878 64.2617 12.8848 64.2617 11.1425V2.01601C64.2202 1.31078 63.6394 0.771484 62.9342 0.771484ZM61.1919 12.6774C60.8186 13.2167 60.3208 13.4656 59.6155 13.4656C58.9103 13.4656 58.371 13.2167 58.0391 12.6774C57.6658 12.1381 57.4998 11.3914 57.4998 10.4372C57.4998 9.56608 57.6658 8.86084 58.0391 8.36303C58.4125 7.82373 58.9103 7.57486 59.574 7.57486C60.2378 7.57486 60.7771 7.82373 61.1504 8.32155C61.5238 8.86084 61.6897 9.56608 61.6897 10.4372C61.6897 11.3914 61.5238 12.1796 61.1919 12.6774Z" fill="white"/>
        <path d="M46.4316 15.4487C47.1368 15.4487 47.6761 14.8679 47.6761 14.2042V9.68245C47.6761 7.9401 46.473 5.20215 42.864 5.20215C42.2417 5.20215 38.3837 5.20216 38.3837 10.2632C38.3837 15.1583 41.2046 15.4487 42.3662 15.4487C43.901 15.4487 44.8966 14.4946 45.187 13.9553V14.2042C45.187 14.8679 45.7263 15.4487 46.4316 15.4487ZM40.9557 10.3462C40.9557 9.39206 41.1216 8.64534 41.495 8.10604C41.8684 7.56673 42.4077 7.31783 43.0714 7.31783C43.7351 7.31783 44.2744 7.56673 44.6477 8.10604C44.9796 8.56237 45.1455 9.30909 45.1455 10.3462C45.1455 11.3003 44.9796 12.0055 44.6062 12.4618C44.2329 13.0011 43.6936 13.25 43.0299 13.25C42.4077 13.25 41.8684 13.0011 41.495 12.4618C41.1216 11.964 40.9557 11.2588 40.9557 10.3462Z" fill="white"/>
        <path d="M67.3317 19.5221C67.3317 19.8955 67.622 20.1858 67.9538 20.2273C68.7006 20.3103 69.9036 20.3103 70.5674 19.771C71.0237 19.3976 71.397 18.8583 71.6874 18.0287L74.9231 7.20135C75.2135 6.37167 74.5913 5.54199 73.7201 5.54199C73.1394 5.54199 72.6416 5.91535 72.5171 6.45464L70.7748 12.5113L69.0324 6.49613C68.8665 5.91535 68.3687 5.54199 67.7465 5.54199C66.8338 5.54199 66.2116 6.45464 66.502 7.28432L69.3228 16.6182C69.4888 17.1575 69.4473 17.5308 69.1569 17.7383C68.8665 17.9872 68.4931 18.1116 67.9954 18.1116C67.622 18.1116 67.2902 18.4435 67.2902 18.8169V19.5221H67.3317Z" fill="white"/>
    </g>
    <defs>
        <clipPath id="clip0_178_930">
            <rect width="75" height="21.0938" fill="white" transform="translate(0 -0.00244141)"/>
        </clipPath>
    </defs>
</svg>
