<svg width="12" height="13" viewBox="0 0 12 13" fill="none"
    xmlns="http://www.w3.org/2000/svg">
    <path opacity="0.8" d="M10.9972 7.61631C10.7735 7.22661 10.5152 6.82666 10.2261 6.4235C10.5152 6.0197 10.7735 5.62037 10.9972 5.23067C11.6388 4.10772 12.0054 3.0713 12.0086 2.2137C12.0086 1.95475 11.974 1.71118 11.8971 1.48813C11.8202 1.26508 11.6997 1.06318 11.5337 0.897811C11.3683 0.732444 11.1664 0.611292 10.9433 0.534378C10.7203 0.457463 10.4767 0.422852 10.2178 0.422852C9.36082 0.425415 8.32375 0.792686 7.20079 1.43428C6.81109 1.65798 6.41113 1.91629 6.00797 2.20536C5.60416 1.91629 5.20485 1.65798 4.81515 1.43428C3.69219 0.792686 2.65576 0.426056 1.79816 0.422852C1.53922 0.422852 1.29565 0.457463 1.07259 0.534378C0.849542 0.611292 0.647643 0.731803 0.482276 0.897811C0.316909 1.06254 0.195773 1.26508 0.118858 1.48749C0.0419431 1.71054 0.00732422 1.95411 0.00732422 2.21306C0.00988805 3.07002 0.377158 4.10707 1.01876 5.23003C1.24245 5.61973 1.50076 6.0197 1.78983 6.42286C1.50076 6.82666 1.24245 7.22597 1.01876 7.61567C0.377158 8.73863 0.010529 9.7757 0.00732422 10.6327C0.00732422 10.8916 0.0419431 11.1352 0.118858 11.3582C0.195773 11.5813 0.316268 11.7832 0.482276 11.9486C0.647643 12.1139 0.849542 12.2351 1.07259 12.3113C1.29565 12.3882 1.53922 12.4229 1.79816 12.4229C2.65512 12.4203 3.69219 12.053 4.81515 11.4114C5.20485 11.1877 5.6048 10.9294 6.00797 10.6404C6.41113 10.9294 6.81109 11.1877 7.20079 11.4114C8.32375 12.053 9.36018 12.4196 10.2178 12.4229C10.4767 12.4229 10.7203 12.3882 10.9433 12.3113C11.1664 12.2344 11.3683 12.1139 11.5337 11.9486C11.699 11.7832 11.8202 11.5813 11.8964 11.3582C11.9734 11.1352 12.008 10.8916 12.008 10.6327C12.0054 9.7757 11.6381 8.73863 10.9965 7.61567L10.9972 7.61631ZM7.48538 1.92974C8.55321 1.31506 9.52875 0.991391 10.2178 0.993955C10.4254 0.993955 10.6062 1.02216 10.7568 1.07407C10.9081 1.12663 11.0292 1.20163 11.1299 1.30098C11.2298 1.40096 11.3048 1.52274 11.3568 1.674C11.4087 1.82463 11.4369 2.00539 11.4369 2.21306C11.4394 2.90273 11.1158 3.87826 10.5011 4.94545C10.3152 5.26977 10.103 5.60243 9.86718 5.94086C9.40312 5.34028 8.87304 4.7365 8.28336 4.14682C7.69368 3.55778 7.0899 3.02707 6.48933 2.56302C6.82711 2.32714 7.16041 2.11498 7.48473 1.9291L7.48538 1.92974ZM9.51721 6.42286C9.04546 7.04651 8.49617 7.67849 7.88021 8.29445C7.26425 8.91041 6.63162 9.45971 6.00861 9.93146C5.38496 9.45971 4.75298 8.91041 4.13702 8.29445C3.52106 7.67849 2.97175 7.04587 2.50001 6.42286C2.97175 5.79985 3.52106 5.16723 4.13702 4.55127C4.75298 3.93531 5.3856 3.386 6.00861 2.91426C6.63162 3.386 7.26425 3.93531 7.88021 4.55127C8.49617 5.16723 9.04546 5.79985 9.51721 6.42286ZM1.51486 4.94545C0.900179 3.87761 0.576497 2.90209 0.579061 2.21306C0.579061 2.00539 0.607263 1.82463 0.659181 1.674C0.711739 1.52274 0.786734 1.40161 0.886082 1.30162C0.986712 1.20163 1.10785 1.12663 1.25912 1.07407C1.40974 1.02216 1.59049 0.993955 1.79816 0.993955C2.48783 0.991391 3.46337 1.31506 4.53056 1.92974C4.85489 2.11562 5.18819 2.32779 5.52597 2.56366C4.9254 3.02771 4.32161 3.55778 3.73193 4.14746C3.14289 4.73714 2.61218 5.34092 2.14812 5.9415C1.91225 5.60372 1.70009 5.27042 1.51422 4.94609L1.51486 4.94545ZM4.53121 10.916C3.46337 11.5307 2.48783 11.8543 1.7988 11.8518C1.59113 11.8518 1.41038 11.8236 1.25976 11.7716C1.10849 11.7191 0.987354 11.6441 0.886724 11.5447C0.786734 11.4448 0.71174 11.323 0.659822 11.1717C0.607905 11.0211 0.579062 10.8403 0.579702 10.6327C0.577139 9.94299 0.900821 8.96746 1.5155 7.90027C1.70138 7.57594 1.91353 7.24265 2.14941 6.90486C2.61346 7.50544 3.14353 8.10922 3.73321 8.6989C4.32289 9.28794 4.92667 9.81865 5.52725 10.2827C5.18946 10.5186 4.85617 10.7307 4.53185 10.9166L4.53121 10.916ZM11.3568 11.1711C11.3042 11.3223 11.2298 11.4435 11.1299 11.5441C11.0299 11.6441 10.9081 11.7184 10.7568 11.771C10.6062 11.8236 10.4254 11.8511 10.2178 11.8511C9.52811 11.8537 8.55257 11.53 7.48538 10.9153C7.16105 10.7295 6.82839 10.5173 6.49061 10.2814C7.09119 9.81737 7.69497 9.2873 8.28465 8.69762C8.87369 8.10794 9.40441 7.50415 9.86846 6.90358C10.1043 7.24136 10.3165 7.57466 10.5024 7.89899C11.117 8.96682 11.4407 9.94235 11.4382 10.6314C11.4382 10.839 11.41 11.0198 11.358 11.1704L11.3568 11.1711Z" fill="white"/>
</svg>
