<svg width="25" height="25" viewBox="0 0 25 25" fill="none"
    xmlns="http://www.w3.org/2000/svg">
    <path d="M22.7319 0.444336L9.68193 14.8068L5.89443 11.9193H3.79443L9.68193 21.4818L24.8319 0.444336H22.7319Z" fill="white"/>
    <path d="M21.046 21.4817C21.046 21.7067 20.8585 21.8942 20.6335 21.8942H3.796C3.571 21.8942 3.3835 21.7067 3.3835 21.4817V4.64424C3.3835 4.41924 3.571 4.23174 3.796 4.23174H15.3085L17.596 1.71924H1.6585C1.2085 1.71924 0.833496 2.09424 0.833496 2.54424V23.5817C0.833496 24.0692 1.2085 24.4442 1.6585 24.4442H22.696C23.146 24.4442 23.521 24.0692 23.521 23.6192V7.23174L21.0085 10.7567C21.046 10.7567 21.046 21.4817 21.046 21.4817Z" fill="#F7931A"/>
</svg>
