<svg width="76" height="39" viewBox="0 0 76 39" fill="none" xmlns="http://www.w3.org/2000/svg">
<path d="M23.1987 20.912H24.3047C24.9207 20.912 25.3921 20.7487 25.7187 20.422C26.0547 20.0953 26.2227 19.6193 26.2227 18.994C26.2227 18.602 26.1154 18.3127 25.9007 18.126C25.6861 17.93 25.3314 17.832 24.8367 17.832H23.7447L23.1987 20.912ZM21.1687 25L22.6107 16.754H25.0327C25.9287 16.754 26.5727 16.9313 26.9647 17.286C27.3661 17.6407 27.5667 18.1727 27.5667 18.882C27.5667 19.3953 27.4827 19.848 27.3147 20.24C27.1467 20.6227 26.9181 20.9447 26.6287 21.206C26.3394 21.458 25.9941 21.6493 25.5927 21.78C25.1914 21.9107 24.7621 21.976 24.3047 21.976H23.0167L22.4847 25H21.1687ZM31.461 18.378C32.273 18.378 32.8983 18.6253 33.337 19.12C33.785 19.6147 34.009 20.296 34.009 21.164C34.009 21.696 33.9343 22.2047 33.785 22.69C33.645 23.1753 33.4303 23.6047 33.141 23.978C32.8517 24.342 32.497 24.6313 32.077 24.846C31.657 25.0607 31.1763 25.168 30.635 25.168C30.2617 25.168 29.9163 25.1073 29.599 24.986C29.291 24.8647 29.0203 24.692 28.787 24.468C28.563 24.2347 28.3857 23.95 28.255 23.614C28.1337 23.2687 28.073 22.872 28.073 22.424C28.073 21.892 28.143 21.3833 28.283 20.898C28.4323 20.4033 28.647 19.9693 28.927 19.596C29.2163 19.2227 29.571 18.9287 29.991 18.714C30.4203 18.49 30.9103 18.378 31.461 18.378ZM31.307 19.414C30.999 19.414 30.7237 19.4933 30.481 19.652C30.2383 19.8107 30.033 20.0253 29.865 20.296C29.697 20.5573 29.5663 20.8653 29.473 21.22C29.389 21.5747 29.347 21.9433 29.347 22.326C29.347 22.942 29.473 23.4087 29.725 23.726C29.977 24.034 30.327 24.188 30.775 24.188C31.083 24.188 31.3537 24.1087 31.587 23.95C31.8297 23.782 32.0303 23.5627 32.189 23.292C32.357 23.012 32.483 22.6947 32.567 22.34C32.6603 21.9853 32.707 21.612 32.707 21.22C32.707 20.6413 32.5857 20.198 32.343 19.89C32.1003 19.5727 31.755 19.414 31.307 19.414ZM36.529 23.446C36.501 23.6047 36.5057 23.7493 36.543 23.88C36.5803 24.0107 36.7017 24.076 36.907 24.076C36.963 24.076 37.0237 24.0713 37.089 24.062C37.1543 24.0433 37.229 24.0247 37.313 24.006L37.131 24.944C36.907 25.028 36.655 25.07 36.375 25.07C35.8897 25.07 35.5583 24.9393 35.381 24.678C35.2037 24.4167 35.157 24.048 35.241 23.572L36.123 18.532H37.397L36.529 23.446ZM36.235 16.46C36.235 16.208 36.3143 16.0073 36.473 15.858C36.641 15.6993 36.8417 15.62 37.075 15.62C37.3177 15.62 37.523 15.6993 37.691 15.858C37.859 16.0073 37.943 16.208 37.943 16.46C37.943 16.7027 37.859 16.9033 37.691 17.062C37.523 17.2207 37.3177 17.3 37.075 17.3C36.8417 17.3 36.641 17.2207 36.473 17.062C36.3143 16.9033 36.235 16.7027 36.235 16.46ZM43.962 23.446C43.934 23.6047 43.9387 23.7493 43.976 23.88C44.0134 24.0107 44.1347 24.076 44.34 24.076C44.396 24.076 44.4567 24.0713 44.522 24.062C44.5874 24.0433 44.662 24.0247 44.746 24.006L44.564 24.944C44.34 25.028 44.088 25.07 43.808 25.07C43.3227 25.07 42.9914 24.9393 42.814 24.678C42.6367 24.4167 42.59 24.048 42.674 23.572L43.192 20.66C43.2667 20.296 43.2387 20.002 43.108 19.778C42.9867 19.554 42.7347 19.442 42.352 19.442C42.184 19.442 42.0067 19.4747 41.82 19.54C41.6334 19.6053 41.4514 19.7173 41.274 19.876C41.106 20.0347 40.952 20.2447 40.812 20.506C40.672 20.7673 40.5694 21.094 40.504 21.486L39.888 25H38.614L39.748 18.532H40.854L40.784 19.848C41.008 19.372 41.288 19.008 41.624 18.756C41.96 18.504 42.3754 18.378 42.87 18.378C43.374 18.378 43.7754 18.5133 44.074 18.784C44.3727 19.0453 44.522 19.428 44.522 19.932C44.522 20.016 44.5174 20.1047 44.508 20.198C44.508 20.2913 44.494 20.408 44.466 20.548L43.962 23.446ZM49.0238 24.832C48.8278 24.944 48.6038 25.028 48.3518 25.084C48.0998 25.14 47.8618 25.168 47.6378 25.168C47.0498 25.168 46.6158 25.0047 46.3358 24.678C46.0651 24.3513 45.9951 23.824 46.1258 23.096L46.7418 19.54H45.8458L46.0278 18.532H46.9378L47.1758 17.174L48.4638 17.006L48.1978 18.532H49.8918L49.7098 19.54H48.0298L47.3858 23.18C47.3205 23.5067 47.3438 23.74 47.4558 23.88C47.5771 24.02 47.7358 24.09 47.9318 24.09C48.1185 24.09 48.2958 24.0667 48.4638 24.02C48.6318 23.964 48.8185 23.88 49.0238 23.768V24.832ZM51.1155 23.012C51.1155 23.4507 51.2275 23.7727 51.4515 23.978C51.6848 24.174 51.9788 24.272 52.3335 24.272C52.6602 24.272 52.9262 24.2113 53.1315 24.09C53.3462 23.9593 53.4535 23.7167 53.4535 23.362C53.4535 23.0727 53.3695 22.844 53.2015 22.676C53.0428 22.508 52.7488 22.3447 52.3195 22.186C51.8062 21.9993 51.4188 21.766 51.1575 21.486C50.8962 21.1967 50.7655 20.8093 50.7655 20.324C50.7655 19.9973 50.8262 19.7127 50.9475 19.47C51.0688 19.2273 51.2322 19.0267 51.4375 18.868C51.6522 18.7 51.8995 18.5787 52.1795 18.504C52.4595 18.42 52.7628 18.378 53.0895 18.378C53.7802 18.378 54.2935 18.5273 54.6295 18.826C54.9748 19.1153 55.1475 19.54 55.1475 20.1L53.9995 20.282C53.9995 19.9647 53.9108 19.722 53.7335 19.554C53.5655 19.3767 53.3182 19.288 52.9915 19.288C52.6742 19.288 52.4175 19.3673 52.2215 19.526C52.0348 19.6753 51.9415 19.89 51.9415 20.17C51.9415 20.282 51.9555 20.3847 51.9835 20.478C52.0208 20.5713 52.0815 20.66 52.1655 20.744C52.2588 20.828 52.3802 20.912 52.5295 20.996C52.6882 21.08 52.8935 21.1687 53.1455 21.262C53.7148 21.486 54.1115 21.752 54.3355 22.06C54.5595 22.3587 54.6715 22.7553 54.6715 23.25C54.6715 23.9127 54.4475 24.398 53.9995 24.706C53.5608 25.014 52.9915 25.168 52.2915 25.168C51.5728 25.168 51.0128 25.0047 50.6115 24.678C50.2195 24.3513 50.0142 23.8893 49.9955 23.292L51.1155 23.012Z" fill="white"/>
</svg>
