<svg width="237" height="50" viewBox="0 0 237 50" fill="none" xmlns="http://www.w3.org/2000/svg">
<mask id="path-1-outside-1_6566_348" maskUnits="userSpaceOnUse" x="0" y="0" width="237" height="50" fill="black">
<rect fill="white" width="237" height="50"/>
<path d="M0 20C0 8.9543 8.95431 0 20 0H216C227.046 0 236 8.95431 236 20V29C236 40.0457 227.046 49 216 49H20C8.95431 49 0 40.0457 0 29V20Z"/>
</mask>
<path d="M0 20C0 8.9543 8.95431 0 20 0H216C227.046 0 236 8.95431 236 20V29C236 40.0457 227.046 49 216 49H20C8.95431 49 0 40.0457 0 29V20Z" fill="#020202" fill-opacity="0.3"/>
<path d="M0 0H236H0ZM237 29C237 40.598 227.598 50 216 50H21C9.40202 50 0 40.598 0 29C0 39.4934 8.9543 48 20 48H216C226.493 48 235 39.4934 235 29H237ZM0 49V0V49ZM216 0C227.598 0 237 9.40202 237 21V29C237 40.598 227.598 50 216 50V48C226.493 48 235 39.4934 235 29V20C235 8.9543 226.493 0 216 0Z" fill="url(#paint0_linear_6566_348)" mask="url(#path-1-outside-1_6566_348)"/>
<path d="M15.304 27.408H14.296V33H10.912V16.968H15.304C18.648 16.968 20.32 18.704 20.32 22.176C20.32 23.904 19.896 25.208 19.048 26.088C18.2 26.968 16.952 27.408 15.304 27.408ZM16.456 24.096C16.744 23.712 16.888 23.08 16.888 22.2C16.888 21.32 16.752 20.696 16.48 20.328C16.208 19.944 15.752 19.752 15.112 19.752H14.296V24.672H15.112C15.736 24.672 16.184 24.48 16.456 24.096ZM27.7441 20.736L27.6241 24.432C27.3361 24.32 27.0401 24.264 26.7361 24.264C25.4881 24.264 24.8641 25.048 24.8641 26.616V33H21.4801V20.856H24.2161L24.5521 23.232C24.6961 22.352 25.0481 21.688 25.6081 21.24C26.1841 20.792 26.8961 20.624 27.7441 20.736ZM36.1639 22.32C36.9479 23.408 37.3399 24.944 37.3399 26.928C37.3399 28.912 36.9479 30.456 36.1639 31.56C35.3799 32.648 34.2519 33.192 32.7799 33.192C31.3239 33.192 30.2039 32.648 29.4199 31.56C28.6359 30.456 28.2439 28.912 28.2439 26.928C28.2439 24.944 28.6359 23.408 29.4199 22.32C30.2039 21.216 31.3239 20.664 32.7799 20.664C34.2519 20.664 35.3799 21.216 36.1639 22.32ZM34.0039 26.928C34.0039 25.552 33.9159 24.568 33.7399 23.976C33.5639 23.384 33.2439 23.088 32.7799 23.088C32.3319 23.088 32.0119 23.392 31.8199 24C31.6439 24.592 31.5559 25.568 31.5559 26.928C31.5559 28.288 31.6439 29.264 31.8199 29.856C32.0119 30.448 32.3319 30.744 32.7799 30.744C33.2439 30.744 33.5639 30.448 33.7399 29.856C33.9159 29.264 34.0039 28.288 34.0039 26.928ZM41.95 16.056V22.584C42.094 22.008 42.39 21.544 42.838 21.192C43.286 20.84 43.798 20.664 44.374 20.664C45.462 20.664 46.302 21.216 46.894 22.32C47.502 23.408 47.806 24.904 47.806 26.808C47.806 28.76 47.494 30.312 46.87 31.464C46.262 32.616 45.39 33.192 44.254 33.192C43.598 33.192 43.038 32.992 42.574 32.592C42.11 32.192 41.798 31.648 41.638 30.96L41.302 33H38.566V16.056H41.95ZM41.95 25.368V28.44C41.95 29.096 42.046 29.616 42.238 30C42.446 30.368 42.734 30.552 43.102 30.552C43.966 30.552 44.398 29.32 44.398 26.856C44.398 24.472 43.966 23.28 43.102 23.28C42.75 23.28 42.47 23.472 42.262 23.856C42.054 24.224 41.95 24.728 41.95 25.368ZM53.1929 30.744C53.8169 30.744 54.1689 30.12 54.2489 28.872L57.1289 29.424C56.9529 30.592 56.5209 31.512 55.8329 32.184C55.1449 32.856 54.2649 33.192 53.1929 33.192C51.7689 33.192 50.6649 32.64 49.8809 31.536C49.0969 30.432 48.7049 28.896 48.7049 26.928C48.7049 25.024 49.0969 23.504 49.8809 22.368C50.6649 21.232 51.7849 20.664 53.2409 20.664C54.5369 20.664 55.5209 21.136 56.1929 22.08C56.8809 23.024 57.2249 24.256 57.2249 25.776C57.2249 26.288 57.1769 26.904 57.0809 27.624H51.8969C51.8649 29.704 52.2969 30.744 53.1929 30.744ZM51.9209 25.776H54.2009C54.2169 25.664 54.2249 25.496 54.2249 25.272C54.2249 23.816 53.8809 23.088 53.1929 23.088C52.3929 23.088 51.9689 23.984 51.9209 25.776ZM57.9119 29.544L60.6719 29.112C60.6719 29.64 60.7759 30.056 60.9839 30.36C61.2079 30.664 61.5119 30.816 61.8959 30.816C62.5839 30.816 62.9279 30.48 62.9279 29.808C62.9279 29.488 62.7599 29.2 62.4239 28.944C62.1039 28.688 61.7039 28.448 61.2239 28.224C60.7599 27.984 60.2879 27.72 59.8079 27.432C59.3439 27.144 58.9439 26.736 58.6079 26.208C58.2879 25.68 58.1279 25.064 58.1279 24.36C58.1279 23.256 58.4959 22.368 59.2319 21.696C59.9679 21.008 60.9039 20.664 62.0399 20.664C63.1919 20.664 64.1039 20.984 64.7759 21.624C65.4479 22.264 65.7999 23.104 65.8319 24.144L63.0959 24.504C63.0639 23.512 62.7039 23.016 62.0159 23.016C61.4079 23.016 61.1039 23.336 61.1039 23.976C61.1039 24.28 61.2719 24.56 61.6079 24.816C61.9439 25.072 62.3439 25.32 62.8079 25.56C63.2879 25.784 63.7599 26.048 64.2239 26.352C64.7039 26.64 65.1119 27.056 65.4479 27.6C65.7839 28.128 65.9519 28.744 65.9519 29.448C65.9519 30.584 65.5759 31.496 64.8239 32.184C64.0719 32.856 63.1119 33.192 61.9439 33.192C60.7279 33.192 59.7599 32.864 59.0399 32.208C58.3359 31.536 57.9599 30.648 57.9119 29.544ZM74.9832 24.432V30.072C74.9832 30.456 75.1272 30.648 75.4152 30.648C75.5752 30.648 75.7112 30.608 75.8232 30.528L75.9192 32.736C75.4712 33.024 74.9432 33.168 74.3352 33.168C73.5352 33.168 72.9112 32.888 72.4632 32.328C72.3192 32.152 72.1912 31.92 72.0792 31.632C71.9192 32.08 71.6152 32.448 71.1672 32.736C70.7352 33.008 70.2392 33.144 69.6792 33.144C68.7512 33.144 68.0232 32.832 67.4952 32.208C66.9672 31.584 66.7032 30.744 66.7032 29.688C66.7032 28.456 67.0712 27.512 67.8072 26.856C68.5592 26.184 69.5352 25.848 70.7352 25.848C71.1352 25.848 71.4792 25.888 71.7672 25.968V24.336C71.7672 23.584 71.4952 23.208 70.9512 23.208C70.3112 23.208 70.0312 23.792 70.1112 24.96L67.0872 24.456C67.1192 23.32 67.4952 22.408 68.2152 21.72C68.9352 21.016 69.9112 20.664 71.1432 20.664C73.7032 20.664 74.9832 21.92 74.9832 24.432ZM71.7672 29.544V27.84C71.6552 27.792 71.4872 27.768 71.2632 27.768C70.8152 27.768 70.4632 27.912 70.2072 28.2C69.9512 28.488 69.8232 28.904 69.8232 29.448C69.8232 30.408 70.1432 30.888 70.7832 30.888C71.4392 30.888 71.7672 30.44 71.7672 29.544ZM82.3611 29.952L82.8171 32.376C82.1131 32.92 81.2811 33.192 80.3211 33.192C79.2971 33.192 78.5131 32.904 77.9691 32.328C77.4251 31.752 77.1531 30.936 77.1531 29.88V23.328H76.1931V20.856H77.1531V18.528L80.5131 18V20.856H82.5291V23.328H80.5131V29.448C80.5131 30.072 80.7691 30.384 81.2811 30.384C81.6491 30.384 82.0091 30.24 82.3611 29.952ZM83.2478 29.544L86.0078 29.112C86.0078 29.64 86.1118 30.056 86.3198 30.36C86.5438 30.664 86.8478 30.816 87.2318 30.816C87.9198 30.816 88.2638 30.48 88.2638 29.808C88.2638 29.488 88.0958 29.2 87.7598 28.944C87.4398 28.688 87.0398 28.448 86.5598 28.224C86.0958 27.984 85.6238 27.72 85.1438 27.432C84.6798 27.144 84.2798 26.736 83.9438 26.208C83.6238 25.68 83.4638 25.064 83.4638 24.36C83.4638 23.256 83.8318 22.368 84.5678 21.696C85.3038 21.008 86.2398 20.664 87.3758 20.664C88.5278 20.664 89.4398 20.984 90.1118 21.624C90.7838 22.264 91.1358 23.104 91.1678 24.144L88.4318 24.504C88.3998 23.512 88.0398 23.016 87.3518 23.016C86.7438 23.016 86.4398 23.336 86.4398 23.976C86.4398 24.28 86.6078 24.56 86.9438 24.816C87.2798 25.072 87.6798 25.32 88.1438 25.56C88.6238 25.784 89.0958 26.048 89.5598 26.352C90.0398 26.64 90.4478 27.056 90.7838 27.6C91.1198 28.128 91.2878 28.744 91.2878 29.448C91.2878 30.584 90.9118 31.496 90.1598 32.184C89.4078 32.856 88.4478 33.192 87.2798 33.192C86.0638 33.192 85.0958 32.864 84.3758 32.208C83.6718 31.536 83.2958 30.648 83.2478 29.544Z" fill="#F7931A"/>
<path d="M143.56 24.792V24.84C144.44 25.032 145.112 25.456 145.576 26.112C146.04 26.768 146.272 27.608 146.272 28.632C146.272 29.992 145.864 31.064 145.048 31.848C144.232 32.616 143.016 33 141.4 33H136.912V16.968H141.352C142.856 16.968 143.984 17.336 144.736 18.072C145.504 18.808 145.888 19.84 145.888 21.168C145.888 22.16 145.68 22.968 145.264 23.592C144.864 24.216 144.296 24.616 143.56 24.792ZM140.176 19.68V23.712H140.992C141.584 23.712 142 23.552 142.24 23.232C142.496 22.896 142.624 22.376 142.624 21.672C142.624 20.968 142.496 20.464 142.24 20.16C142 19.84 141.584 19.68 140.992 19.68H140.176ZM140.176 26.16V30.288H141.184C141.808 30.288 142.248 30.12 142.504 29.784C142.76 29.448 142.888 28.928 142.888 28.224C142.888 27.536 142.752 27.024 142.48 26.688C142.224 26.336 141.792 26.16 141.184 26.16H140.176ZM151.128 17.928C151.128 18.488 150.944 18.944 150.576 19.296C150.208 19.632 149.744 19.8 149.184 19.8C148.624 19.8 148.16 19.632 147.792 19.296C147.424 18.944 147.24 18.488 147.24 17.928C147.24 17.384 147.424 16.944 147.792 16.608C148.16 16.256 148.624 16.08 149.184 16.08C149.744 16.08 150.208 16.256 150.576 16.608C150.944 16.944 151.128 17.384 151.128 17.928ZM147.504 20.856H150.888V33H147.504V20.856ZM158.111 29.952L158.567 32.376C157.863 32.92 157.031 33.192 156.071 33.192C155.047 33.192 154.263 32.904 153.719 32.328C153.175 31.752 152.903 30.936 152.903 29.88V23.328H151.943V20.856H152.903V18.528L156.263 18V20.856H158.279V23.328H156.263V29.448C156.263 30.072 156.519 30.384 157.031 30.384C157.399 30.384 157.759 30.24 158.111 29.952ZM159.072 26.904C159.072 24.936 159.456 23.408 160.224 22.32C161.008 21.216 162.088 20.664 163.464 20.664C164.648 20.664 165.568 21.024 166.224 21.744C166.896 22.464 167.264 23.464 167.328 24.744L164.448 25.224C164.416 23.832 164.112 23.136 163.536 23.136C163.12 23.136 162.824 23.44 162.648 24.048C162.472 24.64 162.384 25.592 162.384 26.904C162.384 28.216 162.472 29.176 162.648 29.784C162.824 30.392 163.12 30.696 163.536 30.696C164.112 30.696 164.424 29.992 164.472 28.584L167.352 29.208C167.24 30.44 166.84 31.416 166.152 32.136C165.48 32.84 164.584 33.192 163.464 33.192C162.072 33.192 160.992 32.64 160.224 31.536C159.456 30.432 159.072 28.888 159.072 26.904ZM175.945 22.32C176.729 23.408 177.121 24.944 177.121 26.928C177.121 28.912 176.729 30.456 175.945 31.56C175.161 32.648 174.033 33.192 172.561 33.192C171.105 33.192 169.985 32.648 169.201 31.56C168.417 30.456 168.025 28.912 168.025 26.928C168.025 24.944 168.417 23.408 169.201 22.32C169.985 21.216 171.105 20.664 172.561 20.664C174.033 20.664 175.161 21.216 175.945 22.32ZM173.785 26.928C173.785 25.552 173.697 24.568 173.521 23.976C173.345 23.384 173.025 23.088 172.561 23.088C172.113 23.088 171.793 23.392 171.601 24C171.425 24.592 171.337 25.568 171.337 26.928C171.337 28.288 171.425 29.264 171.601 29.856C171.793 30.448 172.113 30.744 172.561 30.744C173.025 30.744 173.345 30.448 173.521 29.856C173.697 29.264 173.785 28.288 173.785 26.928ZM181.971 17.928C181.971 18.488 181.787 18.944 181.419 19.296C181.051 19.632 180.587 19.8 180.027 19.8C179.467 19.8 179.003 19.632 178.635 19.296C178.267 18.944 178.083 18.488 178.083 17.928C178.083 17.384 178.267 16.944 178.635 16.608C179.003 16.256 179.467 16.08 180.027 16.08C180.587 16.08 181.051 16.256 181.419 16.608C181.787 16.944 181.971 17.384 181.971 17.928ZM178.347 20.856H181.731V33H178.347V20.856ZM186.147 20.856L186.459 22.968C186.635 22.248 186.979 21.688 187.491 21.288C188.003 20.872 188.619 20.664 189.339 20.664C190.251 20.664 190.955 20.96 191.451 21.552C191.947 22.128 192.195 22.936 192.195 23.976V33H188.835V24.768C188.835 23.888 188.531 23.448 187.923 23.448C187.139 23.448 186.747 24.112 186.747 25.44V33H183.363V20.856H186.147ZM205.791 30.144V33H197.967V16.968H205.791V19.824H201.351V23.52H205.095V26.232H201.351V30.144H205.791ZM206.603 26.904C206.603 24.936 206.987 23.408 207.755 22.32C208.539 21.216 209.619 20.664 210.995 20.664C212.179 20.664 213.099 21.024 213.755 21.744C214.427 22.464 214.795 23.464 214.859 24.744L211.979 25.224C211.947 23.832 211.643 23.136 211.067 23.136C210.651 23.136 210.355 23.44 210.179 24.048C210.003 24.64 209.915 25.592 209.915 26.904C209.915 28.216 210.003 29.176 210.179 29.784C210.355 30.392 210.651 30.696 211.067 30.696C211.643 30.696 211.955 29.992 212.003 28.584L214.883 29.208C214.771 30.44 214.371 31.416 213.683 32.136C213.011 32.84 212.115 33.192 210.995 33.192C209.603 33.192 208.523 32.64 207.755 31.536C206.987 30.432 206.603 28.888 206.603 26.904ZM223.476 22.32C224.26 23.408 224.652 24.944 224.652 26.928C224.652 28.912 224.26 30.456 223.476 31.56C222.692 32.648 221.564 33.192 220.092 33.192C218.636 33.192 217.516 32.648 216.732 31.56C215.948 30.456 215.556 28.912 215.556 26.928C215.556 24.944 215.948 23.408 216.732 22.32C217.516 21.216 218.636 20.664 220.092 20.664C221.564 20.664 222.692 21.216 223.476 22.32ZM221.316 26.928C221.316 25.552 221.228 24.568 221.052 23.976C220.876 23.384 220.556 23.088 220.092 23.088C219.644 23.088 219.324 23.392 219.132 24C218.956 24.592 218.868 25.568 218.868 26.928C218.868 28.288 218.956 29.264 219.132 29.856C219.324 30.448 219.644 30.744 220.092 30.744C220.556 30.744 220.876 30.448 221.052 29.856C221.228 29.264 221.316 28.288 221.316 26.928Z" fill="white"/>
<defs>
<linearGradient id="paint0_linear_6566_348" x1="160.581" y1="-7.12782e-07" x2="144.324" y2="31.4719" gradientUnits="userSpaceOnUse">
<stop stop-color="white"/>
<stop offset="0.0001" stop-color="white"/>
<stop offset="1" stop-color="white" stop-opacity="0"/>
</linearGradient>
</defs>
</svg>
