<svg width="75" height="24" viewBox="0 0 75 24" fill="none"
    xmlns="http://www.w3.org/2000/svg">
    <g clip-path="url(#clip0_178_910)">
        <path d="M60.3526 19.4746H15.009L18.6257 23.0912L60.3526 19.4746Z" fill="white"/>
        <path d="M67.6311 17.1687V9.93541C67.6311 8.57917 68.5804 7.44897 69.9367 7.44897C71.2929 7.44897 72.2423 8.57917 72.2423 9.93541V17.1687H75.0452V9.93541C75.0452 6.95169 73.0108 4.55566 70.0271 4.55566C68.6709 4.55566 67.6311 5.3242 67.6311 5.3242V4.82691H64.8282V17.1235H67.6311V17.1687Z" fill="white"/>
        <path d="M58.3635 4.51074C55.1085 4.51074 52.8029 7.35884 52.8029 10.9755C52.8029 14.7729 55.6962 17.4402 58.6347 17.4402C60.1266 17.4402 61.9801 16.9429 63.5624 14.6825L61.076 13.2359C59.1772 16.0388 55.9675 14.6373 55.6058 11.7892H63.6528C64.3762 7.44926 61.5281 4.51074 58.3635 4.51074ZM60.8047 9.3932H55.7866C56.3743 6.5451 60.2622 6.36427 60.8047 9.3932Z" fill="white"/>
        <path d="M51.8987 14.2303C51.6275 14.4112 51.311 14.5468 50.9494 14.5468C50.4973 14.5468 49.6383 14.1851 49.6383 13.0549V7.76559H52.0343V4.82707H49.6383V1.75293H46.8354V4.82707H45.3436V7.76559H46.8354V13.0549C46.8354 15.8126 48.915 17.4401 50.9946 17.4401C51.7631 17.4401 52.8481 17.1688 53.707 16.6716L51.8987 14.2303Z" fill="white"/>
        <path d="M41.5914 4.82715V12.0604C41.5914 13.4167 40.642 14.5469 39.2857 14.5469C37.9295 14.5469 36.9801 13.4167 36.9801 12.0604V4.82715H34.1772V12.0604C34.1772 15.0441 36.2116 17.4402 39.1953 17.4402C40.5516 17.4402 41.5914 16.6716 41.5914 16.6716V17.1237H44.3942V4.82715H41.5914Z" fill="white"/>
        <path d="M28.9331 10.6136L33.7252 4.82702H29.8373L26.4467 9.12177V0.758301H23.5986V17.1688H26.4467V12.1055L30.6058 17.1688H34.4937L28.9331 10.6136Z" fill="white"/>
        <path d="M19.2134 4.8272V5.36969C18.3544 4.8272 17.6311 4.51074 16.5913 4.51074C13.4268 4.51074 10.9855 7.40405 10.9855 10.9755C10.9855 14.5469 13.3816 17.4402 16.5913 17.4402C17.6311 17.4402 18.3996 17.1238 19.2134 16.5813V17.1238H22.0163V4.8272H19.2134ZM16.5461 14.5017C14.9638 14.5017 13.8336 12.9646 13.8336 11.0207C13.8336 9.07675 14.9638 7.53968 16.5461 7.53968C18.1284 7.53968 19.2134 9.07675 19.2134 11.0207C19.2586 12.9646 18.1284 14.5017 16.5461 14.5017Z" fill="white"/>
        <path d="M2.93852 17.1688V12.3768H4.97288L8.5443 17.1236H12.2061L7.86618 11.3822C9.22242 10.4329 10.0814 8.85058 10.0814 7.04226C10.0814 4.10374 7.68535 1.75293 4.79204 1.75293H0V17.1236H2.93852V17.1688ZM2.93852 4.69145H4.83725C6.14828 4.69145 7.23327 5.77644 7.23327 7.08747C7.23327 8.3985 6.14828 9.48349 4.83725 9.48349H2.93852V4.69145Z" fill="white"/>
    </g>
    <defs>
        <clipPath id="clip0_178_910">
            <rect width="75" height="22.3327" fill="white" transform="translate(0 0.758301)"/>
        </clipPath>
    </defs>
</svg>
