<svg width="19" height="19" viewBox="0 0 19 19" fill="none"
    xmlns="http://www.w3.org/2000/svg">
    <path d="M5.92963 11.2394C6.33193 11.2481 6.7161 11.1192 7.07087 10.9196C6.97487 11.5706 7.45415 12.0115 7.85988 12.2789C8.22214 12.5176 8.51201 12.715 8.80541 12.9148L8.8068 12.9158C9.12688 13.1337 9.45096 13.3544 9.8699 13.629C9.96103 13.6888 10.0499 13.752 10.1497 13.8231C10.1675 13.8358 10.1861 13.8492 10.2055 13.8632C10.5309 14.0974 11.0767 14.4902 11.7755 14.4259C12.5536 14.3543 12.9196 13.6401 13.0591 12.8942C13.3567 11.3029 13.9491 7.81814 14.0881 6.35683C14.1081 6.14686 14.085 5.91776 14.0657 5.80496C14.0457 5.68813 13.981 5.3569 13.671 5.10535C13.4979 4.9649 13.3106 4.90246 13.1858 4.87265C13.0562 4.84169 12.9327 4.83152 12.8364 4.83322C12.5324 4.83857 12.2161 4.92551 11.7255 5.10354C11.222 5.28627 10.4513 5.59809 9.20435 6.11675C8.32341 6.48316 6.57169 7.23773 3.95492 8.37779C3.71929 8.47216 3.49334 8.58291 3.3097 8.71929C3.14259 8.8434 2.87866 9.08634 2.83006 9.47398C2.79914 9.72063 2.85625 9.96231 2.99507 10.1665C3.11937 10.3493 3.28188 10.4621 3.4032 10.5311C3.61498 10.6516 3.88659 10.7367 4.08666 10.7993C4.09976 10.8034 4.11255 10.8074 4.12499 10.8114C4.189 10.8315 4.25145 10.8511 4.31496 10.8718C4.555 10.9498 4.84175 11.0362 5.11572 11.1049C5.37228 11.1693 5.6779 11.234 5.92963 11.2394ZM17.4199 9.16504C17.4199 13.7214 13.7262 17.415 9.16986 17.415C4.61351 17.415 0.919861 13.7214 0.919861 9.16504C0.919861 4.60869 4.61351 0.915039 9.16986 0.915039C13.7262 0.915039 17.4199 4.60869 17.4199 9.16504Z" stroke="#F7931A" stroke-width="1.5"/>
</svg>
