<svg width="1269" height="100" viewBox="0 0 1269 100" fill="none"
    xmlns="http://www.w3.org/2000/svg">
    <rect width="1269" height="100" rx="15" fill="black" fill-opacity="0.15"/>
    <rect x="16.5" y="70" width="650" height="5" rx="2.5" fill="white"/>
    <rect x="746.167" y="70" width="150" height="5" rx="2.5" fill="white"/>
    <rect x="975.833" y="70" width="150" height="5" rx="2.5" fill="white"/>
    <rect x="1205.5" y="70" width="50" height="5" rx="2.5" fill="white"/>
    <path d="M20.4821 30.192H16.6421V28.8H25.9061V30.192H22.0661V40H20.4821V30.192ZM34.2138 35.808C34.2138 35.9253 34.2031 36.08 34.1818 36.272H27.3018C27.3978 37.0187 27.7231 37.6213 28.2778 38.08C28.8431 38.528 29.5418 38.752 30.3738 38.752C31.3871 38.752 32.2031 38.4107 32.8218 37.728L33.6698 38.72C33.2858 39.168 32.8058 39.5093 32.2298 39.744C31.6644 39.9787 31.0298 40.096 30.3258 40.096C29.4298 40.096 28.6351 39.9147 27.9418 39.552C27.2484 39.1787 26.7098 38.6613 26.3258 38C25.9524 37.3387 25.7658 36.592 25.7658 35.76C25.7658 34.9387 25.9471 34.1973 26.3098 33.536C26.6831 32.8747 27.1898 32.3627 27.8298 32C28.4804 31.6267 29.2111 31.44 30.0218 31.44C30.8324 31.44 31.5524 31.6267 32.1818 32C32.8218 32.3627 33.3178 32.8747 33.6698 33.536C34.0324 34.1973 34.2138 34.9547 34.2138 35.808ZM30.0218 32.736C29.2858 32.736 28.6671 32.96 28.1658 33.408C27.6751 33.856 27.3871 34.4427 27.3018 35.168H32.7418C32.6564 34.4533 32.3631 33.872 31.8618 33.424C31.3711 32.9653 30.7578 32.736 30.0218 32.736ZM40.0426 40.096C39.1786 40.096 38.4053 39.9093 37.7226 39.536C37.0506 39.1627 36.5226 38.6507 36.1386 38C35.7546 37.3387 35.5626 36.592 35.5626 35.76C35.5626 34.928 35.7546 34.1867 36.1386 33.536C36.5226 32.8747 37.0506 32.3627 37.7226 32C38.4053 31.6267 39.1786 31.44 40.0426 31.44C40.8106 31.44 41.4933 31.5947 42.0906 31.904C42.6986 32.2133 43.168 32.6613 43.4986 33.248L42.3306 34C42.064 33.5947 41.7333 33.2907 41.3386 33.088C40.944 32.8853 40.5066 32.784 40.0266 32.784C39.472 32.784 38.9706 32.9067 38.5226 33.152C38.0853 33.3973 37.7386 33.7493 37.4826 34.208C37.2373 34.656 37.1146 35.1733 37.1146 35.76C37.1146 36.3573 37.2373 36.8853 37.4826 37.344C37.7386 37.792 38.0853 38.1387 38.5226 38.384C38.9706 38.6293 39.472 38.752 40.0266 38.752C40.5066 38.752 40.944 38.6507 41.3386 38.448C41.7333 38.2453 42.064 37.9413 42.3306 37.536L43.4986 38.272C43.168 38.8587 42.6986 39.312 42.0906 39.632C41.4933 39.9413 40.8106 40.096 40.0426 40.096ZM49.9059 31.44C50.9832 31.44 51.8365 31.7547 52.4659 32.384C53.1059 33.0027 53.4259 33.9147 53.4259 35.12V40H51.8899V35.296C51.8899 34.4747 51.6925 33.856 51.2979 33.44C50.9032 33.024 50.3379 32.816 49.6019 32.816C48.7699 32.816 48.1139 33.0613 47.6339 33.552C47.1539 34.032 46.9139 34.7253 46.9139 35.632V40H45.3779V28.128H46.9139V32.72C47.2339 32.3147 47.6499 32 48.1619 31.776C48.6845 31.552 49.2659 31.44 49.9059 31.44ZM68.9814 40.176L67.4934 38.688C66.5014 39.648 65.2534 40.128 63.7494 40.128C63.0027 40.128 62.3307 40.0053 61.7334 39.76C61.136 39.5147 60.6667 39.1733 60.3254 38.736C59.9947 38.288 59.8294 37.7813 59.8294 37.216C59.8294 36.5333 60.0374 35.9307 60.4534 35.408C60.88 34.8747 61.5787 34.3307 62.5494 33.776C62.0587 33.2853 61.712 32.8427 61.5094 32.448C61.3067 32.0533 61.2054 31.6427 61.2054 31.216C61.2054 30.4587 61.4774 29.8507 62.0214 29.392C62.576 28.9333 63.312 28.704 64.2294 28.704C65.0827 28.704 65.76 28.912 66.2614 29.328C66.7627 29.744 67.0134 30.3147 67.0134 31.04C67.0134 31.6053 66.8267 32.112 66.4534 32.56C66.0907 33.008 65.4827 33.4773 64.6294 33.968L67.3974 36.72C67.7174 36.112 67.9467 35.4347 68.0854 34.688L69.3174 35.088C69.1254 36.0693 68.8 36.9227 68.3414 37.648L69.8454 39.152L68.9814 40.176ZM64.2294 29.824C63.728 29.824 63.3334 29.952 63.0454 30.208C62.768 30.4533 62.6294 30.7787 62.6294 31.184C62.6294 31.472 62.704 31.7493 62.8534 32.016C63.0134 32.2827 63.3174 32.6453 63.7654 33.104C64.5014 32.688 65.008 32.3307 65.2854 32.032C65.5734 31.7333 65.7174 31.408 65.7174 31.056C65.7174 30.6827 65.584 30.384 65.3174 30.16C65.0614 29.936 64.6987 29.824 64.2294 29.824ZM63.8454 38.848C64.9547 38.848 65.8667 38.496 66.5814 37.792L63.3974 34.624C62.6294 35.0507 62.0907 35.4507 61.7814 35.824C61.4827 36.1867 61.3334 36.5973 61.3334 37.056C61.3334 37.5893 61.5627 38.0213 62.0214 38.352C62.4907 38.6827 63.0987 38.848 63.8454 38.848ZM85.687 28.8V40H84.087V35.008H77.655V40H76.055V28.8H77.655V33.616H84.087V28.8H85.687ZM88.8154 31.52H90.3514V40H88.8154V31.52ZM89.5834 29.888C89.2847 29.888 89.034 29.792 88.8314 29.6C88.6394 29.408 88.5434 29.1733 88.5434 28.896C88.5434 28.6187 88.6394 28.384 88.8314 28.192C89.034 27.9893 89.2847 27.888 89.5834 27.888C89.882 27.888 90.1274 27.984 90.3194 28.176C90.522 28.3573 90.6234 28.5867 90.6234 28.864C90.6234 29.152 90.522 29.3973 90.3194 29.6C90.1274 29.792 89.882 29.888 89.5834 29.888ZM94.7561 32.944C95.0228 32.4533 95.4175 32.08 95.9401 31.824C96.4628 31.568 97.0975 31.44 97.8441 31.44V32.928C97.7588 32.9173 97.6415 32.912 97.4921 32.912C96.6601 32.912 96.0041 33.1627 95.5241 33.664C95.0548 34.1547 94.8201 34.8587 94.8201 35.776V40H93.2841V31.52H94.7561V32.944ZM99.7373 31.52H101.273V40H99.7373V31.52ZM100.505 29.888C100.207 29.888 99.9559 29.792 99.7533 29.6C99.5613 29.408 99.4653 29.1733 99.4653 28.896C99.4653 28.6187 99.5613 28.384 99.7533 28.192C99.9559 27.9893 100.207 27.888 100.505 27.888C100.804 27.888 101.049 27.984 101.241 28.176C101.444 28.3573 101.545 28.5867 101.545 28.864C101.545 29.152 101.444 29.3973 101.241 29.6C101.049 29.792 100.804 29.888 100.505 29.888ZM108.734 31.44C109.811 31.44 110.665 31.7547 111.294 32.384C111.934 33.0027 112.254 33.9147 112.254 35.12V40H110.718V35.296C110.718 34.4747 110.521 33.856 110.126 33.44C109.731 33.024 109.166 32.816 108.43 32.816C107.598 32.816 106.942 33.0613 106.462 33.552C105.982 34.032 105.742 34.7253 105.742 35.632V40H104.206V31.52H105.678V32.8C105.987 32.3627 106.403 32.0267 106.926 31.792C107.459 31.5573 108.062 31.44 108.734 31.44ZM123.256 31.52V38.848C123.256 40.3307 122.888 41.424 122.152 42.128C121.416 42.8427 120.317 43.2 118.856 43.2C118.056 43.2 117.293 43.088 116.568 42.864C115.842 42.6507 115.256 42.3413 114.808 41.936L115.544 40.752C115.938 41.0933 116.424 41.36 117 41.552C117.586 41.7547 118.189 41.856 118.808 41.856C119.8 41.856 120.53 41.6213 121 41.152C121.48 40.6827 121.72 39.968 121.72 39.008V38.336C121.357 38.7733 120.909 39.104 120.376 39.328C119.853 39.5413 119.282 39.648 118.664 39.648C117.853 39.648 117.117 39.4773 116.456 39.136C115.805 38.784 115.293 38.2987 114.92 37.68C114.546 37.0507 114.36 36.336 114.36 35.536C114.36 34.736 114.546 34.0267 114.92 33.408C115.293 32.7787 115.805 32.2933 116.456 31.952C117.117 31.6107 117.853 31.44 118.664 31.44C119.304 31.44 119.896 31.5573 120.44 31.792C120.994 32.0267 121.448 32.3733 121.8 32.832V31.52H123.256ZM118.84 38.304C119.394 38.304 119.89 38.1867 120.328 37.952C120.776 37.7173 121.122 37.392 121.368 36.976C121.624 36.5493 121.752 36.0693 121.752 35.536C121.752 34.7147 121.48 34.0533 120.936 33.552C120.392 33.04 119.693 32.784 118.84 32.784C117.976 32.784 117.272 33.04 116.728 33.552C116.184 34.0533 115.912 34.7147 115.912 35.536C115.912 36.0693 116.034 36.5493 116.28 36.976C116.536 37.392 116.882 37.7173 117.32 37.952C117.768 38.1867 118.274 38.304 118.84 38.304ZM134.631 33.2C135.367 33.2 136.023 33.3387 136.599 33.616C137.186 33.8933 137.645 34.2933 137.975 34.816C138.306 35.328 138.471 35.92 138.471 36.592C138.471 37.296 138.295 37.9147 137.943 38.448C137.602 38.9813 137.127 39.3973 136.519 39.696C135.922 39.984 135.25 40.128 134.503 40.128C132.999 40.128 131.837 39.6427 131.015 38.672C130.205 37.7013 129.799 36.3253 129.799 34.544C129.799 33.296 130.018 32.2347 130.455 31.36C130.903 30.4747 131.522 29.808 132.311 29.36C133.111 28.9013 134.039 28.672 135.095 28.672C135.639 28.672 136.151 28.7307 136.631 28.848C137.111 28.9547 137.527 29.1147 137.879 29.328L137.271 30.576C136.738 30.224 136.023 30.048 135.127 30.048C133.965 30.048 133.053 30.4107 132.391 31.136C131.73 31.8507 131.399 32.896 131.399 34.272C131.399 34.4427 131.405 34.576 131.415 34.672C131.735 34.192 132.173 33.8293 132.727 33.584C133.293 33.328 133.927 33.2 134.631 33.2ZM134.439 38.832C135.175 38.832 135.773 38.6347 136.231 38.24C136.69 37.8453 136.919 37.3173 136.919 36.656C136.919 35.9947 136.685 35.472 136.215 35.088C135.757 34.6933 135.138 34.496 134.359 34.496C133.858 34.496 133.41 34.592 133.015 34.784C132.631 34.976 132.327 35.2373 132.103 35.568C131.89 35.8987 131.783 36.2667 131.783 36.672C131.783 37.0667 131.885 37.4293 132.087 37.76C132.301 38.08 132.605 38.3413 132.999 38.544C133.405 38.736 133.885 38.832 134.439 38.832ZM142.874 33.264C144.474 33.264 145.648 33.568 146.394 34.176C147.152 34.7733 147.53 35.5947 147.53 36.64C147.53 37.3013 147.37 37.8987 147.05 38.432C146.741 38.9547 146.266 39.3707 145.626 39.68C144.997 39.9787 144.218 40.128 143.29 40.128C142.501 40.128 141.738 40.0107 141.002 39.776C140.266 39.5307 139.658 39.1947 139.178 38.768L139.914 37.504C140.298 37.8667 140.789 38.16 141.386 38.384C141.984 38.5973 142.613 38.704 143.274 38.704C144.117 38.704 144.768 38.528 145.226 38.176C145.696 37.8133 145.93 37.3227 145.93 36.704C145.93 36.032 145.674 35.5253 145.162 35.184C144.65 34.832 143.776 34.656 142.538 34.656H139.994L140.586 28.8H146.906V30.192H141.93L141.626 33.264H142.874ZM151.138 34.816C150.359 34.816 149.73 34.5333 149.25 33.968C148.77 33.4027 148.53 32.6667 148.53 31.76C148.53 30.8533 148.77 30.1173 149.25 29.552C149.73 28.9867 150.359 28.704 151.138 28.704C151.916 28.704 152.54 28.9867 153.01 29.552C153.49 30.1067 153.73 30.8427 153.73 31.76C153.73 32.6773 153.49 33.4187 153.01 33.984C152.54 34.5387 151.916 34.816 151.138 34.816ZM157.89 28.8H159.122L151.474 40H150.242L157.89 28.8ZM151.138 33.904C151.628 33.904 152.012 33.7173 152.29 33.344C152.567 32.96 152.706 32.432 152.706 31.76C152.706 31.088 152.567 30.5653 152.29 30.192C152.012 29.808 151.628 29.616 151.138 29.616C150.658 29.616 150.274 29.808 149.986 30.192C149.708 30.576 149.57 31.0987 149.57 31.76C149.57 32.4213 149.708 32.944 149.986 33.328C150.274 33.712 150.658 33.904 151.138 33.904ZM158.226 40.096C157.447 40.096 156.818 39.8187 156.338 39.264C155.868 38.6987 155.634 37.9573 155.634 37.04C155.634 36.1227 155.868 35.3867 156.338 34.832C156.818 34.2667 157.447 33.984 158.226 33.984C159.004 33.984 159.634 34.2667 160.114 34.832C160.594 35.3973 160.834 36.1333 160.834 37.04C160.834 37.9467 160.594 38.6827 160.114 39.248C159.634 39.8133 159.004 40.096 158.226 40.096ZM158.226 39.184C158.706 39.184 159.084 38.992 159.362 38.608C159.65 38.224 159.794 37.7013 159.794 37.04C159.794 36.3787 159.65 35.856 159.362 35.472C159.084 35.088 158.706 34.896 158.226 34.896C157.735 34.896 157.351 35.088 157.074 35.472C156.796 35.8453 156.658 36.368 156.658 37.04C156.658 37.712 156.796 38.24 157.074 38.624C157.351 38.9973 157.735 39.184 158.226 39.184Z" fill="#F7F7F9"/>
    <path d="M275.814 40.128C274.683 40.128 273.665 39.8827 272.758 39.392C271.851 38.8907 271.137 38.2027 270.614 37.328C270.102 36.4533 269.846 35.4773 269.846 34.4C269.846 33.3227 270.102 32.3467 270.614 31.472C271.137 30.5973 271.851 29.9147 272.758 29.424C273.665 28.9227 274.683 28.672 275.814 28.672C276.934 28.672 277.947 28.9227 278.854 29.424C279.761 29.9147 280.47 30.5973 280.982 31.472C281.494 32.336 281.75 33.312 281.75 34.4C281.75 35.488 281.494 36.4693 280.982 37.344C280.47 38.208 279.761 38.8907 278.854 39.392C277.947 39.8827 276.934 40.128 275.814 40.128ZM275.814 38.704C276.635 38.704 277.371 38.5173 278.022 38.144C278.683 37.7707 279.201 37.2587 279.574 36.608C279.958 35.9467 280.15 35.2107 280.15 34.4C280.15 33.5893 279.958 32.8587 279.574 32.208C279.201 31.5467 278.683 31.0293 278.022 30.656C277.371 30.2827 276.635 30.096 275.814 30.096C274.993 30.096 274.246 30.2827 273.574 30.656C272.913 31.0293 272.39 31.5467 272.006 32.208C271.633 32.8587 271.446 33.5893 271.446 34.4C271.446 35.2107 271.633 35.9467 272.006 36.608C272.39 37.2587 272.913 37.7707 273.574 38.144C274.246 38.5173 274.993 38.704 275.814 38.704ZM288.468 31.44C289.289 31.44 290.025 31.6213 290.676 31.984C291.326 32.3467 291.833 32.8533 292.196 33.504C292.569 34.1547 292.756 34.9067 292.756 35.76C292.756 36.6133 292.569 37.3707 292.196 38.032C291.833 38.6827 291.326 39.1893 290.676 39.552C290.025 39.9147 289.289 40.096 288.468 40.096C287.86 40.096 287.3 39.9787 286.788 39.744C286.286 39.5093 285.86 39.168 285.508 38.72V43.104H283.972V31.52H285.444V32.864C285.785 32.3947 286.217 32.0427 286.74 31.808C287.262 31.5627 287.838 31.44 288.468 31.44ZM288.34 38.752C288.884 38.752 289.369 38.6293 289.796 38.384C290.233 38.128 290.574 37.776 290.82 37.328C291.076 36.8693 291.204 36.3467 291.204 35.76C291.204 35.1733 291.076 34.656 290.82 34.208C290.574 33.7493 290.233 33.3973 289.796 33.152C289.369 32.9067 288.884 32.784 288.34 32.784C287.806 32.784 287.321 32.912 286.884 33.168C286.457 33.4133 286.116 33.76 285.86 34.208C285.614 34.656 285.492 35.1733 285.492 35.76C285.492 36.3467 285.614 36.8693 285.86 37.328C286.105 37.776 286.446 38.128 286.884 38.384C287.321 38.6293 287.806 38.752 288.34 38.752ZM302.542 35.808C302.542 35.9253 302.531 36.08 302.51 36.272H295.63C295.726 37.0187 296.051 37.6213 296.606 38.08C297.171 38.528 297.87 38.752 298.702 38.752C299.715 38.752 300.531 38.4107 301.15 37.728L301.998 38.72C301.614 39.168 301.134 39.5093 300.558 39.744C299.993 39.9787 299.358 40.096 298.654 40.096C297.758 40.096 296.963 39.9147 296.27 39.552C295.577 39.1787 295.038 38.6613 294.654 38C294.281 37.3387 294.094 36.592 294.094 35.76C294.094 34.9387 294.275 34.1973 294.638 33.536C295.011 32.8747 295.518 32.3627 296.158 32C296.809 31.6267 297.539 31.44 298.35 31.44C299.161 31.44 299.881 31.6267 300.51 32C301.15 32.3627 301.646 32.8747 301.998 33.536C302.361 34.1973 302.542 34.9547 302.542 35.808ZM298.35 32.736C297.614 32.736 296.995 32.96 296.494 33.408C296.003 33.856 295.715 34.4427 295.63 35.168H301.07C300.985 34.4533 300.691 33.872 300.19 33.424C299.699 32.9653 299.086 32.736 298.35 32.736ZM306.147 32.944C306.413 32.4533 306.808 32.08 307.331 31.824C307.853 31.568 308.488 31.44 309.235 31.44V32.928C309.149 32.9173 309.032 32.912 308.883 32.912C308.051 32.912 307.395 33.1627 306.915 33.664C306.445 34.1547 306.211 34.8587 306.211 35.776V40H304.675V31.52H306.147V32.944ZM314.2 31.44C315.374 31.44 316.27 31.728 316.888 32.304C317.518 32.88 317.832 33.7387 317.832 34.88V40H316.376V38.88C316.12 39.2747 315.752 39.5787 315.272 39.792C314.803 39.9947 314.243 40.096 313.592 40.096C312.643 40.096 311.88 39.8667 311.304 39.408C310.739 38.9493 310.456 38.3467 310.456 37.6C310.456 36.8533 310.728 36.256 311.272 35.808C311.816 35.3493 312.68 35.12 313.864 35.12H316.296V34.816C316.296 34.1547 316.104 33.648 315.72 33.296C315.336 32.944 314.771 32.768 314.024 32.768C313.523 32.768 313.032 32.8533 312.552 33.024C312.072 33.184 311.667 33.4027 311.336 33.68L310.696 32.528C311.134 32.176 311.656 31.9093 312.264 31.728C312.872 31.536 313.518 31.44 314.2 31.44ZM313.848 38.912C314.435 38.912 314.942 38.784 315.368 38.528C315.795 38.2613 316.104 37.888 316.296 37.408V36.224H313.928C312.627 36.224 311.976 36.6613 311.976 37.536C311.976 37.9627 312.142 38.2987 312.472 38.544C312.803 38.7893 313.262 38.912 313.848 38.912ZM325.443 39.504C325.219 39.696 324.941 39.8453 324.611 39.952C324.28 40.048 323.939 40.096 323.587 40.096C322.733 40.096 322.072 39.8667 321.603 39.408C321.133 38.9493 320.899 38.2933 320.899 37.44V32.784H319.459V31.52H320.899V29.664H322.435V31.52H324.867V32.784H322.435V37.376C322.435 37.8347 322.547 38.1867 322.771 38.432C323.005 38.6773 323.336 38.8 323.763 38.8C324.232 38.8 324.632 38.6667 324.963 38.4L325.443 39.504ZM327.3 31.52H328.836V40H327.3V31.52ZM328.068 29.888C327.769 29.888 327.518 29.792 327.316 29.6C327.124 29.408 327.028 29.1733 327.028 28.896C327.028 28.6187 327.124 28.384 327.316 28.192C327.518 27.9893 327.769 27.888 328.068 27.888C328.366 27.888 328.612 27.984 328.804 28.176C329.006 28.3573 329.108 28.5867 329.108 28.864C329.108 29.152 329.006 29.3973 328.804 29.6C328.612 29.792 328.366 29.888 328.068 29.888ZM335.401 40.096C334.558 40.096 333.801 39.9093 333.129 39.536C332.457 39.1627 331.929 38.6507 331.545 38C331.171 37.3387 330.985 36.592 330.985 35.76C330.985 34.928 331.171 34.1867 331.545 33.536C331.929 32.8747 332.457 32.3627 333.129 32C333.801 31.6267 334.558 31.44 335.401 31.44C336.243 31.44 336.995 31.6267 337.657 32C338.329 32.3627 338.851 32.8747 339.225 33.536C339.609 34.1867 339.801 34.928 339.801 35.76C339.801 36.592 339.609 37.3387 339.225 38C338.851 38.6507 338.329 39.1627 337.657 39.536C336.995 39.9093 336.243 40.096 335.401 40.096ZM335.401 38.752C335.945 38.752 336.43 38.6293 336.857 38.384C337.294 38.128 337.635 37.776 337.881 37.328C338.126 36.8693 338.249 36.3467 338.249 35.76C338.249 35.1733 338.126 34.656 337.881 34.208C337.635 33.7493 337.294 33.3973 336.857 33.152C336.43 32.9067 335.945 32.784 335.401 32.784C334.857 32.784 334.366 32.9067 333.929 33.152C333.502 33.3973 333.161 33.7493 332.905 34.208C332.659 34.656 332.537 35.1733 332.537 35.76C332.537 36.3467 332.659 36.8693 332.905 37.328C333.161 37.776 333.502 38.128 333.929 38.384C334.366 38.6293 334.857 38.752 335.401 38.752ZM346.453 31.44C347.53 31.44 348.383 31.7547 349.013 32.384C349.653 33.0027 349.973 33.9147 349.973 35.12V40H348.437V35.296C348.437 34.4747 348.239 33.856 347.845 33.44C347.45 33.024 346.885 32.816 346.149 32.816C345.317 32.816 344.661 33.0613 344.181 33.552C343.701 34.032 343.461 34.7253 343.461 35.632V40H341.925V31.52H343.397V32.8C343.706 32.3627 344.122 32.0267 344.645 31.792C345.178 31.5573 345.781 31.44 346.453 31.44ZM355.903 31.44C357.077 31.44 357.973 31.728 358.591 32.304C359.221 32.88 359.535 33.7387 359.535 34.88V40H358.079V38.88C357.823 39.2747 357.455 39.5787 356.975 39.792C356.506 39.9947 355.946 40.096 355.295 40.096C354.346 40.096 353.583 39.8667 353.007 39.408C352.442 38.9493 352.159 38.3467 352.159 37.6C352.159 36.8533 352.431 36.256 352.975 35.808C353.519 35.3493 354.383 35.12 355.567 35.12H357.999V34.816C357.999 34.1547 357.807 33.648 357.423 33.296C357.039 32.944 356.474 32.768 355.727 32.768C355.226 32.768 354.735 32.8533 354.255 33.024C353.775 33.184 353.37 33.4027 353.039 33.68L352.399 32.528C352.837 32.176 353.359 31.9093 353.967 31.728C354.575 31.536 355.221 31.44 355.903 31.44ZM355.551 38.912C356.138 38.912 356.645 38.784 357.071 38.528C357.498 38.2613 357.807 37.888 357.999 37.408V36.224H355.631C354.33 36.224 353.679 36.6613 353.679 37.536C353.679 37.9627 353.845 38.2987 354.175 38.544C354.506 38.7893 354.965 38.912 355.551 38.912ZM362.378 28.128H363.914V40H362.378V28.128ZM379.496 38.608V40H371.368V28.8H379.272V30.192H372.968V33.632H378.584V34.992H372.968V38.608H379.496ZM384.966 29.296C384.049 29.296 383.59 29.792 383.59 30.784V31.52H386.054V32.784H383.622V40H382.086V32.784H380.646V31.52H382.086V30.768C382.086 29.9253 382.332 29.2587 382.822 28.768C383.313 28.2773 384.001 28.032 384.886 28.032C385.228 28.032 385.548 28.0747 385.846 28.16C386.145 28.2453 386.401 28.368 386.614 28.528L386.15 29.696C385.798 29.4293 385.404 29.296 384.966 29.296ZM390.607 29.296C389.69 29.296 389.231 29.792 389.231 30.784V31.52H391.695V32.784H389.263V40H387.727V32.784H386.287V31.52H387.727V30.768C387.727 29.9253 387.972 29.2587 388.463 28.768C388.954 28.2773 389.642 28.032 390.527 28.032C390.868 28.032 391.188 28.0747 391.487 28.16C391.786 28.2453 392.042 28.368 392.255 28.528L391.791 29.696C391.439 29.4293 391.044 29.296 390.607 29.296ZM394.431 31.52H395.967V40H394.431V31.52ZM395.199 29.888C394.9 29.888 394.65 29.792 394.447 29.6C394.255 29.408 394.159 29.1733 394.159 28.896C394.159 28.6187 394.255 28.384 394.447 28.192C394.65 27.9893 394.9 27.888 395.199 27.888C395.498 27.888 395.743 27.984 395.935 28.176C396.138 28.3573 396.239 28.5867 396.239 28.864C396.239 29.152 396.138 29.3973 395.935 29.6C395.743 29.792 395.498 29.888 395.199 29.888ZM402.59 40.096C401.726 40.096 400.952 39.9093 400.27 39.536C399.598 39.1627 399.07 38.6507 398.686 38C398.302 37.3387 398.11 36.592 398.11 35.76C398.11 34.928 398.302 34.1867 398.686 33.536C399.07 32.8747 399.598 32.3627 400.27 32C400.952 31.6267 401.726 31.44 402.59 31.44C403.358 31.44 404.04 31.5947 404.638 31.904C405.246 32.2133 405.715 32.6613 406.046 33.248L404.878 34C404.611 33.5947 404.28 33.2907 403.886 33.088C403.491 32.8853 403.054 32.784 402.574 32.784C402.019 32.784 401.518 32.9067 401.07 33.152C400.632 33.3973 400.286 33.7493 400.03 34.208C399.784 34.656 399.662 35.1733 399.662 35.76C399.662 36.3573 399.784 36.8853 400.03 37.344C400.286 37.792 400.632 38.1387 401.07 38.384C401.518 38.6293 402.019 38.752 402.574 38.752C403.054 38.752 403.491 38.6507 403.886 38.448C404.28 38.2453 404.611 37.9413 404.878 37.536L406.046 38.272C405.715 38.8587 405.246 39.312 404.638 39.632C404.04 39.9413 403.358 40.096 402.59 40.096ZM408.034 31.52H409.57V40H408.034V31.52ZM408.802 29.888C408.503 29.888 408.253 29.792 408.05 29.6C407.858 29.408 407.762 29.1733 407.762 28.896C407.762 28.6187 407.858 28.384 408.05 28.192C408.253 27.9893 408.503 27.888 408.802 27.888C409.101 27.888 409.346 27.984 409.538 28.176C409.741 28.3573 409.842 28.5867 409.842 28.864C409.842 29.152 409.741 29.3973 409.538 29.6C409.346 29.792 409.101 29.888 408.802 29.888ZM420.167 35.808C420.167 35.9253 420.156 36.08 420.135 36.272H413.255C413.351 37.0187 413.676 37.6213 414.231 38.08C414.796 38.528 415.495 38.752 416.327 38.752C417.34 38.752 418.156 38.4107 418.775 37.728L419.623 38.72C419.239 39.168 418.759 39.5093 418.183 39.744C417.618 39.9787 416.983 40.096 416.279 40.096C415.383 40.096 414.588 39.9147 413.895 39.552C413.202 39.1787 412.663 38.6613 412.279 38C411.906 37.3387 411.719 36.592 411.719 35.76C411.719 34.9387 411.9 34.1973 412.263 33.536C412.636 32.8747 413.143 32.3627 413.783 32C414.434 31.6267 415.164 31.44 415.975 31.44C416.786 31.44 417.506 31.6267 418.135 32C418.775 32.3627 419.271 32.8747 419.623 33.536C419.986 34.1973 420.167 34.9547 420.167 35.808ZM415.975 32.736C415.239 32.736 414.62 32.96 414.119 33.408C413.628 33.856 413.34 34.4427 413.255 35.168H418.695C418.61 34.4533 418.316 33.872 417.815 33.424C417.324 32.9653 416.711 32.736 415.975 32.736ZM426.828 31.44C427.905 31.44 428.758 31.7547 429.388 32.384C430.028 33.0027 430.348 33.9147 430.348 35.12V40H428.812V35.296C428.812 34.4747 428.614 33.856 428.22 33.44C427.825 33.024 427.26 32.816 426.524 32.816C425.692 32.816 425.036 33.0613 424.556 33.552C424.076 34.032 423.836 34.7253 423.836 35.632V40H422.3V31.52H423.772V32.8C424.081 32.3627 424.497 32.0267 425.02 31.792C425.553 31.5573 426.156 31.44 426.828 31.44ZM436.933 40.096C436.069 40.096 435.296 39.9093 434.613 39.536C433.941 39.1627 433.413 38.6507 433.029 38C432.645 37.3387 432.453 36.592 432.453 35.76C432.453 34.928 432.645 34.1867 433.029 33.536C433.413 32.8747 433.941 32.3627 434.613 32C435.296 31.6267 436.069 31.44 436.933 31.44C437.701 31.44 438.384 31.5947 438.981 31.904C439.589 32.2133 440.059 32.6613 440.389 33.248L439.221 34C438.955 33.5947 438.624 33.2907 438.229 33.088C437.835 32.8853 437.397 32.784 436.917 32.784C436.363 32.784 435.861 32.9067 435.413 33.152C434.976 33.3973 434.629 33.7493 434.373 34.208C434.128 34.656 434.005 35.1733 434.005 35.76C434.005 36.3573 434.128 36.8853 434.373 37.344C434.629 37.792 434.976 38.1387 435.413 38.384C435.861 38.6293 436.363 38.752 436.917 38.752C437.397 38.752 437.835 38.6507 438.229 38.448C438.624 38.2453 438.955 37.9413 439.221 37.536L440.389 38.272C440.059 38.8587 439.589 39.312 438.981 39.632C438.384 39.9413 437.701 40.096 436.933 40.096ZM449.773 31.52L445.661 40.848C445.298 41.712 444.871 42.32 444.381 42.672C443.901 43.024 443.319 43.2 442.637 43.2C442.221 43.2 441.815 43.1307 441.421 42.992C441.037 42.864 440.716 42.672 440.46 42.416L441.117 41.264C441.554 41.68 442.061 41.888 442.637 41.888C443.01 41.888 443.319 41.7867 443.565 41.584C443.821 41.392 444.05 41.056 444.253 40.576L444.525 39.984L440.78 31.52H442.381L445.341 38.304L448.269 31.52H449.773ZM458.607 29.296C457.69 29.296 457.231 29.792 457.231 30.784V31.52H459.695V32.784H457.263V40H455.727V32.784H454.287V31.52H455.727V30.768C455.727 29.9253 455.972 29.2587 456.463 28.768C456.954 28.2773 457.642 28.032 458.527 28.032C458.868 28.032 459.188 28.0747 459.487 28.16C459.786 28.2453 460.042 28.368 460.255 28.528L459.791 29.696C459.439 29.4293 459.044 29.296 458.607 29.296ZM464.651 40.096C463.808 40.096 463.051 39.9093 462.379 39.536C461.707 39.1627 461.179 38.6507 460.795 38C460.421 37.3387 460.235 36.592 460.235 35.76C460.235 34.928 460.421 34.1867 460.795 33.536C461.179 32.8747 461.707 32.3627 462.379 32C463.051 31.6267 463.808 31.44 464.651 31.44C465.493 31.44 466.245 31.6267 466.907 32C467.579 32.3627 468.101 32.8747 468.475 33.536C468.859 34.1867 469.051 34.928 469.051 35.76C469.051 36.592 468.859 37.3387 468.475 38C468.101 38.6507 467.579 39.1627 466.907 39.536C466.245 39.9093 465.493 40.096 464.651 40.096ZM464.651 38.752C465.195 38.752 465.68 38.6293 466.107 38.384C466.544 38.128 466.885 37.776 467.131 37.328C467.376 36.8693 467.499 36.3467 467.499 35.76C467.499 35.1733 467.376 34.656 467.131 34.208C466.885 33.7493 466.544 33.3973 466.107 33.152C465.68 32.9067 465.195 32.784 464.651 32.784C464.107 32.784 463.616 32.9067 463.179 33.152C462.752 33.3973 462.411 33.7493 462.155 34.208C461.909 34.656 461.787 35.1733 461.787 35.76C461.787 36.3467 461.909 36.8693 462.155 37.328C462.411 37.776 462.752 38.128 463.179 38.384C463.616 38.6293 464.107 38.752 464.651 38.752ZM472.647 32.944C472.913 32.4533 473.308 32.08 473.831 31.824C474.353 31.568 474.988 31.44 475.735 31.44V32.928C475.649 32.9173 475.532 32.912 475.383 32.912C474.551 32.912 473.895 33.1627 473.415 33.664C472.945 34.1547 472.711 34.8587 472.711 35.776V40H471.175V31.52H472.647V32.944ZM482.258 28.8H483.858V40H482.258V28.8ZM491.515 31.44C492.593 31.44 493.446 31.7547 494.075 32.384C494.715 33.0027 495.035 33.9147 495.035 35.12V40H493.499V35.296C493.499 34.4747 493.302 33.856 492.907 33.44C492.513 33.024 491.947 32.816 491.211 32.816C490.379 32.816 489.723 33.0613 489.243 33.552C488.763 34.032 488.523 34.7253 488.523 35.632V40H486.987V31.52H488.459V32.8C488.769 32.3627 489.185 32.0267 489.707 31.792C490.241 31.5573 490.843 31.44 491.515 31.44ZM500.982 29.296C500.065 29.296 499.606 29.792 499.606 30.784V31.52H502.07V32.784H499.638V40H498.102V32.784H496.662V31.52H498.102V30.768C498.102 29.9253 498.347 29.2587 498.838 28.768C499.329 28.2773 500.017 28.032 500.902 28.032C501.243 28.032 501.563 28.0747 501.862 28.16C502.161 28.2453 502.417 28.368 502.63 28.528L502.166 29.696C501.814 29.4293 501.419 29.296 500.982 29.296ZM506.272 32.944C506.538 32.4533 506.933 32.08 507.456 31.824C507.978 31.568 508.613 31.44 509.36 31.44V32.928C509.274 32.9173 509.157 32.912 509.008 32.912C508.176 32.912 507.52 33.1627 507.04 33.664C506.57 34.1547 506.336 34.8587 506.336 35.776V40H504.8V31.52H506.272V32.944ZM514.325 31.44C515.499 31.44 516.395 31.728 517.013 32.304C517.643 32.88 517.957 33.7387 517.957 34.88V40H516.501V38.88C516.245 39.2747 515.877 39.5787 515.397 39.792C514.928 39.9947 514.368 40.096 513.717 40.096C512.768 40.096 512.005 39.8667 511.429 39.408C510.864 38.9493 510.581 38.3467 510.581 37.6C510.581 36.8533 510.853 36.256 511.397 35.808C511.941 35.3493 512.805 35.12 513.989 35.12H516.421V34.816C516.421 34.1547 516.229 33.648 515.845 33.296C515.461 32.944 514.896 32.768 514.149 32.768C513.648 32.768 513.157 32.8533 512.677 33.024C512.197 33.184 511.792 33.4027 511.461 33.68L510.821 32.528C511.259 32.176 511.781 31.9093 512.389 31.728C512.997 31.536 513.643 31.44 514.325 31.44ZM513.973 38.912C514.56 38.912 515.067 38.784 515.493 38.528C515.92 38.2613 516.229 37.888 516.421 37.408V36.224H514.053C512.752 36.224 512.101 36.6613 512.101 37.536C512.101 37.9627 512.267 38.2987 512.597 38.544C512.928 38.7893 513.387 38.912 513.973 38.912ZM523.232 40.096C522.538 40.096 521.872 40.0053 521.232 39.824C520.592 39.632 520.09 39.392 519.728 39.104L520.368 37.888C520.741 38.1547 521.194 38.368 521.728 38.528C522.261 38.688 522.8 38.768 523.344 38.768C524.688 38.768 525.36 38.384 525.36 37.616C525.36 37.36 525.269 37.1573 525.088 37.008C524.906 36.8587 524.677 36.752 524.4 36.688C524.133 36.6133 523.749 36.5333 523.248 36.448C522.565 36.3413 522.005 36.2187 521.568 36.08C521.141 35.9413 520.773 35.7067 520.464 35.376C520.154 35.0453 520 34.5813 520 33.984C520 33.216 520.32 32.6027 520.96 32.144C521.6 31.6747 522.458 31.44 523.536 31.44C524.101 31.44 524.666 31.5093 525.232 31.648C525.797 31.7867 526.261 31.9733 526.624 32.208L525.968 33.424C525.274 32.976 524.458 32.752 523.52 32.752C522.869 32.752 522.373 32.8587 522.032 33.072C521.69 33.2853 521.52 33.568 521.52 33.92C521.52 34.1973 521.616 34.416 521.808 34.576C522 34.736 522.234 34.8533 522.512 34.928C522.8 35.0027 523.2 35.088 523.712 35.184C524.394 35.3013 524.944 35.4293 525.36 35.568C525.786 35.696 526.149 35.92 526.448 36.24C526.746 36.56 526.896 37.008 526.896 37.584C526.896 38.352 526.565 38.9653 525.904 39.424C525.253 39.872 524.362 40.096 523.232 40.096ZM533.583 39.504C533.359 39.696 533.082 39.8453 532.751 39.952C532.421 40.048 532.079 40.096 531.727 40.096C530.874 40.096 530.213 39.8667 529.743 39.408C529.274 38.9493 529.039 38.2933 529.039 37.44V32.784H527.599V31.52H529.039V29.664H530.575V31.52H533.007V32.784H530.575V37.376C530.575 37.8347 530.687 38.1867 530.911 38.432C531.146 38.6773 531.477 38.8 531.903 38.8C532.373 38.8 532.773 38.6667 533.103 38.4L533.583 39.504ZM536.912 32.944C537.179 32.4533 537.574 32.08 538.096 31.824C538.619 31.568 539.254 31.44 540 31.44V32.928C539.915 32.9173 539.798 32.912 539.648 32.912C538.816 32.912 538.16 33.1627 537.68 33.664C537.211 34.1547 536.976 34.8587 536.976 35.776V40H535.44V31.52H536.912V32.944ZM549.907 31.52V40H548.451V38.72C548.142 39.1573 547.731 39.4987 547.219 39.744C546.718 39.9787 546.168 40.096 545.571 40.096C544.44 40.096 543.55 39.7867 542.899 39.168C542.248 38.5387 541.923 37.616 541.923 36.4V31.52H543.459V36.224C543.459 37.0453 543.656 37.6693 544.051 38.096C544.446 38.512 545.011 38.72 545.747 38.72C546.558 38.72 547.198 38.4747 547.667 37.984C548.136 37.4933 548.371 36.8 548.371 35.904V31.52H549.907ZM556.527 40.096C555.663 40.096 554.89 39.9093 554.207 39.536C553.535 39.1627 553.007 38.6507 552.623 38C552.239 37.3387 552.047 36.592 552.047 35.76C552.047 34.928 552.239 34.1867 552.623 33.536C553.007 32.8747 553.535 32.3627 554.207 32C554.89 31.6267 555.663 31.44 556.527 31.44C557.295 31.44 557.978 31.5947 558.575 31.904C559.183 32.2133 559.652 32.6613 559.983 33.248L558.815 34C558.548 33.5947 558.218 33.2907 557.823 33.088C557.428 32.8853 556.991 32.784 556.511 32.784C555.956 32.784 555.455 32.9067 555.007 33.152C554.57 33.3973 554.223 33.7493 553.967 34.208C553.722 34.656 553.599 35.1733 553.599 35.76C553.599 36.3573 553.722 36.8853 553.967 37.344C554.223 37.792 554.57 38.1387 555.007 38.384C555.455 38.6293 555.956 38.752 556.511 38.752C556.991 38.752 557.428 38.6507 557.823 38.448C558.218 38.2453 558.548 37.9413 558.815 37.536L559.983 38.272C559.652 38.8587 559.183 39.312 558.575 39.632C557.978 39.9413 557.295 40.096 556.527 40.096ZM566.849 39.504C566.625 39.696 566.348 39.8453 566.017 39.952C565.686 40.048 565.345 40.096 564.993 40.096C564.14 40.096 563.478 39.8667 563.009 39.408C562.54 38.9493 562.305 38.2933 562.305 37.44V32.784H560.865V31.52H562.305V29.664H563.841V31.52H566.273V32.784H563.841V37.376C563.841 37.8347 563.953 38.1867 564.177 38.432C564.412 38.6773 564.742 38.8 565.169 38.8C565.638 38.8 566.038 38.6667 566.369 38.4L566.849 39.504ZM576.61 31.52V40H575.154V38.72C574.845 39.1573 574.434 39.4987 573.922 39.744C573.421 39.9787 572.871 40.096 572.274 40.096C571.143 40.096 570.253 39.7867 569.602 39.168C568.951 38.5387 568.626 37.616 568.626 36.4V31.52H570.162V36.224C570.162 37.0453 570.359 37.6693 570.754 38.096C571.149 38.512 571.714 38.72 572.45 38.72C573.261 38.72 573.901 38.4747 574.37 37.984C574.839 37.4933 575.074 36.8 575.074 35.904V31.52H576.61ZM581.006 32.944C581.273 32.4533 581.667 32.08 582.19 31.824C582.713 31.568 583.347 31.44 584.094 31.44V32.928C584.009 32.9173 583.891 32.912 583.742 32.912C582.91 32.912 582.254 33.1627 581.774 33.664C581.305 34.1547 581.07 34.8587 581.07 35.776V40H579.534V31.52H581.006V32.944ZM593.573 35.808C593.573 35.9253 593.562 36.08 593.541 36.272H586.661C586.757 37.0187 587.082 37.6213 587.637 38.08C588.202 38.528 588.901 38.752 589.733 38.752C590.746 38.752 591.562 38.4107 592.181 37.728L593.029 38.72C592.645 39.168 592.165 39.5093 591.589 39.744C591.024 39.9787 590.389 40.096 589.685 40.096C588.789 40.096 587.994 39.9147 587.301 39.552C586.608 39.1787 586.069 38.6613 585.685 38C585.312 37.3387 585.125 36.592 585.125 35.76C585.125 34.9387 585.306 34.1973 585.669 33.536C586.042 32.8747 586.549 32.3627 587.189 32C587.84 31.6267 588.57 31.44 589.381 31.44C590.192 31.44 590.912 31.6267 591.541 32C592.181 32.3627 592.677 32.8747 593.029 33.536C593.392 34.1973 593.573 34.9547 593.573 35.808ZM589.381 32.736C588.645 32.736 588.026 32.96 587.525 33.408C587.034 33.856 586.746 34.4427 586.661 35.168H592.101C592.016 34.4533 591.722 33.872 591.221 33.424C590.73 32.9653 590.117 32.736 589.381 32.736ZM601.971 43.104C601.363 42.1227 600.894 40.9973 600.563 39.728C600.232 38.448 600.067 37.0773 600.067 35.616C600.067 34.1547 600.232 32.784 600.563 31.504C600.894 30.2133 601.363 29.088 601.971 28.128H603.427C602.787 29.248 602.318 30.4213 602.019 31.648C601.72 32.8747 601.571 34.1973 601.571 35.616C601.571 37.0347 601.72 38.3573 602.019 39.584C602.318 40.8107 602.787 41.984 603.427 43.104H601.971ZM612.474 28.8V40H610.89V30.192H608.362V28.8H612.474ZM618.124 33.264C619.724 33.264 620.898 33.568 621.644 34.176C622.402 34.7733 622.78 35.5947 622.78 36.64C622.78 37.3013 622.62 37.8987 622.3 38.432C621.991 38.9547 621.516 39.3707 620.876 39.68C620.247 39.9787 619.468 40.128 618.54 40.128C617.751 40.128 616.988 40.0107 616.252 39.776C615.516 39.5307 614.908 39.1947 614.428 38.768L615.164 37.504C615.548 37.8667 616.039 38.16 616.636 38.384C617.234 38.5973 617.863 38.704 618.524 38.704C619.367 38.704 620.018 38.528 620.476 38.176C620.946 37.8133 621.18 37.3227 621.18 36.704C621.18 36.032 620.924 35.5253 620.412 35.184C619.9 34.832 619.026 34.656 617.788 34.656H615.244L615.836 28.8H622.156V30.192H617.18L616.876 33.264H618.124ZM630.841 34.816C630.062 34.816 629.433 34.5333 628.953 33.968C628.473 33.4027 628.233 32.6667 628.233 31.76C628.233 30.8533 628.473 30.1173 628.953 29.552C629.433 28.9867 630.062 28.704 630.841 28.704C631.619 28.704 632.243 28.9867 632.713 29.552C633.193 30.1067 633.433 30.8427 633.433 31.76C633.433 32.6773 633.193 33.4187 632.713 33.984C632.243 34.5387 631.619 34.816 630.841 34.816ZM637.593 28.8H638.825L631.177 40H629.945L637.593 28.8ZM630.841 33.904C631.331 33.904 631.715 33.7173 631.993 33.344C632.27 32.96 632.409 32.432 632.409 31.76C632.409 31.088 632.27 30.5653 631.993 30.192C631.715 29.808 631.331 29.616 630.841 29.616C630.361 29.616 629.977 29.808 629.689 30.192C629.411 30.576 629.273 31.0987 629.273 31.76C629.273 32.4213 629.411 32.944 629.689 33.328C629.977 33.712 630.361 33.904 630.841 33.904ZM637.929 40.096C637.15 40.096 636.521 39.8187 636.041 39.264C635.571 38.6987 635.337 37.9573 635.337 37.04C635.337 36.1227 635.571 35.3867 636.041 34.832C636.521 34.2667 637.15 33.984 637.929 33.984C638.707 33.984 639.337 34.2667 639.817 34.832C640.297 35.3973 640.537 36.1333 640.537 37.04C640.537 37.9467 640.297 38.6827 639.817 39.248C639.337 39.8133 638.707 40.096 637.929 40.096ZM637.929 39.184C638.409 39.184 638.787 38.992 639.065 38.608C639.353 38.224 639.497 37.7013 639.497 37.04C639.497 36.3787 639.353 35.856 639.065 35.472C638.787 35.088 638.409 34.896 637.929 34.896C637.438 34.896 637.054 35.088 636.777 35.472C636.499 35.8453 636.361 36.368 636.361 37.04C636.361 37.712 636.499 38.24 636.777 38.624C637.054 38.9973 637.438 39.184 637.929 39.184ZM641.325 43.104C641.965 41.984 642.434 40.8107 642.733 39.584C643.042 38.3573 643.197 37.0347 643.197 35.616C643.197 34.1973 643.042 32.8747 642.733 31.648C642.434 30.4213 641.965 29.248 641.325 28.128H642.781C643.399 29.088 643.874 30.208 644.205 31.488C644.535 32.768 644.701 34.144 644.701 35.616C644.701 37.0773 644.535 38.448 644.205 39.728C643.874 41.008 643.399 42.1333 642.781 43.104H641.325Z" fill="#F7F7F9"/>
    <path d="M759.088 34.336H760.624V38.704C760.07 39.1627 759.424 39.5147 758.688 39.76C757.952 40.0053 757.184 40.128 756.384 40.128C755.254 40.128 754.235 39.8827 753.328 39.392C752.422 38.8907 751.707 38.208 751.184 37.344C750.672 36.4693 750.416 35.488 750.416 34.4C750.416 33.312 750.672 32.3307 751.184 31.456C751.707 30.5813 752.422 29.8987 753.328 29.408C754.246 28.9173 755.275 28.672 756.416 28.672C757.312 28.672 758.123 28.8213 758.848 29.12C759.584 29.408 760.208 29.8347 760.72 30.4L759.728 31.392C758.832 30.528 757.75 30.096 756.48 30.096C755.627 30.096 754.859 30.2827 754.176 30.656C753.504 31.0187 752.976 31.5307 752.592 32.192C752.208 32.8427 752.016 33.5787 752.016 34.4C752.016 35.2107 752.208 35.9467 752.592 36.608C752.976 37.2587 753.504 37.7707 754.176 38.144C754.859 38.5173 755.622 38.704 756.464 38.704C757.467 38.704 758.342 38.464 759.088 37.984V34.336ZM764.936 32.944C765.202 32.4533 765.597 32.08 766.12 31.824C766.642 31.568 767.277 31.44 768.024 31.44V32.928C767.938 32.9173 767.821 32.912 767.672 32.912C766.84 32.912 766.184 33.1627 765.704 33.664C765.234 34.1547 765 34.8587 765 35.776V40H763.464V31.52H764.936V32.944ZM773.471 40.096C772.628 40.096 771.871 39.9093 771.199 39.536C770.527 39.1627 769.999 38.6507 769.615 38C769.241 37.3387 769.055 36.592 769.055 35.76C769.055 34.928 769.241 34.1867 769.615 33.536C769.999 32.8747 770.527 32.3627 771.199 32C771.871 31.6267 772.628 31.44 773.471 31.44C774.313 31.44 775.065 31.6267 775.727 32C776.399 32.3627 776.921 32.8747 777.295 33.536C777.679 34.1867 777.871 34.928 777.871 35.76C777.871 36.592 777.679 37.3387 777.295 38C776.921 38.6507 776.399 39.1627 775.727 39.536C775.065 39.9093 774.313 40.096 773.471 40.096ZM773.471 38.752C774.015 38.752 774.5 38.6293 774.927 38.384C775.364 38.128 775.705 37.776 775.951 37.328C776.196 36.8693 776.319 36.3467 776.319 35.76C776.319 35.1733 776.196 34.656 775.951 34.208C775.705 33.7493 775.364 33.3973 774.927 33.152C774.5 32.9067 774.015 32.784 773.471 32.784C772.927 32.784 772.436 32.9067 771.999 33.152C771.572 33.3973 771.231 33.7493 770.975 34.208C770.729 34.656 770.607 35.1733 770.607 35.76C770.607 36.3467 770.729 36.8693 770.975 37.328C771.231 37.776 771.572 38.128 771.999 38.384C772.436 38.6293 772.927 38.752 773.471 38.752ZM792.593 31.52L789.425 40H787.953L785.505 33.568L783.025 40H781.553L778.401 31.52H779.857L782.321 38.272L784.881 31.52H786.177L788.689 38.304L791.217 31.52H792.593ZM799.154 39.504C798.93 39.696 798.652 39.8453 798.322 39.952C797.991 40.048 797.65 40.096 797.298 40.096C796.444 40.096 795.783 39.8667 795.314 39.408C794.844 38.9493 794.61 38.2933 794.61 37.44V32.784H793.17V31.52H794.61V29.664H796.146V31.52H798.578V32.784H796.146V37.376C796.146 37.8347 796.258 38.1867 796.482 38.432C796.716 38.6773 797.047 38.8 797.474 38.8C797.943 38.8 798.343 38.6667 798.674 38.4L799.154 39.504ZM805.539 31.44C806.616 31.44 807.469 31.7547 808.099 32.384C808.739 33.0027 809.059 33.9147 809.059 35.12V40H807.523V35.296C807.523 34.4747 807.325 33.856 806.931 33.44C806.536 33.024 805.971 32.816 805.235 32.816C804.403 32.816 803.747 33.0613 803.267 33.552C802.787 34.032 802.547 34.7253 802.547 35.632V40H801.011V28.128H802.547V32.72C802.867 32.3147 803.283 32 803.795 31.776C804.317 31.552 804.899 31.44 805.539 31.44ZM824.614 40.176L823.126 38.688C822.134 39.648 820.886 40.128 819.382 40.128C818.636 40.128 817.964 40.0053 817.366 39.76C816.769 39.5147 816.3 39.1733 815.958 38.736C815.628 38.288 815.462 37.7813 815.462 37.216C815.462 36.5333 815.67 35.9307 816.086 35.408C816.513 34.8747 817.212 34.3307 818.182 33.776C817.692 33.2853 817.345 32.8427 817.142 32.448C816.94 32.0533 816.838 31.6427 816.838 31.216C816.838 30.4587 817.11 29.8507 817.654 29.392C818.209 28.9333 818.945 28.704 819.862 28.704C820.716 28.704 821.393 28.912 821.894 29.328C822.396 29.744 822.646 30.3147 822.646 31.04C822.646 31.6053 822.46 32.112 822.086 32.56C821.724 33.008 821.116 33.4773 820.262 33.968L823.03 36.72C823.35 36.112 823.58 35.4347 823.718 34.688L824.95 35.088C824.758 36.0693 824.433 36.9227 823.974 37.648L825.478 39.152L824.614 40.176ZM819.862 29.824C819.361 29.824 818.966 29.952 818.678 30.208C818.401 30.4533 818.262 30.7787 818.262 31.184C818.262 31.472 818.337 31.7493 818.486 32.016C818.646 32.2827 818.95 32.6453 819.398 33.104C820.134 32.688 820.641 32.3307 820.918 32.032C821.206 31.7333 821.35 31.408 821.35 31.056C821.35 30.6827 821.217 30.384 820.95 30.16C820.694 29.936 820.332 29.824 819.862 29.824ZM819.478 38.848C820.588 38.848 821.5 38.496 822.214 37.792L819.03 34.624C818.262 35.0507 817.724 35.4507 817.414 35.824C817.116 36.1867 816.966 36.5973 816.966 37.056C816.966 37.5893 817.196 38.0213 817.654 38.352C818.124 38.6827 818.732 38.848 819.478 38.848ZM842.072 40L842.056 31.84L838.008 38.64H837.272L833.224 31.888V40H831.688V28.8H833L837.672 36.672L842.28 28.8H843.592L843.608 40H842.072ZM849.833 31.44C851.006 31.44 851.902 31.728 852.521 32.304C853.15 32.88 853.465 33.7387 853.465 34.88V40H852.009V38.88C851.753 39.2747 851.385 39.5787 850.905 39.792C850.436 39.9947 849.876 40.096 849.225 40.096C848.276 40.096 847.513 39.8667 846.937 39.408C846.372 38.9493 846.089 38.3467 846.089 37.6C846.089 36.8533 846.361 36.256 846.905 35.808C847.449 35.3493 848.313 35.12 849.497 35.12H851.929V34.816C851.929 34.1547 851.737 33.648 851.353 33.296C850.969 32.944 850.404 32.768 849.657 32.768C849.156 32.768 848.665 32.8533 848.185 33.024C847.705 33.184 847.3 33.4027 846.969 33.68L846.329 32.528C846.766 32.176 847.289 31.9093 847.897 31.728C848.505 31.536 849.15 31.44 849.833 31.44ZM849.481 38.912C850.068 38.912 850.574 38.784 851.001 38.528C851.428 38.2613 851.737 37.888 851.929 37.408V36.224H849.561C848.26 36.224 847.609 36.6613 847.609 37.536C847.609 37.9627 847.774 38.2987 848.105 38.544C848.436 38.7893 848.894 38.912 849.481 38.912ZM857.78 32.944C858.046 32.4533 858.441 32.08 858.964 31.824C859.486 31.568 860.121 31.44 860.868 31.44V32.928C860.782 32.9173 860.665 32.912 860.516 32.912C859.684 32.912 859.028 33.1627 858.548 33.664C858.078 34.1547 857.844 34.8587 857.844 35.776V40H856.308V31.52H857.78V32.944ZM866.057 36.048L864.297 37.68V40H862.761V28.128H864.297V35.744L868.921 31.52H870.777L867.209 35.024L871.129 40H869.241L866.057 36.048ZM879.925 35.808C879.925 35.9253 879.914 36.08 879.893 36.272H873.013C873.109 37.0187 873.434 37.6213 873.989 38.08C874.554 38.528 875.253 38.752 876.085 38.752C877.098 38.752 877.914 38.4107 878.533 37.728L879.381 38.72C878.997 39.168 878.517 39.5093 877.941 39.744C877.375 39.9787 876.741 40.096 876.037 40.096C875.141 40.096 874.346 39.9147 873.653 39.552C872.959 39.1787 872.421 38.6613 872.037 38C871.663 37.3387 871.477 36.592 871.477 35.76C871.477 34.9387 871.658 34.1973 872.021 33.536C872.394 32.8747 872.901 32.3627 873.541 32C874.191 31.6267 874.922 31.44 875.733 31.44C876.543 31.44 877.263 31.6267 877.893 32C878.533 32.3627 879.029 32.8747 879.381 33.536C879.743 34.1973 879.925 34.9547 879.925 35.808ZM875.733 32.736C874.997 32.736 874.378 32.96 873.877 33.408C873.386 33.856 873.098 34.4427 873.013 35.168H878.453C878.367 34.4533 878.074 33.872 877.573 33.424C877.082 32.9653 876.469 32.736 875.733 32.736ZM886.826 39.504C886.602 39.696 886.324 39.8453 885.994 39.952C885.663 40.048 885.322 40.096 884.97 40.096C884.116 40.096 883.455 39.8667 882.986 39.408C882.516 38.9493 882.282 38.2933 882.282 37.44V32.784H880.842V31.52H882.282V29.664H883.818V31.52H886.25V32.784H883.818V37.376C883.818 37.8347 883.93 38.1867 884.154 38.432C884.388 38.6773 884.719 38.8 885.146 38.8C885.615 38.8 886.015 38.6667 886.346 38.4L886.826 39.504ZM888.683 31.52H890.219V40H888.683V31.52ZM889.451 29.888C889.152 29.888 888.901 29.792 888.699 29.6C888.507 29.408 888.411 29.1733 888.411 28.896C888.411 28.6187 888.507 28.384 888.699 28.192C888.901 27.9893 889.152 27.888 889.451 27.888C889.749 27.888 889.995 27.984 890.187 28.176C890.389 28.3573 890.491 28.5867 890.491 28.864C890.491 29.152 890.389 29.3973 890.187 29.6C889.995 29.792 889.749 29.888 889.451 29.888ZM897.679 31.44C898.757 31.44 899.61 31.7547 900.239 32.384C900.879 33.0027 901.199 33.9147 901.199 35.12V40H899.663V35.296C899.663 34.4747 899.466 33.856 899.071 33.44C898.677 33.024 898.111 32.816 897.375 32.816C896.543 32.816 895.887 33.0613 895.407 33.552C894.927 34.032 894.687 34.7253 894.687 35.632V40H893.151V31.52H894.623V32.8C894.933 32.3627 895.349 32.0267 895.871 31.792C896.405 31.5573 897.007 31.44 897.679 31.44ZM912.201 31.52V38.848C912.201 40.3307 911.833 41.424 911.097 42.128C910.361 42.8427 909.262 43.2 907.801 43.2C907.001 43.2 906.238 43.088 905.513 42.864C904.787 42.6507 904.201 42.3413 903.753 41.936L904.489 40.752C904.883 41.0933 905.369 41.36 905.945 41.552C906.531 41.7547 907.134 41.856 907.753 41.856C908.745 41.856 909.475 41.6213 909.945 41.152C910.425 40.6827 910.665 39.968 910.665 39.008V38.336C910.302 38.7733 909.854 39.104 909.321 39.328C908.798 39.5413 908.227 39.648 907.609 39.648C906.798 39.648 906.062 39.4773 905.401 39.136C904.75 38.784 904.238 38.2987 903.865 37.68C903.491 37.0507 903.305 36.336 903.305 35.536C903.305 34.736 903.491 34.0267 903.865 33.408C904.238 32.7787 904.75 32.2933 905.401 31.952C906.062 31.6107 906.798 31.44 907.609 31.44C908.249 31.44 908.841 31.5573 909.385 31.792C909.939 32.0267 910.393 32.3733 910.745 32.832V31.52H912.201ZM907.785 38.304C908.339 38.304 908.835 38.1867 909.273 37.952C909.721 37.7173 910.067 37.392 910.313 36.976C910.569 36.5493 910.697 36.0693 910.697 35.536C910.697 34.7147 910.425 34.0533 909.881 33.552C909.337 33.04 908.638 32.784 907.785 32.784C906.921 32.784 906.217 33.04 905.673 33.552C905.129 34.0533 904.857 34.7147 904.857 35.536C904.857 36.0693 904.979 36.5493 905.225 36.976C905.481 37.392 905.827 37.7173 906.265 37.952C906.713 38.1867 907.219 38.304 907.785 38.304ZM921.401 43.104C920.793 42.1227 920.323 40.9973 919.993 39.728C919.662 38.448 919.497 37.0773 919.497 35.616C919.497 34.1547 919.662 32.784 919.993 31.504C920.323 30.2133 920.793 29.088 921.401 28.128H922.857C922.217 29.248 921.747 30.4213 921.449 31.648C921.15 32.8747 921.001 34.1973 921.001 35.616C921.001 37.0347 921.15 38.3573 921.449 39.584C921.747 40.8107 922.217 41.984 922.857 43.104H921.401ZM927.763 28.8V40H926.179V30.192H923.651V28.8H927.763ZM933.413 33.264C935.013 33.264 936.187 33.568 936.933 34.176C937.691 34.7733 938.069 35.5947 938.069 36.64C938.069 37.3013 937.909 37.8987 937.589 38.432C937.28 38.9547 936.805 39.3707 936.165 39.68C935.536 39.9787 934.757 40.128 933.829 40.128C933.04 40.128 932.277 40.0107 931.541 39.776C930.805 39.5307 930.197 39.1947 929.717 38.768L930.453 37.504C930.837 37.8667 931.328 38.16 931.925 38.384C932.523 38.5973 933.152 38.704 933.813 38.704C934.656 38.704 935.307 38.528 935.765 38.176C936.235 37.8133 936.469 37.3227 936.469 36.704C936.469 36.032 936.213 35.5253 935.701 35.184C935.189 34.832 934.315 34.656 933.077 34.656H930.533L931.125 28.8H937.445V30.192H932.469L932.165 33.264H933.413ZM941.677 34.816C940.898 34.816 940.269 34.5333 939.789 33.968C939.309 33.4027 939.069 32.6667 939.069 31.76C939.069 30.8533 939.309 30.1173 939.789 29.552C940.269 28.9867 940.898 28.704 941.677 28.704C942.455 28.704 943.079 28.9867 943.549 29.552C944.029 30.1067 944.269 30.8427 944.269 31.76C944.269 32.6773 944.029 33.4187 943.549 33.984C943.079 34.5387 942.455 34.816 941.677 34.816ZM948.429 28.8H949.661L942.013 40H940.781L948.429 28.8ZM941.677 33.904C942.167 33.904 942.551 33.7173 942.829 33.344C943.106 32.96 943.245 32.432 943.245 31.76C943.245 31.088 943.106 30.5653 942.829 30.192C942.551 29.808 942.167 29.616 941.677 29.616C941.197 29.616 940.813 29.808 940.525 30.192C940.247 30.576 940.109 31.0987 940.109 31.76C940.109 32.4213 940.247 32.944 940.525 33.328C940.813 33.712 941.197 33.904 941.677 33.904ZM948.765 40.096C947.986 40.096 947.357 39.8187 946.877 39.264C946.407 38.6987 946.173 37.9573 946.173 37.04C946.173 36.1227 946.407 35.3867 946.877 34.832C947.357 34.2667 947.986 33.984 948.765 33.984C949.543 33.984 950.173 34.2667 950.653 34.832C951.133 35.3973 951.373 36.1333 951.373 37.04C951.373 37.9467 951.133 38.6827 950.653 39.248C950.173 39.8133 949.543 40.096 948.765 40.096ZM948.765 39.184C949.245 39.184 949.623 38.992 949.901 38.608C950.189 38.224 950.333 37.7013 950.333 37.04C950.333 36.3787 950.189 35.856 949.901 35.472C949.623 35.088 949.245 34.896 948.765 34.896C948.274 34.896 947.89 35.088 947.613 35.472C947.335 35.8453 947.197 36.368 947.197 37.04C947.197 37.712 947.335 38.24 947.613 38.624C947.89 38.9973 948.274 39.184 948.765 39.184ZM952.16 43.104C952.8 41.984 953.27 40.8107 953.568 39.584C953.878 38.3573 954.032 37.0347 954.032 35.616C954.032 34.1973 953.878 32.8747 953.568 31.648C953.27 30.4213 952.8 29.248 952.16 28.128H953.616C954.235 29.088 954.71 30.208 955.04 31.488C955.371 32.768 955.536 34.144 955.536 35.616C955.536 37.0773 955.371 38.448 955.04 39.728C954.71 41.008 954.235 42.1333 953.616 43.104H952.16Z" fill="#F7F7F9"/>
    <path d="M1074.01 40L1071.6 36.56C1071.3 36.5813 1071.06 36.592 1070.89 36.592H1068.12V40H1066.52V28.8H1070.89C1072.34 28.8 1073.48 29.1467 1074.32 29.84C1075.15 30.5333 1075.56 31.488 1075.56 32.704C1075.56 33.568 1075.35 34.304 1074.92 34.912C1074.5 35.52 1073.89 35.9627 1073.1 36.24L1075.76 40H1074.01ZM1070.84 35.232C1071.86 35.232 1072.63 35.0133 1073.16 34.576C1073.7 34.1387 1073.96 33.5147 1073.96 32.704C1073.96 31.8933 1073.7 31.2747 1073.16 30.848C1072.63 30.4107 1071.86 30.192 1070.84 30.192H1068.12V35.232H1070.84ZM1077.92 31.52H1079.46V40H1077.92V31.52ZM1078.69 29.888C1078.39 29.888 1078.14 29.792 1077.94 29.6C1077.75 29.408 1077.65 29.1733 1077.65 28.896C1077.65 28.6187 1077.75 28.384 1077.94 28.192C1078.14 27.9893 1078.39 27.888 1078.69 27.888C1078.99 27.888 1079.24 27.984 1079.43 28.176C1079.63 28.3573 1079.73 28.5867 1079.73 28.864C1079.73 29.152 1079.63 29.3973 1079.43 29.6C1079.24 29.792 1078.99 29.888 1078.69 29.888ZM1084.83 40.096C1084.13 40.096 1083.47 40.0053 1082.83 39.824C1082.19 39.632 1081.68 39.392 1081.32 39.104L1081.96 37.888C1082.33 38.1547 1082.79 38.368 1083.32 38.528C1083.85 38.688 1084.39 38.768 1084.94 38.768C1086.28 38.768 1086.95 38.384 1086.95 37.616C1086.95 37.36 1086.86 37.1573 1086.68 37.008C1086.5 36.8587 1086.27 36.752 1085.99 36.688C1085.73 36.6133 1085.34 36.5333 1084.84 36.448C1084.16 36.3413 1083.6 36.2187 1083.16 36.08C1082.73 35.9413 1082.37 35.7067 1082.06 35.376C1081.75 35.0453 1081.59 34.5813 1081.59 33.984C1081.59 33.216 1081.91 32.6027 1082.55 32.144C1083.19 31.6747 1084.05 31.44 1085.13 31.44C1085.69 31.44 1086.26 31.5093 1086.83 31.648C1087.39 31.7867 1087.85 31.9733 1088.22 32.208L1087.56 33.424C1086.87 32.976 1086.05 32.752 1085.11 32.752C1084.46 32.752 1083.97 32.8587 1083.63 33.072C1083.28 33.2853 1083.11 33.568 1083.11 33.92C1083.11 34.1973 1083.21 34.416 1083.4 34.576C1083.59 34.736 1083.83 34.8533 1084.11 34.928C1084.39 35.0027 1084.79 35.088 1085.31 35.184C1085.99 35.3013 1086.54 35.4293 1086.95 35.568C1087.38 35.696 1087.74 35.92 1088.04 36.24C1088.34 36.56 1088.49 37.008 1088.49 37.584C1088.49 38.352 1088.16 38.9653 1087.5 39.424C1086.85 39.872 1085.96 40.096 1084.83 40.096ZM1093.71 36.048L1091.95 37.68V40H1090.41V28.128H1091.95V35.744L1096.57 31.52H1098.43L1094.86 35.024L1098.78 40H1096.89L1093.71 36.048ZM1115.17 40L1115.16 31.84L1111.11 38.64H1110.37L1106.33 31.888V40H1104.79V28.8H1106.1L1110.77 36.672L1115.38 28.8H1116.69L1116.71 40H1115.17ZM1122.93 31.44C1124.11 31.44 1125 31.728 1125.62 32.304C1126.25 32.88 1126.57 33.7387 1126.57 34.88V40H1125.11V38.88C1124.85 39.2747 1124.49 39.5787 1124.01 39.792C1123.54 39.9947 1122.98 40.096 1122.33 40.096C1121.38 40.096 1120.61 39.8667 1120.04 39.408C1119.47 38.9493 1119.19 38.3467 1119.19 37.6C1119.19 36.8533 1119.46 36.256 1120.01 35.808C1120.55 35.3493 1121.41 35.12 1122.6 35.12H1125.03V34.816C1125.03 34.1547 1124.84 33.648 1124.45 33.296C1124.07 32.944 1123.51 32.768 1122.76 32.768C1122.26 32.768 1121.77 32.8533 1121.29 33.024C1120.81 33.184 1120.4 33.4027 1120.07 33.68L1119.43 32.528C1119.87 32.176 1120.39 31.9093 1121 31.728C1121.61 31.536 1122.25 31.44 1122.93 31.44ZM1122.58 38.912C1123.17 38.912 1123.68 38.784 1124.1 38.528C1124.53 38.2613 1124.84 37.888 1125.03 37.408V36.224H1122.66C1121.36 36.224 1120.71 36.6613 1120.71 37.536C1120.71 37.9627 1120.88 38.2987 1121.21 38.544C1121.54 38.7893 1122 38.912 1122.58 38.912ZM1133.94 31.44C1135.01 31.44 1135.87 31.7547 1136.5 32.384C1137.14 33.0027 1137.46 33.9147 1137.46 35.12V40H1135.92V35.296C1135.92 34.4747 1135.72 33.856 1135.33 33.44C1134.93 33.024 1134.37 32.816 1133.63 32.816C1132.8 32.816 1132.15 33.0613 1131.67 33.552C1131.19 34.032 1130.95 34.7253 1130.95 35.632V40H1129.41V31.52H1130.88V32.8C1131.19 32.3627 1131.61 32.0267 1132.13 31.792C1132.66 31.5573 1133.27 31.44 1133.94 31.44ZM1143.39 31.44C1144.56 31.44 1145.46 31.728 1146.08 32.304C1146.71 32.88 1147.02 33.7387 1147.02 34.88V40H1145.56V38.88C1145.31 39.2747 1144.94 39.5787 1144.46 39.792C1143.99 39.9947 1143.43 40.096 1142.78 40.096C1141.83 40.096 1141.07 39.8667 1140.49 39.408C1139.93 38.9493 1139.64 38.3467 1139.64 37.6C1139.64 36.8533 1139.92 36.256 1140.46 35.808C1141 35.3493 1141.87 35.12 1143.05 35.12H1145.48V34.816C1145.48 34.1547 1145.29 33.648 1144.91 33.296C1144.52 32.944 1143.96 32.768 1143.21 32.768C1142.71 32.768 1142.22 32.8533 1141.74 33.024C1141.26 33.184 1140.85 33.4027 1140.52 33.68L1139.88 32.528C1140.32 32.176 1140.84 31.9093 1141.45 31.728C1142.06 31.536 1142.71 31.44 1143.39 31.44ZM1143.04 38.912C1143.62 38.912 1144.13 38.784 1144.56 38.528C1144.98 38.2613 1145.29 37.888 1145.48 37.408V36.224H1143.12C1141.81 36.224 1141.16 36.6613 1141.16 37.536C1141.16 37.9627 1141.33 38.2987 1141.66 38.544C1141.99 38.7893 1142.45 38.912 1143.04 38.912ZM1158.02 31.52V38.848C1158.02 40.3307 1157.65 41.424 1156.92 42.128C1156.18 42.8427 1155.08 43.2 1153.62 43.2C1152.82 43.2 1152.06 43.088 1151.33 42.864C1150.61 42.6507 1150.02 42.3413 1149.57 41.936L1150.31 40.752C1150.7 41.0933 1151.19 41.36 1151.77 41.552C1152.35 41.7547 1152.95 41.856 1153.57 41.856C1154.57 41.856 1155.3 41.6213 1155.77 41.152C1156.25 40.6827 1156.49 39.968 1156.49 39.008V38.336C1156.12 38.7733 1155.67 39.104 1155.14 39.328C1154.62 39.5413 1154.05 39.648 1153.43 39.648C1152.62 39.648 1151.88 39.4773 1151.22 39.136C1150.57 38.784 1150.06 38.2987 1149.69 37.68C1149.31 37.0507 1149.13 36.336 1149.13 35.536C1149.13 34.736 1149.31 34.0267 1149.69 33.408C1150.06 32.7787 1150.57 32.2933 1151.22 31.952C1151.88 31.6107 1152.62 31.44 1153.43 31.44C1154.07 31.44 1154.66 31.5573 1155.21 31.792C1155.76 32.0267 1156.21 32.3733 1156.57 32.832V31.52H1158.02ZM1153.61 38.304C1154.16 38.304 1154.66 38.1867 1155.09 37.952C1155.54 37.7173 1155.89 37.392 1156.13 36.976C1156.39 36.5493 1156.52 36.0693 1156.52 35.536C1156.52 34.7147 1156.25 34.0533 1155.7 33.552C1155.16 33.04 1154.46 32.784 1153.61 32.784C1152.74 32.784 1152.04 33.04 1151.49 33.552C1150.95 34.0533 1150.68 34.7147 1150.68 35.536C1150.68 36.0693 1150.8 36.5493 1151.05 36.976C1151.3 37.392 1151.65 37.7173 1152.09 37.952C1152.53 38.1867 1153.04 38.304 1153.61 38.304ZM1168.62 35.808C1168.62 35.9253 1168.61 36.08 1168.59 36.272H1161.71C1161.8 37.0187 1162.13 37.6213 1162.68 38.08C1163.25 38.528 1163.95 38.752 1164.78 38.752C1165.79 38.752 1166.61 38.4107 1167.23 37.728L1168.08 38.72C1167.69 39.168 1167.21 39.5093 1166.64 39.744C1166.07 39.9787 1165.44 40.096 1164.73 40.096C1163.84 40.096 1163.04 39.9147 1162.35 39.552C1161.65 39.1787 1161.12 38.6613 1160.73 38C1160.36 37.3387 1160.17 36.592 1160.17 35.76C1160.17 34.9387 1160.35 34.1973 1160.72 33.536C1161.09 32.8747 1161.6 32.3627 1162.24 32C1162.89 31.6267 1163.62 31.44 1164.43 31.44C1165.24 31.44 1165.96 31.6267 1166.59 32C1167.23 32.3627 1167.72 32.8747 1168.08 33.536C1168.44 34.1973 1168.62 34.9547 1168.62 35.808ZM1164.43 32.736C1163.69 32.736 1163.07 32.96 1162.57 33.408C1162.08 33.856 1161.79 34.4427 1161.71 35.168H1167.15C1167.06 34.4533 1166.77 33.872 1166.27 33.424C1165.78 32.9653 1165.16 32.736 1164.43 32.736ZM1181.36 31.44C1182.43 31.44 1183.27 31.7493 1183.89 32.368C1184.52 32.9867 1184.83 33.904 1184.83 35.12V40H1183.3V35.296C1183.3 34.4747 1183.1 33.856 1182.72 33.44C1182.35 33.024 1181.81 32.816 1181.1 32.816C1180.33 32.816 1179.71 33.0613 1179.25 33.552C1178.79 34.032 1178.56 34.7253 1178.56 35.632V40H1177.02V35.296C1177.02 34.4747 1176.83 33.856 1176.45 33.44C1176.08 33.024 1175.54 32.816 1174.83 32.816C1174.05 32.816 1173.44 33.0613 1172.98 33.552C1172.52 34.032 1172.29 34.7253 1172.29 35.632V40H1170.75V31.52H1172.22V32.784C1172.53 32.3467 1172.94 32.016 1173.44 31.792C1173.94 31.5573 1174.51 31.44 1175.15 31.44C1175.81 31.44 1176.4 31.5733 1176.91 31.84C1177.42 32.1067 1177.82 32.496 1178.1 33.008C1178.42 32.5173 1178.86 32.1333 1179.42 31.856C1180 31.5787 1180.65 31.44 1181.36 31.44ZM1195.37 35.808C1195.37 35.9253 1195.36 36.08 1195.34 36.272H1188.46C1188.55 37.0187 1188.88 37.6213 1189.43 38.08C1190 38.528 1190.7 38.752 1191.53 38.752C1192.54 38.752 1193.36 38.4107 1193.98 37.728L1194.83 38.72C1194.44 39.168 1193.96 39.5093 1193.39 39.744C1192.82 39.9787 1192.19 40.096 1191.48 40.096C1190.59 40.096 1189.79 39.9147 1189.1 39.552C1188.4 39.1787 1187.87 38.6613 1187.48 38C1187.11 37.3387 1186.92 36.592 1186.92 35.76C1186.92 34.9387 1187.1 34.1973 1187.47 33.536C1187.84 32.8747 1188.35 32.3627 1188.99 32C1189.64 31.6267 1190.37 31.44 1191.18 31.44C1191.99 31.44 1192.71 31.6267 1193.34 32C1193.98 32.3627 1194.47 32.8747 1194.83 33.536C1195.19 34.1973 1195.37 34.9547 1195.37 35.808ZM1191.18 32.736C1190.44 32.736 1189.82 32.96 1189.32 33.408C1188.83 33.856 1188.54 34.4427 1188.46 35.168H1193.9C1193.81 34.4533 1193.52 33.872 1193.02 33.424C1192.53 32.9653 1191.91 32.736 1191.18 32.736ZM1202.03 31.44C1203.11 31.44 1203.96 31.7547 1204.59 32.384C1205.23 33.0027 1205.55 33.9147 1205.55 35.12V40H1204.01V35.296C1204.01 34.4747 1203.82 33.856 1203.42 33.44C1203.03 33.024 1202.46 32.816 1201.73 32.816C1200.89 32.816 1200.24 33.0613 1199.76 33.552C1199.28 34.032 1199.04 34.7253 1199.04 35.632V40H1197.5V31.52H1198.97V32.8C1199.28 32.3627 1199.7 32.0267 1200.22 31.792C1200.76 31.5573 1201.36 31.44 1202.03 31.44ZM1213.16 39.504C1212.94 39.696 1212.66 39.8453 1212.33 39.952C1212 40.048 1211.66 40.096 1211.31 40.096C1210.45 40.096 1209.79 39.8667 1209.32 39.408C1208.85 38.9493 1208.62 38.2933 1208.62 37.44V32.784H1207.18V31.52H1208.62V29.664H1210.15V31.52H1212.59V32.784H1210.15V37.376C1210.15 37.8347 1210.27 38.1867 1210.49 38.432C1210.72 38.6773 1211.05 38.8 1211.48 38.8C1211.95 38.8 1212.35 38.6667 1212.68 38.4L1213.16 39.504ZM1221.28 43.104C1220.68 42.1227 1220.21 40.9973 1219.88 39.728C1219.54 38.448 1219.38 37.0773 1219.38 35.616C1219.38 34.1547 1219.54 32.784 1219.88 31.504C1220.21 30.2133 1220.68 29.088 1221.28 28.128H1222.74C1222.1 29.248 1221.63 30.4213 1221.33 31.648C1221.03 32.8747 1220.88 34.1973 1220.88 35.616C1220.88 37.0347 1221.03 38.3573 1221.33 39.584C1221.63 40.8107 1222.1 41.984 1222.74 43.104H1221.28ZM1227.22 33.264C1228.82 33.264 1229.99 33.568 1230.74 34.176C1231.5 34.7733 1231.87 35.5947 1231.87 36.64C1231.87 37.3013 1231.71 37.8987 1231.39 38.432C1231.08 38.9547 1230.61 39.3707 1229.97 39.68C1229.34 39.9787 1228.56 40.128 1227.63 40.128C1226.84 40.128 1226.08 40.0107 1225.35 39.776C1224.61 39.5307 1224 39.1947 1223.52 38.768L1224.26 37.504C1224.64 37.8667 1225.13 38.16 1225.73 38.384C1226.33 38.5973 1226.96 38.704 1227.62 38.704C1228.46 38.704 1229.11 38.528 1229.57 38.176C1230.04 37.8133 1230.27 37.3227 1230.27 36.704C1230.27 36.032 1230.02 35.5253 1229.51 35.184C1228.99 34.832 1228.12 34.656 1226.88 34.656H1224.34L1224.93 28.8H1231.25V30.192H1226.27L1225.97 33.264H1227.22ZM1235.48 34.816C1234.7 34.816 1234.07 34.5333 1233.59 33.968C1233.11 33.4027 1232.87 32.6667 1232.87 31.76C1232.87 30.8533 1233.11 30.1173 1233.59 29.552C1234.07 28.9867 1234.7 28.704 1235.48 28.704C1236.26 28.704 1236.88 28.9867 1237.35 29.552C1237.83 30.1067 1238.07 30.8427 1238.07 31.76C1238.07 32.6773 1237.83 33.4187 1237.35 33.984C1236.88 34.5387 1236.26 34.816 1235.48 34.816ZM1242.23 28.8H1243.47L1235.82 40H1234.59L1242.23 28.8ZM1235.48 33.904C1235.97 33.904 1236.36 33.7173 1236.63 33.344C1236.91 32.96 1237.05 32.432 1237.05 31.76C1237.05 31.088 1236.91 30.5653 1236.63 30.192C1236.36 29.808 1235.97 29.616 1235.48 29.616C1235 29.616 1234.62 29.808 1234.33 30.192C1234.05 30.576 1233.91 31.0987 1233.91 31.76C1233.91 32.4213 1234.05 32.944 1234.33 33.328C1234.62 33.712 1235 33.904 1235.48 33.904ZM1242.57 40.096C1241.79 40.096 1241.16 39.8187 1240.68 39.264C1240.21 38.6987 1239.98 37.9573 1239.98 37.04C1239.98 36.1227 1240.21 35.3867 1240.68 34.832C1241.16 34.2667 1241.79 33.984 1242.57 33.984C1243.35 33.984 1243.98 34.2667 1244.46 34.832C1244.94 35.3973 1245.18 36.1333 1245.18 37.04C1245.18 37.9467 1244.94 38.6827 1244.46 39.248C1243.98 39.8133 1243.35 40.096 1242.57 40.096ZM1242.57 39.184C1243.05 39.184 1243.43 38.992 1243.71 38.608C1243.99 38.224 1244.14 37.7013 1244.14 37.04C1244.14 36.3787 1243.99 35.856 1243.71 35.472C1243.43 35.088 1243.05 34.896 1242.57 34.896C1242.08 34.896 1241.69 35.088 1241.42 35.472C1241.14 35.8453 1241 36.368 1241 37.04C1241 37.712 1241.14 38.24 1241.42 38.624C1241.69 38.9973 1242.08 39.184 1242.57 39.184ZM1245.97 43.104C1246.61 41.984 1247.07 40.8107 1247.37 39.584C1247.68 38.3573 1247.84 37.0347 1247.84 35.616C1247.84 34.1973 1247.68 32.8747 1247.37 31.648C1247.07 30.4213 1246.61 29.248 1245.97 28.128H1247.42C1248.04 29.088 1248.51 30.208 1248.85 31.488C1249.18 32.768 1249.34 34.144 1249.34 35.616C1249.34 37.0773 1249.18 38.448 1248.85 39.728C1248.51 41.008 1248.04 42.1333 1247.42 43.104H1245.97Z" fill="#F7F7F9"/>
</svg>
