<svg width="1269" height="100" viewBox="0 0 1269 100" fill="none"
    xmlns="http://www.w3.org/2000/svg">
    <rect width="1269" height="100" rx="15" fill="black" fill-opacity="0.15"/>
    <rect x="30.5" y="70" width="350" height="5" rx="2.5" fill="#F7931A"/>
    <rect x="459.5" y="70" width="350" height="5" rx="2.5" fill="url(#paint0_linear_66_1959)"/>
    <rect x="888.5" y="70" width="350" height="5" rx="2.5" fill="white"/>
    <path d="M365.782 28.8C367.233 28.8 368.374 29.1467 369.206 29.84C370.038 30.5333 370.454 31.488 370.454 32.704C370.454 33.92 370.038 34.8747 369.206 35.568C368.374 36.2613 367.233 36.608 365.782 36.608H363.014V40H361.414V28.8H365.782ZM365.734 35.216C366.748 35.216 367.521 35.0027 368.054 34.576C368.588 34.1387 368.854 33.5147 368.854 32.704C368.854 31.8933 368.588 31.2747 368.054 30.848C367.521 30.4107 366.748 30.192 365.734 30.192H363.014V35.216H365.734ZM377.265 31.44C378.343 31.44 379.196 31.7547 379.825 32.384C380.465 33.0027 380.785 33.9147 380.785 35.12V40H379.249V35.296C379.249 34.4747 379.052 33.856 378.657 33.44C378.263 33.024 377.697 32.816 376.961 32.816C376.129 32.816 375.473 33.0613 374.993 33.552C374.513 34.032 374.273 34.7253 374.273 35.632V40H372.737V28.128H374.273V32.72C374.593 32.3147 375.009 32 375.521 31.776C376.044 31.552 376.625 31.44 377.265 31.44ZM386.716 31.44C387.889 31.44 388.785 31.728 389.404 32.304C390.033 32.88 390.348 33.7387 390.348 34.88V40H388.892V38.88C388.636 39.2747 388.268 39.5787 387.788 39.792C387.319 39.9947 386.759 40.096 386.108 40.096C385.159 40.096 384.396 39.8667 383.82 39.408C383.255 38.9493 382.972 38.3467 382.972 37.6C382.972 36.8533 383.244 36.256 383.788 35.808C384.332 35.3493 385.196 35.12 386.38 35.12H388.812V34.816C388.812 34.1547 388.62 33.648 388.236 33.296C387.852 32.944 387.287 32.768 386.54 32.768C386.039 32.768 385.548 32.8533 385.068 33.024C384.588 33.184 384.183 33.4027 383.852 33.68L383.212 32.528C383.649 32.176 384.172 31.9093 384.78 31.728C385.388 31.536 386.033 31.44 386.716 31.44ZM386.364 38.912C386.951 38.912 387.457 38.784 387.884 38.528C388.311 38.2613 388.62 37.888 388.812 37.408V36.224H386.444C385.143 36.224 384.492 36.6613 384.492 37.536C384.492 37.9627 384.657 38.2987 384.988 38.544C385.319 38.7893 385.777 38.912 386.364 38.912ZM395.622 40.096C394.929 40.096 394.262 40.0053 393.622 39.824C392.982 39.632 392.481 39.392 392.118 39.104L392.758 37.888C393.132 38.1547 393.585 38.368 394.118 38.528C394.652 38.688 395.19 38.768 395.734 38.768C397.078 38.768 397.75 38.384 397.75 37.616C397.75 37.36 397.66 37.1573 397.478 37.008C397.297 36.8587 397.068 36.752 396.79 36.688C396.524 36.6133 396.14 36.5333 395.638 36.448C394.956 36.3413 394.396 36.2187 393.958 36.08C393.532 35.9413 393.164 35.7067 392.854 35.376C392.545 35.0453 392.39 34.5813 392.39 33.984C392.39 33.216 392.71 32.6027 393.35 32.144C393.99 31.6747 394.849 31.44 395.926 31.44C396.492 31.44 397.057 31.5093 397.622 31.648C398.188 31.7867 398.652 31.9733 399.014 32.208L398.358 33.424C397.665 32.976 396.849 32.752 395.91 32.752C395.26 32.752 394.764 32.8587 394.422 33.072C394.081 33.2853 393.91 33.568 393.91 33.92C393.91 34.1973 394.006 34.416 394.198 34.576C394.39 34.736 394.625 34.8533 394.902 34.928C395.19 35.0027 395.59 35.088 396.102 35.184C396.785 35.3013 397.334 35.4293 397.75 35.568C398.177 35.696 398.54 35.92 398.838 36.24C399.137 36.56 399.286 37.008 399.286 37.584C399.286 38.352 398.956 38.9653 398.294 39.424C397.644 39.872 396.753 40.096 395.622 40.096ZM408.87 35.808C408.87 35.9253 408.859 36.08 408.838 36.272H401.958C402.054 37.0187 402.379 37.6213 402.934 38.08C403.499 38.528 404.198 38.752 405.03 38.752C406.043 38.752 406.859 38.4107 407.478 37.728L408.326 38.72C407.942 39.168 407.462 39.5093 406.886 39.744C406.321 39.9787 405.686 40.096 404.982 40.096C404.086 40.096 403.291 39.9147 402.598 39.552C401.905 39.1787 401.366 38.6613 400.982 38C400.609 37.3387 400.422 36.592 400.422 35.76C400.422 34.9387 400.603 34.1973 400.966 33.536C401.339 32.8747 401.846 32.3627 402.486 32C403.137 31.6267 403.867 31.44 404.678 31.44C405.489 31.44 406.209 31.6267 406.838 32C407.478 32.3627 407.974 32.8747 408.326 33.536C408.689 34.1973 408.87 34.9547 408.87 35.808ZM404.678 32.736C403.942 32.736 403.323 32.96 402.822 33.408C402.331 33.856 402.043 34.4427 401.958 35.168H407.398C407.313 34.4533 407.019 33.872 406.518 33.424C406.027 32.9653 405.414 32.736 404.678 32.736ZM418.084 28.8V40H416.5V30.192H413.972V28.8H418.084ZM424.975 34.944H429.279V36.272H424.975V34.944ZM441.172 40.128C440.052 40.128 439.039 39.8827 438.132 39.392C437.236 38.8907 436.532 38.208 436.02 37.344C435.508 36.4693 435.252 35.488 435.252 34.4C435.252 33.312 435.508 32.336 436.02 31.472C436.532 30.5973 437.242 29.9147 438.148 29.424C439.055 28.9227 440.068 28.672 441.188 28.672C442.063 28.672 442.863 28.8213 443.588 29.12C444.314 29.408 444.932 29.84 445.444 30.416L444.404 31.424C443.562 30.5387 442.511 30.096 441.252 30.096C440.42 30.096 439.668 30.2827 438.996 30.656C438.324 31.0293 437.796 31.5467 437.412 32.208C437.039 32.8587 436.852 33.5893 436.852 34.4C436.852 35.2107 437.039 35.9467 437.412 36.608C437.796 37.2587 438.324 37.7707 438.996 38.144C439.668 38.5173 440.42 38.704 441.252 38.704C442.5 38.704 443.551 38.256 444.404 37.36L445.444 38.368C444.932 38.944 444.308 39.3813 443.572 39.68C442.847 39.9787 442.047 40.128 441.172 40.128ZM450.776 40.096C449.933 40.096 449.176 39.9093 448.504 39.536C447.832 39.1627 447.304 38.6507 446.92 38C446.546 37.3387 446.36 36.592 446.36 35.76C446.36 34.928 446.546 34.1867 446.92 33.536C447.304 32.8747 447.832 32.3627 448.504 32C449.176 31.6267 449.933 31.44 450.776 31.44C451.618 31.44 452.37 31.6267 453.032 32C453.704 32.3627 454.226 32.8747 454.6 33.536C454.984 34.1867 455.176 34.928 455.176 35.76C455.176 36.592 454.984 37.3387 454.6 38C454.226 38.6507 453.704 39.1627 453.032 39.536C452.37 39.9093 451.618 40.096 450.776 40.096ZM450.776 38.752C451.32 38.752 451.805 38.6293 452.232 38.384C452.669 38.128 453.01 37.776 453.256 37.328C453.501 36.8693 453.624 36.3467 453.624 35.76C453.624 35.1733 453.501 34.656 453.256 34.208C453.01 33.7493 452.669 33.3973 452.232 33.152C451.805 32.9067 451.32 32.784 450.776 32.784C450.232 32.784 449.741 32.9067 449.304 33.152C448.877 33.3973 448.536 33.7493 448.28 34.208C448.034 34.656 447.912 35.1733 447.912 35.76C447.912 36.3467 448.034 36.8693 448.28 37.328C448.536 37.776 448.877 38.128 449.304 38.384C449.741 38.6293 450.232 38.752 450.776 38.752ZM467.908 31.44C468.974 31.44 469.817 31.7493 470.436 32.368C471.065 32.9867 471.38 33.904 471.38 35.12V40H469.844V35.296C469.844 34.4747 469.652 33.856 469.268 33.44C468.894 33.024 468.356 32.816 467.652 32.816C466.873 32.816 466.254 33.0613 465.796 33.552C465.337 34.032 465.108 34.7253 465.108 35.632V40H463.572V35.296C463.572 34.4747 463.38 33.856 462.996 33.44C462.622 33.024 462.084 32.816 461.38 32.816C460.601 32.816 459.982 33.0613 459.524 33.552C459.065 34.032 458.836 34.7253 458.836 35.632V40H457.3V31.52H458.772V32.784C459.081 32.3467 459.486 32.016 459.988 31.792C460.489 31.5573 461.06 31.44 461.7 31.44C462.361 31.44 462.948 31.5733 463.46 31.84C463.972 32.1067 464.366 32.496 464.644 33.008C464.964 32.5173 465.406 32.1333 465.972 31.856C466.548 31.5787 467.193 31.44 467.908 31.44ZM478.702 31.44C479.523 31.44 480.259 31.6213 480.91 31.984C481.561 32.3467 482.067 32.8533 482.43 33.504C482.803 34.1547 482.99 34.9067 482.99 35.76C482.99 36.6133 482.803 37.3707 482.43 38.032C482.067 38.6827 481.561 39.1893 480.91 39.552C480.259 39.9147 479.523 40.096 478.702 40.096C478.094 40.096 477.534 39.9787 477.022 39.744C476.521 39.5093 476.094 39.168 475.742 38.72V43.104H474.206V31.52H475.678V32.864C476.019 32.3947 476.451 32.0427 476.974 31.808C477.497 31.5627 478.073 31.44 478.702 31.44ZM478.574 38.752C479.118 38.752 479.603 38.6293 480.03 38.384C480.467 38.128 480.809 37.776 481.054 37.328C481.31 36.8693 481.438 36.3467 481.438 35.76C481.438 35.1733 481.31 34.656 481.054 34.208C480.809 33.7493 480.467 33.3973 480.03 33.152C479.603 32.9067 479.118 32.784 478.574 32.784C478.041 32.784 477.555 32.912 477.118 33.168C476.691 33.4133 476.35 33.76 476.094 34.208C475.849 34.656 475.726 35.1733 475.726 35.76C475.726 36.3467 475.849 36.8693 476.094 37.328C476.339 37.776 476.681 38.128 477.118 38.384C477.555 38.6293 478.041 38.752 478.574 38.752ZM485.112 28.128H486.648V40H485.112V28.128ZM497.245 35.808C497.245 35.9253 497.234 36.08 497.213 36.272H490.333C490.429 37.0187 490.754 37.6213 491.309 38.08C491.874 38.528 492.573 38.752 493.405 38.752C494.418 38.752 495.234 38.4107 495.853 37.728L496.701 38.72C496.317 39.168 495.837 39.5093 495.261 39.744C494.696 39.9787 494.061 40.096 493.357 40.096C492.461 40.096 491.666 39.9147 490.973 39.552C490.28 39.1787 489.741 38.6613 489.357 38C488.984 37.3387 488.797 36.592 488.797 35.76C488.797 34.9387 488.978 34.1973 489.341 33.536C489.714 32.8747 490.221 32.3627 490.861 32C491.512 31.6267 492.242 31.44 493.053 31.44C493.864 31.44 494.584 31.6267 495.213 32C495.853 32.3627 496.349 32.8747 496.701 33.536C497.064 34.1973 497.245 34.9547 497.245 35.808ZM493.053 32.736C492.317 32.736 491.698 32.96 491.197 33.408C490.706 33.856 490.418 34.4427 490.333 35.168H495.773C495.688 34.4533 495.394 33.872 494.893 33.424C494.402 32.9653 493.789 32.736 493.053 32.736ZM504.146 39.504C503.922 39.696 503.645 39.8453 503.314 39.952C502.983 40.048 502.642 40.096 502.29 40.096C501.437 40.096 500.775 39.8667 500.306 39.408C499.837 38.9493 499.602 38.2933 499.602 37.44V32.784H498.162V31.52H499.602V29.664H501.138V31.52H503.57V32.784H501.138V37.376C501.138 37.8347 501.25 38.1867 501.474 38.432C501.709 38.6773 502.039 38.8 502.466 38.8C502.935 38.8 503.335 38.6667 503.666 38.4L504.146 39.504ZM513.386 35.808C513.386 35.9253 513.375 36.08 513.354 36.272H506.474C506.57 37.0187 506.895 37.6213 507.45 38.08C508.015 38.528 508.714 38.752 509.546 38.752C510.559 38.752 511.375 38.4107 511.994 37.728L512.842 38.72C512.458 39.168 511.978 39.5093 511.402 39.744C510.836 39.9787 510.202 40.096 509.498 40.096C508.602 40.096 507.807 39.9147 507.114 39.552C506.42 39.1787 505.882 38.6613 505.498 38C505.124 37.3387 504.938 36.592 504.938 35.76C504.938 34.9387 505.119 34.1973 505.482 33.536C505.855 32.8747 506.362 32.3627 507.002 32C507.652 31.6267 508.383 31.44 509.194 31.44C510.004 31.44 510.724 31.6267 511.354 32C511.994 32.3627 512.49 32.8747 512.842 33.536C513.204 34.1973 513.386 34.9547 513.386 35.808ZM509.194 32.736C508.458 32.736 507.839 32.96 507.338 33.408C506.847 33.856 506.559 34.4427 506.474 35.168H511.914C511.828 34.4533 511.535 33.872 511.034 33.424C510.543 32.9653 509.93 32.736 509.194 32.736ZM520.183 33.632C519.885 33.632 519.629 33.5307 519.415 33.328C519.202 33.1147 519.095 32.848 519.095 32.528C519.095 32.2187 519.202 31.9627 519.415 31.76C519.629 31.5467 519.885 31.44 520.183 31.44C520.482 31.44 520.733 31.5413 520.935 31.744C521.138 31.9467 521.239 32.208 521.239 32.528C521.239 32.848 521.133 33.1147 520.919 33.328C520.717 33.5307 520.471 33.632 520.183 33.632ZM520.183 40.096C519.885 40.096 519.629 39.9947 519.415 39.792C519.202 39.5787 519.095 39.312 519.095 38.992C519.095 38.6827 519.202 38.4267 519.415 38.224C519.629 38.0107 519.885 37.904 520.183 37.904C520.482 37.904 520.733 38.0053 520.935 38.208C521.138 38.4107 521.239 38.672 521.239 38.992C521.239 39.312 521.133 39.5787 520.919 39.792C520.717 39.9947 520.471 40.096 520.183 40.096ZM532.329 28.8C533.78 28.8 534.921 29.1467 535.753 29.84C536.585 30.5333 537.001 31.488 537.001 32.704C537.001 33.92 536.585 34.8747 535.753 35.568C534.921 36.2613 533.78 36.608 532.329 36.608H529.561V40H527.961V28.8H532.329ZM532.281 35.216C533.295 35.216 534.068 35.0027 534.601 34.576C535.135 34.1387 535.401 33.5147 535.401 32.704C535.401 31.8933 535.135 31.2747 534.601 30.848C534.068 30.4107 533.295 30.192 532.281 30.192H529.561V35.216H532.281ZM543.812 31.44C544.889 31.44 545.743 31.7547 546.372 32.384C547.012 33.0027 547.332 33.9147 547.332 35.12V40H545.796V35.296C545.796 34.4747 545.599 33.856 545.204 33.44C544.809 33.024 544.244 32.816 543.508 32.816C542.676 32.816 542.02 33.0613 541.54 33.552C541.06 34.032 540.82 34.7253 540.82 35.632V40H539.284V28.128H540.82V32.72C541.14 32.3147 541.556 32 542.068 31.776C542.591 31.552 543.172 31.44 543.812 31.44ZM553.263 31.44C554.436 31.44 555.332 31.728 555.951 32.304C556.58 32.88 556.895 33.7387 556.895 34.88V40H555.439V38.88C555.183 39.2747 554.815 39.5787 554.335 39.792C553.865 39.9947 553.305 40.096 552.655 40.096C551.705 40.096 550.943 39.8667 550.367 39.408C549.801 38.9493 549.519 38.3467 549.519 37.6C549.519 36.8533 549.791 36.256 550.335 35.808C550.879 35.3493 551.743 35.12 552.927 35.12H555.359V34.816C555.359 34.1547 555.167 33.648 554.783 33.296C554.399 32.944 553.833 32.768 553.087 32.768C552.585 32.768 552.095 32.8533 551.615 33.024C551.135 33.184 550.729 33.4027 550.399 33.68L549.759 32.528C550.196 32.176 550.719 31.9093 551.327 31.728C551.935 31.536 552.58 31.44 553.263 31.44ZM552.911 38.912C553.497 38.912 554.004 38.784 554.431 38.528C554.857 38.2613 555.167 37.888 555.359 37.408V36.224H552.991C551.689 36.224 551.039 36.6613 551.039 37.536C551.039 37.9627 551.204 38.2987 551.535 38.544C551.865 38.7893 552.324 38.912 552.911 38.912ZM562.169 40.096C561.476 40.096 560.809 40.0053 560.169 39.824C559.529 39.632 559.028 39.392 558.665 39.104L559.305 37.888C559.679 38.1547 560.132 38.368 560.665 38.528C561.199 38.688 561.737 38.768 562.281 38.768C563.625 38.768 564.297 38.384 564.297 37.616C564.297 37.36 564.207 37.1573 564.025 37.008C563.844 36.8587 563.615 36.752 563.337 36.688C563.071 36.6133 562.687 36.5333 562.185 36.448C561.503 36.3413 560.943 36.2187 560.505 36.08C560.079 35.9413 559.711 35.7067 559.401 35.376C559.092 35.0453 558.937 34.5813 558.937 33.984C558.937 33.216 559.257 32.6027 559.897 32.144C560.537 31.6747 561.396 31.44 562.473 31.44C563.039 31.44 563.604 31.5093 564.169 31.648C564.735 31.7867 565.199 31.9733 565.561 32.208L564.905 33.424C564.212 32.976 563.396 32.752 562.457 32.752C561.807 32.752 561.311 32.8587 560.969 33.072C560.628 33.2853 560.457 33.568 560.457 33.92C560.457 34.1973 560.553 34.416 560.745 34.576C560.937 34.736 561.172 34.8533 561.449 34.928C561.737 35.0027 562.137 35.088 562.649 35.184C563.332 35.3013 563.881 35.4293 564.297 35.568C564.724 35.696 565.087 35.92 565.385 36.24C565.684 36.56 565.833 37.008 565.833 37.584C565.833 38.352 565.503 38.9653 564.841 39.424C564.191 39.872 563.3 40.096 562.169 40.096ZM575.417 35.808C575.417 35.9253 575.406 36.08 575.385 36.272H568.505C568.601 37.0187 568.926 37.6213 569.481 38.08C570.046 38.528 570.745 38.752 571.577 38.752C572.59 38.752 573.406 38.4107 574.025 37.728L574.873 38.72C574.489 39.168 574.009 39.5093 573.433 39.744C572.868 39.9787 572.233 40.096 571.529 40.096C570.633 40.096 569.838 39.9147 569.145 39.552C568.452 39.1787 567.913 38.6613 567.529 38C567.156 37.3387 566.969 36.592 566.969 35.76C566.969 34.9387 567.15 34.1973 567.513 33.536C567.886 32.8747 568.393 32.3627 569.033 32C569.684 31.6267 570.414 31.44 571.225 31.44C572.036 31.44 572.756 31.6267 573.385 32C574.025 32.3627 574.521 32.8747 574.873 33.536C575.236 34.1973 575.417 34.9547 575.417 35.808ZM571.225 32.736C570.489 32.736 569.87 32.96 569.369 33.408C568.878 33.856 568.59 34.4427 568.505 35.168H573.945C573.86 34.4533 573.566 33.872 573.065 33.424C572.574 32.9653 571.961 32.736 571.225 32.736ZM589.031 38.608V40H580.983V38.912L585.543 34.512C586.097 33.9787 586.471 33.52 586.663 33.136C586.855 32.7413 586.951 32.3467 586.951 31.952C586.951 31.3653 586.743 30.912 586.327 30.592C585.921 30.2613 585.335 30.096 584.567 30.096C583.329 30.096 582.375 30.5013 581.703 31.312L580.615 30.368C581.052 29.8347 581.623 29.4187 582.327 29.12C583.041 28.8213 583.836 28.672 584.711 28.672C585.884 28.672 586.817 28.9547 587.511 29.52C588.204 30.0747 588.551 30.832 588.551 31.792C588.551 32.3893 588.423 32.9547 588.167 33.488C587.911 34.0213 587.425 34.6293 586.711 35.312L583.287 38.608H589.031ZM594.787 34.944H599.091V36.272H594.787V34.944ZM617.513 41.024C617.15 41.4507 616.729 41.776 616.249 42C615.769 42.224 615.252 42.336 614.697 42.336C613.993 42.336 613.332 42.1653 612.713 41.824C612.105 41.4933 611.406 40.9227 610.617 40.112C609.561 40.0587 608.606 39.776 607.753 39.264C606.91 38.752 606.249 38.0747 605.769 37.232C605.3 36.3787 605.065 35.4347 605.065 34.4C605.065 33.3227 605.321 32.3467 605.833 31.472C606.356 30.5973 607.07 29.9147 607.977 29.424C608.884 28.9227 609.902 28.672 611.033 28.672C612.153 28.672 613.166 28.9227 614.073 29.424C614.98 29.9147 615.689 30.5973 616.201 31.472C616.713 32.336 616.969 33.312 616.969 34.4C616.969 35.3173 616.782 36.16 616.409 36.928C616.046 37.696 615.529 38.3413 614.857 38.864C614.196 39.3867 613.433 39.7493 612.569 39.952C612.942 40.3467 613.3 40.6293 613.641 40.8C613.993 40.9813 614.35 41.072 614.713 41.072C615.502 41.072 616.185 40.752 616.761 40.112L617.513 41.024ZM606.665 34.4C606.665 35.2107 606.852 35.9467 607.225 36.608C607.609 37.2587 608.132 37.7707 608.793 38.144C609.465 38.5173 610.212 38.704 611.033 38.704C611.844 38.704 612.58 38.5173 613.241 38.144C613.902 37.7707 614.42 37.2587 614.793 36.608C615.177 35.9467 615.369 35.2107 615.369 34.4C615.369 33.5893 615.177 32.8587 614.793 32.208C614.42 31.5467 613.902 31.0293 613.241 30.656C612.58 30.2827 611.844 30.096 611.033 30.096C610.212 30.096 609.465 30.2827 608.793 30.656C608.132 31.0293 607.609 31.5467 607.225 32.208C606.852 32.8587 606.665 33.5893 606.665 34.4ZM626.218 38.608V40H618.17V38.912L622.73 34.512C623.285 33.9787 623.658 33.52 623.85 33.136C624.042 32.7413 624.138 32.3467 624.138 31.952C624.138 31.3653 623.93 30.912 623.514 30.592C623.109 30.2613 622.522 30.096 621.754 30.096C620.517 30.096 619.562 30.5013 618.89 31.312L617.802 30.368C618.239 29.8347 618.81 29.4187 619.514 29.12C620.229 28.8213 621.023 28.672 621.898 28.672C623.071 28.672 624.005 28.9547 624.698 29.52C625.391 30.0747 625.738 30.832 625.738 31.792C625.738 32.3893 625.61 32.9547 625.354 33.488C625.098 34.0213 624.613 34.6293 623.898 35.312L620.474 38.608H626.218ZM639.703 38.608V40H631.655V38.912L636.215 34.512C636.769 33.9787 637.143 33.52 637.335 33.136C637.527 32.7413 637.623 32.3467 637.623 31.952C637.623 31.3653 637.415 30.912 636.999 30.592C636.593 30.2613 636.007 30.096 635.239 30.096C634.001 30.096 633.047 30.5013 632.375 31.312L631.287 30.368C631.724 29.8347 632.295 29.4187 632.999 29.12C633.713 28.8213 634.508 28.672 635.383 28.672C636.556 28.672 637.489 28.9547 638.183 29.52C638.876 30.0747 639.223 30.832 639.223 31.792C639.223 32.3893 639.095 32.9547 638.839 33.488C638.583 34.0213 638.097 34.6293 637.383 35.312L633.959 38.608H639.703ZM645.547 40.128C644.662 40.128 643.872 39.904 643.179 39.456C642.496 38.9973 641.958 38.336 641.563 37.472C641.168 36.608 640.971 35.584 640.971 34.4C640.971 33.216 641.168 32.192 641.563 31.328C641.958 30.464 642.496 29.808 643.179 29.36C643.872 28.9013 644.662 28.672 645.547 28.672C646.422 28.672 647.2 28.9013 647.883 29.36C648.576 29.808 649.12 30.464 649.515 31.328C649.91 32.192 650.107 33.216 650.107 34.4C650.107 35.584 649.91 36.608 649.515 37.472C649.12 38.336 648.576 38.9973 647.883 39.456C647.2 39.904 646.422 40.128 645.547 40.128ZM645.547 38.704C646.443 38.704 647.158 38.336 647.691 37.6C648.235 36.864 648.507 35.7973 648.507 34.4C648.507 33.0027 648.235 31.936 647.691 31.2C647.158 30.464 646.443 30.096 645.547 30.096C644.64 30.096 643.915 30.464 643.371 31.2C642.838 31.936 642.571 33.0027 642.571 34.4C642.571 35.7973 642.838 36.864 643.371 37.6C643.915 38.336 644.64 38.704 645.547 38.704ZM659.468 38.608V40H651.42V38.912L655.98 34.512C656.535 33.9787 656.908 33.52 657.1 33.136C657.292 32.7413 657.388 32.3467 657.388 31.952C657.388 31.3653 657.18 30.912 656.764 30.592C656.359 30.2613 655.772 30.096 655.004 30.096C653.767 30.096 652.812 30.5013 652.14 31.312L651.052 30.368C651.489 29.8347 652.06 29.4187 652.764 29.12C653.479 28.8213 654.273 28.672 655.148 28.672C656.321 28.672 657.255 28.9547 657.948 29.52C658.641 30.0747 658.988 30.832 658.988 31.792C658.988 32.3893 658.86 32.9547 658.604 33.488C658.348 34.0213 657.863 34.6293 657.148 35.312L653.724 38.608H659.468ZM670.231 37.248H668.103V40H666.551V37.248H660.327V36.128L666.055 28.8H667.783L662.295 35.872H666.599V33.44H668.103V35.872H670.231V37.248ZM676.543 33.632C676.244 33.632 675.988 33.5307 675.775 33.328C675.561 33.1147 675.455 32.848 675.455 32.528C675.455 32.2187 675.561 31.9627 675.775 31.76C675.988 31.5467 676.244 31.44 676.543 31.44C676.841 31.44 677.092 31.5413 677.295 31.744C677.497 31.9467 677.599 32.208 677.599 32.528C677.599 32.848 677.492 33.1147 677.279 33.328C677.076 33.5307 676.831 33.632 676.543 33.632ZM676.543 40.096C676.244 40.096 675.988 39.9947 675.775 39.792C675.561 39.5787 675.455 39.312 675.455 38.992C675.455 38.6827 675.561 38.4267 675.775 38.224C675.988 38.0107 676.244 37.904 676.543 37.904C676.841 37.904 677.092 38.0053 677.295 38.208C677.497 38.4107 677.599 38.672 677.599 38.992C677.599 39.312 677.492 39.5787 677.279 39.792C677.076 39.9947 676.831 40.096 676.543 40.096ZM688.689 28.8C690.139 28.8 691.281 29.1467 692.113 29.84C692.945 30.5333 693.361 31.488 693.361 32.704C693.361 33.92 692.945 34.8747 692.113 35.568C691.281 36.2613 690.139 36.608 688.689 36.608H685.921V40H684.321V28.8H688.689ZM688.641 35.216C689.654 35.216 690.427 35.0027 690.961 34.576C691.494 34.1387 691.761 33.5147 691.761 32.704C691.761 31.8933 691.494 31.2747 690.961 30.848C690.427 30.4107 689.654 30.192 688.641 30.192H685.921V35.216H688.641ZM700.172 31.44C701.249 31.44 702.102 31.7547 702.732 32.384C703.372 33.0027 703.692 33.9147 703.692 35.12V40H702.156V35.296C702.156 34.4747 701.958 33.856 701.564 33.44C701.169 33.024 700.604 32.816 699.868 32.816C699.036 32.816 698.38 33.0613 697.9 33.552C697.42 34.032 697.18 34.7253 697.18 35.632V40H695.644V28.128H697.18V32.72C697.5 32.3147 697.916 32 698.428 31.776C698.95 31.552 699.532 31.44 700.172 31.44ZM709.622 31.44C710.795 31.44 711.691 31.728 712.31 32.304C712.939 32.88 713.254 33.7387 713.254 34.88V40H711.798V38.88C711.542 39.2747 711.174 39.5787 710.694 39.792C710.225 39.9947 709.665 40.096 709.014 40.096C708.065 40.096 707.302 39.8667 706.726 39.408C706.161 38.9493 705.878 38.3467 705.878 37.6C705.878 36.8533 706.15 36.256 706.694 35.808C707.238 35.3493 708.102 35.12 709.286 35.12H711.718V34.816C711.718 34.1547 711.526 33.648 711.142 33.296C710.758 32.944 710.193 32.768 709.446 32.768C708.945 32.768 708.454 32.8533 707.974 33.024C707.494 33.184 707.089 33.4027 706.758 33.68L706.118 32.528C706.555 32.176 707.078 31.9093 707.686 31.728C708.294 31.536 708.939 31.44 709.622 31.44ZM709.27 38.912C709.857 38.912 710.363 38.784 710.79 38.528C711.217 38.2613 711.526 37.888 711.718 37.408V36.224H709.35C708.049 36.224 707.398 36.6613 707.398 37.536C707.398 37.9627 707.563 38.2987 707.894 38.544C708.225 38.7893 708.683 38.912 709.27 38.912ZM718.529 40.096C717.835 40.096 717.169 40.0053 716.529 39.824C715.889 39.632 715.387 39.392 715.025 39.104L715.665 37.888C716.038 38.1547 716.491 38.368 717.025 38.528C717.558 38.688 718.097 38.768 718.641 38.768C719.985 38.768 720.657 38.384 720.657 37.616C720.657 37.36 720.566 37.1573 720.385 37.008C720.203 36.8587 719.974 36.752 719.697 36.688C719.43 36.6133 719.046 36.5333 718.545 36.448C717.862 36.3413 717.302 36.2187 716.865 36.08C716.438 35.9413 716.07 35.7067 715.761 35.376C715.451 35.0453 715.297 34.5813 715.297 33.984C715.297 33.216 715.617 32.6027 716.257 32.144C716.897 31.6747 717.755 31.44 718.833 31.44C719.398 31.44 719.963 31.5093 720.529 31.648C721.094 31.7867 721.558 31.9733 721.921 32.208L721.265 33.424C720.571 32.976 719.755 32.752 718.817 32.752C718.166 32.752 717.67 32.8587 717.329 33.072C716.987 33.2853 716.817 33.568 716.817 33.92C716.817 34.1973 716.913 34.416 717.105 34.576C717.297 34.736 717.531 34.8533 717.809 34.928C718.097 35.0027 718.497 35.088 719.009 35.184C719.691 35.3013 720.241 35.4293 720.657 35.568C721.083 35.696 721.446 35.92 721.745 36.24C722.043 36.56 722.193 37.008 722.193 37.584C722.193 38.352 721.862 38.9653 721.201 39.424C720.55 39.872 719.659 40.096 718.529 40.096ZM731.776 35.808C731.776 35.9253 731.766 36.08 731.744 36.272H724.864C724.96 37.0187 725.286 37.6213 725.84 38.08C726.406 38.528 727.104 38.752 727.936 38.752C728.95 38.752 729.766 38.4107 730.384 37.728L731.232 38.72C730.848 39.168 730.368 39.5093 729.792 39.744C729.227 39.9787 728.592 40.096 727.888 40.096C726.992 40.096 726.198 39.9147 725.504 39.552C724.811 39.1787 724.272 38.6613 723.888 38C723.515 37.3387 723.328 36.592 723.328 35.76C723.328 34.9387 723.51 34.1973 723.872 33.536C724.246 32.8747 724.752 32.3627 725.392 32C726.043 31.6267 726.774 31.44 727.584 31.44C728.395 31.44 729.115 31.6267 729.744 32C730.384 32.3627 730.88 32.8747 731.232 33.536C731.595 34.1973 731.776 34.9547 731.776 35.808ZM727.584 32.736C726.848 32.736 726.23 32.96 725.728 33.408C725.238 33.856 724.95 34.4427 724.864 35.168H730.304C730.219 34.4533 729.926 33.872 729.424 33.424C728.934 32.9653 728.32 32.736 727.584 32.736ZM741.806 33.504C742.905 33.6107 743.742 33.952 744.318 34.528C744.894 35.0933 745.182 35.8187 745.182 36.704C745.182 37.344 745.022 37.9253 744.702 38.448C744.382 38.96 743.902 39.3707 743.262 39.68C742.633 39.9787 741.859 40.128 740.942 40.128C740.142 40.128 739.374 40.0107 738.638 39.776C737.902 39.5307 737.299 39.1947 736.83 38.768L737.566 37.504C737.95 37.8667 738.441 38.16 739.038 38.384C739.635 38.5973 740.27 38.704 740.942 38.704C741.774 38.704 742.419 38.528 742.878 38.176C743.347 37.824 743.582 37.3387 743.582 36.72C743.582 36.1013 743.353 35.6213 742.894 35.28C742.435 34.9387 741.742 34.768 740.814 34.768H739.918V33.648L742.734 30.192H737.342V28.8H744.734V29.888L741.806 33.504ZM751.115 34.944H755.419V36.272H751.115V34.944ZM765.681 33.504C766.78 33.6107 767.617 33.952 768.193 34.528C768.769 35.0933 769.057 35.8187 769.057 36.704C769.057 37.344 768.897 37.9253 768.577 38.448C768.257 38.96 767.777 39.3707 767.137 39.68C766.508 39.9787 765.734 40.128 764.817 40.128C764.017 40.128 763.249 40.0107 762.513 39.776C761.777 39.5307 761.174 39.1947 760.705 38.768L761.441 37.504C761.825 37.8667 762.316 38.16 762.913 38.384C763.51 38.5973 764.145 38.704 764.817 38.704C765.649 38.704 766.294 38.528 766.753 38.176C767.222 37.824 767.457 37.3387 767.457 36.72C767.457 36.1013 767.228 35.6213 766.769 35.28C766.31 34.9387 765.617 34.768 764.689 34.768H763.793V33.648L766.609 30.192H761.217V28.8H768.609V29.888L765.681 33.504ZM786.142 31.44C787.209 31.44 788.051 31.7493 788.67 32.368C789.299 32.9867 789.614 33.904 789.614 35.12V40H788.078V35.296C788.078 34.4747 787.886 33.856 787.502 33.44C787.129 33.024 786.59 32.816 785.886 32.816C785.107 32.816 784.489 33.0613 784.03 33.552C783.571 34.032 783.342 34.7253 783.342 35.632V40H781.806V35.296C781.806 34.4747 781.614 33.856 781.23 33.44C780.857 33.024 780.318 32.816 779.614 32.816C778.835 32.816 778.217 33.0613 777.758 33.552C777.299 34.032 777.07 34.7253 777.07 35.632V40H775.534V31.52H777.006V32.784C777.315 32.3467 777.721 32.016 778.222 31.792C778.723 31.5573 779.294 31.44 779.934 31.44C780.595 31.44 781.182 31.5733 781.694 31.84C782.206 32.1067 782.601 32.496 782.878 33.008C783.198 32.5173 783.641 32.1333 784.206 31.856C784.782 31.5787 785.427 31.44 786.142 31.44ZM796.119 40.096C795.277 40.096 794.519 39.9093 793.847 39.536C793.175 39.1627 792.647 38.6507 792.263 38C791.89 37.3387 791.703 36.592 791.703 35.76C791.703 34.928 791.89 34.1867 792.263 33.536C792.647 32.8747 793.175 32.3627 793.847 32C794.519 31.6267 795.277 31.44 796.119 31.44C796.962 31.44 797.714 31.6267 798.375 32C799.047 32.3627 799.57 32.8747 799.943 33.536C800.327 34.1867 800.519 34.928 800.519 35.76C800.519 36.592 800.327 37.3387 799.943 38C799.57 38.6507 799.047 39.1627 798.375 39.536C797.714 39.9093 796.962 40.096 796.119 40.096ZM796.119 38.752C796.663 38.752 797.149 38.6293 797.575 38.384C798.013 38.128 798.354 37.776 798.599 37.328C798.845 36.8693 798.967 36.3467 798.967 35.76C798.967 35.1733 798.845 34.656 798.599 34.208C798.354 33.7493 798.013 33.3973 797.575 33.152C797.149 32.9067 796.663 32.784 796.119 32.784C795.575 32.784 795.085 32.9067 794.647 33.152C794.221 33.3973 793.879 33.7493 793.623 34.208C793.378 34.656 793.255 35.1733 793.255 35.76C793.255 36.3467 793.378 36.8693 793.623 37.328C793.879 37.776 794.221 38.128 794.647 38.384C795.085 38.6293 795.575 38.752 796.119 38.752ZM807.172 31.44C808.249 31.44 809.102 31.7547 809.732 32.384C810.372 33.0027 810.692 33.9147 810.692 35.12V40H809.156V35.296C809.156 34.4747 808.958 33.856 808.564 33.44C808.169 33.024 807.604 32.816 806.868 32.816C806.036 32.816 805.38 33.0613 804.9 33.552C804.42 34.032 804.18 34.7253 804.18 35.632V40H802.644V31.52H804.116V32.8C804.425 32.3627 804.841 32.0267 805.364 31.792C805.897 31.5573 806.5 31.44 807.172 31.44ZM818.302 39.504C818.078 39.696 817.801 39.8453 817.47 39.952C817.139 40.048 816.798 40.096 816.446 40.096C815.593 40.096 814.931 39.8667 814.462 39.408C813.993 38.9493 813.758 38.2933 813.758 37.44V32.784H812.318V31.52H813.758V29.664H815.294V31.52H817.726V32.784H815.294V37.376C815.294 37.8347 815.406 38.1867 815.63 38.432C815.865 38.6773 816.195 38.8 816.622 38.8C817.091 38.8 817.491 38.6667 817.822 38.4L818.302 39.504ZM824.687 31.44C825.764 31.44 826.618 31.7547 827.247 32.384C827.887 33.0027 828.207 33.9147 828.207 35.12V40H826.671V35.296C826.671 34.4747 826.474 33.856 826.079 33.44C825.684 33.024 825.119 32.816 824.383 32.816C823.551 32.816 822.895 33.0613 822.415 33.552C821.935 34.032 821.695 34.7253 821.695 35.632V40H820.159V28.128H821.695V32.72C822.015 32.3147 822.431 32 822.943 31.776C823.466 31.552 824.047 31.44 824.687 31.44ZM838.451 29.296C837.533 29.296 837.075 29.792 837.075 30.784V31.52H839.539V32.784H837.107V40H835.571V32.784H834.131V31.52H835.571V30.768C835.571 29.9253 835.816 29.2587 836.307 28.768C836.797 28.2773 837.485 28.032 838.371 28.032C838.712 28.032 839.032 28.0747 839.331 28.16C839.629 28.2453 839.885 28.368 840.099 28.528L839.635 29.696C839.283 29.4293 838.888 29.296 838.451 29.296ZM844.494 40.096C843.652 40.096 842.894 39.9093 842.222 39.536C841.55 39.1627 841.022 38.6507 840.638 38C840.265 37.3387 840.078 36.592 840.078 35.76C840.078 34.928 840.265 34.1867 840.638 33.536C841.022 32.8747 841.55 32.3627 842.222 32C842.894 31.6267 843.652 31.44 844.494 31.44C845.337 31.44 846.089 31.6267 846.75 32C847.422 32.3627 847.945 32.8747 848.318 33.536C848.702 34.1867 848.894 34.928 848.894 35.76C848.894 36.592 848.702 37.3387 848.318 38C847.945 38.6507 847.422 39.1627 846.75 39.536C846.089 39.9093 845.337 40.096 844.494 40.096ZM844.494 38.752C845.038 38.752 845.524 38.6293 845.95 38.384C846.388 38.128 846.729 37.776 846.974 37.328C847.22 36.8693 847.342 36.3467 847.342 35.76C847.342 35.1733 847.22 34.656 846.974 34.208C846.729 33.7493 846.388 33.3973 845.95 33.152C845.524 32.9067 845.038 32.784 844.494 32.784C843.95 32.784 843.46 32.9067 843.022 33.152C842.596 33.3973 842.254 33.7493 841.998 34.208C841.753 34.656 841.63 35.1733 841.63 35.76C841.63 36.3467 841.753 36.8693 841.998 37.328C842.254 37.776 842.596 38.128 843.022 38.384C843.46 38.6293 843.95 38.752 844.494 38.752ZM852.491 32.944C852.757 32.4533 853.152 32.08 853.674 31.824C854.197 31.568 854.832 31.44 855.579 31.44V32.928C855.493 32.9173 855.376 32.912 855.227 32.912C854.395 32.912 853.739 33.1627 853.259 33.664C852.789 34.1547 852.555 34.8587 852.555 35.776V40H851.019V31.52H852.491V32.944ZM866.47 28.8C867.921 28.8 869.062 29.1467 869.894 29.84C870.726 30.5333 871.142 31.488 871.142 32.704C871.142 33.92 870.726 34.8747 869.894 35.568C869.062 36.2613 867.921 36.608 866.47 36.608H863.702V40H862.102V28.8H866.47ZM866.422 35.216C867.435 35.216 868.209 35.0027 868.742 34.576C869.275 34.1387 869.542 33.5147 869.542 32.704C869.542 31.8933 869.275 31.2747 868.742 30.848C868.209 30.4107 867.435 30.192 866.422 30.192H863.702V35.216H866.422ZM876.869 40.096C876.027 40.096 875.269 39.9093 874.597 39.536C873.925 39.1627 873.397 38.6507 873.013 38C872.64 37.3387 872.453 36.592 872.453 35.76C872.453 34.928 872.64 34.1867 873.013 33.536C873.397 32.8747 873.925 32.3627 874.597 32C875.269 31.6267 876.027 31.44 876.869 31.44C877.712 31.44 878.464 31.6267 879.125 32C879.797 32.3627 880.32 32.8747 880.693 33.536C881.077 34.1867 881.269 34.928 881.269 35.76C881.269 36.592 881.077 37.3387 880.693 38C880.32 38.6507 879.797 39.1627 879.125 39.536C878.464 39.9093 877.712 40.096 876.869 40.096ZM876.869 38.752C877.413 38.752 877.899 38.6293 878.325 38.384C878.763 38.128 879.104 37.776 879.349 37.328C879.595 36.8693 879.717 36.3467 879.717 35.76C879.717 35.1733 879.595 34.656 879.349 34.208C879.104 33.7493 878.763 33.3973 878.325 33.152C877.899 32.9067 877.413 32.784 876.869 32.784C876.325 32.784 875.835 32.9067 875.397 33.152C874.971 33.3973 874.629 33.7493 874.373 34.208C874.128 34.656 874.005 35.1733 874.005 35.76C874.005 36.3467 874.128 36.8693 874.373 37.328C874.629 37.776 874.971 38.128 875.397 38.384C875.835 38.6293 876.325 38.752 876.869 38.752ZM883.394 31.52H884.93V40H883.394V31.52ZM884.162 29.888C883.863 29.888 883.612 29.792 883.41 29.6C883.218 29.408 883.122 29.1733 883.122 28.896C883.122 28.6187 883.218 28.384 883.41 28.192C883.612 27.9893 883.863 27.888 884.162 27.888C884.46 27.888 884.706 27.984 884.898 28.176C885.1 28.3573 885.202 28.5867 885.202 28.864C885.202 29.152 885.1 29.3973 884.898 29.6C884.706 29.792 884.46 29.888 884.162 29.888ZM892.39 31.44C893.468 31.44 894.321 31.7547 894.95 32.384C895.59 33.0027 895.91 33.9147 895.91 35.12V40H894.374V35.296C894.374 34.4747 894.177 33.856 893.782 33.44C893.388 33.024 892.822 32.816 892.086 32.816C891.254 32.816 890.598 33.0613 890.118 33.552C889.638 34.032 889.398 34.7253 889.398 35.632V40H887.862V31.52H889.334V32.8C889.644 32.3627 890.06 32.0267 890.582 31.792C891.116 31.5573 891.718 31.44 892.39 31.44ZM903.521 39.504C903.297 39.696 903.02 39.8453 902.689 39.952C902.358 40.048 902.017 40.096 901.665 40.096C900.812 40.096 900.15 39.8667 899.681 39.408C899.212 38.9493 898.977 38.2933 898.977 37.44V32.784H897.537V31.52H898.977V29.664H900.513V31.52H902.945V32.784H900.513V37.376C900.513 37.8347 900.625 38.1867 900.849 38.432C901.084 38.6773 901.414 38.8 901.841 38.8C902.31 38.8 902.71 38.6667 903.041 38.4L903.521 39.504ZM907.81 40.096C907.117 40.096 906.45 40.0053 905.81 39.824C905.17 39.632 904.669 39.392 904.306 39.104L904.946 37.888C905.319 38.1547 905.773 38.368 906.306 38.528C906.839 38.688 907.378 38.768 907.922 38.768C909.266 38.768 909.938 38.384 909.938 37.616C909.938 37.36 909.847 37.1573 909.666 37.008C909.485 36.8587 909.255 36.752 908.978 36.688C908.711 36.6133 908.327 36.5333 907.826 36.448C907.143 36.3413 906.583 36.2187 906.146 36.08C905.719 35.9413 905.351 35.7067 905.042 35.376C904.733 35.0453 904.578 34.5813 904.578 33.984C904.578 33.216 904.898 32.6027 905.538 32.144C906.178 31.6747 907.037 31.44 908.114 31.44C908.679 31.44 909.245 31.5093 909.81 31.648C910.375 31.7867 910.839 31.9733 911.202 32.208L910.546 33.424C909.853 32.976 909.037 32.752 908.098 32.752C907.447 32.752 906.951 32.8587 906.61 33.072C906.269 33.2853 906.098 33.568 906.098 33.92C906.098 34.1973 906.194 34.416 906.386 34.576C906.578 34.736 906.813 34.8533 907.09 34.928C907.378 35.0027 907.778 35.088 908.29 35.184C908.973 35.3013 909.522 35.4293 909.938 35.568C910.365 35.696 910.727 35.92 911.026 36.24C911.325 36.56 911.474 37.008 911.474 37.584C911.474 38.352 911.143 38.9653 910.482 39.424C909.831 39.872 908.941 40.096 907.81 40.096ZM918.058 33.632C917.76 33.632 917.504 33.5307 917.29 33.328C917.077 33.1147 916.97 32.848 916.97 32.528C916.97 32.2187 917.077 31.9627 917.29 31.76C917.504 31.5467 917.76 31.44 918.058 31.44C918.357 31.44 918.608 31.5413 918.81 31.744C919.013 31.9467 919.114 32.208 919.114 32.528C919.114 32.848 919.008 33.1147 918.794 33.328C918.592 33.5307 918.346 33.632 918.058 33.632ZM918.074 37.904C918.373 37.904 918.618 38.0107 918.81 38.224C919.013 38.4267 919.114 38.6827 919.114 38.992C919.114 39.152 919.093 39.3067 919.05 39.456C919.018 39.6053 918.949 39.8347 918.842 40.144L918.09 42.368H917.082L917.674 39.984C917.472 39.9093 917.306 39.7867 917.178 39.616C917.061 39.4347 917.002 39.2267 917.002 38.992C917.002 38.672 917.104 38.4107 917.306 38.208C917.509 38.0053 917.765 37.904 918.074 37.904ZM920.371 43.104C921.011 41.984 921.481 40.8107 921.779 39.584C922.089 38.3573 922.243 37.0347 922.243 35.616C922.243 34.1973 922.089 32.8747 921.779 31.648C921.481 30.4213 921.011 29.248 920.371 28.128H921.827C922.446 29.088 922.921 30.208 923.251 31.488C923.582 32.768 923.747 34.144 923.747 35.616C923.747 37.0773 923.582 38.448 923.251 39.728C922.921 41.008 922.446 42.1333 921.827 43.104H920.371Z" fill="#F7F7F9"/>
    <defs>
        <linearGradient id="paint0_linear_66_1959" x1="459.5" y1="72.5" x2="809.5" y2="72.5" gradientUnits="userSpaceOnUse">
            <stop stop-color="#F7931A"/>
            <stop offset="0.385059" stop-color="white"/>
        </linearGradient>
    </defs>
</svg>
