<svg width="594" height="752" viewBox="0 0 594 752" fill="none"
    xmlns="http://www.w3.org/2000/svg">
    <g clip-path="url(#clip0_62_1878)">
        <path d="M517.206 109.887C487.364 110.067 462.577 131.657 456.944 160.236C467.14 153.416 479.333 149.433 492.446 149.354C504.527 149.282 515.866 152.541 525.621 158.264C528.346 155.455 532.142 153.706 536.325 153.68C544.695 153.63 551.521 160.47 551.572 168.955C551.596 172.98 550.092 176.651 547.613 179.406C554.303 189.741 558.212 202.091 558.292 215.366C558.512 252.035 529.394 281.936 493.243 282.153C479.574 282.236 466.86 278.056 456.32 270.849L456.982 381.216L532.037 380.765C566.201 380.56 593.719 352.288 593.511 317.639L592.261 109.437L517.206 109.887Z" fill="#E7E7E8"/>
        <path d="M547.613 179.41C544.868 182.471 540.912 184.396 536.509 184.423C528.15 184.473 521.324 177.633 521.273 169.137C521.247 164.9 522.904 161.061 525.618 158.264C534.473 163.483 542.012 170.739 547.609 179.406L547.613 179.41Z" fill="#E7E7E8"/>
        <g filter="url(#filter0_d_62_1878)">
            <path d="M532.974 215.448C533.109 237.936 515.259 256.272 493.085 256.406C476.561 256.505 462.315 246.456 456.083 232.015C453.949 227.093 452.753 221.649 452.718 215.926C452.684 210.204 453.815 204.75 455.89 199.798C461.947 185.287 476.072 175.064 492.596 174.965C514.77 174.832 532.839 192.957 532.974 215.441L532.974 215.448Z" fill="white"/>
        </g>
    </g>
    <g opacity="0.05">
        <g clip-path="url(#clip1_62_1878)">
            <path d="M365.971 290.285C336.13 290.464 311.342 312.054 305.709 340.633C315.905 333.814 328.098 329.83 341.211 329.752C353.292 329.679 364.632 332.938 374.387 338.661C377.111 335.853 380.907 334.103 385.09 334.078C393.46 334.028 400.287 340.868 400.338 349.353C400.362 353.378 398.858 357.048 396.378 359.804C403.068 370.139 406.978 382.489 407.058 395.764C407.278 432.433 378.16 462.334 342.009 462.551C328.339 462.633 315.625 458.454 305.085 451.246L305.748 561.613L380.803 561.163C414.967 560.957 442.485 532.685 442.276 498.036L441.026 289.834L365.971 290.285Z" fill="white"/>
            <path d="M396.378 359.807C393.633 362.869 389.678 364.794 385.275 364.82C376.916 364.87 370.089 358.03 370.038 349.534C370.013 345.297 371.67 341.459 374.383 338.661C383.239 343.881 390.778 351.136 396.374 359.803L396.378 359.807Z" fill="white"/>
            <g filter="url(#filter1_d_62_1878)">
                <path d="M381.739 395.846C381.874 418.333 364.025 436.67 341.85 436.803C325.327 436.902 311.08 426.854 304.849 412.412C302.715 407.49 301.518 402.046 301.484 396.324C301.449 390.602 302.581 385.147 304.655 380.196C310.713 365.684 324.838 355.462 341.361 355.363C363.536 355.229 381.604 373.354 381.739 395.838L381.739 395.846Z" fill="white"/>
            </g>
        </g>
        <g clip-path="url(#clip2_62_1878)">
            <path d="M376.727 270.966C406.569 270.966 431.485 249.525 437.29 220.98C427.053 227.738 414.837 231.649 401.723 231.649C389.642 231.649 378.322 228.321 368.602 222.54C365.861 225.332 362.054 227.059 357.871 227.059C349.501 227.059 342.716 220.178 342.716 211.693C342.716 207.667 344.242 204.006 346.738 201.266C340.11 190.89 336.274 178.517 336.274 165.242C336.274 128.572 365.571 98.8468 401.723 98.8468C415.393 98.8468 428.082 103.102 438.578 110.373L438.578 0.00392605L363.522 0.00391949C329.357 0.0039165 301.671 28.1105 301.67 62.7601L301.67 270.966L376.727 270.966Z" fill="white"/>
            <path d="M346.738 201.262C349.501 198.217 353.468 196.316 357.871 196.316C366.23 196.316 373.016 203.197 373.016 211.693C373.016 215.93 371.336 219.759 368.606 222.54C359.782 217.267 352.286 209.967 346.742 201.266L346.738 201.262Z" fill="white"/>
            <g filter="url(#filter2_d_62_1878)">
                <path d="M361.593 165.312C361.593 142.824 379.552 124.595 401.727 124.595C418.251 124.595 432.437 134.729 438.582 149.207C440.686 154.143 441.85 159.594 441.85 165.316C441.85 171.038 440.686 176.486 438.582 181.425C432.437 195.9 418.251 206.037 401.727 206.037C379.552 206.037 361.593 187.804 361.593 165.32L361.593 165.312Z" fill="white"/>
            </g>
        </g>
        <g clip-path="url(#clip3_62_1878)">
            <path d="M214.727 480.437C184.885 480.616 160.098 502.207 154.465 530.786C164.661 523.966 176.854 519.983 189.967 519.904C202.048 519.831 213.388 523.091 223.143 528.814C225.867 526.005 229.663 524.255 233.846 524.23C242.216 524.18 249.043 531.02 249.094 539.505C249.118 543.53 247.614 547.201 245.134 549.956C251.824 560.291 255.734 572.641 255.814 585.916C256.034 622.585 226.916 652.486 190.764 652.703C177.095 652.785 164.381 648.606 153.841 641.398L154.504 751.766L229.559 751.315C263.723 751.11 291.24 722.837 291.032 688.188L289.782 479.987L214.727 480.437Z" fill="white"/>
            <path d="M245.134 549.959C242.389 553.021 238.433 554.946 234.031 554.972C225.672 555.023 218.845 548.183 218.794 539.686C218.769 535.45 220.426 531.611 223.139 528.813C231.994 534.033 239.534 541.289 245.13 549.956L245.134 549.959Z" fill="white"/>
            <g filter="url(#filter3_d_62_1878)">
                <path d="M230.495 585.998C230.63 608.486 212.781 626.822 190.606 626.955C174.082 627.055 159.836 617.006 153.605 602.565C151.471 597.642 150.274 592.198 150.24 586.476C150.205 580.754 151.336 575.299 153.411 570.348C159.469 555.837 173.593 545.614 190.117 545.515C212.292 545.382 230.36 563.506 230.495 585.99L230.495 585.998Z" fill="white"/>
            </g>
        </g>
        <g clip-path="url(#clip4_62_1878)">
            <path d="M225.483 461.118C255.325 461.118 280.241 439.677 286.046 411.132C275.809 417.891 263.593 421.801 250.479 421.801C238.398 421.801 227.078 418.474 217.358 412.692C214.616 415.484 210.81 417.211 206.627 417.211C198.257 417.211 191.472 410.33 191.472 401.845C191.472 397.82 192.998 394.158 195.494 391.418C188.866 381.043 185.03 368.67 185.03 355.394C185.03 318.725 214.327 288.999 250.479 288.999C264.149 288.999 276.838 293.255 287.334 300.525L287.334 190.156L212.278 190.156C178.113 190.156 150.426 218.263 150.426 252.912L150.426 461.118L225.483 461.118Z" fill="white"/>
            <path d="M195.494 391.415C198.257 388.37 202.224 386.468 206.627 386.468C214.986 386.468 221.771 393.349 221.771 401.846C221.771 406.083 220.092 409.911 217.361 412.692C208.537 407.419 201.042 400.119 195.497 391.418L195.494 391.415Z" fill="white"/>
            <g filter="url(#filter4_d_62_1878)">
                <path d="M210.349 355.465C210.349 332.977 228.308 314.748 250.483 314.748C267.007 314.748 281.193 324.881 287.338 339.36C289.442 344.295 290.606 349.746 290.606 355.468C290.606 361.191 289.442 366.638 287.338 371.577C281.193 386.052 267.007 396.189 250.483 396.189C228.308 396.189 210.349 377.957 210.349 355.472L210.349 355.465Z" fill="white"/>
            </g>
        </g>
        <g clip-path="url(#clip5_62_1878)">
            <path d="M75.0602 651.686C104.903 651.686 129.819 630.244 135.623 601.7C125.387 608.458 113.17 612.368 100.057 612.368C87.9758 612.368 76.6559 609.041 66.9353 603.259C64.1941 606.052 60.3878 607.778 56.2046 607.778C47.8346 607.778 41.0492 600.898 41.0492 592.413C41.0492 588.387 42.5754 584.726 45.0714 581.985C38.4434 571.61 34.6079 559.237 34.6079 545.962C34.6079 509.292 63.905 479.566 100.057 479.566C113.726 479.566 126.415 483.822 136.912 491.093L136.912 380.724L61.8555 380.724C27.6908 380.724 0.00399844 408.83 0.00399541 443.48L0.0039772 651.686L75.0602 651.686Z" fill="white"/>
            <path d="M45.0714 581.982C47.8346 578.937 51.8019 577.036 56.2047 577.036C64.5638 577.036 71.3491 583.917 71.3491 592.413C71.3491 596.65 69.6693 600.478 66.939 603.26C58.1151 597.987 50.6197 590.686 45.0751 581.986L45.0714 581.982Z" fill="white"/>
            <g filter="url(#filter5_d_62_1878)">
                <path d="M59.9268 546.032C59.9268 523.544 77.8856 505.315 100.061 505.315C116.585 505.315 130.77 515.449 136.915 529.927C139.02 534.862 140.184 540.314 140.184 546.036C140.184 551.758 139.02 557.206 136.915 562.145C130.77 576.619 116.585 586.757 100.061 586.757C77.8856 586.757 59.9267 568.524 59.9268 546.04L59.9268 546.032Z" fill="white"/>
            </g>
        </g>
    </g>
    <defs>
        <filter id="filter0_d_62_1878" x="448.717" y="174.965" width="88.2568" height="89.4414" filterUnits="userSpaceOnUse" color-interpolation-filters="sRGB">
            <feFlood flood-opacity="0" result="BackgroundImageFix"/>
            <feColorMatrix in="SourceAlpha" type="matrix" values="0 0 0 0 0 0 0 0 0 0 0 0 0 0 0 0 0 0 127 0" result="hardAlpha"/>
            <feOffset dy="4"/>
            <feGaussianBlur stdDeviation="2"/>
            <feComposite in2="hardAlpha" operator="out"/>
            <feColorMatrix type="matrix" values="0 0 0 0 0 0 0 0 0 0 0 0 0 0 0 0 0 0 0.25 0"/>
            <feBlend mode="normal" in2="BackgroundImageFix" result="effect1_dropShadow_62_1878"/>
            <feBlend mode="normal" in="SourceGraphic" in2="effect1_dropShadow_62_1878" result="shape"/>
        </filter>
        <filter id="filter1_d_62_1878" x="297.483" y="355.362" width="88.2568" height="89.4414" filterUnits="userSpaceOnUse" color-interpolation-filters="sRGB">
            <feFlood flood-opacity="0" result="BackgroundImageFix"/>
            <feColorMatrix in="SourceAlpha" type="matrix" values="0 0 0 0 0 0 0 0 0 0 0 0 0 0 0 0 0 0 127 0" result="hardAlpha"/>
            <feOffset dy="4"/>
            <feGaussianBlur stdDeviation="2"/>
            <feComposite in2="hardAlpha" operator="out"/>
            <feColorMatrix type="matrix" values="0 0 0 0 0 0 0 0 0 0 0 0 0 0 0 0 0 0 0.25 0"/>
            <feBlend mode="normal" in2="BackgroundImageFix" result="effect1_dropShadow_62_1878"/>
            <feBlend mode="normal" in="SourceGraphic" in2="effect1_dropShadow_62_1878" result="shape"/>
        </filter>
        <filter id="filter2_d_62_1878" x="357.593" y="124.595" width="88.2568" height="89.4424" filterUnits="userSpaceOnUse" color-interpolation-filters="sRGB">
            <feFlood flood-opacity="0" result="BackgroundImageFix"/>
            <feColorMatrix in="SourceAlpha" type="matrix" values="0 0 0 0 0 0 0 0 0 0 0 0 0 0 0 0 0 0 127 0" result="hardAlpha"/>
            <feOffset dy="4"/>
            <feGaussianBlur stdDeviation="2"/>
            <feComposite in2="hardAlpha" operator="out"/>
            <feColorMatrix type="matrix" values="0 0 0 0 0 0 0 0 0 0 0 0 0 0 0 0 0 0 0.25 0"/>
            <feBlend mode="normal" in2="BackgroundImageFix" result="effect1_dropShadow_62_1878"/>
            <feBlend mode="normal" in="SourceGraphic" in2="effect1_dropShadow_62_1878" result="shape"/>
        </filter>
        <filter id="filter3_d_62_1878" x="146.239" y="545.515" width="88.2568" height="89.4414" filterUnits="userSpaceOnUse" color-interpolation-filters="sRGB">
            <feFlood flood-opacity="0" result="BackgroundImageFix"/>
            <feColorMatrix in="SourceAlpha" type="matrix" values="0 0 0 0 0 0 0 0 0 0 0 0 0 0 0 0 0 0 127 0" result="hardAlpha"/>
            <feOffset dy="4"/>
            <feGaussianBlur stdDeviation="2"/>
            <feComposite in2="hardAlpha" operator="out"/>
            <feColorMatrix type="matrix" values="0 0 0 0 0 0 0 0 0 0 0 0 0 0 0 0 0 0 0.25 0"/>
            <feBlend mode="normal" in2="BackgroundImageFix" result="effect1_dropShadow_62_1878"/>
            <feBlend mode="normal" in="SourceGraphic" in2="effect1_dropShadow_62_1878" result="shape"/>
        </filter>
        <filter id="filter4_d_62_1878" x="206.349" y="314.747" width="88.2568" height="89.4424" filterUnits="userSpaceOnUse" color-interpolation-filters="sRGB">
            <feFlood flood-opacity="0" result="BackgroundImageFix"/>
            <feColorMatrix in="SourceAlpha" type="matrix" values="0 0 0 0 0 0 0 0 0 0 0 0 0 0 0 0 0 0 127 0" result="hardAlpha"/>
            <feOffset dy="4"/>
            <feGaussianBlur stdDeviation="2"/>
            <feComposite in2="hardAlpha" operator="out"/>
            <feColorMatrix type="matrix" values="0 0 0 0 0 0 0 0 0 0 0 0 0 0 0 0 0 0 0.25 0"/>
            <feBlend mode="normal" in2="BackgroundImageFix" result="effect1_dropShadow_62_1878"/>
            <feBlend mode="normal" in="SourceGraphic" in2="effect1_dropShadow_62_1878" result="shape"/>
        </filter>
        <filter id="filter5_d_62_1878" x="55.9268" y="505.314" width="88.2568" height="89.4424" filterUnits="userSpaceOnUse" color-interpolation-filters="sRGB">
            <feFlood flood-opacity="0" result="BackgroundImageFix"/>
            <feColorMatrix in="SourceAlpha" type="matrix" values="0 0 0 0 0 0 0 0 0 0 0 0 0 0 0 0 0 0 127 0" result="hardAlpha"/>
            <feOffset dy="4"/>
            <feGaussianBlur stdDeviation="2"/>
            <feComposite in2="hardAlpha" operator="out"/>
            <feColorMatrix type="matrix" values="0 0 0 0 0 0 0 0 0 0 0 0 0 0 0 0 0 0 0.25 0"/>
            <feBlend mode="normal" in2="BackgroundImageFix" result="effect1_dropShadow_62_1878"/>
            <feBlend mode="normal" in="SourceGraphic" in2="effect1_dropShadow_62_1878" result="shape"/>
        </filter>
        <clipPath id="clip0_62_1878">
            <rect width="140.18" height="270.966" fill="white" transform="translate(452.087 110.278) rotate(-0.344036)"/>
        </clipPath>
        <clipPath id="clip1_62_1878">
            <rect width="140.18" height="270.966" fill="white" transform="translate(300.853 290.676) rotate(-0.344036)"/>
        </clipPath>
        <clipPath id="clip2_62_1878">
            <rect width="140.18" height="270.966" fill="white" transform="translate(441.846 270.966) rotate(-180)"/>
        </clipPath>
        <clipPath id="clip3_62_1878">
            <rect width="140.18" height="270.966" fill="white" transform="translate(149.609 480.828) rotate(-0.344036)"/>
        </clipPath>
        <clipPath id="clip4_62_1878">
            <rect width="140.18" height="270.966" fill="white" transform="translate(290.602 461.118) rotate(-180)"/>
        </clipPath>
        <clipPath id="clip5_62_1878">
            <rect width="140.18" height="270.966" fill="white" transform="translate(140.18 651.686) rotate(-180)"/>
        </clipPath>
    </defs>
</svg>
