<svg width="75" height="26" viewBox="0 0 75 26" fill="none"
    xmlns="http://www.w3.org/2000/svg">
    <g clip-path="url(#clip0_178_1028)">
        <path d="M25.4529 12.9442C25.4529 19.975 19.7539 25.6741 12.7231 25.6741C5.69227 25.6741 0 19.9683 0 12.9442C0 5.92014 5.69903 0.214355 12.7299 0.214355C19.7607 0.214355 25.4529 5.91338 25.4529 12.9442Z" fill="#00C896"/>
        <path d="M19.0846 7.92804V6.35286H17.4283C16.1033 5.4064 14.4808 4.85205 12.7298 4.85205C10.9789 4.85205 9.3564 5.4064 8.03136 6.35286H6.37506V7.92804C5.28663 9.30716 4.63763 11.0446 4.63763 12.9375C4.63763 15.6957 6.02352 18.1363 8.13277 19.5965C8.26798 19.6912 8.40318 19.7723 8.54515 19.8466L12.7298 22.0641L16.9145 19.8466C17.07 19.7655 17.212 19.6776 17.354 19.5762C19.4497 18.116 20.8221 15.6822 20.8221 12.9307C20.8221 11.0513 20.1731 9.30716 19.0846 7.92804Z" fill="white"/>
        <path d="M18.7466 16.2702V6.71094H6.71307V16.2702C6.71307 17.656 7.477 18.9338 8.70739 19.5828L12.7298 21.7123L16.7523 19.5828C17.9759 18.927 18.7466 17.656 18.7466 16.2702ZM14.8932 19.3664C14.8932 19.1569 15.0622 18.9811 15.2785 18.9811C15.4881 18.9811 15.6639 19.1501 15.6639 19.3664C15.6639 19.576 15.4948 19.7518 15.2785 19.7518C15.0689 19.7518 14.8932 19.5828 14.8932 19.3664ZM12.3242 20.6239C12.3242 20.4143 12.4932 20.2385 12.7096 20.2385C12.9191 20.2385 13.0949 20.4075 13.0949 20.6239C13.0949 20.8402 12.9259 21.0092 12.7096 21.0092C12.4932 21.0092 12.3242 20.8334 12.3242 20.6239ZM11.1141 18.8864L12.7298 18.0143L14.3388 18.8864L12.7231 19.7382L11.1141 18.8864ZM9.76202 19.3664C9.76202 19.1569 9.93103 18.9811 10.1474 18.9811C10.3569 18.9811 10.5327 19.1501 10.5327 19.3664C10.5327 19.576 10.3569 19.7518 10.1474 19.7518C9.93779 19.745 9.76202 19.576 9.76202 19.3664ZM8.4505 15.7023L11.2358 17.2099L9.60653 18.0887L9.51864 18.0414C9.19414 17.8724 8.92373 17.6155 8.7412 17.3045C8.55191 16.9935 8.4505 16.6352 8.4505 16.2702V15.7023ZM7.19306 15.4251C7.19306 15.2155 7.36207 15.0398 7.57841 15.0398C7.78798 15.0398 7.96375 15.2088 7.96375 15.4251C7.96375 15.6347 7.78798 15.8105 7.57841 15.8105C7.36207 15.8105 7.19306 15.6347 7.19306 15.4251ZM7.19306 12.8359C7.19306 12.6263 7.36207 12.4505 7.57841 12.4505C7.78798 12.4505 7.96375 12.6195 7.96375 12.8359C7.96375 13.0454 7.78798 13.2212 7.57841 13.2212C7.36207 13.2212 7.19306 13.0454 7.19306 12.8359ZM7.19306 10.2466C7.19306 10.0371 7.36207 9.86129 7.57841 9.86129C7.78798 9.86129 7.96375 10.0303 7.96375 10.2466C7.96375 10.4562 7.78798 10.632 7.57841 10.632C7.36207 10.6252 7.19306 10.4562 7.19306 10.2466ZM7.97051 7.58979C7.97051 7.79936 7.8015 7.97513 7.58517 7.97513C7.37559 7.97513 7.19982 7.80612 7.19982 7.58979C7.19982 7.38022 7.37559 7.20445 7.58517 7.20445C7.8015 7.20445 7.97051 7.38022 7.97051 7.58979ZM8.38966 17.7372C8.38966 17.9467 8.22065 18.1225 8.00431 18.1225C7.78798 18.1225 7.61897 17.9535 7.61897 17.7372C7.61897 17.5276 7.78798 17.3518 8.00431 17.3518C8.22065 17.3518 8.38966 17.5276 8.38966 17.7372ZM11.3913 7.58979C11.3913 7.79936 11.2223 7.97513 11.0059 7.97513C10.7964 7.97513 10.6206 7.80612 10.6206 7.58979C10.6206 7.38022 10.7896 7.20445 11.0059 7.20445C11.2155 7.20445 11.3913 7.38022 11.3913 7.58979ZM14.8053 7.58979C14.8053 7.79936 14.6363 7.97513 14.4199 7.97513C14.2104 7.97513 14.0346 7.80612 14.0346 7.58979C14.0346 7.38022 14.2036 7.20445 14.4199 7.20445C14.6363 7.20445 14.8053 7.38022 14.8053 7.58979ZM17.0092 14.0933L12.7298 16.3986L8.4505 14.0865V8.44836H17.0092V14.0933ZM17.0092 16.2702C17.0092 16.6352 16.9078 16.9935 16.7252 17.3045C16.536 17.6155 16.2655 17.8724 15.9478 18.0414L15.8599 18.0887L14.2307 17.2099L17.0092 15.709V16.2702ZM17.4486 17.3653C17.6582 17.3653 17.8339 17.5344 17.8339 17.7507C17.8339 17.9603 17.6649 18.136 17.4486 18.136C17.239 18.136 17.0633 17.967 17.0633 17.7507C17.07 17.5344 17.239 17.3653 17.4486 17.3653ZM18.2261 7.58979C18.2261 7.79936 18.057 7.97513 17.8407 7.97513C17.6311 7.97513 17.4554 7.80612 17.4554 7.58979C17.4554 7.38022 17.6244 7.20445 17.8407 7.20445C18.057 7.20445 18.2261 7.38022 18.2261 7.58979ZM18.2261 10.2534C18.2261 10.463 18.057 10.6387 17.8407 10.6387C17.6311 10.6387 17.4554 10.4697 17.4554 10.2534C17.4554 10.0438 17.6244 9.86805 17.8407 9.86805C18.057 9.86805 18.2261 10.0438 18.2261 10.2534ZM18.2261 12.8426C18.2261 13.0522 18.057 13.228 17.8407 13.228C17.6311 13.228 17.4554 13.059 17.4554 12.8426C17.4554 12.6331 17.6244 12.4573 17.8407 12.4573C18.057 12.4573 18.2261 12.6331 18.2261 12.8426ZM18.2261 15.4319C18.2261 15.6414 18.057 15.8172 17.8407 15.8172C17.6311 15.8172 17.4554 15.6482 17.4554 15.4319C17.4554 15.2223 17.6244 15.0465 17.8407 15.0465C18.057 15.0465 18.2261 15.2223 18.2261 15.4319ZM12.7298 14.9924L12.8921 15.1074H13.9602L14.1563 15.006V13.6606L14.0481 13.5525V14.9181L13.7845 14.7896C13.6222 14.7085 13.4667 14.6679 13.3248 14.6679C13.1828 14.6679 13.0273 14.7085 12.865 14.7896L12.7298 14.8572L12.5946 14.7896C12.4324 14.7085 12.2769 14.6679 12.1349 14.6679C11.993 14.6679 11.8375 14.7085 11.6752 14.7896L11.4116 14.9181V13.539L11.3102 13.6606V15.0127L11.5062 15.1141H12.5743L12.7298 14.9924ZM13.656 12.606L14.474 13.228C14.5281 12.7885 14.5822 12.3559 14.6295 11.9503L13.46 11.0646C13.5208 11.5582 13.5817 12.0787 13.6493 12.5993L13.656 12.606ZM14.8188 11.0849C14.7174 11.9435 14.616 12.8021 14.5078 13.6539C15.0487 13.9175 15.6639 13.9175 16.2047 13.6539C16.0965 12.7953 15.9884 11.9435 15.8937 11.0849C15.5354 11.0308 15.1771 11.0308 14.8188 11.0849ZM15.2718 11.8489C15.2718 11.788 15.292 11.7272 15.3258 11.6731C15.3394 11.6528 15.3461 11.646 15.3596 11.6258C15.3732 11.646 15.3799 11.6528 15.3934 11.6731C15.4272 11.7272 15.4475 11.7812 15.4475 11.8489V12.268C15.3934 12.268 15.3394 12.268 15.2785 12.268L15.2718 11.8489ZM15.8937 10.997C15.9478 10.9227 15.9951 10.8483 16.056 10.7739C15.5963 10.6523 15.123 10.6523 14.6701 10.7739C14.7242 10.8483 14.7782 10.9227 14.8323 10.997C15.1771 10.9362 15.5354 10.9362 15.8937 10.997ZM15.4002 10.5914C15.6165 10.5914 15.8396 10.6252 16.0492 10.6928V10.2737C15.9681 10.2399 15.8937 10.2196 15.8126 10.1993C15.7855 10.2534 15.7585 10.3075 15.7315 10.3616C15.6774 10.3548 15.6233 10.3413 15.5692 10.3345C15.5422 10.2737 15.5151 10.2061 15.4881 10.1452C15.407 10.1385 15.3191 10.1385 15.238 10.1452C15.2109 10.2061 15.1839 10.2737 15.1568 10.3345C15.1027 10.3413 15.0487 10.348 14.9946 10.3616C14.9675 10.3075 14.9405 10.2534 14.9135 10.1993C14.8323 10.2196 14.7512 10.2466 14.6768 10.2737V10.6928C14.8999 10.6185 15.1501 10.5847 15.4002 10.5914ZM14.6904 11.5244L14.5416 11.4162L14.5078 11.5108L14.3726 11.4094L14.3185 11.2472L14.1833 11.1458L14.1292 11.2269L13.994 11.1255L13.94 10.9632L13.8047 10.8618L13.7507 10.943L13.6155 10.8415L13.5614 10.6793L13.4126 10.5711C13.4126 10.5711 13.4464 10.8551 13.46 10.9632L14.6566 11.8624C14.6566 11.788 14.6904 11.5244 14.6904 11.5244ZM13.2639 9.94241C13.318 9.86805 13.3653 9.79369 13.4262 9.71932C12.9665 9.59763 12.4932 9.59763 12.0403 9.71932C12.0944 9.79369 12.1484 9.86805 12.2025 9.94241C12.5473 9.88833 12.9056 9.88833 13.2639 9.94241ZM12.6825 9.53679C12.9259 9.53003 13.1828 9.56383 13.4194 9.6382V9.21905C13.3383 9.18525 13.2639 9.16497 13.176 9.14469C13.149 9.19877 13.1219 9.25285 13.0949 9.30694C13.0408 9.30017 12.9867 9.28665 12.9327 9.27989C12.9056 9.21905 12.8786 9.15145 12.8515 9.0906C12.7704 9.08384 12.6893 9.08384 12.6014 9.0906C12.5743 9.15145 12.5473 9.21905 12.5203 9.27989C12.4662 9.28665 12.4121 9.29341 12.358 9.30694C12.331 9.25285 12.3039 9.19877 12.2769 9.14469C12.1958 9.16497 12.1146 9.19201 12.0335 9.21905V9.6382C12.2431 9.57735 12.4662 9.54355 12.6825 9.53679ZM12.047 10.5576L11.8983 10.6658L11.8442 10.828L11.709 10.9294L11.6549 10.8483L11.5197 10.9497L11.4656 11.112L11.3304 11.2134L11.2764 11.1322L11.1411 11.2337L11.0871 11.3959L10.9519 11.4973L10.9113 11.4027L10.7626 11.5108C10.7626 11.5108 10.7964 11.7745 10.8031 11.8353L11.9997 10.9362C12.0132 10.8415 12.047 10.5576 12.047 10.5576ZM10.6341 10.997C10.6882 10.9227 10.7355 10.8483 10.7964 10.7739C10.3367 10.6523 9.86342 10.6523 9.41048 10.7739C9.46456 10.8483 9.51864 10.9227 9.57273 10.997C9.91751 10.9362 10.2758 10.9362 10.6341 10.997ZM10.0595 10.5914C10.3029 10.5847 10.5597 10.6185 10.7964 10.6928V10.2737C10.7152 10.2399 10.6409 10.2196 10.553 10.1993C10.5259 10.2534 10.4989 10.3075 10.4719 10.3616C10.4178 10.3548 10.3637 10.3413 10.3096 10.3345C10.2826 10.2737 10.2555 10.2061 10.2285 10.1452C10.1474 10.1385 10.0662 10.1385 9.97835 10.1452C9.95131 10.2061 9.92427 10.2737 9.89723 10.3345C9.84314 10.3413 9.78906 10.348 9.73498 10.3616C9.70794 10.3075 9.68089 10.2534 9.65385 10.1993C9.57273 10.2196 9.4916 10.2466 9.41048 10.2737V10.6928C9.61329 10.6252 9.83638 10.5914 10.0595 10.5914ZM9.56597 11.0849C9.46456 11.9435 9.36315 12.8021 9.25499 13.6539C9.79582 13.9175 10.411 13.9175 10.9519 13.6539C10.8437 12.7953 10.7423 11.9435 10.6409 11.0849C10.2758 11.0308 9.91751 11.0308 9.56597 11.0849ZM10.0122 11.8489C10.0122 11.788 10.0324 11.7272 10.0662 11.6731C10.0798 11.6528 10.0865 11.646 10.0933 11.6258C10.1068 11.646 10.1136 11.6528 10.1203 11.6731C10.1541 11.7272 10.1744 11.7812 10.1744 11.8489V12.268C10.1203 12.268 10.0662 12.268 10.0054 12.268L10.0122 11.8489ZM10.9721 13.2212L11.7901 12.5993V12.5857C11.8577 12.0652 11.9186 11.5446 11.9794 11.0511L10.8166 11.9435C10.864 12.3559 10.918 12.7885 10.9721 13.2212ZM12.6284 14.7085L12.669 14.7288V13.2415C12.4729 13.1468 12.3039 13.0995 12.1282 13.0995C11.9389 13.0995 11.7563 13.1536 11.5468 13.2618L11.4994 13.2888V14.7693L11.6279 14.7017C11.8037 14.6139 11.9727 14.5733 12.1282 14.5733C12.2904 14.5801 12.4527 14.6206 12.6284 14.7085ZM13.318 13.1063C13.1422 13.1063 12.9732 13.1536 12.7772 13.2483V14.7355L12.8177 14.7153C12.9935 14.6274 13.1625 14.5868 13.318 14.5868C13.4735 14.5868 13.6425 14.6274 13.8183 14.7153L13.9467 14.7829V13.3023L13.8994 13.2753C13.6898 13.1536 13.5005 13.1063 13.318 13.1063ZM12.7231 11.8083C12.8448 11.8827 12.9462 11.9841 13.0205 12.1125C13.0881 12.2342 13.1287 12.3762 13.1287 12.5181V12.6466C13.176 12.6804 13.1963 12.6939 13.2436 12.7345C13.3586 12.7007 13.4667 12.6601 13.5749 12.606C13.4667 11.7474 13.3586 10.8889 13.2639 10.0371C12.9056 9.98298 12.5473 9.98298 12.1958 10.0371C12.0944 10.8956 11.993 11.7542 11.8848 12.606C11.993 12.6601 12.1011 12.7007 12.216 12.7345C12.2634 12.7007 12.2837 12.6871 12.331 12.6466V12.5181C12.3242 12.2274 12.4797 11.957 12.7231 11.8083ZM12.811 11.2201C12.7569 11.2201 12.7028 11.2201 12.642 11.2201V10.801C12.642 10.7401 12.6622 10.6793 12.696 10.6252C12.7096 10.6049 12.7163 10.5982 12.7231 10.5779C12.7366 10.5982 12.7434 10.6049 12.7501 10.6252C12.7839 10.6725 12.8042 10.7334 12.8042 10.801L12.811 11.2201Z" fill="#003C3C"/>
        <path d="M23.1273 14.9994C23.1206 15.04 23.0935 15.0738 23.0597 15.1008C23.0259 15.1278 22.9854 15.1278 22.9448 15.1211C22.9043 15.1143 22.8705 15.094 22.8434 15.0535C22.8164 15.0197 22.8096 14.9791 22.8231 14.9385C22.8299 14.898 22.8569 14.8642 22.8907 14.8371C22.9245 14.8169 22.9651 14.8101 23.0057 14.8169C23.0462 14.8236 23.08 14.8439 23.1071 14.8777C23.1273 14.9115 23.1341 14.9521 23.1273 14.9994ZM21.7955 17.0681L21.9105 16.7909C21.9375 16.7233 21.9781 16.676 22.0389 16.6557C22.093 16.6354 22.1471 16.6354 22.2079 16.6624C22.2688 16.6895 22.3093 16.7301 22.3296 16.7841C22.3499 16.8382 22.3431 16.8991 22.3161 16.9667L22.2012 17.2371L21.7955 17.0681ZM23.1747 17.041L23.2964 16.7639L22.5189 16.9937C22.546 16.9261 22.5527 16.8585 22.5527 16.7909C22.546 16.7098 22.5257 16.6422 22.4783 16.5813C22.431 16.5205 22.3769 16.4732 22.2958 16.4394C22.2215 16.4056 22.1471 16.3988 22.0727 16.4056C21.9984 16.4123 21.9308 16.4461 21.8699 16.5002C21.8091 16.5475 21.7617 16.6151 21.7212 16.703L21.5048 17.21L22.8637 17.7847L22.9583 17.5616L22.3769 17.3182L22.404 17.2574L23.1747 17.041ZM22.0727 19.1908C22.0119 19.2855 21.9375 19.3531 21.8429 19.3937C21.7482 19.441 21.6536 19.4613 21.5522 19.4545C21.4508 19.4477 21.3561 19.4139 21.2615 19.3531L20.5043 18.8461L20.6395 18.6432L21.3967 19.1503C21.4575 19.1908 21.5184 19.2111 21.5792 19.2179C21.6401 19.2246 21.6941 19.2111 21.7482 19.1841C21.8023 19.157 21.8429 19.1165 21.8834 19.0624C21.9172 19.0083 21.9375 18.9542 21.9443 18.8934C21.951 18.8325 21.9375 18.7785 21.9105 18.7244C21.8834 18.6703 21.8429 18.623 21.782 18.5824L21.0249 18.0754L21.1601 17.8726L21.9172 18.3796C22.0119 18.4404 22.0795 18.5148 22.12 18.6094C22.1606 18.6973 22.1809 18.792 22.1741 18.8934C22.1674 19.0016 22.1336 19.0962 22.0727 19.1908ZM21.0722 20.4821L20.0446 19.4275L19.9229 19.5424L20.1595 20.5902L19.1184 20.3198L18.9967 20.4348L20.0243 21.4894L20.2001 21.3204L19.5443 20.6443L20.288 20.8404L20.4097 20.7255L20.2407 19.975L20.8964 20.6511L21.0722 20.4821ZM18.9967 22.2465L18.1584 21.0364L18.3613 20.9012L19.1995 22.1113L18.9967 22.2465ZM17.6379 23.051C17.5365 23.0984 17.4351 23.1186 17.3337 23.1119C17.2323 23.1051 17.1376 23.0713 17.0565 23.0172C16.9754 22.9632 16.9078 22.882 16.8537 22.7806L16.4548 21.9559L16.6712 21.8477L17.07 22.6657C17.1038 22.7333 17.1444 22.7806 17.1917 22.8144C17.239 22.8482 17.2931 22.8685 17.354 22.8685C17.4148 22.8685 17.4689 22.8617 17.5297 22.8279C17.5906 22.8009 17.6379 22.7603 17.6649 22.713C17.6987 22.6657 17.719 22.6116 17.719 22.5508C17.719 22.4899 17.7123 22.4291 17.6785 22.3682L17.2796 21.5435L17.4959 21.4353L17.8948 22.2601C17.9421 22.3615 17.9624 22.4629 17.9556 22.5575C17.9489 22.6589 17.9151 22.7468 17.861 22.8347C17.8137 22.9361 17.7393 23.0037 17.6379 23.051ZM15.6368 23.4905C15.576 23.5513 15.4948 23.5919 15.4002 23.6189C15.3326 23.6392 15.2582 23.6392 15.1974 23.6324C15.1365 23.6257 15.0689 23.5986 15.0149 23.5648C14.9608 23.531 14.9134 23.4837 14.8729 23.4296C14.8323 23.3755 14.8053 23.3079 14.785 23.2336C14.758 23.1322 14.758 23.0375 14.7782 22.9496C14.7985 22.8617 14.8458 22.7874 14.9067 22.7265C14.9675 22.6657 15.0487 22.6251 15.1433 22.5981C15.2177 22.5778 15.2853 22.5778 15.3461 22.5846C15.407 22.5913 15.4746 22.6184 15.5286 22.6522C15.5827 22.686 15.6301 22.7333 15.6706 22.7874C15.7112 22.8415 15.7382 22.9091 15.7585 22.9834C15.7855 23.0848 15.7855 23.1795 15.7653 23.2674C15.7653 23.2674 15.7653 23.2741 15.7653 23.2809L15.4475 23.0916L15.3326 23.2809L15.6571 23.4769C15.6503 23.4769 15.6436 23.4837 15.6368 23.4905ZM16.2452 23.5648L15.9681 23.3958C15.9884 23.3417 16.0086 23.2809 16.0154 23.22C16.0289 23.1186 16.0222 23.024 16.0019 22.9158C15.9816 22.8077 15.9343 22.7265 15.8734 22.6454C15.8126 22.5643 15.7382 22.5034 15.6571 22.4494C15.576 22.3953 15.4813 22.3682 15.3867 22.348C15.292 22.3344 15.1906 22.3344 15.0892 22.3615C14.9878 22.3885 14.8999 22.4291 14.8188 22.4899C14.7377 22.5508 14.6768 22.6184 14.6295 22.7063C14.5822 22.7874 14.5484 22.882 14.5349 22.9767C14.5213 23.0781 14.5281 23.1727 14.5484 23.2741C14.5754 23.3755 14.616 23.4634 14.6768 23.5445C14.7377 23.6257 14.812 23.6865 14.8932 23.7406C14.9743 23.7947 15.0689 23.8217 15.1636 23.842C15.2582 23.8623 15.3596 23.8555 15.461 23.8285C15.5624 23.8014 15.6503 23.7609 15.7315 23.7C15.7788 23.6662 15.8193 23.6189 15.8599 23.5784L16.1371 23.7474L16.2452 23.5648ZM13.8521 24.1124L13.8385 23.8893L13.0881 23.9299L13.0679 23.504L13.7439 23.4702L13.7304 23.2606L13.0543 23.2944L13.0341 22.9023L13.7709 22.8617L13.7574 22.6387L12.7772 22.6927L12.8515 24.1665L13.8521 24.1124ZM11.3913 24.0989C11.2763 24.0854 11.1817 24.0516 11.1073 23.9975C11.033 23.9434 10.9654 23.8758 10.9113 23.7879L11.0938 23.646C11.1276 23.7068 11.1682 23.7609 11.2223 23.8014C11.2763 23.842 11.344 23.869 11.4318 23.8758C11.513 23.8826 11.5806 23.8758 11.6279 23.8488C11.682 23.8217 11.709 23.7812 11.7158 23.7203C11.7225 23.673 11.7158 23.6324 11.6955 23.5986C11.6752 23.5648 11.6414 23.5378 11.6076 23.5107C11.5738 23.4837 11.5265 23.4634 11.4792 23.4431C11.4318 23.4229 11.3845 23.3958 11.3372 23.3688C11.2899 23.3417 11.2493 23.3147 11.2087 23.2741C11.1682 23.2403 11.1411 23.193 11.1209 23.1457C11.1006 23.0916 11.0938 23.0308 11.1073 22.9564C11.1141 22.8685 11.1479 22.8009 11.1952 22.7401C11.2425 22.6792 11.3101 22.6454 11.3845 22.6184C11.4589 22.5981 11.5468 22.5913 11.6347 22.5981C11.7293 22.6116 11.8172 22.6387 11.8848 22.686C11.9524 22.7333 12.0132 22.7874 12.0538 22.855L11.8713 22.997C11.8375 22.9429 11.7969 22.9023 11.7563 22.8753C11.7158 22.8482 11.6617 22.8279 11.6076 22.8212C11.5332 22.8144 11.4792 22.8212 11.4318 22.8415C11.3845 22.8617 11.3642 22.9023 11.3575 22.9564C11.3507 23.0037 11.3575 23.0375 11.3845 23.0713C11.4048 23.1051 11.4386 23.1254 11.4792 23.1524C11.5197 23.1727 11.5603 23.1998 11.6076 23.22C11.6549 23.2403 11.7023 23.2674 11.7496 23.2944C11.7969 23.3215 11.8375 23.3553 11.878 23.3891C11.9186 23.4296 11.9456 23.4702 11.9591 23.5243C11.9794 23.5784 11.9862 23.646 11.9727 23.7203C11.9592 23.8488 11.8983 23.9502 11.7969 24.0178C11.6752 24.0921 11.5468 24.1192 11.3913 24.0989ZM9.34287 22.0978L8.46402 22.7198L8.32205 21.6584L8.16656 21.5908L7.5784 22.9429L7.8015 23.0375L8.18008 22.1722L8.28825 22.9361L8.44374 23.0037L9.07245 22.5643L8.69387 23.4296L8.91696 23.5243L9.50512 22.1722L9.34287 22.0978ZM7.43643 21.4015L7.56488 21.219L6.76039 20.6579L5.91534 21.8612L6.72659 22.4291L6.85504 22.2465L6.23984 21.8206L6.48322 21.4691L7.03757 21.8612L7.15926 21.6854L6.6049 21.2933L6.828 20.9688L7.43643 21.4015ZM4.77959 20.8877C4.70523 20.8133 4.65115 20.7255 4.61734 20.6376C4.58354 20.5429 4.56326 20.4483 4.57002 20.3536C4.57002 20.259 4.5903 20.1643 4.63086 20.0765C4.67143 19.9886 4.72551 19.9074 4.80663 19.8331C4.881 19.7587 4.96212 19.7046 5.05677 19.6641C5.15142 19.6235 5.2393 19.6032 5.34071 19.61C5.43535 19.61 5.53 19.6303 5.62464 19.6641C5.71929 19.6979 5.80041 19.7587 5.87478 19.8331C5.9559 19.921 6.01675 20.0021 6.05055 20.0967C6.08435 20.1846 6.09787 20.2793 6.09787 20.3739H5.86802C5.87478 20.3063 5.86126 20.2455 5.83422 20.1846C5.80718 20.1238 5.76661 20.0629 5.71253 20.0021C5.65845 19.948 5.60436 19.9142 5.54352 19.8872C5.48268 19.8601 5.42183 19.8534 5.35423 19.8534C5.29338 19.8534 5.22578 19.8669 5.16494 19.8939C5.10409 19.921 5.04325 19.9615 4.98917 20.0156C4.93508 20.0697 4.89452 20.1305 4.86072 20.1914C4.83368 20.2522 4.81339 20.3198 4.81339 20.3807C4.81339 20.4415 4.82015 20.5091 4.8472 20.57C4.87424 20.6308 4.90804 20.6849 4.96212 20.739C5.02297 20.8066 5.09057 20.8471 5.15142 20.8742C5.21226 20.9012 5.27986 20.908 5.34071 20.908V21.1378C5.24606 21.1378 5.15142 21.1176 5.05677 21.0838C4.9486 21.0364 4.86748 20.9688 4.77959 20.8877ZM3.34639 19.1165C3.28554 19.0218 3.25174 18.9272 3.24498 18.8258C3.23822 18.7244 3.2585 18.6297 3.30582 18.5351C3.35315 18.4404 3.42075 18.3661 3.5154 18.3052L4.27932 17.805L4.41453 18.0078L3.6506 18.508C3.58976 18.5486 3.5492 18.5959 3.52216 18.65C3.49511 18.7041 3.48159 18.7582 3.48835 18.819C3.49511 18.8799 3.5154 18.9339 3.5492 18.988C3.583 19.0421 3.63032 19.0827 3.67765 19.1097C3.73173 19.1368 3.78581 19.1435 3.84666 19.1435C3.9075 19.1368 3.96834 19.1165 4.02243 19.0759L4.78635 18.5756L4.92156 18.7785L4.15763 19.2787C4.06299 19.3396 3.96834 19.3734 3.86694 19.3801C3.76553 19.3869 3.67089 19.3666 3.583 19.3193C3.48159 19.2787 3.40723 19.2111 3.34639 19.1165ZM3.70469 16.6219L3.61004 16.3988L2.25796 16.9802L2.62978 17.8388L2.83259 17.7509L2.55542 17.1154L3.70469 16.6219ZM2.33232 14.9994C2.32556 14.9588 2.33232 14.9183 2.35261 14.8845C2.37965 14.8507 2.40669 14.8304 2.45401 14.8236C2.50133 14.8169 2.53514 14.8236 2.56894 14.8439C2.60274 14.8642 2.62302 14.898 2.63654 14.9453C2.6433 14.9859 2.63654 15.0264 2.61626 15.0602C2.59598 15.094 2.56218 15.1143 2.51486 15.1278C2.47429 15.1346 2.43373 15.1278 2.39993 15.1076C2.35937 15.0805 2.33908 15.0467 2.33232 14.9994ZM23.6749 12.7617C23.6344 12.8023 23.5803 12.8293 23.5195 12.8293C23.4518 12.8293 23.3978 12.8158 23.3572 12.7752C23.3166 12.7347 23.2964 12.6806 23.2896 12.6062L23.2828 12.3087L23.7223 12.2952L23.729 12.5927C23.7358 12.667 23.7155 12.7211 23.6749 12.7617ZM23.9251 12.0451L22.4513 12.0992L22.4581 12.3425L23.08 12.3223V12.3831L22.4716 12.9104L22.4851 13.2146L23.0935 12.6738C23.1003 12.7482 23.1206 12.8158 23.1544 12.8699C23.1882 12.9375 23.2423 12.9915 23.3099 13.0253C23.3775 13.0592 23.4518 13.0794 23.533 13.0727C23.6141 13.0727 23.6885 13.0456 23.7493 13.0051C23.8101 12.9645 23.8575 12.9104 23.8913 12.8361C23.9251 12.7617 23.9454 12.6806 23.9386 12.5927L23.9251 12.0451ZM22.4243 10.6119L22.8366 10.524L22.9786 11.1865L23.1882 11.1392L23.0462 10.4767L23.4316 10.3955L23.5871 11.1189L23.8034 11.0716L23.5938 10.1116L22.1538 10.4226L22.3634 11.3893L22.5798 11.342L22.4243 10.6119ZM23.1206 9.30036L23.3234 9.21924L22.8637 8.11053L22.6609 8.19165L22.8434 8.63784L21.6874 9.11783L21.782 9.34092L22.9381 8.86094L23.1206 9.30036ZM21.3899 7.19787L21.755 7.77251L21.9375 7.65758L21.5725 7.08295L21.9037 6.87337L22.2958 7.49533L22.4851 7.38041L21.9646 6.54887L20.7206 7.33308L21.248 8.17137L21.4372 8.05645L21.0384 7.42097L21.3899 7.19787ZM21.2277 5.60242L20.5719 5.69706L20.7139 5.0413L20.5178 4.83173L20.3421 5.69706L19.4226 5.81875L19.6052 6.02156L20.3285 5.92692L20.1595 6.62324L20.3488 6.83281L20.5584 5.93368L21.4102 5.81199L21.2277 5.60242ZM19.2942 4.87229L19.4226 4.70328L18.8818 4.29766L19.1184 3.97992L19.7133 4.41935L19.8418 4.24357L19.0441 3.66218L18.1652 4.84525L18.9629 5.43341L19.0981 5.25764L18.4965 4.81145L18.7466 4.47343L19.2942 4.87229ZM17.3269 2.93882L17.408 2.736L16.5292 2.3777L15.9748 3.7433L16.1979 3.83119L16.4345 3.24303L17.0565 3.49317L17.1376 3.29036L16.5157 3.04022L16.6644 2.6684L17.3269 2.93882ZM14.6228 3.16867C14.7242 3.18895 14.812 3.18219 14.8932 3.15515C14.9743 3.12811 15.0419 3.07402 15.1027 3.00642C15.1636 2.93882 15.1974 2.85093 15.2177 2.74952C15.2312 2.67516 15.2312 2.60079 15.2244 2.53319C15.2109 2.46559 15.1906 2.40474 15.1568 2.35066C15.123 2.29658 15.0757 2.24925 15.0216 2.21545C14.9675 2.18165 14.8999 2.15461 14.8323 2.14109C14.7377 2.12081 14.643 2.12757 14.5619 2.15461C14.4808 2.18165 14.4132 2.23573 14.3523 2.30334C14.2983 2.37094 14.2577 2.45883 14.2374 2.56023C14.2239 2.6346 14.2239 2.70896 14.2306 2.77657C14.2442 2.84417 14.2644 2.90501 14.2983 2.9591C14.3321 3.01318 14.3794 3.0605 14.4335 3.0943C14.4875 3.12811 14.5484 3.15515 14.6228 3.16867ZM14.5822 3.39852C14.4808 3.37824 14.3861 3.33768 14.305 3.2836C14.2239 3.22951 14.1563 3.16191 14.1022 3.07402C14.0481 2.9929 14.0076 2.90501 13.994 2.80361C13.9738 2.70896 13.9738 2.60756 13.994 2.49939C14.0143 2.39798 14.0549 2.30334 14.109 2.22221C14.163 2.14109 14.2306 2.07348 14.3118 2.01264C14.3929 1.95856 14.4808 1.91799 14.5754 1.89771C14.6701 1.87743 14.7715 1.87743 14.8729 1.89771C14.9743 1.91799 15.0689 1.95856 15.1501 2.01264C15.2312 2.06672 15.2988 2.13433 15.3529 2.21545C15.407 2.29658 15.4475 2.38446 15.461 2.48587C15.4746 2.58727 15.4813 2.68192 15.461 2.79009C15.4408 2.89149 15.4002 2.98614 15.3461 3.06726C15.292 3.14839 15.2244 3.21599 15.1433 3.27684C15.0622 3.33768 14.9743 3.37148 14.8796 3.39176C14.7782 3.41204 14.6836 3.4188 14.5822 3.39852ZM12.6014 1.70166L12.3242 1.72194L11.9862 2.35066L11.5603 1.77602L11.2831 1.79631L11.878 2.58727L11.9253 3.22951L12.1687 3.21599L12.1214 2.56699L12.6014 1.70166ZM10.749 2.10728L10.695 1.89095L9.5254 2.17489L9.57948 2.39122L10.046 2.2763L10.3367 3.49317L10.5733 3.43909L10.2826 2.22221L10.749 2.10728ZM9.10626 3.89203L8.57218 2.51967L8.79528 2.43178L9.32935 3.80415L9.10626 3.89203ZM7.95699 4.47343C7.85558 4.52751 7.76093 4.56131 7.66629 4.56131C7.57164 4.56131 7.48376 4.54779 7.38235 4.50723L7.44319 4.28414C7.50404 4.31794 7.57164 4.33146 7.63925 4.33146C7.70685 4.33146 7.77445 4.31118 7.84882 4.27062C7.92318 4.23005 7.97051 4.18273 7.99079 4.12865C8.01783 4.07456 8.01783 4.02048 7.98403 3.97316C7.95699 3.9326 7.92994 3.89879 7.88938 3.88527C7.84882 3.87175 7.80826 3.86499 7.76093 3.86499C7.71361 3.86499 7.66629 3.87175 7.6122 3.88527C7.55812 3.89203 7.5108 3.90555 7.45672 3.91231C7.40263 3.91908 7.34855 3.91908 7.30123 3.91231C7.24714 3.90555 7.19982 3.88527 7.1525 3.85823C7.10517 3.82443 7.06461 3.77711 7.03081 3.71626C6.99025 3.6419 6.96997 3.56753 6.97673 3.49317C6.98349 3.4188 7.01053 3.3512 7.05785 3.2836C7.10517 3.22275 7.16602 3.16867 7.24714 3.12135C7.32827 3.07402 7.41615 3.04698 7.50404 3.04698C7.59192 3.04698 7.66629 3.05374 7.73389 3.08078L7.67305 3.30388C7.61221 3.2836 7.55812 3.27008 7.50404 3.27684C7.44996 3.27684 7.40263 3.29712 7.34855 3.32416C7.28771 3.35796 7.24038 3.39852 7.2201 3.44585C7.19982 3.49317 7.19982 3.54049 7.22686 3.58105C7.24714 3.62162 7.28094 3.64866 7.31475 3.65542C7.34855 3.66894 7.38911 3.66894 7.43643 3.66894C7.48376 3.66894 7.53108 3.66218 7.5784 3.64866C7.63249 3.6419 7.67981 3.62838 7.73389 3.62162C7.78798 3.61486 7.84206 3.61486 7.89614 3.62838C7.95023 3.6419 7.99755 3.65542 8.04487 3.68922C8.09219 3.72302 8.13276 3.77035 8.17332 3.83795C8.23416 3.95288 8.24768 4.0678 8.20712 4.18273C8.18684 4.29766 8.09895 4.3923 7.95699 4.47343ZM5.57732 4.56807L5.80718 4.37878C5.86802 4.33146 5.9221 4.31118 5.98295 4.31794C6.04379 4.3247 6.09111 4.35174 6.12491 4.39906C6.16548 4.45315 6.18576 4.50723 6.179 4.56131C6.17224 4.6154 6.13844 4.66948 6.08435 4.7168L5.8545 4.9061L5.57732 4.56807ZM6.81448 5.19003L7.05109 4.99398L6.25336 4.83173C6.30745 4.77765 6.34801 4.72356 6.37505 4.66948C6.40885 4.59512 6.41561 4.52751 6.40885 4.45315C6.40209 4.37878 6.36829 4.31118 6.31421 4.24357C6.26012 4.18273 6.19928 4.13541 6.13167 4.10837C6.06407 4.08132 5.98971 4.08132 5.90858 4.09485C5.83422 4.10837 5.75309 4.14893 5.68549 4.20301L5.25958 4.54779L6.19252 5.6903L6.38181 5.53481L5.98971 5.04806L6.03703 5.0075L6.81448 5.19003ZM5.62464 6.25142L5.45563 6.10945L4.97564 6.68408L4.65115 6.41367L5.09057 5.89312L4.92832 5.75791L4.4889 6.27846L4.19144 6.02156L4.66467 5.45369L4.49566 5.31172L3.86694 6.06213L4.99593 7.00858L5.62464 6.25142ZM3.40723 6.67056L3.27878 6.89366L3.98862 7.79955L2.85288 7.61702L2.71767 7.84687L4.28608 8.07673L4.37397 7.93476L3.40723 6.67056ZM3.69117 9.30712L2.33232 8.73925L2.42697 8.51615L3.78581 9.08403L3.69117 9.30712ZM3.40723 10.0508L1.97402 9.69923L1.91994 9.93584L2.90696 10.1792L1.73065 10.693L1.69008 10.8553L3.12329 11.2068L3.17738 10.9702L2.19036 10.7268L3.35991 10.213L3.40723 10.0508ZM3.01513 12.4913C3.00836 12.5994 2.98132 12.7008 2.92724 12.7887C2.87316 12.8766 2.79879 12.9375 2.71091 12.9915C2.62302 13.0456 2.52162 13.0591 2.41345 13.0524L1.50079 13.0118L1.51431 12.7685L2.42697 12.809C2.50133 12.809 2.56218 12.8023 2.61626 12.7752C2.67034 12.7482 2.71091 12.7076 2.74471 12.6603C2.77851 12.6062 2.79203 12.5521 2.79879 12.4913C2.80555 12.4237 2.79203 12.3696 2.76499 12.3155C2.73795 12.2614 2.69739 12.2209 2.65006 12.1871C2.59598 12.1533 2.53514 12.1397 2.46753 12.133L1.55488 12.0924L1.5684 11.849L2.48105 11.8896C2.58922 11.8964 2.69063 11.9234 2.77175 11.9775C2.85288 12.0316 2.92048 12.1059 2.9678 12.1938C3.0016 12.2749 3.02189 12.3763 3.01513 12.4913Z" fill="#003C3C"/>
        <path d="M43.7939 5.84576C43.7939 5.52126 44.0576 5.2576 44.3821 5.2576C44.7066 5.2576 44.9702 5.52126 44.9702 5.84576C44.9702 6.17026 44.7066 6.43391 44.3821 6.43391C44.0576 6.43391 43.7939 6.17026 43.7939 5.84576ZM31.0708 5.96068V9.60454C31.0708 11.3961 32.0781 12.3831 33.8629 12.3831C35.6747 12.3831 36.6887 11.4028 36.6887 9.56398V5.96068C36.6887 5.58886 36.8713 5.23732 37.1755 5.02775L37.4324 4.84521H35.2826L35.58 5.02775C35.9113 5.23732 36.1141 5.59562 36.1141 5.98772V9.35441C36.1141 10.1319 36.1141 11.8287 34.1265 11.8287C32.308 11.8287 32.0781 10.4699 32.0781 9.35441V5.95392C32.0781 5.5821 32.2607 5.23732 32.5581 5.02775L32.815 4.85198H30.3407L30.5976 5.03451C30.8883 5.24408 31.0708 5.58886 31.0708 5.96068ZM43.9494 8.61752V11.2203C43.9494 11.5515 43.8007 11.8693 43.5506 12.0856L43.3748 12.2343H45.4502L45.2609 12.0856C44.9838 11.8693 44.8148 11.538 44.8148 11.1865V7.00855L43.368 7.57642L43.5979 7.79951C43.821 8.01585 43.9494 8.31331 43.9494 8.61752ZM61.851 11.9234C61.3169 11.9234 60.7017 11.3622 60.5124 10.9228L59.877 11.6665C60.1947 12.0721 61.1006 12.3831 61.709 12.3831C62.9327 12.3831 63.7845 11.7814 63.7845 10.8147C63.7845 10.0102 63.3248 9.65863 62.5608 9.35441L62.0335 9.13808C61.4116 8.88794 60.9654 8.63104 60.9654 8.15106C60.9654 7.67107 61.3237 7.44121 61.824 7.44797C62.6622 7.45473 63.0814 8.32683 63.0814 8.32683C63.2639 7.98205 63.345 7.82656 63.5546 7.43445C63.1693 7.23164 62.5744 6.9815 61.9456 6.9815C60.8234 6.9815 60.0933 7.53586 60.0933 8.43499C60.0933 9.32737 60.7761 9.65863 61.4318 9.92228L61.9794 10.1454C62.4865 10.3549 62.8515 10.5578 62.8515 11.058C62.8583 11.6529 62.4594 11.9234 61.851 11.9234ZM46.3967 8.42823L47.8569 12.2343C47.8637 12.2343 48.533 12.2343 48.5397 12.2343L50.0608 8.42147C50.1622 8.17134 50.2975 7.93472 50.4665 7.71839C50.6355 7.50882 50.8315 7.31953 51.0546 7.16404H49.3916L49.3983 7.1708C49.6214 7.46825 49.6755 7.86036 49.547 8.2119L48.5735 10.7809C48.5127 10.9431 48.4586 11.0986 48.4113 11.2608C48.364 11.1054 48.3167 10.9431 48.2558 10.7809L47.262 8.2119C47.2147 8.08345 47.1877 7.94824 47.1877 7.8198C47.1877 7.58994 47.262 7.36009 47.404 7.16404H45.4029C45.8491 7.47501 46.2006 7.91444 46.3967 8.42823ZM65.2515 6.43391C65.576 6.43391 65.8396 6.17026 65.8396 5.84576C65.8396 5.52126 65.576 5.2576 65.2515 5.2576C64.927 5.2576 64.6633 5.52126 64.6633 5.84576C64.6633 6.17026 64.927 6.43391 65.2515 6.43391ZM50.8112 8.92174C51.1222 7.8198 52.1904 7.02207 53.3194 7.02207C54.4483 7.02207 55.4354 7.8198 55.7463 8.92174C55.7937 9.07723 55.8207 9.24624 55.841 9.40849H51.8726C51.8726 9.41525 51.8726 9.42201 51.8726 9.42877V9.44905C51.8726 9.46934 51.8726 9.48286 51.8659 9.50314C51.8659 9.52342 51.8659 9.5437 51.8659 9.56398C51.8659 9.58426 51.8659 9.59778 51.8659 9.61806C51.8659 9.63835 51.8659 9.65187 51.8659 9.67215C51.8659 9.69243 51.8659 9.70595 51.8659 9.72623C51.9132 10.8214 52.5892 11.7003 53.4951 11.7746C53.5357 11.7746 53.5763 11.7814 53.6168 11.7814C54.3807 11.7814 55.0365 11.2 55.2934 10.382H55.7734C55.4894 11.5313 54.5159 12.3763 53.3599 12.3763C51.9808 12.3763 50.7098 11.173 50.7098 9.69243C50.7098 9.59102 50.7166 9.49638 50.7234 9.40173C50.7301 9.23948 50.7639 9.07723 50.8112 8.92174ZM51.9402 8.92174H54.6579C54.4619 8.11725 54.0427 7.52234 53.4072 7.46825C53.3734 7.46825 53.3329 7.46149 53.2991 7.46149C52.6163 7.46149 52.1566 8.06993 51.9402 8.92174ZM56.2601 12.0856L56.0844 12.2343H58.2207L58.0043 12.0856C57.7001 11.876 57.5176 11.5245 57.5176 11.1527V8.69189C58.4302 7.82656 59.5322 8.13077 59.5322 8.13077V6.96798C58.0246 6.96798 57.4567 8.16458 57.4567 8.16458L57.3553 7.00855L56.1249 7.57642L56.3615 7.84008C56.5508 8.04965 56.6522 8.32007 56.6522 8.59724V11.2203C56.659 11.5515 56.5103 11.8693 56.2601 12.0856ZM51.3183 19.8601L50.2434 18.312L51.3115 16.9937C51.5887 16.6489 51.9064 16.3379 52.2512 16.0675L52.3864 15.9593H50.5543C50.8721 16.2297 50.9262 16.6962 50.676 17.0275C50.4394 17.3452 50.2028 17.663 49.9594 17.9807L49.2901 16.9937C49.0738 16.6692 49.1211 16.2365 49.4051 15.9729L49.4254 15.9526H47.1606L47.1944 15.9796C47.6203 16.2771 47.9854 16.6489 48.2761 17.0748L49.3645 18.65L48.3031 20.0021C48.0192 20.3671 47.6879 20.6916 47.3229 20.9756L47.262 21.0229H49.0873L49.0806 21.0161C48.7358 20.7525 48.6682 20.2657 48.9251 19.9209C49.1617 19.6032 49.3983 19.2787 49.6349 18.961L50.3651 20.0156C50.5814 20.3266 50.5476 20.7457 50.2772 21.0161L50.2704 21.0229H52.5284L52.5216 21.0161C52.0552 20.7187 51.6428 20.3198 51.3183 19.8601ZM65.6841 11.1865V7.00855L64.2374 7.57642L64.4673 7.79951C64.6904 8.01585 64.8121 8.30655 64.8121 8.61752V11.2203C64.8121 11.5515 64.6633 11.8693 64.4132 12.0856L64.2374 12.2343H66.3196L66.1303 12.0856C65.8464 11.8693 65.6841 11.538 65.6841 11.1865ZM62.0673 18.3593C62.0673 18.3796 62.0673 18.3931 62.0673 18.4134C62.0673 18.4336 62.0673 18.4472 62.0673 18.4674C62.0673 18.4877 62.0673 18.5012 62.0673 18.5215C62.1146 19.6167 62.7907 20.4956 63.6966 20.5699C63.7371 20.5699 63.7777 20.5767 63.8183 20.5767C64.5822 20.5767 65.238 19.9953 65.4949 19.1773H65.9748C65.6909 20.3266 64.7174 21.1716 63.5614 21.1716C62.1823 21.1716 60.9113 19.9683 60.9113 18.4877C60.9113 18.3863 60.9181 18.2917 60.9248 18.197C60.9383 18.028 60.9721 17.8658 61.0195 17.7103C61.3304 16.6083 62.3986 15.8106 63.5276 15.8106C64.6566 15.8106 65.6436 16.6083 65.9546 17.7103C66.0019 17.8658 66.0289 18.0348 66.0492 18.197H62.0808C62.0808 18.2038 62.0808 18.2105 62.0808 18.2173V18.2376C62.0808 18.2579 62.0808 18.2714 62.0808 18.2917C62.0673 18.3255 62.0673 18.339 62.0673 18.3593ZM62.1485 17.717H64.8661C64.6633 16.9125 64.2509 16.3176 63.6087 16.2635C63.5749 16.2635 63.5411 16.2568 63.5005 16.2568C62.8245 16.2568 62.358 16.8652 62.1485 17.717ZM73.3234 7.15727C73.6479 7.45473 73.7628 7.91444 73.6209 8.32683C73.3369 9.13808 72.6136 11.2068 72.546 11.4434C72.4851 11.2135 71.4508 8.37415 71.4508 8.37415C71.2885 7.93472 71.4237 7.44797 71.7888 7.15051L69.8621 7.14375H68.3072V5.33873L67.4216 6.11617V7.15051H66.563V7.68459H67.4216V11.2068C67.4216 11.7544 67.6987 12.3222 68.6317 12.3222C69.0576 12.3222 69.5308 12.1667 69.9297 11.8558L69.8418 11.6056C68.7331 11.8625 68.3139 11.68 68.3139 10.9363V7.69135H70.2339L71.9443 12.2343H72.2688C72.2688 12.2343 71.586 13.7352 70.4908 13.7352L70.91 14.4788C71.9172 14.1881 72.5798 12.6873 73.1612 11.1392L74.324 8.02937C74.4186 7.77923 74.5673 7.55614 74.7634 7.38037L75 7.16404L73.3234 7.15727ZM59.3294 19.7519V16.5137H60.6274V15.9661H59.3294V14.1543L58.4437 14.9317V15.9661H57.5852V16.5137H58.4437V20.0291C58.4437 20.5767 58.7209 21.1446 59.6539 21.1446C60.0798 21.1446 60.553 20.9891 60.9519 20.6781L60.864 20.428C59.7485 20.6849 59.3294 20.4956 59.3294 19.7519ZM35.3975 17.7711C35.3975 19.5356 33.9846 21.1243 32.1796 21.1243C30.9492 21.1243 30.2934 20.482 30.2934 19.1638C30.2934 17.3993 31.7063 15.8106 33.5114 15.8106C34.7485 15.8106 35.3975 16.4528 35.3975 17.7711ZM34.3834 17.2641C34.3834 16.588 34.1739 16.2095 33.5114 16.2162C32.2404 16.223 31.321 18.0551 31.321 19.6776C31.321 20.3536 31.5306 20.7322 32.1931 20.7254C33.4573 20.7119 34.3834 18.8798 34.3834 17.2641ZM67.8002 16.9396L67.6988 15.7836L66.4684 16.3514L66.705 16.6151C66.8943 16.8247 66.9957 17.0951 66.9957 17.3723V19.9953C66.9957 20.3266 66.8469 20.6443 66.5968 20.8606L66.421 21.0094H68.5573L68.341 20.8606C68.0368 20.6511 67.8542 20.2995 67.8542 19.9277V17.4669C68.7669 16.6016 69.8688 16.9058 69.8688 16.9058V15.7362C68.368 15.743 67.8002 16.9396 67.8002 16.9396ZM36.7699 15.3374C36.7293 15.5402 36.6955 15.743 36.6549 15.9526H35.6882V16.4461L35.6814 16.4664H36.5603L35.7423 20.7863C35.5936 21.5772 35.411 22.26 34.5254 23.2606L34.7079 23.4161C35.7964 22.7738 36.3778 22.0775 36.5671 21.0702L37.4527 16.4731L38.9805 16.4596V15.9526H37.5541C37.838 14.4923 37.9056 13.3295 38.6898 13.3295C38.9467 13.3295 39.4132 13.4783 39.7715 13.7352L40.123 13.0862C39.9608 12.9171 39.4943 12.7955 39.1969 12.7955C37.9867 12.7955 37.0538 13.8298 36.7699 15.3374ZM40.9343 12.0856L40.7585 12.2343H42.8069L42.6244 12.0856C42.3607 11.8693 42.2052 11.5448 42.2052 11.2068V8.70541C42.2052 7.70487 41.8469 7.00855 40.6774 7.00855C40.069 7.00855 39.474 7.27896 39.0549 7.79275C39.0143 7.52234 38.9535 7.00855 38.9535 7.00855L37.6284 7.57642L37.8786 7.82656C38.0881 8.03613 38.2098 8.32683 38.2098 8.62428V11.2135C38.2098 11.5448 38.0611 11.8625 37.811 12.0789L37.6352 12.2276H39.7106L39.5214 12.0856C39.2374 11.8693 39.0752 11.538 39.0752 11.1797V8.46879C39.2171 8.18486 39.7106 7.70487 40.292 7.70487C41.1236 7.70487 41.3467 8.11725 41.3467 8.8609V11.2C41.3467 11.5515 41.1912 11.8693 40.9343 12.0856ZM53.4681 18.3593C53.4681 18.3796 53.4681 18.3931 53.4681 18.4134C53.4681 18.4336 53.4681 18.4472 53.4681 18.4674C53.4681 18.4877 53.4681 18.5012 53.4681 18.5215C53.5154 19.6167 54.1914 20.4956 55.0973 20.5699C55.1379 20.5699 55.1785 20.5767 55.219 20.5767C55.983 20.5767 56.6387 19.9953 56.8956 19.1773H57.3756C57.0917 20.3266 56.1182 21.1716 54.9621 21.1716C53.583 21.1716 52.3121 19.9683 52.3121 18.4877C52.3121 18.3863 52.3188 18.2917 52.3256 18.197C52.3391 18.028 52.3729 17.8658 52.4202 17.7103C52.7312 16.6083 53.7993 15.8106 54.9283 15.8106C56.0573 15.8106 57.0443 16.6083 57.3553 17.7103C57.4026 17.8658 57.4297 18.0348 57.45 18.197H53.4748C53.4748 18.2038 53.4748 18.2105 53.4748 18.2173V18.2376C53.4748 18.2579 53.4748 18.2714 53.4681 18.2917C53.4681 18.3255 53.4681 18.339 53.4681 18.3593ZM53.5492 17.717H56.2669C56.0708 16.9125 55.6517 16.3176 55.0162 16.2635C54.9824 16.2635 54.9419 16.2568 54.9081 16.2568C54.2253 16.2568 53.7588 16.8652 53.5492 17.717ZM44.2739 20.5564C43.99 20.5564 43.6182 20.5564 43.1449 20.5564L43.1585 17.2708H44.0914C44.4362 17.2708 44.7742 17.3114 45.1122 17.3858L46.0722 17.6021V16.561L45.0581 16.7706C44.7472 16.8382 44.4362 16.8652 44.1184 16.8652H43.1449V14.0732C43.679 14.0732 44.0914 14.0732 44.3956 14.0732C44.808 14.0732 45.2136 14.1678 45.5854 14.3504L46.7212 14.9047L46.6063 13.6405H41.4008L41.6576 13.823C41.9619 14.0326 42.1444 14.3842 42.1444 14.756V19.9209C42.1444 20.2928 41.9619 20.6375 41.6576 20.8471L41.4008 21.0296H46.7753L46.8632 19.7114L45.7071 20.2454C45.2474 20.4482 44.7674 20.5564 44.2739 20.5564Z" fill="white"/>
    </g>
    <defs>
        <clipPath id="clip0_178_1028">
            <rect width="75" height="25.4529" fill="white" transform="translate(0 0.214355)"/>
        </clipPath>
    </defs>
</svg>
