<svg width="25" height="26" viewBox="0 0 25 26" fill="none"
    xmlns="http://www.w3.org/2000/svg">
    <path d="M2.27273 0.891052C1.01705 0.891052 0 1.9081 0 3.16378V23.6183C0 24.874 1.01705 25.8911 2.27273 25.8911H22.7273C23.983 25.8911 25 24.874 25 23.6183V3.16378C25 1.9081 23.983 0.891052 22.7273 0.891052H2.27273ZM5.28232 6.57287H10.5225L13.5809 10.9452L17.3651 6.57287H19.0141L14.3222 12.0061L20.0617 20.2092H14.8216L11.428 15.3575L7.23766 20.2092H5.56197L10.6823 14.2944L5.28232 6.57287ZM7.81694 7.91786L15.4918 18.8576H17.5249L9.84774 7.91786H7.81694Z" fill="white"/>
</svg>
