<svg width="75" height="22" viewBox="0 0 75 22" fill="none"
    xmlns="http://www.w3.org/2000/svg">
    <g clip-path="url(#clip0_178_940)">
        <path d="M20.8137 7.53896H18.842V10.4253H20.8137C21.7278 10.4253 22.391 10.0456 22.391 9.01962C22.391 7.99462 21.7104 7.53613 20.8137 7.53613V7.53896Z" fill="white"/>
        <path fill-rule="evenodd" clip-rule="evenodd" d="M0.23584 20.8336H29.7061V0.808105H0.23584V20.8336ZM15.8358 16.4548H12.2717L10.1566 12.7006L7.85188 16.4548H4.47452L8.48254 10.5392L4.80801 5.19018H8.26367L10.1599 8.69254L12.4934 5.19018H15.8387L11.8599 10.5392L15.8354 16.4543L15.8358 16.4548ZM21.2575 12.7006H18.8415V16.4548H15.9085V5.19018H21.2575C23.3552 5.19018 25.3269 6.15103 25.3269 8.81848C25.3269 11.4855 23.7321 12.7006 21.2575 12.7006ZM39.1594 5.3482H34.2689V16.4307H36.209V12.1774H39.1594C39.8165 12.201 40.4707 12.0869 41.0816 11.8444C41.5283 11.6596 41.9233 11.3689 42.2325 10.9973C42.4944 10.6714 42.6827 10.2928 42.7844 9.88735C42.8783 9.52509 42.9278 9.1515 42.9306 8.77697C42.9275 8.39946 42.8784 8.02374 42.7844 7.65811C42.6834 7.24967 42.4951 6.86796 42.2325 6.53924C41.9219 6.16773 41.5274 5.87541 41.0816 5.68641C40.472 5.4388 39.8169 5.32337 39.1594 5.34773V5.3482ZM39.0481 10.5944H36.2061V6.93122H39.0773C39.3198 6.93122 39.5656 6.95763 39.8047 7.01046C40.024 7.05716 40.2316 7.15669 40.4094 7.29631C40.5953 7.44672 40.7401 7.64179 40.8302 7.86329C40.9415 8.14962 40.9939 8.45622 40.9849 8.76282C40.9964 9.06496 40.9354 9.36547 40.8071 9.63924C40.6982 9.85917 40.539 10.0504 40.3424 10.1973C40.1544 10.3375 39.9413 10.4406 39.7146 10.501C39.4981 10.5624 39.2731 10.5944 39.0481 10.5944Z" fill="white"/>
        <path fill-rule="evenodd" clip-rule="evenodd" d="M46.7283 16.6479C46.1411 16.6582 45.5579 16.5497 45.0137 16.3291C44.5317 16.132 44.0974 15.8342 43.7401 15.4555C43.3871 15.0697 43.1175 14.6152 42.9481 14.1206C42.5858 13.016 42.5858 11.8246 42.9481 10.7201C43.1174 10.2254 43.3868 9.77101 43.7396 9.38518C44.0962 9.00555 44.5306 8.70753 45.0132 8.5116C46.1172 8.08793 47.3389 8.08793 48.4429 8.5116C48.9244 8.70968 49.3586 9.00739 49.717 9.38518C50.0697 9.77102 50.3392 10.2254 50.5085 10.7201C50.8708 11.8248 50.8708 13.0163 50.5085 14.121C50.3399 14.616 50.0703 15.0705 49.717 15.4559C49.3602 15.8354 48.9256 16.1332 48.4429 16.3291C47.8983 16.5482 47.3153 16.6565 46.7283 16.6474V16.6479ZM46.7297 15.2512C47.0869 15.2599 47.4401 15.1743 47.7538 15.0031C48.0379 14.8429 48.2816 14.6199 48.4665 14.3512C48.6553 14.0745 48.7947 13.7671 48.8783 13.4427C49.0566 12.7688 49.0566 12.0601 48.8783 11.3861C48.7989 11.0603 48.6592 10.7521 48.4665 10.4776C48.2789 10.213 48.0357 9.99275 47.7538 9.83235C47.1108 9.50216 46.3481 9.50216 45.7056 9.83235C45.4226 9.99273 45.1802 10.2121 44.9901 10.4776C44.7997 10.7535 44.6603 11.0612 44.5783 11.3861C44.403 12.0605 44.403 12.7684 44.5783 13.4427C44.6599 13.7673 44.8 14.0739 44.9901 14.3512C45.1769 14.6201 45.4193 14.8418 45.7056 15.0031C46.019 15.175 46.3724 15.2606 46.7297 15.2512Z" fill="white"/>
        <path d="M52.3576 8.40381H50.4792L52.9623 16.4283H54.8231L56.2986 10.4689H56.3278L57.8208 16.4283H59.6344L62.15 8.40381H60.3505L58.7203 14.3953H58.6882L57.2448 8.40381H55.4599L53.9557 14.3953H53.9236L52.3576 8.40381Z" fill="white"/>
        <path fill-rule="evenodd" clip-rule="evenodd" d="M63.5198 12.876C63.5198 13.1798 63.5636 13.4835 63.6514 13.7755C63.733 14.0534 63.8674 14.3104 64.0486 14.535C64.2297 14.7571 64.4575 14.9326 64.7146 15.0552C65.0165 15.1913 65.3449 15.2581 65.6759 15.251C66.117 15.271 66.5536 15.1547 66.9264 14.918C67.2614 14.6666 67.5086 14.316 67.633 13.9161H69.3099C69.1443 14.7309 68.6782 15.4536 68.0042 15.9406C67.6779 16.1766 67.3133 16.3544 66.9264 16.4661C66.5206 16.5866 66.0992 16.6466 65.6759 16.6444C65.1017 16.6561 64.5312 16.5509 63.999 16.335C63.529 16.1389 63.108 15.8416 62.766 15.4642C62.4211 15.0781 62.1622 14.6231 62.0066 14.1293C61.8309 13.5769 61.7442 13 61.7495 12.4203C61.7495 11.8685 61.8401 11.3189 62.0212 10.7991C62.1929 10.3041 62.4567 9.84609 62.7986 9.44911C63.1489 9.04319 63.5845 8.71961 64.0743 8.50149C64.5641 8.28338 65.096 8.1761 65.632 8.18732C66.2228 8.17758 66.8068 8.31402 67.332 8.58449C67.8206 8.83842 68.2475 9.19654 68.5825 9.63355C68.9191 10.0809 69.1643 10.5901 69.3042 11.1321C69.4551 11.7014 69.4948 12.2945 69.4212 12.8788H63.5231L63.5198 12.876ZM67.6504 11.7104C67.6299 11.4345 67.57 11.1629 67.4726 10.9038C67.3815 10.6557 67.2447 10.4269 67.0693 10.2293C66.8953 10.0341 66.6837 9.87606 66.4471 9.76468C66.1933 9.64169 65.914 9.58058 65.632 9.58638C65.3415 9.58358 65.0534 9.63925 64.7849 9.75006C64.5396 9.85525 64.3174 10.0071 64.1335 10.2001C63.9495 10.3958 63.8004 10.6265 63.6981 10.8746C63.588 11.1409 63.5276 11.4252 63.5198 11.7133H67.6504V11.7104Z" fill="white"/>
        <path d="M71.7202 8.40355H70.058V16.4286H71.8283V12.6106C71.82 12.2105 71.8772 11.8117 71.9976 11.43C72.0963 11.1154 72.2551 10.8229 72.4651 10.5686C72.6552 10.3408 72.8886 10.1625 73.1575 10.0399C73.4231 9.92107 73.7109 9.86028 74.0019 9.86157C74.1273 9.86157 74.2561 9.87006 74.3816 9.88516C74.5132 9.90261 74.6386 9.92006 74.7641 9.94035V8.23421L74.7094 8.22667C74.6448 8.21723 74.5835 8.20921 74.5217 8.20214C74.3816 8.18799 74.2382 8.18799 74.0953 8.18799C73.8236 8.18799 73.5547 8.23987 73.3037 8.34223C73.0489 8.44377 72.8106 8.58272 72.5967 8.7545C72.3909 8.9181 72.2082 9.10865 72.0533 9.32101C71.9132 9.5111 71.8108 9.72667 71.7523 9.9578H71.7202V8.40355Z" fill="white"/>
    </g>
    <defs>
        <clipPath id="clip0_178_940">
            <rect width="75" height="20.283" fill="white" transform="translate(0 0.808105)"/>
        </clipPath>
    </defs>
</svg>
